<?xml version="1.0" encoding="utf-8"?>
<!-- Generator: Adobe Illustrator 19.0.0, SVG Export Plug-In . SVG Version: 6.00 Build 0)  -->
<svg version="1.1" id="Layer_1" xmlns="http://www.w3.org/2000/svg" xmlns:xlink="http://www.w3.org/1999/xlink" x="0px" y="0px"
	 viewBox="0 0 361.8 241.9" style="enable-background:new 0 0 361.8 241.9;" xml:space="preserve">
<style type="text/css">
	.st0{fill:#E6AB6E;}
	.st1{fill:url(#XMLID_73_);}
	.st2{fill:#FFB82B;}
	.st3{fill:#F5D5A4;}
	.st4{fill:url(#XMLID_74_);}
	.st5{fill:#FFD336;}
	.st6{fill:url(#SVGID_1_);}
	.st7{fill:url(#XMLID_75_);}
	.st8{fill:url(#XMLID_76_);}
	.st9{fill:url(#XMLID_77_);}
</style>
<g>
	<g>
		<path id="XMLID_19_" class="st0" d="M36.7,122.9c5.3-3.8,13-2.3,21.4,2.3c17.6-6.1,58,35.9,58,35.9c14.5-3.8,44.3,0.8,44.3,0.8
			c6.9-4.6,27.5-5.3,48.1-4.6c5.3-0.8,9.2-1.5,9.2-1.5l1.5,1.5c3.1,0,6.9,0.8,9.9,0.8c4.6-0.8,7.6-0.8,7.6-0.8l1.5,1.5
			c10.7,0.8,17.6,1.5,17.6,1.5l55.7,60.3c0,0-13.7-0.8-31.3-2.3c-26.7,3.1-91.6,11.4-106.8,13.7c-8.4,1.5-15.3,0-20.6-1.5
			c-17.6,2.3-30.5-6.1-30.5-6.1s-20.6-11.4-42.7-22.9c-22.1-11.4-38.9-35.9-38.9-35.9s-37.4-34.3-23.7-44.3
			C23,117.5,29.8,119,36.7,122.9z"/>
	</g>
	<g>
		
			<linearGradient id="XMLID_73_" gradientUnits="userSpaceOnUse" x1="-45.7458" y1="157.3659" x2="126.4153" y2="157.3659" gradientTransform="matrix(-1 0 0 -1 167.7347 243.603)">
			<stop  offset="0" style="stop-color:#DD3F18"/>
			<stop  offset="0.4157" style="stop-color:#E74A1B"/>
			<stop  offset="1" style="stop-color:#FD6120"/>
		</linearGradient>
		<path id="XMLID_18_" class="st1" d="M126.7,0C174.1-0.8,213,37.4,213,84.7s-38.2,87-85.5,87.8s-86.2-37.4-86.2-84.7
			C41.3,40.5,79.4,0.8,126.7,0z"/>
		<g>
			<path id="XMLID_17_" class="st2" d="M41.3,87.8c0,47.3,38.9,85.5,86.2,84.7c47.3-0.8,86.2-39.7,85.5-87.8
				c0-47.3-38.9-85.5-86.2-84.7C79.4,0.8,41.3,40.5,41.3,87.8z"/>
		</g>
		<path id="XMLID_16_" class="st3" d="M127.5,167.9c46.5-0.8,84.7-38.9,85.5-85.5c0,0.8,0,1.5,0,2.3c0,47.3-38.2,87-85.5,87.8
			s-86.2-37.4-86.2-84.7c0-0.8,0-1.5,0-2.3C42.8,132,81,169.4,127.5,167.9z"/>
		<path id="XMLID_15_" class="st2" d="M126.7,5.4C80.2,6.1,42.8,43.5,41.3,90.1c0-0.8,0-1.5,0-2.3c0-47.3,38.2-87,85.5-87.8
			S213,37.4,213,84.7c0,0.8,0,1.5,0,3.1C211.4,41.2,174.1,4.6,126.7,5.4z"/>
		<g>
			
				<linearGradient id="XMLID_74_" gradientUnits="userSpaceOnUse" x1="-294.0844" y1="88.9698" x2="-294.0844" y2="225.2583" gradientTransform="matrix(1 0 0 -1 421.9714 243.603)">
				<stop  offset="0" style="stop-color:#FF7B00"/>
				<stop  offset="2.419180e-002" style="stop-color:#FF7D01"/>
				<stop  offset="0.6742" style="stop-color:#FFAB0F"/>
				<stop  offset="1" style="stop-color:#FFBD14"/>
			</linearGradient>
			<path id="XMLID_14_" class="st4" d="M59.6,87.8c0,38.2,30.5,67.9,68.7,67.1c37.4-0.8,67.9-31.3,67.9-69.4
				c0-37.4-30.5-67.9-68.7-67.1C89.4,19.1,58.8,49.6,59.6,87.8z"/>
		</g>
		<path id="XMLID_13_" class="st3" d="M127.5,151.1c37.4-0.8,67.1-30.5,67.9-67.9c0,0.8,0,1.5,0,1.5c0,37.4-30.5,68.7-67.9,69.4
			s-68.7-29-68.7-67.1c0-0.8,0-0.8,0-1.5C60.4,122.9,90.9,151.9,127.5,151.1z"/>
		<g>
			<path id="XMLID_12_" class="st3" d="M127.5,138.1c18.3,0,35.1-10.7,43.5-27.5c3.8-7.6,6.1-16,6.1-25.2
				c0-28.2-21.4-50.4-48.8-50.4c-29,0.8-50.4,23.7-50.4,51.9c0,28.2,21.4,50.4,48.8,50.4h0.8V138.1z"/>
			<path id="XMLID_11_" class="st5" d="M80.2,87c0,25.9,21.4,47.3,48.1,46.5c25.9-0.8,47.3-22.1,47.3-48.1s-21.4-47.3-47.3-46.5
				C100.8,39.7,79.4,61.1,80.2,87z"/>
		</g>
		<path id="XMLID_10_" class="st3" d="M80.2,89.3L80.2,89.3c1.5,22.1,22.1,39.7,47.3,39.7c25.2,0,45.8-18.3,47.3-41.2l0,0
			c-1.5,25.2-21.4,45-47.3,45.8C102.3,134.3,81.7,114.5,80.2,89.3z"/>
		<path id="XMLID_9_" class="st2" d="M127.5,42.7c-25.9,0.8-45.8,20.6-47.3,46.5c0-0.8,0-0.8,0-1.5c0-25.9,21.4-48.1,47.3-48.1
			c25.9-0.8,47.3,20.6,47.3,46.5c0,0.8,0,1.5,0,2.3C173.3,62.6,152.7,42,127.5,42.7z"/>
		<g>
			
				<linearGradient id="SVGID_1_" gradientUnits="userSpaceOnUse" x1="-396.1204" y1="118.4359" x2="-396.1204" y2="195.9859" gradientTransform="matrix(-1 0 0 -1 -268.2262 243.603)">
				<stop  offset="0" style="stop-color:#FF7B00"/>
				<stop  offset="2.419180e-002" style="stop-color:#FF7D01"/>
				<stop  offset="0.6742" style="stop-color:#FFAB0F"/>
				<stop  offset="1" style="stop-color:#FFBD14"/>
			</linearGradient>
			<path class="st6" d="M122.9,117.5c-3.1,0-5.3-0.8-6.9-0.8c-2.3-0.8-3.8-1.5-4.6-2.3l3.1-9.2c0.8,0.8,2.3,1.5,3.8,1.5
				c1.5,0.8,3.1,0.8,5.3,1.5V89.3c-1.5-0.8-3.1-2.3-4.6-3.1s-3.1-2.3-3.8-3.8s-2.3-3.1-3.1-5.3c-0.8-1.5-0.8-3.8-0.8-6.9
				c0-4.6,0.8-7.6,3.1-10.7c2.3-2.3,5.3-4.6,9.2-5.3v-7.6h8.4v7.6c2.3,0,3.8,0.8,5.3,0.8c1.5,0.8,3.1,0.8,4.6,1.5l-3.1,9.2
				c-0.8-0.8-1.5-0.8-3.1-1.5c-1.5,0-2.3-0.8-3.8-0.8v16.8c1.5,0.8,3.1,2.3,4.6,3.1s3.1,2.3,3.8,3.8s2.3,3.1,3.1,4.6
				c0.8,1.5,0.8,3.8,0.8,6.9c0,4.6-1.5,9.2-3.1,11.4c-2.3,3.1-5.3,4.6-9.2,5.3v8.4h-8.4L122.9,117.5z M126.7,64.9
				c-2.3,0-3.8,0.8-4.6,2.3c-0.8,0.8-1.5,2.3-1.5,3.8s0.8,3.8,1.5,4.6c0.8,1.5,2.3,2.3,3.8,3.8L126.7,64.9z M127.5,108.4
				c1.5-0.8,3.1-0.8,3.8-2.3c0.8-1.5,1.5-3.1,1.5-4.6c0-2.3-0.8-3.8-1.5-4.6c-0.8-1.5-2.3-2.3-3.8-3.8V108.4z"/>
			<path class="st3" d="M142.8,93.1c-0.8-1.5-1.5-3.8-3.1-4.6c-1.5-1.5-2.3-3.1-3.8-3.8c-1.5-1.5-3.1-2.3-4.6-3.1V64.9
				c1.5,0,3.1,0.8,3.8,0.8c1.5,0.8,2.3,0.8,3.1,1.5l3.1-9.2c-1.5-0.8-3.1-1.5-4.6-1.5c-1.5-0.8-3.1-0.8-5.3-0.8v-7.6h-8.4v7.6
				c-3.8,0.8-6.9,2.3-9.2,5.3c-2.3,2.3-3.1,6.1-3.1,10.7c0,2.3,0,4.6,0.8,6.9c0.8,2.3,1.5,3.8,3.1,5.3c0.8,1.5,2.3,2.3,3.8,3.8
				c1.5,0.8,3.1,2.3,4.6,3.1v19.1c-2.3,0-3.8-0.8-5.3-1.5s-3.1-0.8-3.8-1.5l-3.1,9.2c1.5,0.8,3.1,1.5,4.6,2.3
				c2.3,0.8,4.6,0.8,6.9,0.8v7.6h8.4v-8.4c3.8-0.8,6.9-3.1,9.2-5.3c2.3-3.1,3.1-6.9,3.1-11.4C143.5,97.7,143.5,95.4,142.8,93.1z
				 M139,108.4c-2.3,2.3-4.6,4.6-8.4,4.6l-1.5,0.8v7.6h-3.8v-7.6h-2.3c-2.3,0-4.6-0.8-6.9-0.8c-0.8,0-1.5,0-1.5-0.8l0.8-2.3
				c0.8,0,1.5,0.8,2.3,0.8c1.5,0.8,3.1,0.8,5.3,1.5h2.3V86.2c0,0-3.8-3.1-5.3-3.8s-2.3-2.3-3.8-3.8c-0.8-1.5-1.5-2.3-2.3-3.8
				c-0.8-1.5-0.8-2.3-0.8-4.6c0-3.1,0.8-5.3,2.3-6.9c1.5-2.3,4.6-3.8,7.6-4.6h1.5v-7.6h3.8v7.6h2.3c1.5,0,3.8,0.8,5.3,0.8
				c0.8,0,0.8,0,1.5,0.8l-0.8,1.5c-0.8,0-0.8-0.8-1.5-0.8c-1.5,0-2.3-0.8-3.8-0.8l-2.3-0.8v24.4l1.5,0.8c1.5,0.8,3.1,1.5,4.6,3.1
				c1.5,1.5,2.3,2.3,3.8,3.1c0.8,1.5,1.5,2.3,2.3,3.8c0.8,1.5,0.8,2.3,0.8,3.8C141.2,103.8,140.5,106.1,139,108.4z"/>
		</g>
	</g>
	<g>
		<g>
			
				<linearGradient id="XMLID_75_" gradientUnits="userSpaceOnUse" x1="-0.9424" y1="3.1527" x2="-0.9424" y2="122.8671" gradientTransform="matrix(-1 0 0 -1 167.7347 243.603)">
				<stop  offset="2.424240e-002" style="stop-color:#F7BB7C"/>
				<stop  offset="1" style="stop-color:#FFD1A1"/>
			</linearGradient>
			<path id="XMLID_3_" class="st7" d="M337.4,163.3c0,0-19.1-13.7-30.5-18.3c-22.1-9.9-41.2-29.8-76.3-21.4
				c-34.3,8.4-61,13.7-83.2,14.5c-9.9,0-43.5-2.3-41.2,19.1c2.3,19.8,36.6,13.7,44.3,14.5s50.4,1.5,50.4,1.5s-55.7,9.9-71.7,19.8
				c0,0-41.2-14.5-61.8-17.6c0,0-44.3-62.6-64.1-48.1c-13.7,9.9,22.1,45,22.1,45s16,24.4,37.4,36.6c21.4,12.2,42,24.4,42,24.4
				s13,9.2,32,6.9c19.1-2.3,123.6-11.4,123.6-11.4s27.5,0,37.4,3.1c9.2,3.1,22.1,9.2,22.1,9.2L337.4,163.3z"/>
		</g>
	</g>
	<g>
		<g>
			
				<linearGradient id="XMLID_76_" gradientUnits="userSpaceOnUse" x1="-132.2294" y1="2.0142" x2="-132.2294" y2="118.7624" gradientTransform="matrix(-1 0 0 -1 167.7347 243.603)">
				<stop  offset="0" style="stop-color:#CDEFFA"/>
				<stop  offset="1" style="stop-color:#FAFAFA"/>
			</linearGradient>
			<polygon id="XMLID_2_" class="st8" points="312.2,241.9 312.2,125.2 287.8,125.2 287.8,241.9 			"/>
		</g>
	</g>
	<g>
		<g>
			
				<linearGradient id="XMLID_77_" gradientUnits="userSpaceOnUse" x1="-169.2378" y1="2.0815" x2="-169.2378" y2="119.0143" gradientTransform="matrix(-1 0 0 -1 167.7347 243.603)">
				<stop  offset="0" style="stop-color:#062A54"/>
				<stop  offset="0.2719" style="stop-color:#072C58"/>
				<stop  offset="0.5179" style="stop-color:#083263"/>
				<stop  offset="0.7539" style="stop-color:#0B3C75"/>
				<stop  offset="0.9825" style="stop-color:#104B8F"/>
				<stop  offset="1" style="stop-color:#104C91"/>
			</linearGradient>
			<polygon id="XMLID_1_" class="st9" points="361.8,241.1 361,124.4 312.2,125.2 312.2,241.9 			"/>
		</g>
	</g>
</g>
</svg>
