<?xml version="1.0" encoding="utf-8"?>
<!-- Generator: Adobe Illustrator 19.0.0, SVG Export Plug-In . SVG Version: 6.00 Build 0)  -->
<svg version="1.1" id="Layer_1" xmlns="http://www.w3.org/2000/svg" xmlns:xlink="http://www.w3.org/1999/xlink" x="0px" y="0px"
	 viewBox="0 0 172.4 238.5" style="enable-background:new 0 0 172.4 238.5;" xml:space="preserve">
<style type="text/css">
	.st0{fill:none;stroke:#2C343F;stroke-width:2.9866;stroke-linecap:round;stroke-linejoin:round;stroke-miterlimit:10;}
	.st1{fill:#0A0400;}
	.st2{fill:#F7C7AD;}
	.st3{fill:#FFFFFF;}
	.st4{fill:#DADADA;}
	.st5{opacity:0.5;fill:#FFFFFF;enable-background:new    ;}
	.st6{fill:#EDEDED;}
	.st7{fill:#00B1C3;}
	.st8{fill:#009AB0;}
	.st9{fill:#C6C6C6;}
	.st10{fill:#DEDEDE;}
	.st11{fill:#432918;}
	.st12{fill:#20150E;}
	.st13{fill:#8F2015;}
	.st14{fill:#464F5B;}
	.st15{fill:#D42A26;}
	.st16{fill:none;stroke:#2C343F;stroke-width:3.408;stroke-linecap:round;stroke-linejoin:round;stroke-miterlimit:10;}
	.st17{fill:#232A33;}
</style>
<g>
	<g>
		<path class="st0" d="M159.6,79.6v-5.1c0,0-0.2-3.9-3.6-6.3c0,0-10.2-6.5-10.6-31.2c0,0-0.8-34.2-40.6-34.2H86.2"/>
		<path class="st0" d="M21.3,79.6v-5.1c0,0,0.2-3.9,3.6-6.3c0,0,10.2-6.5,10.6-31.2c0,0,0.8-34.2,40.6-34.2h18.5"/>
	</g>
	<g>
		<g>
			<rect x="59.7" y="76.3" class="st1" width="74.1" height="87.5"/>
			<path class="st2" d="M135.5,155.4c-20-2.3-29.8-8.2-31.5-9.3H68.4c-1.7,1.1-11.5,7-31.5,9.3c0,0-38.1,1.4-37,70.4
				c0,0,28.6,12.9,86.2,12.8c57.6,0.1,86.2-12.8,86.2-12.8C173.5,156.8,135.5,155.4,135.5,155.4z"/>
			<path class="st3" d="M36.9,155.4c0,0-38.1,1.4-37,70.4c0,0,28.6,12.9,86.2,12.8c57.6,0.1,86.2-12.8,86.2-12.8
				c1.1-69-37-70.4-37-70.4s-37.1-2.6-49.3,13.1C86.2,168.5,74.4,149.1,36.9,155.4z"/>
			<g>
				<rect x="68.1" y="126.9" class="st2" width="36.3" height="26.4"/>
				<path class="st4" d="M68.1,134.5L68.1,134.5c0.4,0.5,0.8,0.9,1.2,1.4c1.1,1.2,2.3,2.3,3.6,3.3l0.1,0.1c0.4,0.3,0.8,0.6,1.2,0.9
					c0.6,0.4,1.3,0.9,2,1.3c1,0.6,1.9,1.1,3,1.6c0.3,0.1,1.3,0.5,1.6,0.6c1,0.3,2,0.7,3,0.9c1,0.3,2.1,0.5,3.1,0.7
					c-0.3-0.1,2.7,0.4,2,0.4c2.4,0.3,4.9,0.5,7.4,0.4c1.1,0,2.1,0,3.2-0.1c0.3,0,1.9-0.3,2.1-0.3c1-0.2,2-0.5,3-0.8v-18H68.3v7.6
					C68.2,134.5,68.2,134.6,68.1,134.5z"/>
			</g>
			<path class="st2" d="M127.5,79.2c0,31.3-18.5,56.6-41.3,56.6s-41.3-25.4-41.3-56.6c0-31.3,18.5-50.9,41.3-50.9
				S127.5,47.9,127.5,79.2z"/>
			<path class="st5" d="M64.2,53.7c0-0.1,0-0.1,0-0.2C70,46.6,78.1,42.8,87,42.8c17.8,0,32.3,15.3,32.3,39.7
				c0,16.3-6.4,30.5-16,38.2C103.3,120.7,49.3,114.2,64.2,53.7z"/>
			<path class="st6" d="M79.8,123.4c-14.1-8.9-21.7-23.9-23.7-40.1c-1.8-15.2,2-32.1,11.7-44.1c3.3-4.2,7.6-7.7,12.4-10.3
				c-19.9,3.2-35.3,21.9-35.3,50.4c0,31.3,18.5,56.6,41.3,56.6c6.6,0,12.9-2.1,18.4-5.9C96,130.2,87.3,128.1,79.8,123.4z"/>
			<path class="st7" d="M66.7,147.1c-3.9,2.1-13.4,6.4-29.7,8.2c0,0-38.1,1.4-37,70.4c0,0,28.6,12.9,86.2,12.8
				c57.6,0.1,86.2-12.8,86.2-12.8c1.1-69-37-70.4-37-70.4c-16.3-1.8-25.9-6.1-29.7-8.2c0,0,20.3,45.2-19.5,85.9
				C86.2,233,47.7,193.4,66.7,147.1z"/>
			<path class="st7" d="M54.6,179.9c0,0.1,0,0.2,0,0.3c0.1,0.7,0.3,1.4,0.5,2.1c0.1,0,0.2-0.1,0.3-0.1
				C55.1,181.4,54.8,180.7,54.6,179.9z"/>
			<path class="st8" d="M135.5,155.4c-16.3-1.8-25.9-6.1-29.7-8.2c0,0,20.3,45.2-19.5,85.9c0,0-38.5-39.6-19.5-85.9
				c-3.9,2.1-13.4,6.4-29.7,8.2c0,0-6.3,16.5,7,31.1c0,0,5.8-3.1,8.9-2.2l-11,8.1c0,0,2.6,31.4,36.8,46.2h17.3
				c0,0,29.6-14.4,34.8-52.6c0,0-2.8-3.1-11.3-5.8c0,0,5.2-1.8,11.3-0.9C130.6,179.4,141.8,173.5,135.5,155.4z"/>
			<path class="st6" d="M135.5,155.4c-16.3-1.8-25.9-6.1-29.7-8.2c0,0,20.3,45.2-19.5,85.9c0,0-0.4-0.4-1-1.1l0,0
				c-4.9,1.5-10.1-1.3-14.1-3.9c-4.6-3.1-9.2-6.7-13-10.8c-3.8-4.2-7.8-9.3-8.6-15.1c-1.1-7.8,1.8-14.3,8.6-18.4
				c1.2-0.8,2.6-1.2,4-1.3c-1.3-10.8-0.4-22.8,4.7-35.3c-3.9,2.1-13.4,6.4-29.7,8.2c0,0-0.1,0.2-0.2,0.7c4.4-0.4,8.7-1.2,12.9,1.2
				c8.3,4.8,6.9,15.1,1.7,21.6c-2.2,2.7-5.3,4.7-8.6,6.2c0.4,0.5,0.8,1,1.3,1.5c0,0,5.8-3.1,8.9-2.2l-11,8.1c0,0,2.6,31.4,36.8,46.2
				h17.3c0,0,29.6-14.4,34.8-52.6c0,0-2.8-3.1-11.3-5.8c0,0,5.2-1.8,11.3-0.9C130.6,179.4,141.8,173.5,135.5,155.4z"/>
			<path class="st6" d="M135.5,155.4c-4.6-0.5-8.6-1.2-12.2-2c0.8,2.2,1.4,4.4,1.5,6.8c0.3,5.4-1.5,11.4-5.6,15.2
				c-2.5,2.3-5.4,3.9-8.4,5c0,0.3,0,0.5-0.1,0.8c15.5,16.4-3.2,49.6-23.5,50.9c-0.3,0.3-0.7,0.7-1,1c0,0,0,0-0.1-0.1v5.7h9.8
				c0,0,29.6-14.4,34.8-52.6c0,0-2.8-3.1-11.3-5.8c0,0,5.2-1.8,11.3-0.9C130.6,179.4,141.8,173.5,135.5,155.4z"/>
			<path class="st7" d="M86.2,238.6"/>
			<rect x="85.6" y="168.5" class="st9" width="1.2" height="63.6"/>
			<path class="st10" d="M66.7,147.1c0,0-16.5,6-8.5,26.5c0,0,1.9-21.7,28.3,2.4c0,0,1.8-18.3-8.3-22.2
				C78.1,153.9,66.7,152.1,66.7,147.1z"/>
			<path class="st10" d="M106.1,147.1c0,0,14.9,5.6,6.6,24c0,0-8.2-19.1-26.3,4.9c0,0-2.6-20.1,8.2-22.2
				C94.7,153.9,106.1,152.1,106.1,147.1z"/>
			<path class="st11" d="M143.9,146.1c0,0-0.8-53.2-3.5-84.3c0,0,0-0.3,0-0.9c0.3-9.8-3.9-21.7-8.3-28.6c-3.3-5-7-9.8-11.5-13.9
				c-15.5-14.2-50.9-15-60.9,6.9c-9.4,6.7-47,40.1-2.5,126l10.9-4.3l0.6-16.6c0,0-42.8-45-3.5-86.5c0,0,0,0,0.1-0.1l-0.1,0.1
				c6.9-3.5,16-4.3,23.6-3.2c21.1,3.2,25.6,26.3,34.7,41.9c1.5,2.6,3.2,5.6,4.9,7.4c1.5,12.9,2.2,29.2,1.6,50.1
				c0,0,0.7,25-17.8,45.6C112.1,185.7,153,199.3,143.9,146.1z"/>
			<g>
				<path class="st12" d="M65.3,43.9c0.7-0.4,1.4-0.8,2.2-1.2c0.7-0.4,1.5-0.7,2.3-1c1.5-0.6,3.1-1.1,4.7-1.6
					c0.8-0.2,1.6-0.4,2.4-0.5c0.8-0.2,1.7-0.2,2.5-0.4c0.8-0.1,1.7-0.1,2.5-0.2c0.4,0,0.8-0.1,1.3-0.1h1.3c0.8,0,1.7,0,2.5,0.2
					l2.5,0.3c0.8,0.2,1.7,0.4,2.5,0.6c0.8,0.2,1.6,0.5,2.5,0.8c0.8,0.3,1.6,0.5,2.4,0.9l2.3,1.1c0.8,0.4,1.5,0.8,2.2,1.3l2.1,1.4
					l0.1,0.1l0.1,0.1c0.7,0.8,1.4,1.5,2.1,2.3s1.3,1.5,2,2.4c0.6,0.8,1.3,1.6,1.9,2.4l1.8,2.5c0.6,0.9,1.1,1.7,1.7,2.6
					c0.6,0.9,1,1.8,1.5,2.7s1,1.8,1.4,2.8s0.8,2,1.2,2.9l1.1,2.7l1.2,2.8l1.2,2.8l1.2,2.7l1.3,2.7c0.4,0.9,0.9,1.8,1.3,2.7
					s0.9,1.8,1.4,2.6l0.8,1.3c0.3,0.4,0.6,0.8,0.9,1.2c-0.4-0.3-0.8-0.7-1.1-1l-1-1.1c-0.6-0.8-1.3-1.6-1.9-2.4
					c-0.6-0.8-1.2-1.7-1.7-2.5c-0.6-0.8-1.1-1.7-1.6-2.6c-1-1.7-2.1-3.5-3-5.3l-1.4-2.7l-0.7-1.4l-0.3-0.7l-0.2-0.3l-0.1-0.2v-0.1
					l0,0l0,0v-0.1c-0.4-0.9-0.8-1.7-1.2-2.6c-0.4-0.9-0.9-1.7-1.4-2.5s-1-1.7-1.6-2.5l-1.6-2.4l-1.8-2.4c-0.6-0.8-1.2-1.5-1.8-2.3
					c-0.6-0.8-1.3-1.5-1.9-2.3s-1.3-1.5-1.9-2.2l0.2,0.2l-1.9-1.3c-0.6-0.4-1.3-0.9-2-1.2c-0.7-0.4-1.4-0.7-2-1.1
					c-0.7-0.4-1.4-0.6-2.1-0.9c-0.7-0.3-1.4-0.6-2.2-0.8l-2.2-0.7L87,41.9c-0.8-0.2-1.5-0.2-2.3-0.3l-1.2-0.1c-0.4,0-0.8,0-1.2,0
					c-0.8,0-1.6-0.1-2.4-0.1s-1.6,0-2.4,0.1l-2.4,0.2c-0.8,0.1-1.6,0.2-2.4,0.3c-0.8,0.2-1.6,0.3-2.4,0.5c-0.8,0.2-1.6,0.4-2.4,0.6
					C66.8,43.4,66,43.6,65.3,43.9z"/>
			</g>
			<path class="st9" d="M58.1,30.6c0,0-45.4,33.6,3.9,118.9l6.1-2.4C68.1,147.1,18,82.1,58.1,30.6z"/>
			<g>
				<path class="st9" d="M65.3,26.8c0,0,1.3-1,3.7-2.3c1.2-0.7,2.7-1.5,4.5-2.2c0.9-0.4,1.9-0.8,2.9-1.2s2.1-0.8,3.3-1.1
					c1.2-0.4,2.4-0.7,3.6-1c0.6-0.2,1.3-0.3,2-0.4c0.7-0.1,1.3-0.2,2-0.3c2.8-0.4,5.8-0.5,8.9-0.3c0.8,0.1,1.6,0.2,2.3,0.2
					c0.8,0.1,1.6,0.3,2.4,0.4c0.8,0.1,1.6,0.3,2.4,0.6l1.2,0.3l0.6,0.2l0.6,0.2c0.8,0.3,1.5,0.6,2.3,0.9c0.8,0.3,1.5,0.7,2.3,1.1
					l1.1,0.6c0.4,0.2,0.7,0.4,1.1,0.7l2.1,1.4c2.7,2,5.2,4.2,7.3,6.8c0.5,0.6,1.1,1.2,1.6,1.9s0.9,1.3,1.3,2s0.9,1.3,1.3,2
					s0.8,1.4,1.1,2c0.4,0.7,0.7,1.3,1.1,2c0.3,0.7,0.6,1.4,0.9,2c0.6,1.3,1.2,2.6,1.6,3.9c0.4,1.3,0.9,2.6,1.3,3.8
					c0.3,1.2,0.6,2.5,0.9,3.6c0.3,1.2,0.6,2.3,0.8,3.3c0.2,1.1,0.4,2.1,0.5,3c0.2,1,0.3,1.8,0.4,2.7c0.1,0.8,0.2,1.6,0.2,2.3
					c0.1,1.4,0.2,2.5,0.3,3.2c0,0.7,0.1,1.1,0.1,1.1s-0.1-0.4-0.4-1.1c-0.2-0.7-0.6-1.7-1-3c-0.2-0.7-0.4-1.4-0.7-2.2
					c-0.3-0.8-0.6-1.6-0.9-2.5c-0.7-1.8-1.3-3.8-2.2-5.9c-0.4-1.1-0.9-2.2-1.4-3.3s-1.1-2.3-1.6-3.5s-1.2-2.4-1.9-3.6
					c-0.3-0.6-0.7-1.2-1-1.8c-0.4-0.6-0.8-1.2-1.1-1.8c-0.4-0.6-0.8-1.2-1.1-1.8c-0.4-0.6-0.9-1.1-1.3-1.7c-0.4-0.6-0.9-1.1-1.3-1.7
					c-0.5-0.5-1-1.1-1.4-1.6c-1.9-2.2-4.1-4.1-6.4-5.8l-1.8-1.2c-0.3-0.2-0.6-0.4-0.9-0.6l-1-0.5l-1-0.5c-0.3-0.2-0.6-0.4-1-0.5
					c-0.7-0.3-1.3-0.6-2-0.8c-2.7-1-5.4-1.8-8.2-2.1c-2.7-0.4-5.4-0.5-8-0.4s-5,0.3-7.3,0.7c-4.5,0.7-8.3,1.7-10.9,2.5
					c-1.3,0.4-2.3,0.7-3,1C65.6,26.7,65.3,26.8,65.3,26.8z"/>
			</g>
			<g>
				<path class="st9" d="M63.4,34.4c0,0,1.2-1,3.4-2.4c1.1-0.7,2.5-1.5,4.2-2.3s3.6-1.6,5.8-2.3c2.2-0.7,4.6-1.3,7.3-1.6
					c2.7-0.3,5.5-0.4,8.5,0s6,1.1,8.9,2.4l1.1,0.5c0.4,0.2,0.7,0.4,1.1,0.6c0.7,0.4,1.4,0.8,2.1,1.2c1.3,0.9,2.7,1.8,3.8,2.9
					c0.6,0.5,1.2,1,1.8,1.6l1.6,1.7l0.8,0.9c0.3,0.3,0.5,0.6,0.7,0.9c0.5,0.6,0.9,1.2,1.4,1.9c0.5,0.6,0.9,1.3,1.3,1.9
					c0.4,0.6,0.8,1.3,1.2,1.9l0.3,0.5l0.3,0.5c0.2,0.3,0.3,0.7,0.5,1c0.3,0.7,0.7,1.3,1,2c0.3,0.6,0.6,1.3,0.9,2s0.5,1.3,0.8,1.9
					c0.2,0.6,0.5,1.3,0.7,1.9c0.2,0.6,0.4,1.3,0.6,1.9c0.2,0.6,0.4,1.2,0.6,1.9c0.2,0.6,0.4,1.2,0.5,1.8c0.3,1.2,0.5,2.3,0.8,3.5
					c0.1,0.6,0.2,1.1,0.4,1.6c0.1,0.5,0.2,1.1,0.3,1.6c0.2,1,0.3,2,0.4,2.9c0.3,1.8,0.4,3.4,0.5,4.7s0.2,2.3,0.2,3s0.1,1.1,0.1,1.1
					s-0.1-0.4-0.3-1c-0.2-0.7-0.5-1.6-0.9-2.9c-0.4-1.2-0.8-2.8-1.4-4.5c-0.3-0.9-0.6-1.8-0.9-2.7c-0.2-0.5-0.3-1-0.5-1.5
					s-0.4-1-0.6-1.5c-0.4-1-0.8-2.1-1.2-3.2c-0.4-1.1-0.9-2.2-1.4-3.4c-0.2-0.6-0.5-1.2-0.7-1.7c-0.3-0.6-0.6-1.2-0.9-1.7
					c-0.3-0.6-0.6-1.2-0.9-1.8s-0.6-1.2-0.9-1.8s-0.7-1.2-1-1.8l-0.5-0.9l-0.3-0.4l-0.3-0.4c-0.4-0.6-0.8-1.1-1.2-1.7
					c-0.4-0.6-0.8-1.2-1.2-1.7c-0.4-0.5-0.9-1.1-1.3-1.6c-0.2-0.3-0.4-0.5-0.7-0.8l-0.7-0.7l-1.4-1.5c-0.5-0.5-1-0.9-1.6-1.4
					c-1-1-2.2-1.7-3.3-2.5c-0.6-0.4-1.2-0.7-1.8-1c-0.3-0.2-0.6-0.4-0.9-0.5L99.6,33c-0.6-0.3-1.2-0.6-1.8-0.8
					c-0.6-0.2-1.3-0.5-1.9-0.7S94.6,31.2,94,31c-0.3-0.1-0.6-0.2-1-0.3c-0.3-0.1-0.6-0.1-1-0.2c-0.6-0.1-1.3-0.3-1.9-0.3
					c-0.6-0.1-1.3-0.1-1.9-0.2c-0.6-0.1-1.3,0-1.9-0.1c-0.6,0-1.2,0-1.8,0c-2.4,0-4.8,0.3-6.9,0.7c-2.2,0.3-4.1,0.8-5.8,1.3
					s-3.2,0.9-4.5,1.4c-1.2,0.4-2.2,0.8-2.8,1C63.7,34.2,63.4,34.4,63.4,34.4z"/>
			</g>
		</g>
		<g>
			<path class="st13" d="M162,81.3c0,2-1.6,3.5-3.6,3.5l0,0c-2,0-3.6-1.6-3.6-3.5l0,0c0-2,1.6-3.5,3.6-3.5l0,0
				C160.4,77.8,162,79.4,162,81.3L162,81.3z"/>
			<g>
				<path class="st14" d="M130.1,71.1c0-5,4.1-9.1,9.1-9.1l0,0c5,0,9.1,4.1,9.1,9.1v20.4c0,5-4.1,9.1-9.1,9.1l0,0
					c-5,0-9.1-4.1-9.1-9.1V71.1z"/>
				<path class="st9" d="M141.1,71.6c3.9,4.9,4.5,10.5,3.4,16.5c-1,5.1-4.8,10.3-10.1,11c1.4,0.9,3.1,1.4,4.9,1.4
					c5,0,9.1-4.1,9.1-9.1V71c0-5-4.1-9.1-9.1-9.1c-3.9,0-7.3,2.5-8.6,6C134.5,67.5,138.5,68.4,141.1,71.6z"/>
				<path class="st5" d="M133.3,71.1c0-0.5,0.4-0.9,0.9-0.9l0,0c0.5,0,0.9,0.4,0.9,0.9v23c0,0.5-0.4,0.9-0.9,0.9l0,0
					c-0.5,0-0.9-0.4-0.9-0.9V71.1z"/>
			</g>
			<g>
				<path class="st15" d="M147.1,67.4v27.8c6.1-1.7,10.6-7.3,10.6-13.9C157.7,74.7,153.2,69.1,147.1,67.4z"/>
				<path class="st4" d="M153.4,86.6c-4.6-3-5.8-7.2-6.3-12.2v20.8c4-1.1,7.2-3.8,9-7.4C155.2,87.6,154.2,87.2,153.4,86.6z"/>
			</g>
			<path class="st16" d="M151.6,88.9c0,0,5.2,47.6-44.9,46.3"/>
			<path class="st17" d="M108.5,135.3c0,2.3-1.9,4.2-4.2,4.2h-5.6c-2.3,0-4.2-1.9-4.2-4.2l0,0c0-2.3,1.9-4.2,4.2-4.2h5.6
				C106.7,131.2,108.5,133,108.5,135.3L108.5,135.3z"/>
			<path class="st13" d="M18.8,81.3c0,2,1.6,3.5,3.6,3.5l0,0c2,0,3.6-1.6,3.6-3.5l0,0c0-2-1.6-3.5-3.6-3.5l0,0
				C20.4,77.8,18.8,79.4,18.8,81.3L18.8,81.3z"/>
			<g>
				<path class="st14" d="M50.8,71.1c0-5-4.1-9.1-9.1-9.1l0,0c-5,0-9.1,4.1-9.1,9.1v20.4c0,5,4.1,9.1,9.1,9.1l0,0
					c5,0,9.1-4.1,9.1-9.1V71.1z"/>
				<path class="st9" d="M39.8,71.6c-3.9,4.9-4.5,10.5-3.4,16.5c1,5.1,4.8,10.3,10.1,11c-1.4,0.9-3.1,1.4-4.9,1.4
					c-5,0-9.1-4.1-9.1-9.1V71c0-5,4.1-9.1,9.1-9.1c3.9,0,7.3,2.5,8.6,6C46.4,67.5,42.4,68.4,39.8,71.6z"/>
				<path class="st5" d="M47.6,71.1c0-0.5-0.4-0.9-0.9-0.9l0,0c-0.5,0-1,0.4-1,0.9v23c0,0.5,0.4,0.9,1,0.9l0,0
					c0.5,0,0.9-0.4,0.9-0.9V71.1z"/>
			</g>
			<g>
				<path class="st15" d="M33.8,67.4v27.8c-6.1-1.7-10.6-7.3-10.6-13.9C23.2,74.7,27.7,69.1,33.8,67.4z"/>
				<path class="st4" d="M27.5,86.6c4.6-3,5.8-7.2,6.3-12.2v20.8c-4-1.1-7.2-3.8-9-7.4C25.7,87.6,26.6,87.2,27.5,86.6z"/>
			</g>
		</g>
	</g>
</g>
</svg>
