<?xml version="1.0" encoding="utf-8"?>
<!-- Generator: Adobe Illustrator 19.0.0, SVG Export Plug-In . SVG Version: 6.00 Build 0)  -->
<svg version="1.1" id="Layer_1" xmlns="http://www.w3.org/2000/svg" xmlns:xlink="http://www.w3.org/1999/xlink" x="0px" y="0px"
	 viewBox="0 0 312.7 313.9" style="enable-background:new 0 0 312.7 313.9;" xml:space="preserve">
<style type="text/css">
	.st0{fill:url(#XMLID_51_);}
	.st1{fill:#67708B;}
	.st2{fill:url(#SVGID_1_);}
	.st3{fill:url(#SVGID_2_);}
	.st4{fill:url(#SVGID_3_);}
	.st5{fill:url(#XMLID_52_);}
	.st6{fill:url(#XMLID_53_);}
</style>
<g>
	<g>
		<g>
			
				<radialGradient id="XMLID_51_" cx="155.8902" cy="-1214.3995" r="163.5856" gradientTransform="matrix(1 0 0 1 0 1383)" gradientUnits="userSpaceOnUse">
				<stop  offset="0.5591" style="stop-color:#FFFFFF"/>
				<stop  offset="0.6176" style="stop-color:#FBFCFC"/>
				<stop  offset="0.6731" style="stop-color:#F0F3F4"/>
				<stop  offset="0.7275" style="stop-color:#DDE3E6"/>
				<stop  offset="0.7808" style="stop-color:#C2CDD3"/>
				<stop  offset="0.8172" style="stop-color:#ABBBC2"/>
				<stop  offset="0.871" style="stop-color:#3E1147"/>
			</radialGradient>
			<path id="XMLID_10_" class="st0" d="M292.1,155.3c0,74.5-60.4,135-135,135s-135-60.4-135-135s60.6-135,135.1-135
				S292.1,80.8,292.1,155.3z"/>
			<path id="XMLID_9_" class="st1" d="M292.1,155.3c0,74.5-60.4,135-135,135s-135-60.4-135-135s60.6-135,135.1-135
				S292.1,80.8,292.1,155.3z"/>
			<g>
				<g>
					
						<radialGradient id="SVGID_1_" cx="157.9709" cy="-1257.7306" r="203.2252" gradientTransform="matrix(1 0 0 1 0 1383)" gradientUnits="userSpaceOnUse">
						<stop  offset="0.7581" style="stop-color:#FFFFFF"/>
						<stop  offset="0.8444" style="stop-color:#D0D9DD"/>
						<stop  offset="0.9194" style="stop-color:#ABBBC2"/>
					</radialGradient>
					<path class="st2" d="M157.3,9.2C76,9.2,9.9,75.2,9.9,156.6C9.9,237.9,76,304,157.3,304s147.4-66,147.4-147.4
						S238.7,9.2,157.3,9.2z M157.3,280c-68.2,0-123.4-55.2-123.4-123.4c0-68.2,55.2-123.4,123.4-123.4s123.4,55.2,123.4,123.4
						S225.4,280,157.3,280z"/>
				</g>
				<g>
					
						<radialGradient id="SVGID_2_" cx="155.532" cy="-1239.9513" r="166.6231" gradientTransform="matrix(1 0 0 1 0 1383)" gradientUnits="userSpaceOnUse">
						<stop  offset="0.6613" style="stop-color:#67708B"/>
						<stop  offset="0.6917" style="stop-color:#8591A3"/>
						<stop  offset="0.7258" style="stop-color:#ABBBC2"/>
						<stop  offset="0.745" style="stop-color:#BECAD0"/>
						<stop  offset="0.7967" style="stop-color:#EDF0F2"/>
						<stop  offset="0.8226" style="stop-color:#FFFFFF"/>
					</radialGradient>
					<path class="st3" d="M157.3,9.2C76,9.2,9.9,75.2,9.9,156.6C9.9,237.9,76,304,157.3,304s147.4-66,147.4-147.4
						S238.7,9.2,157.3,9.2z M157.3,280c-68.2,0-123.4-55.2-123.4-123.4c0-68.2,55.2-123.4,123.4-123.4s123.4,55.2,123.4,123.4
						S225.4,280,157.3,280z"/>
				</g>
			</g>
		</g>
		<g>
			
				<radialGradient id="SVGID_3_" cx="157.3333" cy="-1226.4259" r="147.4" gradientTransform="matrix(1 0 0 1 0 1383)" gradientUnits="userSpaceOnUse">
				<stop  offset="0.8656" style="stop-color:#FFFFFF"/>
				<stop  offset="0.9111" style="stop-color:#FCFCFD"/>
				<stop  offset="0.9493" style="stop-color:#F1F4F5"/>
				<stop  offset="0.9847" style="stop-color:#E0E6E8"/>
				<stop  offset="1" style="stop-color:#D6DEE1"/>
			</radialGradient>
			<path class="st4" d="M157.3,9.2C76,9.2,9.9,75.2,9.9,156.6C9.9,237.9,76,304,157.3,304s147.4-66,147.4-147.4S238.7,9.2,157.3,9.2
				z M157.3,280c-68.2,0-123.4-55.2-123.4-123.4c0-68.2,55.2-123.4,123.4-123.4s123.4,55.2,123.4,123.4S225.4,280,157.3,280z"/>
		</g>
	</g>
</g>
<radialGradient id="XMLID_52_" cx="437.3347" cy="695.2382" r="824.0656" gradientTransform="matrix(0 -0.5 0.5 0 -338.1537 546.6407)" gradientUnits="userSpaceOnUse">
	<stop  offset="0" style="stop-color:#FFFF00"/>
	<stop  offset="0.2713" style="stop-color:#FFED00"/>
	<stop  offset="0.811" style="stop-color:#FFC000"/>
	<stop  offset="1" style="stop-color:#FFAE00"/>
</radialGradient>
<path id="XMLID_2_" class="st5" d="M157.2,33.5C89,33.5,33.6,88.9,33.6,157.1S89,280.7,157.2,280.7s123.6-55.4,123.6-123.6
	C280.7,88.9,225.4,33.5,157.2,33.5z"/>
<radialGradient id="XMLID_53_" cx="1046.3267" cy="1237.8096" r="860.9299" gradientTransform="matrix(0 -0.5 0.5 0 -338.1537 546.6407)" gradientUnits="userSpaceOnUse">
	<stop  offset="0" style="stop-color:#FFFF00"/>
	<stop  offset="0.2713" style="stop-color:#FFED00"/>
	<stop  offset="0.811" style="stop-color:#FFC000"/>
	<stop  offset="1" style="stop-color:#FFAE00"/>
</radialGradient>
<path id="XMLID_1_" class="st6" d="M157.2,41.1c-64,0-116,52-116,116s52,116,116,116s116-52,116-116
	C273.2,93.1,221.2,41.1,157.2,41.1z"/>
</svg>
