<?xml version="1.0" encoding="utf-8"?>
<!-- Generator: Adobe Illustrator 19.0.0, SVG Export Plug-In . SVG Version: 6.00 Build 0)  -->
<svg version="1.1" id="Layer_1" xmlns="http://www.w3.org/2000/svg" xmlns:xlink="http://www.w3.org/1999/xlink" x="0px" y="0px"
	 viewBox="0 0 163.4 163.4" style="enable-background:new 0 0 163.4 163.4;" xml:space="preserve">
<style type="text/css">
	.st0{fill:url(#XMLID_62_);}
	.st1{fill:#67708B;}
	.st2{fill:url(#SVGID_1_);}
	.st3{fill:url(#SVGID_2_);}
	.st4{fill:url(#SVGID_3_);}
</style>
<g>
	<g>
		<g>
			
				<radialGradient id="XMLID_62_" cx="80.9135" cy="295.9456" r="89.1546" gradientTransform="matrix(1 0 0 -1 0 384.2)" gradientUnits="userSpaceOnUse">
				<stop  offset="0.5591" style="stop-color:#FFFFFF"/>
				<stop  offset="0.6176" style="stop-color:#FBFCFC"/>
				<stop  offset="0.6731" style="stop-color:#F0F3F4"/>
				<stop  offset="0.7275" style="stop-color:#DDE3E6"/>
				<stop  offset="0.7808" style="stop-color:#C2CDD3"/>
				<stop  offset="0.8172" style="stop-color:#ABBBC2"/>
				<stop  offset="0.871" style="stop-color:#3E1147"/>
			</radialGradient>
			<path id="XMLID_60_" class="st0" d="M155.2,81c0,40.6-32.9,73.5-73.5,73.5S8.1,121.6,8.1,81s33-73.5,73.6-73.5
				S155.2,40.4,155.2,81z"/>
			<path id="XMLID_59_" class="st1" d="M155.2,81c0,40.6-32.9,73.5-73.5,73.5S8.1,121.6,8.1,81s33-73.5,73.6-73.5
				S155.2,40.4,155.2,81z"/>
			<g>
				<g>
					
						<radialGradient id="SVGID_1_" cx="82.0475" cy="319.561" r="110.7582" gradientTransform="matrix(1 0 0 -1 0 384.2)" gradientUnits="userSpaceOnUse">
						<stop  offset="0.7581" style="stop-color:#FFFFFF"/>
						<stop  offset="0.8444" style="stop-color:#D0D9DD"/>
						<stop  offset="0.9194" style="stop-color:#ABBBC2"/>
					</radialGradient>
					<path class="st2" d="M81.7,1.4c-44.3,0-80.3,36-80.3,80.3s36,80.3,80.3,80.3S162,126,162,81.7S126,1.4,81.7,1.4z M81.7,149
						c-37.2,0-67.3-30.1-67.3-67.3s30.1-67.3,67.3-67.3S149,44.5,149,81.7S118.8,149,81.7,149z"/>
				</g>
				<g>
					
						<radialGradient id="SVGID_2_" cx="80.7183" cy="309.8713" r="90.81" gradientTransform="matrix(1 0 0 -1 0 384.2)" gradientUnits="userSpaceOnUse">
						<stop  offset="0.6613" style="stop-color:#67708B"/>
						<stop  offset="0.6917" style="stop-color:#8591A3"/>
						<stop  offset="0.7258" style="stop-color:#ABBBC2"/>
						<stop  offset="0.745" style="stop-color:#BECAD0"/>
						<stop  offset="0.7967" style="stop-color:#EDF0F2"/>
						<stop  offset="0.8226" style="stop-color:#FFFFFF"/>
					</radialGradient>
					<path class="st3" d="M81.7,1.4c-44.3,0-80.3,36-80.3,80.3s36,80.3,80.3,80.3S162,126,162,81.7S126,1.4,81.7,1.4z M81.7,149
						c-37.2,0-67.3-30.1-67.3-67.3s30.1-67.3,67.3-67.3S149,44.5,149,81.7S118.8,149,81.7,149z"/>
				</g>
			</g>
		</g>
		<g>
			
				<radialGradient id="SVGID_3_" cx="81.7" cy="302.5" r="80.3333" gradientTransform="matrix(1 0 0 -1 0 384.2)" gradientUnits="userSpaceOnUse">
				<stop  offset="0.8656" style="stop-color:#FFFFFF"/>
				<stop  offset="0.9111" style="stop-color:#FCFCFD"/>
				<stop  offset="0.9493" style="stop-color:#F1F4F5"/>
				<stop  offset="0.9847" style="stop-color:#E0E6E8"/>
				<stop  offset="1" style="stop-color:#D6DEE1"/>
			</radialGradient>
			<path class="st4" d="M81.7,1.4c-44.3,0-80.3,36-80.3,80.3s36,80.3,80.3,80.3S162,126,162,81.7S126,1.4,81.7,1.4z M81.7,149
				c-37.2,0-67.3-30.1-67.3-67.3s30.1-67.3,67.3-67.3S149,44.5,149,81.7S118.8,149,81.7,149z"/>
		</g>
	</g>
</g>
</svg>
