<?xml version="1.0" encoding="utf-8"?>
<!-- Generator: Adobe Illustrator 19.0.0, SVG Export Plug-In . SVG Version: 6.00 Build 0)  -->
<svg version="1.1" id="Layer_1" xmlns="http://www.w3.org/2000/svg" xmlns:xlink="http://www.w3.org/1999/xlink" x="0px" y="0px"
	 viewBox="0 0 424.5 472" style="enable-background:new 0 0 424.5 472;" xml:space="preserve">
<g id="XMLID_2_">
	<defs>
		<path id="XMLID_1_" d="M53.9,0h319.5c28.1,0,51.1,23,51.1,51.1v311.8c0,26-21.3,47.2-47.2,47.2l0,0c-2.4,0-4.2,2.2-3.6,4.6
			l12.5,52.7c0.8,3.3-2.9,5.8-5.7,3.9l-90.1-60.6c-0.6-0.4-1.3-0.6-2.1-0.6H51.1C23,410.1,0,387.2,0,359V53.8C0,24.2,24.3,0,53.9,0z
			"/>
	</defs>
	<clipPath id="XMLID_73_">
		<use xlink:href="#XMLID_1_"  style="overflow:visible;"/>
	</clipPath>
	<g style="clip-path:url(#XMLID_73_);">
		
			<image style="overflow:visible;" width="1366" height="1391" id="XMLID_4_" xlink:href="Dashboard/Sign up-V1.jpg"  transform="matrix(0.9145 0 0 0.9145 -408.8373 -64.3068)">
		</image>
	</g>
</g>
</svg>
