<?xml version="1.0" encoding="utf-8"?>
<!-- Generator: Adobe Illustrator 19.0.0, SVG Export Plug-In . SVG Version: 6.00 Build 0)  -->
<svg version="1.1" id="Layer_1" xmlns="http://www.w3.org/2000/svg" xmlns:xlink="http://www.w3.org/1999/xlink" x="0px" y="0px"
	 viewBox="0 0 427.7 168.5" style="enable-background:new 0 0 427.7 168.5;" xml:space="preserve">
<style type="text/css">
	.st0{fill:url(#SVGID_1_);}
	.st1{opacity:0.5;fill:url(#SVGID_2_);enable-background:new    ;}
	.st2{fill:url(#SVGID_3_);}
	.st3{fill:url(#SVGID_4_);}
	.st4{fill:url(#SVGID_5_);}
	.st5{fill:url(#SVGID_6_);}
	.st6{fill:url(#SVGID_7_);}
	.st7{fill:url(#SVGID_8_);}
	.st8{fill:url(#SVGID_9_);}
	.st9{fill:url(#SVGID_10_);}
	.st10{fill:url(#SVGID_11_);}
	.st11{fill:url(#SVGID_12_);}
	.st12{opacity:0.3;fill:url(#SVGID_13_);enable-background:new    ;}
	.st13{fill:#BFBBFF;}
	.st14{opacity:0.3;fill:url(#SVGID_14_);enable-background:new    ;}
	.st15{fill:url(#SVGID_15_);}
	.st16{fill:url(#SVGID_16_);}
	.st17{fill:url(#SVGID_17_);}
	.st18{clip-path:url(#SVGID_19_);fill:#9079B6;}
	.st19{clip-path:url(#SVGID_21_);fill:#9079B6;}
	.st20{clip-path:url(#SVGID_23_);fill:#917AB6;}
	.st21{clip-path:url(#SVGID_25_);fill:#927BB7;}
	.st22{clip-path:url(#SVGID_27_);fill:#937CB7;}
	.st23{clip-path:url(#SVGID_29_);fill:#947DB8;}
	.st24{clip-path:url(#SVGID_31_);fill:#957EB8;}
	.st25{clip-path:url(#SVGID_33_);fill:#967FB8;}
	.st26{clip-path:url(#SVGID_35_);fill:#9780B9;}
	.st27{clip-path:url(#SVGID_37_);fill:#9881B9;}
	.st28{clip-path:url(#SVGID_39_);fill:#9982B9;}
	.st29{clip-path:url(#SVGID_41_);fill:#9A83BA;}
	.st30{clip-path:url(#SVGID_43_);fill:#9B84BA;}
	.st31{clip-path:url(#SVGID_45_);fill:#9C85BB;}
	.st32{clip-path:url(#SVGID_47_);fill:#9D86BB;}
	.st33{clip-path:url(#SVGID_49_);fill:#9E87BB;}
	.st34{clip-path:url(#SVGID_51_);fill:#9F88BC;}
	.st35{clip-path:url(#SVGID_53_);fill:#A089BC;}
	.st36{clip-path:url(#SVGID_55_);fill:#A18ABD;}
	.st37{clip-path:url(#SVGID_57_);fill:#A28BBD;}
	.st38{clip-path:url(#SVGID_59_);fill:#A38CBD;}
	.st39{clip-path:url(#SVGID_61_);fill:#A48DBE;}
	.st40{clip-path:url(#SVGID_63_);fill:#A58EBE;}
	.st41{clip-path:url(#SVGID_65_);fill:#A68FBF;}
	.st42{clip-path:url(#SVGID_67_);fill:#A790BF;}
	.st43{clip-path:url(#SVGID_69_);fill:#A891BF;}
	.st44{clip-path:url(#SVGID_71_);fill:#A992C0;}
	.st45{clip-path:url(#SVGID_73_);fill:#AA93C0;}
	.st46{clip-path:url(#SVGID_75_);fill:#AB94C0;}
	.st47{clip-path:url(#SVGID_77_);fill:#AC95C1;}
	.st48{clip-path:url(#SVGID_79_);fill:#AD96C1;}
	.st49{clip-path:url(#SVGID_81_);fill:#AE97C2;}
	.st50{clip-path:url(#SVGID_83_);fill:#AF98C2;}
	.st51{clip-path:url(#SVGID_85_);fill:#B099C2;}
	.st52{clip-path:url(#SVGID_87_);fill:#B19AC3;}
	.st53{clip-path:url(#SVGID_89_);fill:#B29BC3;}
	.st54{clip-path:url(#SVGID_91_);fill:#B39CC4;}
	.st55{clip-path:url(#SVGID_93_);fill:#B49DC4;}
	.st56{clip-path:url(#SVGID_95_);fill:#B59EC4;}
	.st57{clip-path:url(#SVGID_97_);fill:#B7A0C5;}
	.st58{clip-path:url(#SVGID_99_);fill:#B8A1C5;}
	.st59{clip-path:url(#SVGID_101_);fill:#B9A2C5;}
	.st60{clip-path:url(#SVGID_103_);fill:#BAA3C6;}
	.st61{clip-path:url(#SVGID_105_);fill:#BBA4C6;}
	.st62{clip-path:url(#SVGID_107_);fill:#BCA5C7;}
	.st63{clip-path:url(#SVGID_109_);fill:#BDA6C7;}
	.st64{clip-path:url(#SVGID_111_);fill:#BEA7C7;}
	.st65{clip-path:url(#SVGID_113_);fill:#BFA8C8;}
	.st66{clip-path:url(#SVGID_115_);fill:#C0A9C8;}
	.st67{clip-path:url(#SVGID_117_);fill:#C1AAC9;}
	.st68{clip-path:url(#SVGID_119_);fill:#C2ABC9;}
	.st69{clip-path:url(#SVGID_121_);fill:#C3ACC9;}
	.st70{clip-path:url(#SVGID_123_);fill:#C4ADCA;}
	.st71{clip-path:url(#SVGID_125_);fill:#C5AECA;}
	.st72{clip-path:url(#SVGID_127_);fill:#C6AFCA;}
	.st73{clip-path:url(#SVGID_129_);fill:#C7B0CB;}
	.st74{clip-path:url(#SVGID_131_);fill:#C8B1CB;}
	.st75{clip-path:url(#SVGID_133_);fill:#C9B2CC;}
	.st76{clip-path:url(#SVGID_135_);fill:#CAB3CC;}
	.st77{clip-path:url(#SVGID_137_);fill:#CBB4CC;}
	.st78{clip-path:url(#SVGID_139_);fill:#CCB5CD;}
	.st79{clip-path:url(#SVGID_141_);fill:#CDB6CD;}
	.st80{clip-path:url(#SVGID_143_);fill:#CEB7CE;}
	.st81{clip-path:url(#SVGID_145_);fill:#CFB8CE;}
	.st82{clip-path:url(#SVGID_147_);fill:#D0B9CE;}
	.st83{clip-path:url(#SVGID_149_);fill:#D1BACF;}
	.st84{clip-path:url(#SVGID_151_);fill:#D2BBCF;}
	.st85{clip-path:url(#SVGID_153_);fill:#D3BCD0;}
	.st86{clip-path:url(#SVGID_155_);fill:#D4BDD0;}
	.st87{clip-path:url(#SVGID_157_);fill:#D5BED0;}
	.st88{clip-path:url(#SVGID_159_);fill:#D6BFD1;}
	.st89{clip-path:url(#SVGID_161_);fill:#D7C0D1;}
	.st90{clip-path:url(#SVGID_163_);fill:#D8C1D1;}
	.st91{clip-path:url(#SVGID_165_);fill:#D9C2D2;}
	.st92{clip-path:url(#SVGID_167_);fill:#DAC3D2;}
	.st93{clip-path:url(#SVGID_169_);fill:#DBC4D3;}
	.st94{clip-path:url(#SVGID_171_);fill:#DCC5D3;}
	.st95{opacity:0.5;fill:#40176F;enable-background:new    ;}
	.st96{fill:url(#SVGID_172_);}
	.st97{opacity:0.5;fill:url(#SVGID_173_);enable-background:new    ;}
	.st98{opacity:0.5;fill:url(#SVGID_174_);enable-background:new    ;}
	.st99{fill:#F2F1FF;}
	.st100{opacity:0.99;fill:url(#SVGID_175_);enable-background:new    ;}
	.st101{opacity:0.3;fill:url(#SVGID_176_);enable-background:new    ;}
	.st102{opacity:0.2;fill:#951736;enable-background:new    ;}
	.st103{fill:url(#SVGID_177_);}
	.st104{opacity:0.43;}
	.st105{fill:url(#SVGID_178_);}
	.st106{fill:url(#SVGID_179_);}
	.st107{fill:url(#SVGID_180_);}
	.st108{fill:url(#SVGID_181_);}
	.st109{fill:#FFFFFF;}
	.st110{fill:url(#SVGID_182_);}
	.st111{fill:url(#SVGID_183_);}
	.st112{opacity:0.3;fill:#5C1748;enable-background:new    ;}
	.st113{fill:url(#SVGID_184_);}
	.st114{fill:#B8A9D4;}
	.st115{fill:#FF7461;}
	.st116{fill:url(#SVGID_185_);}
	.st117{fill:url(#SVGID_186_);}
	.st118{fill:url(#SVGID_187_);}
</style>
<g>
	
		<radialGradient id="SVGID_1_" cx="-1.1017" cy="358.7161" r="20.6787" gradientTransform="matrix(0.9929 0.1187 0.1187 -0.9929 -35.1489 380.9184)" gradientUnits="userSpaceOnUse">
		<stop  offset="0" style="stop-color:#FFD328"/>
		<stop  offset="1" style="stop-color:#FF8600"/>
	</radialGradient>
	<path class="st0" d="M15.5,1.3C3.4-1.4-8.6,39.4,9.6,50.9c0,0,15-3.9,19.3-14.6S30.6,4.6,15.5,1.3z"/>
	
		<linearGradient id="SVGID_2_" gradientUnits="userSpaceOnUse" x1="5.6172" y1="343.0312" x2="5.6172" y2="382.9443" gradientTransform="matrix(0.9929 0.1187 0.1187 -0.9929 -35.1489 380.9184)">
		<stop  offset="0" style="stop-color:#B6ACE0"/>
		<stop  offset="0.9829" style="stop-color:#E2DCEB"/>
	</linearGradient>
	<path class="st1" d="M3.7,16.2c0,0,4.9-8.4,11.6-5.7c8.4,3.4,5.5,24.6,3,31.3c0,0,5.4-9.1,5.7-23.3c0.4-14.2-6.6-17.1-9.5-17.3
		C11.6,0.9,5.4,7.6,3.7,16.2z"/>
	<g>
		
			<linearGradient id="SVGID_3_" gradientUnits="userSpaceOnUse" x1="22.3077" y1="349.2051" x2="22.3077" y2="365.9234" gradientTransform="matrix(0.9929 0.1187 0.1187 -0.9929 -35.1489 380.9184)">
			<stop  offset="0" style="stop-color:#725FC3"/>
			<stop  offset="0.9829" style="stop-color:#BAACD0"/>
		</linearGradient>
		<polygon class="st2" points="16.1,18.5 13.1,19.6 12.8,25.6 12.8,26.1 12,32.8 14.2,34.4 45.6,38.8 46.6,30.8 46.7,29.7 
			47.6,22.6 		"/>
		
			<linearGradient id="SVGID_4_" gradientUnits="userSpaceOnUse" x1="6.9883" y1="351.7227" x2="3.8778" y2="364.1788" gradientTransform="matrix(0.9929 0.1187 0.1187 -0.9929 -35.1489 380.9184)">
			<stop  offset="0" style="stop-color:#DBD6F0"/>
			<stop  offset="0.9829" style="stop-color:#E2DCEB"/>
		</linearGradient>
		<path class="st3" d="M15.6,26.4c-0.4,3.6-2.1,6.4-3.6,6.2c-1.6-0.2-2.5-3.3-2.1-6.9c0.4-3.6,2.1-6.4,3.6-6.2
			C15.1,19.8,16,22.8,15.6,26.4z"/>
		
			<radialGradient id="SVGID_5_" cx="5.2351" cy="357.9937" r="3.9497" gradientTransform="matrix(0.9929 0.1187 0.1187 -0.9929 -35.1489 380.9184)" gradientUnits="userSpaceOnUse">
			<stop  offset="0" style="stop-color:#B3819D"/>
			<stop  offset="1" style="stop-color:#9079B6"/>
		</radialGradient>
		<path class="st4" d="M14.8,26.3c-0.3,2.8-1.6,5-2.8,4.8c-1.2-0.1-1.9-2.5-1.6-5.3s1.6-5,2.8-4.8C14.4,21.1,15.1,23.5,14.8,26.3z"
			/>
		
			<linearGradient id="SVGID_6_" gradientUnits="userSpaceOnUse" x1="5.4689" y1="353.8132" x2="5.4689" y2="362.1882" gradientTransform="matrix(0.9929 0.1187 0.1187 -0.9929 -35.1489 380.9184)">
			<stop  offset="0" style="stop-color:#B6ACE0"/>
			<stop  offset="0.9829" style="stop-color:#E2DCEB"/>
		</linearGradient>
		<path class="st5" d="M14.6,26.3c-0.3,2.3-1.3,4.1-2.3,3.9c-1-0.1-1.6-2.1-1.3-4.4c0.3-2.3,1.3-4.1,2.3-3.9
			C14.3,22,14.9,24,14.6,26.3z"/>
	</g>
	
		<linearGradient id="SVGID_7_" gradientUnits="userSpaceOnUse" x1="69.4611" y1="363.8279" x2="53.5467" y2="361.7542" gradientTransform="matrix(0.9929 0.1187 0.1187 -0.9929 -35.1489 380.9184)">
		<stop  offset="0" style="stop-color:#FF6E27"/>
		<stop  offset="0.998" style="stop-color:#E03347"/>
	</linearGradient>
	<path class="st6" d="M60.9,23.8l2.3-1.6c0,0,7.4,0.2,12.4,4.4c0,0,1.8,2.9,1.4,7.1l-12.3-1.4L60.9,23.8z"/>
	
		<linearGradient id="SVGID_8_" gradientUnits="userSpaceOnUse" x1="68.6362" y1="-442.3868" x2="52.7226" y2="-444.4604" gradientTransform="matrix(0.9929 0.1187 -0.1187 0.9929 -45.0212 470.5196)">
		<stop  offset="0" style="stop-color:#FF6E27"/>
		<stop  offset="0.998" style="stop-color:#E03347"/>
	</linearGradient>
	<path class="st7" d="M59,39.6l1.8,2c0,0,7.2,1.6,13.1-1.4c0,0,2.4-2.4,3-6.5l-12.2-1.4L59,39.6z"/>
	
		<linearGradient id="SVGID_9_" gradientUnits="userSpaceOnUse" x1="55.9504" y1="348.2339" x2="55.9504" y2="367.7704" gradientTransform="matrix(0.9929 0.1187 0.1187 -0.9929 -35.1489 380.9184)">
		<stop  offset="0" style="stop-color:#C72A16"/>
		<stop  offset="0.998" style="stop-color:#90062C"/>
	</linearGradient>
	<path class="st8" d="M63.2,22.3c0,0,3.9,4.3,2.3,11.9c-1.5,7.2-4.6,7.5-4.6,7.5L60,40.6l0.8-0.1l1.9-16.1L61,23.8L63.2,22.3z"/>
	
		<linearGradient id="SVGID_10_" gradientUnits="userSpaceOnUse" x1="34.9762" y1="340.4972" x2="23.4678" y2="386.5838" gradientTransform="matrix(0.9929 0.1187 0.1187 -0.9929 -35.1489 380.9184)">
		<stop  offset="0" style="stop-color:#B6ACE0"/>
		<stop  offset="0.9829" style="stop-color:#E2DCEB"/>
	</linearGradient>
	<path class="st9" d="M60.7,40.5c-31.2,2.7-47.2,9.8-47.2,9.8c2.2-1.8,4-4.2,5.4-6.8c3-5.5,4.5-11.9,5.2-16.5
		c0.6-6.9,0.5-18.1-4.8-25.2c0,0,4,3.7,12.3,8.7l0,0c7.1,4.2,17.4,9.4,31,14C66.4,28.1,65,37.2,60.7,40.5z"/>
	
		<linearGradient id="SVGID_11_" gradientUnits="userSpaceOnUse" x1="6.0617" y1="333.0097" x2="6.0617" y2="384.209" gradientTransform="matrix(0.9929 0.1187 0.1187 -0.9929 -35.1489 380.9184)">
		<stop  offset="5.586590e-003" style="stop-color:#530E68"/>
		<stop  offset="1" style="stop-color:#6051C4"/>
	</linearGradient>
	<path class="st10" d="M16.5,0.1C9.7-0.7,2.9,10,1.2,24.1c-1.7,14,2.5,26,9.2,26.9c6.8,0.8,13.7-9.9,15.3-23.9
		C27.5,13,23.3,0.9,16.5,0.1z M10.1,48.7C4.1,48,0.5,37,2,24.2S9.6,1.6,15.6,2.3c6,0.7,9.6,11.7,8.1,24.5
		C22.2,39.6,16.1,49.4,10.1,48.7z"/>
	
		<radialGradient id="SVGID_12_" cx="5.0933" cy="371.7999" r="31.6633" gradientTransform="matrix(0.9929 0.1187 0.1187 -0.9929 -35.1489 380.9184)" gradientUnits="userSpaceOnUse">
		<stop  offset="0" style="stop-color:#5178FE"/>
		<stop  offset="0.9944" style="stop-color:#713592"/>
	</radialGradient>
	<path class="st11" d="M15.7,0C8.9-0.8,2,9.9,0.4,23.9c-1.7,14,2.5,26.1,9.3,26.9c6.8,0.8,13.7-9.9,15.3-23.9
		C26.6,12.9,22.5,0.8,15.7,0z M9.3,48.6c-6-0.7-9.6-11.7-8.1-24.5S8.8,1.5,14.8,2.2c6,0.7,9.6,11.7,8.1,24.5
		C21.4,39.5,15.3,49.3,9.3,48.6z"/>
	
		<linearGradient id="SVGID_13_" gradientUnits="userSpaceOnUse" x1="11.7379" y1="349.702" x2="11.7379" y2="365.9237" gradientTransform="matrix(0.9929 0.1187 0.1187 -0.9929 -35.1489 380.9184)">
		<stop  offset="1.711450e-002" style="stop-color:#866CAB"/>
		<stop  offset="1" style="stop-color:#EBD7E3"/>
	</linearGradient>
	<path class="st12" d="M22.1,19.3c0,0,2.1,13.3-8,15.2l6.9,1c0,0,3.1-9,2.2-16.1L22.1,19.3z"/>
	<path class="st13" d="M2.3,40.4c0,0,1.9,8,6.9,8.6c4.2,0.5,8-5.5,8-5.5s-3.7,5.7-8.2,4.8C4.5,47.6,2.3,40.4,2.3,40.4z"/>
	<path class="st13" d="M25.1,16.5c0,0-0.3,2.2,0.2,4.4C25.3,21,25.7,18.4,25.1,16.5z"/>
	
		<linearGradient id="SVGID_14_" gradientUnits="userSpaceOnUse" x1="33.4135" y1="334.0212" x2="33.4135" y2="375.8324" gradientTransform="matrix(0.9929 0.1187 0.1187 -0.9929 -35.1489 380.9184)">
		<stop  offset="1.711450e-002" style="stop-color:#866CAB"/>
		<stop  offset="0.4919" style="stop-color:#EBD7E3"/>
	</linearGradient>
	<path class="st14" d="M60.7,40.5c-31.2,2.7-47.2,9.8-47.2,9.8c2.2-1.8,4-4.2,5.4-6.8l3.3-3.6c0,0,13.1-1.2,35.9-1.7
		c0,0,3.4-4.4,2.7-12.9c0,0-19.1-7.7-29.1-14.8c7.1,4.2,17.4,9.4,31,14C66.4,28.1,65,37.2,60.7,40.5z"/>
	
		<linearGradient id="SVGID_15_" gradientUnits="userSpaceOnUse" x1="55.6988" y1="340.5526" x2="52.8603" y2="351.9196" gradientTransform="matrix(0.9929 0.1187 0.1187 -0.9929 -35.1489 380.9184)">
		<stop  offset="0" style="stop-color:#B6ACE0"/>
		<stop  offset="0.9829" style="stop-color:#E2DCEB"/>
	</linearGradient>
	<path class="st15" d="M51.7,38.7c0,0-1,7-2.9,9.9l15,0.4c0,0,4.1-1.4,7.5-7.6l-8.4-1L62,39.3L51.7,38.7z"/>
	
		<radialGradient id="SVGID_16_" cx="40.5958" cy="344.9117" r="4.1598" gradientTransform="matrix(0.9929 0.1187 0.1187 -0.9929 -35.1489 380.9184)" gradientUnits="userSpaceOnUse">
		<stop  offset="0" style="stop-color:#B3819D"/>
		<stop  offset="1" style="stop-color:#9079B6"/>
	</radialGradient>
	<path class="st16" d="M45.2,42.4c0,0,0.2,6.2,3.6,6.1c0,0,2.3-3.2,2.9-9.9c-0.6,1.4-1,2.3-2.1,3.1L45.2,42.4z"/>
	
		<linearGradient id="SVGID_17_" gradientUnits="userSpaceOnUse" x1="54.3557" y1="308.8759" x2="46.5684" y2="340.061" gradientTransform="matrix(0.9929 0.1187 0.1187 -0.9929 -35.1489 380.9184)">
		<stop  offset="0" style="stop-color:#B6ACE0"/>
		<stop  offset="0.9829" style="stop-color:#E2DCEB"/>
	</linearGradient>
	<path class="st17" d="M60.1,64.8L60.1,64.8c-1.1,8.9-3,15.7-3,15.7l-9.3-1.4l-2.1-3.6l-0.2-0.3c0.1-0.2,0.2-0.5,0.3-0.7
		c0.3-0.6,0.5-1.2,0.8-1.8c4.3-10,5.4-17.5,5.7-21.3v-0.1c0-0.3,0-0.6,0.1-0.9c0.1-1.1,0-1.7,0-1.8l0,0l8.4,0.2c0,0,0,0,0,0.1
		c0.1,2.3,0.1,4.7,0,7l0,0C60.7,59,60.5,62,60.1,64.8z"/>
	<g>
		<g>
			<g>
				<defs>
					<path id="SVGID_18_" d="M47.9,74.5c-0.3,0.9-0.6,1.4-0.6,1.4l-1.5-0.5l-3-1c0.9-2,1.7-3.9,2.5-5.7l0,0c3.4-8.6,4.5-14.9,4.9-18
						c0.2-1.4,0.2-2.2,0.2-2.2l2.2,0.1l0,0c0,0.6,0,1.2,0,1.8c0,0.3,0,0.6,0,0.8v0.1c0,0.8-0.1,1.5-0.1,2.3l0,0
						C51.5,64,49,71.5,47.9,74.5z"/>
				</defs>
				<clipPath id="SVGID_19_">
					<use xlink:href="#SVGID_18_"  style="overflow:visible;"/>
				</clipPath>
				<rect x="42.8" y="48.6" class="st18" width="9.7" height="27.4"/>
			</g>
			<g>
				<defs>
					<path id="SVGID_20_" d="M47.9,74.5c-0.3,0.9-0.6,1.4-0.6,1.4l-1.5-0.5l-3-1c0.9-2,1.7-3.9,2.5-5.7l0,0c3.4-8.6,4.5-14.9,4.9-18
						c0.2-1.4,0.2-2.2,0.2-2.2l2.2,0.1l0,0c0,0.6,0,1.2,0,1.8c0,0.3,0,0.6,0,0.8v0.1c0,0.8-0.1,1.5-0.1,2.3l0,0
						C51.5,64,49,71.5,47.9,74.5z"/>
				</defs>
				<clipPath id="SVGID_21_">
					<use xlink:href="#SVGID_20_"  style="overflow:visible;"/>
				</clipPath>
				<path class="st19" d="M53,63.1v8.3h1.6c-1.9,1.9-3.9,2.9-5.8,2.3c-3.7-1.1-5.1-7.6-3.1-14.5S52.3,47.5,56,48.5h-3V63.1z"/>
			</g>
			<g>
				<defs>
					<path id="SVGID_22_" d="M47.9,74.5c-0.3,0.9-0.6,1.4-0.6,1.4l-1.5-0.5l-3-1c0.9-2,1.7-3.9,2.5-5.7l0,0c3.4-8.6,4.5-14.9,4.9-18
						c0.2-1.4,0.2-2.2,0.2-2.2l2.2,0.1l0,0c0,0.6,0,1.2,0,1.8c0,0.3,0,0.6,0,0.8v0.1c0,0.8-0.1,1.5-0.1,2.3l0,0
						C51.5,64,49,71.5,47.9,74.5z"/>
				</defs>
				<clipPath id="SVGID_23_">
					<use xlink:href="#SVGID_22_"  style="overflow:visible;"/>
				</clipPath>
				<path class="st20" d="M53,63.1v8.2h1.6c-1.8,1.9-3.9,2.8-5.7,2.3c-3.7-1-5-7.5-3.1-14.3c2-6.9,6.5-11.6,10.2-10.5h-3V63.1z"/>
			</g>
			<g>
				<defs>
					<path id="SVGID_24_" d="M47.9,74.5c-0.3,0.9-0.6,1.4-0.6,1.4l-1.5-0.5l-3-1c0.9-2,1.7-3.9,2.5-5.7l0,0c3.4-8.6,4.5-14.9,4.9-18
						c0.2-1.4,0.2-2.2,0.2-2.2l2.2,0.1l0,0c0,0.6,0,1.2,0,1.8c0,0.3,0,0.6,0,0.8v0.1c0,0.8-0.1,1.5-0.1,2.3l0,0
						C51.5,64,49,71.5,47.9,74.5z"/>
				</defs>
				<clipPath id="SVGID_25_">
					<use xlink:href="#SVGID_24_"  style="overflow:visible;"/>
				</clipPath>
				<path class="st21" d="M53,63v8.1h1.5c-1.8,1.9-3.8,2.8-5.6,2.3c-3.6-1-4.9-7.4-3-14.1c1.9-6.8,6.4-11.4,10-10.4H53V63z"/>
			</g>
			<g>
				<defs>
					<path id="SVGID_26_" d="M47.9,74.5c-0.3,0.9-0.6,1.4-0.6,1.4l-1.5-0.5l-3-1c0.9-2,1.7-3.9,2.5-5.7l0,0c3.4-8.6,4.5-14.9,4.9-18
						c0.2-1.4,0.2-2.2,0.2-2.2l2.2,0.1l0,0c0,0.6,0,1.2,0,1.8c0,0.3,0,0.6,0,0.8v0.1c0,0.8-0.1,1.5-0.1,2.3l0,0
						C51.5,64,49,71.5,47.9,74.5z"/>
				</defs>
				<clipPath id="SVGID_27_">
					<use xlink:href="#SVGID_26_"  style="overflow:visible;"/>
				</clipPath>
				<path class="st22" d="M53,63v8h1.5c-1.8,1.9-3.8,2.7-5.6,2.2c-3.6-1-4.9-7.3-3-13.9s6.3-11.3,9.9-10.2h-2.9V63H53z"/>
			</g>
			<g>
				<defs>
					<path id="SVGID_28_" d="M47.9,74.5c-0.3,0.9-0.6,1.4-0.6,1.4l-1.5-0.5l-3-1c0.9-2,1.7-3.9,2.5-5.7l0,0c3.4-8.6,4.5-14.9,4.9-18
						c0.2-1.4,0.2-2.2,0.2-2.2l2.2,0.1l0,0c0,0.6,0,1.2,0,1.8c0,0.3,0,0.6,0,0.8v0.1c0,0.8-0.1,1.5-0.1,2.3l0,0
						C51.5,64,49,71.5,47.9,74.5z"/>
				</defs>
				<clipPath id="SVGID_29_">
					<use xlink:href="#SVGID_28_"  style="overflow:visible;"/>
				</clipPath>
				<path class="st23" d="M53,63v7.9h1.5c-1.8,1.8-3.7,2.7-5.5,2.2c-3.5-1-4.8-7.2-2.9-13.7c1.9-6.6,6.3-11.1,9.8-10.1h-2.8L53,63
					L53,63z"/>
			</g>
			<g>
				<defs>
					<path id="SVGID_30_" d="M47.9,74.5c-0.3,0.9-0.6,1.4-0.6,1.4l-1.5-0.5l-3-1c0.9-2,1.7-3.9,2.5-5.7l0,0c3.4-8.6,4.5-14.9,4.9-18
						c0.2-1.4,0.2-2.2,0.2-2.2l2.2,0.1l0,0c0,0.6,0,1.2,0,1.8c0,0.3,0,0.6,0,0.8v0.1c0,0.8-0.1,1.5-0.1,2.3l0,0
						C51.5,64,49,71.5,47.9,74.5z"/>
				</defs>
				<clipPath id="SVGID_31_">
					<use xlink:href="#SVGID_30_"  style="overflow:visible;"/>
				</clipPath>
				<path class="st24" d="M53,63v7.8h1.5c-1.7,1.8-3.7,2.7-5.4,2.2c-3.5-1-4.7-7.1-2.9-13.5c1.9-6.5,6.2-11,9.6-10H53V63z"/>
			</g>
			<g>
				<defs>
					<path id="SVGID_32_" d="M47.9,74.5c-0.3,0.9-0.6,1.4-0.6,1.4l-1.5-0.5l-3-1c0.9-2,1.7-3.9,2.5-5.7l0,0c3.4-8.6,4.5-14.9,4.9-18
						c0.2-1.4,0.2-2.2,0.2-2.2l2.2,0.1l0,0c0,0.6,0,1.2,0,1.8c0,0.3,0,0.6,0,0.8v0.1c0,0.8-0.1,1.5-0.1,2.3l0,0
						C51.5,64,49,71.5,47.9,74.5z"/>
				</defs>
				<clipPath id="SVGID_33_">
					<use xlink:href="#SVGID_32_"  style="overflow:visible;"/>
				</clipPath>
				<path class="st25" d="M53,62.9v7.7h1.4c-1.7,1.8-3.6,2.6-5.3,2.1c-3.4-1-4.7-7-2.8-13.4c1.8-6.4,6.1-10.8,9.5-9.8h-2.7v13.4H53z
					"/>
			</g>
			<g>
				<defs>
					<path id="SVGID_34_" d="M47.9,74.5c-0.3,0.9-0.6,1.4-0.6,1.4l-1.5-0.5l-3-1c0.9-2,1.7-3.9,2.5-5.7l0,0c3.4-8.6,4.5-14.9,4.9-18
						c0.2-1.4,0.2-2.2,0.2-2.2l2.2,0.1l0,0c0,0.6,0,1.2,0,1.8c0,0.3,0,0.6,0,0.8v0.1c0,0.8-0.1,1.5-0.1,2.3l0,0
						C51.5,64,49,71.5,47.9,74.5z"/>
				</defs>
				<clipPath id="SVGID_35_">
					<use xlink:href="#SVGID_34_"  style="overflow:visible;"/>
				</clipPath>
				<path class="st26" d="M53,62.9v7.6h1.4c-1.7,1.8-3.6,2.6-5.3,2.1c-3.4-1-4.6-6.9-2.8-13.2s6-10.6,9.4-9.7H53V62.9z"/>
			</g>
			<g>
				<defs>
					<path id="SVGID_36_" d="M47.9,74.5c-0.3,0.9-0.6,1.4-0.6,1.4l-1.5-0.5l-3-1c0.9-2,1.7-3.9,2.5-5.7l0,0c3.4-8.6,4.5-14.9,4.9-18
						c0.2-1.4,0.2-2.2,0.2-2.2l2.2,0.1l0,0c0,0.6,0,1.2,0,1.8c0,0.3,0,0.6,0,0.8v0.1c0,0.8-0.1,1.5-0.1,2.3l0,0
						C51.5,64,49,71.5,47.9,74.5z"/>
				</defs>
				<clipPath id="SVGID_37_">
					<use xlink:href="#SVGID_36_"  style="overflow:visible;"/>
				</clipPath>
				<path class="st27" d="M53,62.9v7.5h1.4c-1.7,1.7-3.5,2.6-5.2,2.1c-3.3-0.9-4.5-6.8-2.8-13c1.8-6.2,5.9-10.5,9.2-9.5H53
					C53,50,53,62.9,53,62.9z"/>
			</g>
			<g>
				<defs>
					<path id="SVGID_38_" d="M47.9,74.5c-0.3,0.9-0.6,1.4-0.6,1.4l-1.5-0.5l-3-1c0.9-2,1.7-3.9,2.5-5.7l0,0c3.4-8.6,4.5-14.9,4.9-18
						c0.2-1.4,0.2-2.2,0.2-2.2l2.2,0.1l0,0c0,0.6,0,1.2,0,1.8c0,0.3,0,0.6,0,0.8v0.1c0,0.8-0.1,1.5-0.1,2.3l0,0
						C51.5,64,49,71.5,47.9,74.5z"/>
				</defs>
				<clipPath id="SVGID_39_">
					<use xlink:href="#SVGID_38_"  style="overflow:visible;"/>
				</clipPath>
				<path class="st28" d="M53,62.9v7.3h1.3c-1.6,1.7-3.5,2.5-5.1,2.1c-3.3-0.9-4.5-6.7-2.7-12.8s5.8-10.3,9.1-9.4H53
					C53,50.1,53,62.9,53,62.9z"/>
			</g>
			<g>
				<defs>
					<path id="SVGID_40_" d="M47.9,74.5c-0.3,0.9-0.6,1.4-0.6,1.4l-1.5-0.5l-3-1c0.9-2,1.7-3.9,2.5-5.7l0,0c3.4-8.6,4.5-14.9,4.9-18
						c0.2-1.4,0.2-2.2,0.2-2.2l2.2,0.1l0,0c0,0.6,0,1.2,0,1.8c0,0.3,0,0.6,0,0.8v0.1c0,0.8-0.1,1.5-0.1,2.3l0,0
						C51.5,64,49,71.5,47.9,74.5z"/>
				</defs>
				<clipPath id="SVGID_41_">
					<use xlink:href="#SVGID_40_"  style="overflow:visible;"/>
				</clipPath>
				<path class="st29" d="M53,62.8V70h1.3c-1.6,1.7-3.4,2.5-5,2c-3.2-0.9-4.4-6.6-2.7-12.6s5.7-10.2,8.9-9.3H53
					C53,50.1,53,62.8,53,62.8z"/>
			</g>
			<g>
				<defs>
					<path id="SVGID_42_" d="M47.9,74.5c-0.3,0.9-0.6,1.4-0.6,1.4l-1.5-0.5l-3-1c0.9-2,1.7-3.9,2.5-5.7l0,0c3.4-8.6,4.5-14.9,4.9-18
						c0.2-1.4,0.2-2.2,0.2-2.2l2.2,0.1l0,0c0,0.6,0,1.2,0,1.8c0,0.3,0,0.6,0,0.8v0.1c0,0.8-0.1,1.5-0.1,2.3l0,0
						C51.5,64,49,71.5,47.9,74.5z"/>
				</defs>
				<clipPath id="SVGID_43_">
					<use xlink:href="#SVGID_42_"  style="overflow:visible;"/>
				</clipPath>
				<path class="st30" d="M53,62.8v7.1h1.3c-1.6,1.7-3.4,2.4-5,2c-3.2-0.9-4.3-6.5-2.6-12.4s5.6-10,8.8-9.1H53V62.8z"/>
			</g>
			<g>
				<defs>
					<path id="SVGID_44_" d="M47.9,74.5c-0.3,0.9-0.6,1.4-0.6,1.4l-1.5-0.5l-3-1c0.9-2,1.7-3.9,2.5-5.7l0,0c3.4-8.6,4.5-14.9,4.9-18
						c0.2-1.4,0.2-2.2,0.2-2.2l2.2,0.1l0,0c0,0.6,0,1.2,0,1.8c0,0.3,0,0.6,0,0.8v0.1c0,0.8-0.1,1.5-0.1,2.3l0,0
						C51.5,64,49,71.5,47.9,74.5z"/>
				</defs>
				<clipPath id="SVGID_45_">
					<use xlink:href="#SVGID_44_"  style="overflow:visible;"/>
				</clipPath>
				<path class="st31" d="M53,62.8v7h1.3c-1.6,1.6-3.3,2.4-4.9,2c-3.1-0.9-4.3-6.4-2.6-12.2c1.7-5.9,5.6-9.9,8.7-9h-2.4L53,62.8
					L53,62.8z"/>
			</g>
			<g>
				<defs>
					<path id="SVGID_46_" d="M47.9,74.5c-0.3,0.9-0.6,1.4-0.6,1.4l-1.5-0.5l-3-1c0.9-2,1.7-3.9,2.5-5.7l0,0c3.4-8.6,4.5-14.9,4.9-18
						c0.2-1.4,0.2-2.2,0.2-2.2l2.2,0.1l0,0c0,0.6,0,1.2,0,1.8c0,0.3,0,0.6,0,0.8v0.1c0,0.8-0.1,1.5-0.1,2.3l0,0
						C51.5,64,49,71.5,47.9,74.5z"/>
				</defs>
				<clipPath id="SVGID_47_">
					<use xlink:href="#SVGID_46_"  style="overflow:visible;"/>
				</clipPath>
				<path class="st32" d="M53,62.8v6.9h1.2c-1.5,1.6-3.3,2.4-4.8,1.9c-3.1-0.9-4.2-6.3-2.6-12c1.7-5.8,5.5-9.7,8.5-8.8h-2.4L53,62.8
					L53,62.8z"/>
			</g>
			<g>
				<defs>
					<path id="SVGID_48_" d="M47.9,74.5c-0.3,0.9-0.6,1.4-0.6,1.4l-1.5-0.5l-3-1c0.9-2,1.7-3.9,2.5-5.7l0,0c3.4-8.6,4.5-14.9,4.9-18
						c0.2-1.4,0.2-2.2,0.2-2.2l2.2,0.1l0,0c0,0.6,0,1.2,0,1.8c0,0.3,0,0.6,0,0.8v0.1c0,0.8-0.1,1.5-0.1,2.3l0,0
						C51.5,64,49,71.5,47.9,74.5z"/>
				</defs>
				<clipPath id="SVGID_49_">
					<use xlink:href="#SVGID_48_"  style="overflow:visible;"/>
				</clipPath>
				<path class="st33" d="M53,62.7v6.8h1.2c-1.5,1.6-3.2,2.3-4.7,1.9c-3-0.9-4.1-6.2-2.5-11.8c1.6-5.7,5.4-9.6,8.4-8.7H53
					C53,50.9,53,62.7,53,62.7z"/>
			</g>
			<g>
				<defs>
					<path id="SVGID_50_" d="M47.9,74.5c-0.3,0.9-0.6,1.4-0.6,1.4l-1.5-0.5l-3-1c0.9-2,1.7-3.9,2.5-5.7l0,0c3.4-8.6,4.5-14.9,4.9-18
						c0.2-1.4,0.2-2.2,0.2-2.2l2.2,0.1l0,0c0,0.6,0,1.2,0,1.8c0,0.3,0,0.6,0,0.8v0.1c0,0.8-0.1,1.5-0.1,2.3l0,0
						C51.5,64,49,71.5,47.9,74.5z"/>
				</defs>
				<clipPath id="SVGID_51_">
					<use xlink:href="#SVGID_50_"  style="overflow:visible;"/>
				</clipPath>
				<path class="st34" d="M53,62.7v6.7h1.2c-1.5,1.5-3.2,2.3-4.6,1.9c-3-0.9-4.1-6.1-2.5-11.6c1.6-5.6,5.3-9.4,8.3-8.6h-2.3v11.6H53
					z"/>
			</g>
			<g>
				<defs>
					<path id="SVGID_52_" d="M47.9,74.5c-0.3,0.9-0.6,1.4-0.6,1.4l-1.5-0.5l-3-1c0.9-2,1.7-3.9,2.5-5.7l0,0c3.4-8.6,4.5-14.9,4.9-18
						c0.2-1.4,0.2-2.2,0.2-2.2l2.2,0.1l0,0c0,0.6,0,1.2,0,1.8c0,0.3,0,0.6,0,0.8v0.1c0,0.8-0.1,1.5-0.1,2.3l0,0
						C51.5,64,49,71.5,47.9,74.5z"/>
				</defs>
				<clipPath id="SVGID_53_">
					<use xlink:href="#SVGID_52_"  style="overflow:visible;"/>
				</clipPath>
				<path class="st35" d="M53,62.7v6.6h1.1c-1.5,1.5-3.1,2.3-4.6,1.8c-2.9-0.8-4-6-2.4-11.4c1.6-5.5,5.2-9.3,8.1-8.4h-2.3L53,62.7
					L53,62.7z"/>
			</g>
			<g>
				<defs>
					<path id="SVGID_54_" d="M47.9,74.5c-0.3,0.9-0.6,1.4-0.6,1.4l-1.5-0.5l-3-1c0.9-2,1.7-3.9,2.5-5.7l0,0c3.4-8.6,4.5-14.9,4.9-18
						c0.2-1.4,0.2-2.2,0.2-2.2l2.2,0.1l0,0c0,0.6,0,1.2,0,1.8c0,0.3,0,0.6,0,0.8v0.1c0,0.8-0.1,1.5-0.1,2.3l0,0
						C51.5,64,49,71.5,47.9,74.5z"/>
				</defs>
				<clipPath id="SVGID_55_">
					<use xlink:href="#SVGID_54_"  style="overflow:visible;"/>
				</clipPath>
				<path class="st36" d="M53,62.7v6.5h1.1c-1.4,1.5-3.1,2.2-4.5,1.8c-2.9-0.8-3.9-5.9-2.4-11.3c1.5-5.4,5.1-9.1,8-8.3H53
					C53,51.4,53,62.7,53,62.7z"/>
			</g>
			<g>
				<defs>
					<path id="SVGID_56_" d="M47.9,74.5c-0.3,0.9-0.6,1.4-0.6,1.4l-1.5-0.5l-3-1c0.9-2,1.7-3.9,2.5-5.7l0,0c3.4-8.6,4.5-14.9,4.9-18
						c0.2-1.4,0.2-2.2,0.2-2.2l2.2,0.1l0,0c0,0.6,0,1.2,0,1.8c0,0.3,0,0.6,0,0.8v0.1c0,0.8-0.1,1.5-0.1,2.3l0,0
						C51.5,64,49,71.5,47.9,74.5z"/>
				</defs>
				<clipPath id="SVGID_57_">
					<use xlink:href="#SVGID_56_"  style="overflow:visible;"/>
				</clipPath>
				<path class="st37" d="M53,62.6V69h1.1c-1.4,1.5-3,2.2-4.4,1.8c-2.8-0.8-3.9-5.8-2.4-11.1s5-8.9,7.9-8.1H53
					C53,51.6,53,62.6,53,62.6z"/>
			</g>
			<g>
				<defs>
					<path id="SVGID_58_" d="M47.9,74.5c-0.3,0.9-0.6,1.4-0.6,1.4l-1.5-0.5l-3-1c0.9-2,1.7-3.9,2.5-5.7l0,0c3.4-8.6,4.5-14.9,4.9-18
						c0.2-1.4,0.2-2.2,0.2-2.2l2.2,0.1l0,0c0,0.6,0,1.2,0,1.8c0,0.3,0,0.6,0,0.8v0.1c0,0.8-0.1,1.5-0.1,2.3l0,0
						C51.5,64,49,71.5,47.9,74.5z"/>
				</defs>
				<clipPath id="SVGID_59_">
					<use xlink:href="#SVGID_58_"  style="overflow:visible;"/>
				</clipPath>
				<path class="st38" d="M53,62.6v6.3h1.1c-1.4,1.4-3,2.1-4.3,1.7c-2.8-0.8-3.8-5.7-2.3-10.9s5-8.8,7.7-8h-2.1v10.9H53z"/>
			</g>
			<g>
				<defs>
					<path id="SVGID_60_" d="M47.9,74.5c-0.3,0.9-0.6,1.4-0.6,1.4l-1.5-0.5l-3-1c0.9-2,1.7-3.9,2.5-5.7l0,0c3.4-8.6,4.5-14.9,4.9-18
						c0.2-1.4,0.2-2.2,0.2-2.2l2.2,0.1l0,0c0,0.6,0,1.2,0,1.8c0,0.3,0,0.6,0,0.8v0.1c0,0.8-0.1,1.5-0.1,2.3l0,0
						C51.5,64,49,71.5,47.9,74.5z"/>
				</defs>
				<clipPath id="SVGID_61_">
					<use xlink:href="#SVGID_60_"  style="overflow:visible;"/>
				</clipPath>
				<path class="st39" d="M53,62.6v6.1h1c-1.4,1.4-2.9,2.1-4.3,1.7c-2.7-0.8-3.7-5.6-2.3-10.7c1.5-5.1,4.9-8.6,7.6-7.9h-2.1L53,62.6
					L53,62.6z"/>
			</g>
			<g>
				<defs>
					<path id="SVGID_62_" d="M47.9,74.5c-0.3,0.9-0.6,1.4-0.6,1.4l-1.5-0.5l-3-1c0.9-2,1.7-3.9,2.5-5.7l0,0c3.4-8.6,4.5-14.9,4.9-18
						c0.2-1.4,0.2-2.2,0.2-2.2l2.2,0.1l0,0c0,0.6,0,1.2,0,1.8c0,0.3,0,0.6,0,0.8v0.1c0,0.8-0.1,1.5-0.1,2.3l0,0
						C51.5,64,49,71.5,47.9,74.5z"/>
				</defs>
				<clipPath id="SVGID_63_">
					<use xlink:href="#SVGID_62_"  style="overflow:visible;"/>
				</clipPath>
				<path class="st40" d="M53,62.6v6h1c-1.3,1.4-2.9,2.1-4.2,1.7c-2.7-0.8-3.7-5.5-2.2-10.5s4.8-8.5,7.5-7.7h-2L53,62.6L53,62.6z"/>
			</g>
			<g>
				<defs>
					<path id="SVGID_64_" d="M47.9,74.5c-0.3,0.9-0.6,1.4-0.6,1.4l-1.5-0.5l-3-1c0.9-2,1.7-3.9,2.5-5.7l0,0c3.4-8.6,4.5-14.9,4.9-18
						c0.2-1.4,0.2-2.2,0.2-2.2l2.2,0.1l0,0c0,0.6,0,1.2,0,1.8c0,0.3,0,0.6,0,0.8v0.1c0,0.8-0.1,1.5-0.1,2.3l0,0
						C51.5,64,49,71.5,47.9,74.5z"/>
				</defs>
				<clipPath id="SVGID_65_">
					<use xlink:href="#SVGID_64_"  style="overflow:visible;"/>
				</clipPath>
				<path class="st41" d="M53,62.5v5.9h1c-1.3,1.4-2.8,2-4.1,1.7c-2.6-0.8-3.6-5.4-2.2-10.3c1.4-4.9,4.7-8.3,7.3-7.6h-2V62.5z"/>
			</g>
			<g>
				<defs>
					<path id="SVGID_66_" d="M47.9,74.5c-0.3,0.9-0.6,1.4-0.6,1.4l-1.5-0.5l-3-1c0.9-2,1.7-3.9,2.5-5.7l0,0c3.4-8.6,4.5-14.9,4.9-18
						c0.2-1.4,0.2-2.2,0.2-2.2l2.2,0.1l0,0c0,0.6,0,1.2,0,1.8c0,0.3,0,0.6,0,0.8v0.1c0,0.8-0.1,1.5-0.1,2.3l0,0
						C51.5,64,49,71.5,47.9,74.5z"/>
				</defs>
				<clipPath id="SVGID_67_">
					<use xlink:href="#SVGID_66_"  style="overflow:visible;"/>
				</clipPath>
				<path class="st42" d="M53,62.5v5.8h0.9c-1.3,1.3-2.7,2-4,1.6c-2.6-0.7-3.5-5.3-2.2-10.1c1.4-4.8,4.6-8.2,7.2-7.4H53V62.5z"/>
			</g>
			<g>
				<defs>
					<path id="SVGID_68_" d="M47.9,74.5c-0.3,0.9-0.6,1.4-0.6,1.4l-1.5-0.5l-3-1c0.9-2,1.7-3.9,2.5-5.7l0,0c3.4-8.6,4.5-14.9,4.9-18
						c0.2-1.4,0.2-2.2,0.2-2.2l2.2,0.1l0,0c0,0.6,0,1.2,0,1.8c0,0.3,0,0.6,0,0.8v0.1c0,0.8-0.1,1.5-0.1,2.3l0,0
						C51.5,64,49,71.5,47.9,74.5z"/>
				</defs>
				<clipPath id="SVGID_69_">
					<use xlink:href="#SVGID_68_"  style="overflow:visible;"/>
				</clipPath>
				<path class="st43" d="M53,62.5v5.7h0.9c-1.3,1.3-2.7,2-4,1.6c-2.5-0.7-3.5-5.2-2.1-9.9s4.5-8,7-7.3h-1.9L53,62.5L53,62.5z"/>
			</g>
			<g>
				<defs>
					<path id="SVGID_70_" d="M47.9,74.5c-0.3,0.9-0.6,1.4-0.6,1.4l-1.5-0.5l-3-1c0.9-2,1.7-3.9,2.5-5.7l0,0c3.4-8.6,4.5-14.9,4.9-18
						c0.2-1.4,0.2-2.2,0.2-2.2l2.2,0.1l0,0c0,0.6,0,1.2,0,1.8c0,0.3,0,0.6,0,0.8v0.1c0,0.8-0.1,1.5-0.1,2.3l0,0
						C51.5,64,49,71.5,47.9,74.5z"/>
				</defs>
				<clipPath id="SVGID_71_">
					<use xlink:href="#SVGID_70_"  style="overflow:visible;"/>
				</clipPath>
				<path class="st44" d="M53,62.5v5.6h0.9c-1.3,1.3-2.6,1.9-3.9,1.6c-2.5-0.7-3.4-5.1-2.1-9.7c1.3-4.7,4.4-7.9,6.9-7.2H53
					C53,52.8,53,62.5,53,62.5z"/>
			</g>
			<g>
				<defs>
					<path id="SVGID_72_" d="M47.9,74.5c-0.3,0.9-0.6,1.4-0.6,1.4l-1.5-0.5l-3-1c0.9-2,1.7-3.9,2.5-5.7l0,0c3.4-8.6,4.5-14.9,4.9-18
						c0.2-1.4,0.2-2.2,0.2-2.2l2.2,0.1l0,0c0,0.6,0,1.2,0,1.8c0,0.3,0,0.6,0,0.8v0.1c0,0.8-0.1,1.5-0.1,2.3l0,0
						C51.5,64,49,71.5,47.9,74.5z"/>
				</defs>
				<clipPath id="SVGID_73_">
					<use xlink:href="#SVGID_72_"  style="overflow:visible;"/>
				</clipPath>
				<path class="st45" d="M53,62.4v5.5h0.9c-1.2,1.3-2.6,1.9-3.8,1.5c-2.4-0.7-3.3-5-2-9.5c1.3-4.6,4.3-7.7,6.8-7h-1.8v9.5H53z"/>
			</g>
			<g>
				<defs>
					<path id="SVGID_74_" d="M47.9,74.5c-0.3,0.9-0.6,1.4-0.6,1.4l-1.5-0.5l-3-1c0.9-2,1.7-3.9,2.5-5.7l0,0c3.4-8.6,4.5-14.9,4.9-18
						c0.2-1.4,0.2-2.2,0.2-2.2l2.2,0.1l0,0c0,0.6,0,1.2,0,1.8c0,0.3,0,0.6,0,0.8v0.1c0,0.8-0.1,1.5-0.1,2.3l0,0
						C51.5,64,49,71.5,47.9,74.5z"/>
				</defs>
				<clipPath id="SVGID_75_">
					<use xlink:href="#SVGID_74_"  style="overflow:visible;"/>
				</clipPath>
				<path class="st46" d="M56.8,62.4c-1.3,4.5-4.3,7.6-6.6,6.9c-2.4-0.7-3.3-4.9-2-9.3c1.3-4.5,4.3-7.6,6.6-6.9h-1.7v9.3H56.8z"/>
			</g>
			<g>
				<defs>
					<path id="SVGID_76_" d="M47.9,74.5c-0.3,0.9-0.6,1.4-0.6,1.4l-1.5-0.5l-3-1c0.9-2,1.7-3.9,2.5-5.7l0,0c3.4-8.6,4.5-14.9,4.9-18
						c0.2-1.4,0.2-2.2,0.2-2.2l2.2,0.1l0,0c0,0.6,0,1.2,0,1.8c0,0.3,0,0.6,0,0.8v0.1c0,0.8-0.1,1.5-0.1,2.3l0,0
						C51.5,64,49,71.5,47.9,74.5z"/>
				</defs>
				<clipPath id="SVGID_77_">
					<use xlink:href="#SVGID_76_"  style="overflow:visible;"/>
				</clipPath>
				<path class="st47" d="M56.7,62.4c-1.3,4.4-4.2,7.4-6.5,6.7s-3.2-4.8-2-9.2c1.3-4.4,4.2-7.4,6.5-6.7H53v9.2H56.7z"/>
			</g>
			<g>
				<defs>
					<path id="SVGID_78_" d="M47.9,74.5c-0.3,0.9-0.6,1.4-0.6,1.4l-1.5-0.5l-3-1c0.9-2,1.7-3.9,2.5-5.7l0,0c3.4-8.6,4.5-14.9,4.9-18
						c0.2-1.4,0.2-2.2,0.2-2.2l2.2,0.1l0,0c0,0.6,0,1.2,0,1.8c0,0.3,0,0.6,0,0.8v0.1c0,0.8-0.1,1.5-0.1,2.3l0,0
						C51.5,64,49,71.5,47.9,74.5z"/>
				</defs>
				<clipPath id="SVGID_79_">
					<use xlink:href="#SVGID_78_"  style="overflow:visible;"/>
				</clipPath>
				<path class="st48" d="M56.6,62.4c-1.2,4.3-4.1,7.3-6.4,6.6c-2.3-0.7-3.1-4.7-1.9-9c1.2-4.3,4.1-7.3,6.4-6.6h-1.6v9H56.6z"/>
			</g>
			<g>
				<defs>
					<path id="SVGID_80_" d="M47.9,74.5c-0.3,0.9-0.6,1.4-0.6,1.4l-1.5-0.5l-3-1c0.9-2,1.7-3.9,2.5-5.7l0,0c3.4-8.6,4.5-14.9,4.9-18
						c0.2-1.4,0.2-2.2,0.2-2.2l2.2,0.1l0,0c0,0.6,0,1.2,0,1.8c0,0.3,0,0.6,0,0.8v0.1c0,0.8-0.1,1.5-0.1,2.3l0,0
						C51.5,64,49,71.5,47.9,74.5z"/>
				</defs>
				<clipPath id="SVGID_81_">
					<use xlink:href="#SVGID_80_"  style="overflow:visible;"/>
				</clipPath>
				<path class="st49" d="M56.5,62.3c-1.2,4.2-4,7.1-6.2,6.5s-3.1-4.6-1.9-8.8c1.2-4.2,4-7.1,6.2-6.5H53v8.8H56.5z"/>
			</g>
			<g>
				<defs>
					<path id="SVGID_82_" d="M47.9,74.5c-0.3,0.9-0.6,1.4-0.6,1.4l-1.5-0.5l-3-1c0.9-2,1.7-3.9,2.5-5.7l0,0c3.4-8.6,4.5-14.9,4.9-18
						c0.2-1.4,0.2-2.2,0.2-2.2l2.2,0.1l0,0c0,0.6,0,1.2,0,1.8c0,0.3,0,0.6,0,0.8v0.1c0,0.8-0.1,1.5-0.1,2.3l0,0
						C51.5,64,49,71.5,47.9,74.5z"/>
				</defs>
				<clipPath id="SVGID_83_">
					<use xlink:href="#SVGID_82_"  style="overflow:visible;"/>
				</clipPath>
				<path class="st50" d="M56.4,62.3c-1.2,4.1-3.9,6.9-6.1,6.3c-2.2-0.6-3-4.5-1.8-8.6s3.9-6.9,6.1-6.3h-1.5v8.6H56.4z"/>
			</g>
			<g>
				<defs>
					<path id="SVGID_84_" d="M47.9,74.5c-0.3,0.9-0.6,1.4-0.6,1.4l-1.5-0.5l-3-1c0.9-2,1.7-3.9,2.5-5.7l0,0c3.4-8.6,4.5-14.9,4.9-18
						c0.2-1.4,0.2-2.2,0.2-2.2l2.2,0.1l0,0c0,0.6,0,1.2,0,1.8c0,0.3,0,0.6,0,0.8v0.1c0,0.8-0.1,1.5-0.1,2.3l0,0
						C51.5,64,49,71.5,47.9,74.5z"/>
				</defs>
				<clipPath id="SVGID_85_">
					<use xlink:href="#SVGID_84_"  style="overflow:visible;"/>
				</clipPath>
				<path class="st51" d="M56.3,62.3c-1.2,4-3.8,6.8-6,6.2c-2.1-0.6-2.9-4.4-1.8-8.4c1.2-4,3.8-6.8,6-6.2H53v8.4H56.3z"/>
			</g>
			<g>
				<defs>
					<path id="SVGID_86_" d="M47.9,74.5c-0.3,0.9-0.6,1.4-0.6,1.4l-1.5-0.5l-3-1c0.9-2,1.7-3.9,2.5-5.7l0,0c3.4-8.6,4.5-14.9,4.9-18
						c0.2-1.4,0.2-2.2,0.2-2.2l2.2,0.1l0,0c0,0.6,0,1.2,0,1.8c0,0.3,0,0.6,0,0.8v0.1c0,0.8-0.1,1.5-0.1,2.3l0,0
						C51.5,64,49,71.5,47.9,74.5z"/>
				</defs>
				<clipPath id="SVGID_87_">
					<use xlink:href="#SVGID_86_"  style="overflow:visible;"/>
				</clipPath>
				<path class="st52" d="M56.2,62.3c-1.1,3.9-3.7,6.6-5.8,6s-2.9-4.3-1.8-8.2c1.1-3.9,3.7-6.6,5.8-6h-1.5v8.2H56.2z"/>
			</g>
			<g>
				<defs>
					<path id="SVGID_88_" d="M47.9,74.5c-0.3,0.9-0.6,1.4-0.6,1.4l-1.5-0.5l-3-1c0.9-2,1.7-3.9,2.5-5.7l0,0c3.4-8.6,4.5-14.9,4.9-18
						c0.2-1.4,0.2-2.2,0.2-2.2l2.2,0.1l0,0c0,0.6,0,1.2,0,1.8c0,0.3,0,0.6,0,0.8v0.1c0,0.8-0.1,1.5-0.1,2.3l0,0
						C51.5,64,49,71.5,47.9,74.5z"/>
				</defs>
				<clipPath id="SVGID_89_">
					<use xlink:href="#SVGID_88_"  style="overflow:visible;"/>
				</clipPath>
				<path class="st53" d="M56.2,62.2c-1.1,3.8-3.6,6.5-5.7,5.9c-2-0.6-2.8-4.2-1.7-8s3.6-6.5,5.7-5.9h-1.4v8H56.2z"/>
			</g>
			<g>
				<defs>
					<path id="SVGID_90_" d="M47.9,74.5c-0.3,0.9-0.6,1.4-0.6,1.4l-1.5-0.5l-3-1c0.9-2,1.7-3.9,2.5-5.7l0,0c3.4-8.6,4.5-14.9,4.9-18
						c0.2-1.4,0.2-2.2,0.2-2.2l2.2,0.1l0,0c0,0.6,0,1.2,0,1.8c0,0.3,0,0.6,0,0.8v0.1c0,0.8-0.1,1.5-0.1,2.3l0,0
						C51.5,64,49,71.5,47.9,74.5z"/>
				</defs>
				<clipPath id="SVGID_91_">
					<use xlink:href="#SVGID_90_"  style="overflow:visible;"/>
				</clipPath>
				<path class="st54" d="M56.1,62.2c-1.1,3.7-3.6,6.3-5.6,5.8c-2-0.6-2.7-4.1-1.7-7.8c1.1-3.7,3.6-6.3,5.6-5.8H53v7.8H56.1z"/>
			</g>
			<g>
				<defs>
					<path id="SVGID_92_" d="M47.9,74.5c-0.3,0.9-0.6,1.4-0.6,1.4l-1.5-0.5l-3-1c0.9-2,1.7-3.9,2.5-5.7l0,0c3.4-8.6,4.5-14.9,4.9-18
						c0.2-1.4,0.2-2.2,0.2-2.2l2.2,0.1l0,0c0,0.6,0,1.2,0,1.8c0,0.3,0,0.6,0,0.8v0.1c0,0.8-0.1,1.5-0.1,2.3l0,0
						C51.5,64,49,71.5,47.9,74.5z"/>
				</defs>
				<clipPath id="SVGID_93_">
					<use xlink:href="#SVGID_92_"  style="overflow:visible;"/>
				</clipPath>
				<path class="st55" d="M56,62.2c-1,3.7-3.5,6.2-5.4,5.6c-1.9-0.6-2.7-4-1.6-7.6c1-3.7,3.5-6.2,5.4-5.6h-1.3v7.6H56z"/>
			</g>
			<g>
				<defs>
					<path id="SVGID_94_" d="M47.9,74.5c-0.3,0.9-0.6,1.4-0.6,1.4l-1.5-0.5l-3-1c0.9-2,1.7-3.9,2.5-5.7l0,0c3.4-8.6,4.5-14.9,4.9-18
						c0.2-1.4,0.2-2.2,0.2-2.2l2.2,0.1l0,0c0,0.6,0,1.2,0,1.8c0,0.3,0,0.6,0,0.8v0.1c0,0.8-0.1,1.5-0.1,2.3l0,0
						C51.5,64,49,71.5,47.9,74.5z"/>
				</defs>
				<clipPath id="SVGID_95_">
					<use xlink:href="#SVGID_94_"  style="overflow:visible;"/>
				</clipPath>
				<path class="st56" d="M55.9,62.2c-1,3.6-3.4,6-5.3,5.5c-1.9-0.5-2.6-3.9-1.6-7.4c1-3.6,3.4-6,5.3-5.5H53v7.4H55.9z"/>
			</g>
			<g>
				<defs>
					<path id="SVGID_96_" d="M47.9,74.5c-0.3,0.9-0.6,1.4-0.6,1.4l-1.5-0.5l-3-1c0.9-2,1.7-3.9,2.5-5.7l0,0c3.4-8.6,4.5-14.9,4.9-18
						c0.2-1.4,0.2-2.2,0.2-2.2l2.2,0.1l0,0c0,0.6,0,1.2,0,1.8c0,0.3,0,0.6,0,0.8v0.1c0,0.8-0.1,1.5-0.1,2.3l0,0
						C51.5,64,49,71.5,47.9,74.5z"/>
				</defs>
				<clipPath id="SVGID_97_">
					<use xlink:href="#SVGID_96_"  style="overflow:visible;"/>
				</clipPath>
				<path class="st57" d="M55.8,62.1c-1,3.5-3.3,5.9-5.2,5.3c-1.8-0.5-2.5-3.8-1.5-7.3s3.3-5.9,5.2-5.3h-1.2v7.3H55.8z"/>
			</g>
			<g>
				<defs>
					<path id="SVGID_98_" d="M47.9,74.5c-0.3,0.9-0.6,1.4-0.6,1.4l-1.5-0.5l-3-1c0.9-2,1.7-3.9,2.5-5.7l0,0c3.4-8.6,4.5-14.9,4.9-18
						c0.2-1.4,0.2-2.2,0.2-2.2l2.2,0.1l0,0c0,0.6,0,1.2,0,1.8c0,0.3,0,0.6,0,0.8v0.1c0,0.8-0.1,1.5-0.1,2.3l0,0
						C51.5,64,49,71.5,47.9,74.5z"/>
				</defs>
				<clipPath id="SVGID_99_">
					<use xlink:href="#SVGID_98_"  style="overflow:visible;"/>
				</clipPath>
				<path class="st58" d="M55.7,62.1c-1,3.4-3.2,5.7-5,5.2s-2.5-3.7-1.5-7.1c1-3.4,3.2-5.7,5-5.2H53v7.1H55.7z"/>
			</g>
			<g>
				<defs>
					<path id="SVGID_100_" d="M47.9,74.5c-0.3,0.9-0.6,1.4-0.6,1.4l-1.5-0.5l-3-1c0.9-2,1.7-3.9,2.5-5.7l0,0
						c3.4-8.6,4.5-14.9,4.9-18c0.2-1.4,0.2-2.2,0.2-2.2l2.2,0.1l0,0c0,0.6,0,1.2,0,1.8c0,0.3,0,0.6,0,0.8v0.1c0,0.8-0.1,1.5-0.1,2.3
						l0,0C51.5,64,49,71.5,47.9,74.5z"/>
				</defs>
				<clipPath id="SVGID_101_">
					<use xlink:href="#SVGID_100_"  style="overflow:visible;"/>
				</clipPath>
				<path class="st59" d="M55.6,62.1c-0.9,3.3-3.1,5.6-4.9,5.1c-1.8-0.5-2.4-3.6-1.5-6.9c0.9-3.3,3.1-5.6,4.9-5.1H53v6.9H55.6z"/>
			</g>
			<g>
				<defs>
					<path id="SVGID_102_" d="M47.9,74.5c-0.3,0.9-0.6,1.4-0.6,1.4l-1.5-0.5l-3-1c0.9-2,1.7-3.9,2.5-5.7l0,0
						c3.4-8.6,4.5-14.9,4.9-18c0.2-1.4,0.2-2.2,0.2-2.2l2.2,0.1l0,0c0,0.6,0,1.2,0,1.8c0,0.3,0,0.6,0,0.8v0.1c0,0.8-0.1,1.5-0.1,2.3
						l0,0C51.5,64,49,71.5,47.9,74.5z"/>
				</defs>
				<clipPath id="SVGID_103_">
					<use xlink:href="#SVGID_102_"  style="overflow:visible;"/>
				</clipPath>
				<path class="st60" d="M55.5,62.1c-0.9,3.2-3,5.4-4.7,4.9s-2.3-3.5-1.4-6.7c0.9-3.2,3-5.4,4.7-4.9H53v6.7H55.5z"/>
			</g>
			<g>
				<defs>
					<path id="SVGID_104_" d="M47.9,74.5c-0.3,0.9-0.6,1.4-0.6,1.4l-1.5-0.5l-3-1c0.9-2,1.7-3.9,2.5-5.7l0,0
						c3.4-8.6,4.5-14.9,4.9-18c0.2-1.4,0.2-2.2,0.2-2.2l2.2,0.1l0,0c0,0.6,0,1.2,0,1.8c0,0.3,0,0.6,0,0.8v0.1c0,0.8-0.1,1.5-0.1,2.3
						l0,0C51.5,64,49,71.5,47.9,74.5z"/>
				</defs>
				<clipPath id="SVGID_105_">
					<use xlink:href="#SVGID_104_"  style="overflow:visible;"/>
				</clipPath>
				<path class="st61" d="M55.5,62c-0.9,3.1-3,5.2-4.6,4.8c-1.7-0.5-2.3-3.4-1.4-6.5c0.9-3.1,3-5.2,4.6-4.8h-1V62H55.5z"/>
			</g>
			<g>
				<defs>
					<path id="SVGID_106_" d="M47.9,74.5c-0.3,0.9-0.6,1.4-0.6,1.4l-1.5-0.5l-3-1c0.9-2,1.7-3.9,2.5-5.7l0,0
						c3.4-8.6,4.5-14.9,4.9-18c0.2-1.4,0.2-2.2,0.2-2.2l2.2,0.1l0,0c0,0.6,0,1.2,0,1.8c0,0.3,0,0.6,0,0.8v0.1c0,0.8-0.1,1.5-0.1,2.3
						l0,0C51.5,64,49,71.5,47.9,74.5z"/>
				</defs>
				<clipPath id="SVGID_107_">
					<use xlink:href="#SVGID_106_"  style="overflow:visible;"/>
				</clipPath>
				<path class="st62" d="M55.4,62c-0.9,3-2.9,5.1-4.5,4.6s-2.2-3.3-1.3-6.3s2.9-5.1,4.5-4.6h-1V62H55.4z"/>
			</g>
			<g>
				<defs>
					<path id="SVGID_108_" d="M47.9,74.5c-0.3,0.9-0.6,1.4-0.6,1.4l-1.5-0.5l-3-1c0.9-2,1.7-3.9,2.5-5.7l0,0
						c3.4-8.6,4.5-14.9,4.9-18c0.2-1.4,0.2-2.2,0.2-2.2l2.2,0.1l0,0c0,0.6,0,1.2,0,1.8c0,0.3,0,0.6,0,0.8v0.1c0,0.8-0.1,1.5-0.1,2.3
						l0,0C51.5,64,49,71.5,47.9,74.5z"/>
				</defs>
				<clipPath id="SVGID_109_">
					<use xlink:href="#SVGID_108_"  style="overflow:visible;"/>
				</clipPath>
				<path class="st63" d="M55.3,62c-0.8,2.9-2.8,4.9-4.3,4.5c-1.6-0.4-2.1-3.2-1.3-6.1c0.8-2.9,2.8-4.9,4.3-4.5h-0.9V62H55.3z"/>
			</g>
			<g>
				<defs>
					<path id="SVGID_110_" d="M47.9,74.5c-0.3,0.9-0.6,1.4-0.6,1.4l-1.5-0.5l-3-1c0.9-2,1.7-3.9,2.5-5.7l0,0
						c3.4-8.6,4.5-14.9,4.9-18c0.2-1.4,0.2-2.2,0.2-2.2l2.2,0.1l0,0c0,0.6,0,1.2,0,1.8c0,0.3,0,0.6,0,0.8v0.1c0,0.8-0.1,1.5-0.1,2.3
						l0,0C51.5,64,49,71.5,47.9,74.5z"/>
				</defs>
				<clipPath id="SVGID_111_">
					<use xlink:href="#SVGID_110_"  style="overflow:visible;"/>
				</clipPath>
				<path class="st64" d="M55.2,62c-0.8,2.8-2.7,4.8-4.2,4.3c-1.5-0.4-2.1-3.1-1.3-5.9c0.8-2.8,2.7-4.8,4.2-4.3H53V62H55.2z"/>
			</g>
			<g>
				<defs>
					<path id="SVGID_112_" d="M47.9,74.5c-0.3,0.9-0.6,1.4-0.6,1.4l-1.5-0.5l-3-1c0.9-2,1.7-3.9,2.5-5.7l0,0
						c3.4-8.6,4.5-14.9,4.9-18c0.2-1.4,0.2-2.2,0.2-2.2l2.2,0.1l0,0c0,0.6,0,1.2,0,1.8c0,0.3,0,0.6,0,0.8v0.1c0,0.8-0.1,1.5-0.1,2.3
						l0,0C51.5,64,49,71.5,47.9,74.5z"/>
				</defs>
				<clipPath id="SVGID_113_">
					<use xlink:href="#SVGID_112_"  style="overflow:visible;"/>
				</clipPath>
				<path class="st65" d="M55.1,61.9c-0.8,2.7-2.6,4.6-4.1,4.2c-1.5-0.4-2-3-1.2-5.7s2.6-4.6,4.1-4.2h-0.8v5.7H55.1z"/>
			</g>
			<g>
				<defs>
					<path id="SVGID_114_" d="M47.9,74.5c-0.3,0.9-0.6,1.4-0.6,1.4l-1.5-0.5l-3-1c0.9-2,1.7-3.9,2.5-5.7l0,0
						c3.4-8.6,4.5-14.9,4.9-18c0.2-1.4,0.2-2.2,0.2-2.2l2.2,0.1l0,0c0,0.6,0,1.2,0,1.8c0,0.3,0,0.6,0,0.8v0.1c0,0.8-0.1,1.5-0.1,2.3
						l0,0C51.5,64,49,71.5,47.9,74.5z"/>
				</defs>
				<clipPath id="SVGID_115_">
					<use xlink:href="#SVGID_114_"  style="overflow:visible;"/>
				</clipPath>
				<path class="st66" d="M55,61.9c-0.8,2.7-2.5,4.5-3.9,4.1s-1.9-2.9-1.2-5.5c0.8-2.7,2.5-4.5,3.9-4.1H53v5.5H55z"/>
			</g>
			<g>
				<defs>
					<path id="SVGID_116_" d="M47.9,74.5c-0.3,0.9-0.6,1.4-0.6,1.4l-1.5-0.5l-3-1c0.9-2,1.7-3.9,2.5-5.7l0,0
						c3.4-8.6,4.5-14.9,4.9-18c0.2-1.4,0.2-2.2,0.2-2.2l2.2,0.1l0,0c0,0.6,0,1.2,0,1.8c0,0.3,0,0.6,0,0.8v0.1c0,0.8-0.1,1.5-0.1,2.3
						l0,0C51.5,64,49,71.5,47.9,74.5z"/>
				</defs>
				<clipPath id="SVGID_117_">
					<use xlink:href="#SVGID_116_"  style="overflow:visible;"/>
				</clipPath>
				<path class="st67" d="M54.9,61.9c-0.7,2.6-2.4,4.3-3.8,3.9c-1.4-0.4-1.9-2.8-1.1-5.3c0.7-2.6,2.4-4.3,3.8-3.9h-0.7v5.3H54.9z"/>
			</g>
			<g>
				<defs>
					<path id="SVGID_118_" d="M47.9,74.5c-0.3,0.9-0.6,1.4-0.6,1.4l-1.5-0.5l-3-1c0.9-2,1.7-3.9,2.5-5.7l0,0
						c3.4-8.6,4.5-14.9,4.9-18c0.2-1.4,0.2-2.2,0.2-2.2l2.2,0.1l0,0c0,0.6,0,1.2,0,1.8c0,0.3,0,0.6,0,0.8v0.1c0,0.8-0.1,1.5-0.1,2.3
						l0,0C51.5,64,49,71.5,47.9,74.5z"/>
				</defs>
				<clipPath id="SVGID_119_">
					<use xlink:href="#SVGID_118_"  style="overflow:visible;"/>
				</clipPath>
				<path class="st68" d="M54.8,61.9c-0.7,2.5-2.3,4.2-3.7,3.8c-1.3-0.4-1.8-2.7-1.1-5.2s2.3-4.2,3.7-3.8H53v5.2H54.8z"/>
			</g>
			<g>
				<defs>
					<path id="SVGID_120_" d="M47.9,74.5c-0.3,0.9-0.6,1.4-0.6,1.4l-1.5-0.5l-3-1c0.9-2,1.7-3.9,2.5-5.7l0,0
						c3.4-8.6,4.5-14.9,4.9-18c0.2-1.4,0.2-2.2,0.2-2.2l2.2,0.1l0,0c0,0.6,0,1.2,0,1.8c0,0.3,0,0.6,0,0.8v0.1c0,0.8-0.1,1.5-0.1,2.3
						l0,0C51.5,64,49,71.5,47.9,74.5z"/>
				</defs>
				<clipPath id="SVGID_121_">
					<use xlink:href="#SVGID_120_"  style="overflow:visible;"/>
				</clipPath>
				<path class="st69" d="M54.7,61.8c-0.7,2.4-2.3,4-3.5,3.6c-1.3-0.4-1.7-2.6-1.1-5c0.7-2.4,2.3-4,3.5-3.6H53v5H54.7z"/>
			</g>
			<g>
				<defs>
					<path id="SVGID_122_" d="M47.9,74.5c-0.3,0.9-0.6,1.4-0.6,1.4l-1.5-0.5l-3-1c0.9-2,1.7-3.9,2.5-5.7l0,0
						c3.4-8.6,4.5-14.9,4.9-18c0.2-1.4,0.2-2.2,0.2-2.2l2.2,0.1l0,0c0,0.6,0,1.2,0,1.8c0,0.3,0,0.6,0,0.8v0.1c0,0.8-0.1,1.5-0.1,2.3
						l0,0C51.5,64,49,71.5,47.9,74.5z"/>
				</defs>
				<clipPath id="SVGID_123_">
					<use xlink:href="#SVGID_122_"  style="overflow:visible;"/>
				</clipPath>
				<path class="st70" d="M54.7,61.8c-0.7,2.3-2.2,3.9-3.4,3.5c-1.2-0.3-1.7-2.5-1-4.8s2.2-3.9,3.4-3.5h-0.6v4.8H54.7z"/>
			</g>
			<g>
				<defs>
					<path id="SVGID_124_" d="M47.9,74.5c-0.3,0.9-0.6,1.4-0.6,1.4l-1.5-0.5l-3-1c0.9-2,1.7-3.9,2.5-5.7l0,0
						c3.4-8.6,4.5-14.9,4.9-18c0.2-1.4,0.2-2.2,0.2-2.2l2.2,0.1l0,0c0,0.6,0,1.2,0,1.8c0,0.3,0,0.6,0,0.8v0.1c0,0.8-0.1,1.5-0.1,2.3
						l0,0C51.5,64,49,71.5,47.9,74.5z"/>
				</defs>
				<clipPath id="SVGID_125_">
					<use xlink:href="#SVGID_124_"  style="overflow:visible;"/>
				</clipPath>
				<path class="st71" d="M54.6,61.8c-0.6,2.2-2.1,3.7-3.3,3.4s-1.6-2.4-1-4.6c0.6-2.2,2.1-3.7,3.3-3.4H53v4.6H54.6z"/>
			</g>
			<g>
				<defs>
					<path id="SVGID_126_" d="M47.9,74.5c-0.3,0.9-0.6,1.4-0.6,1.4l-1.5-0.5l-3-1c0.9-2,1.7-3.9,2.5-5.7l0,0
						c3.4-8.6,4.5-14.9,4.9-18c0.2-1.4,0.2-2.2,0.2-2.2l2.2,0.1l0,0c0,0.6,0,1.2,0,1.8c0,0.3,0,0.6,0,0.8v0.1c0,0.8-0.1,1.5-0.1,2.3
						l0,0C51.5,64,49,71.5,47.9,74.5z"/>
				</defs>
				<clipPath id="SVGID_127_">
					<use xlink:href="#SVGID_126_"  style="overflow:visible;"/>
				</clipPath>
				<path class="st72" d="M54.5,61.7c-0.6,2.1-2,3.5-3.1,3.2s-1.5-2.3-0.9-4.4c0.6-2.1,2-3.5,3.1-3.2h-0.5v4.4H54.5z"/>
			</g>
			<g>
				<defs>
					<path id="SVGID_128_" d="M47.9,74.5c-0.3,0.9-0.6,1.4-0.6,1.4l-1.5-0.5l-3-1c0.9-2,1.7-3.9,2.5-5.7l0,0
						c3.4-8.6,4.5-14.9,4.9-18c0.2-1.4,0.2-2.2,0.2-2.2l2.2,0.1l0,0c0,0.6,0,1.2,0,1.8c0,0.3,0,0.6,0,0.8v0.1c0,0.8-0.1,1.5-0.1,2.3
						l0,0C51.5,64,49,71.5,47.9,74.5z"/>
				</defs>
				<clipPath id="SVGID_129_">
					<use xlink:href="#SVGID_128_"  style="overflow:visible;"/>
				</clipPath>
				<path class="st73" d="M54.4,61.7c-0.6,2-1.9,3.4-3,3.1c-1.1-0.3-1.5-2.2-0.9-4.2s1.9-3.4,3-3.1H53v4.2H54.4z"/>
			</g>
			<g>
				<defs>
					<path id="SVGID_130_" d="M47.9,74.5c-0.3,0.9-0.6,1.4-0.6,1.4l-1.5-0.5l-3-1c0.9-2,1.7-3.9,2.5-5.7l0,0
						c3.4-8.6,4.5-14.9,4.9-18c0.2-1.4,0.2-2.2,0.2-2.2l2.2,0.1l0,0c0,0.6,0,1.2,0,1.8c0,0.3,0,0.6,0,0.8v0.1c0,0.8-0.1,1.5-0.1,2.3
						l0,0C51.5,64,49,71.5,47.9,74.5z"/>
				</defs>
				<clipPath id="SVGID_131_">
					<use xlink:href="#SVGID_130_"  style="overflow:visible;"/>
				</clipPath>
				<path class="st74" d="M54.3,61.7c-0.6,1.9-1.8,3.2-2.8,2.9s-1.4-2.1-0.9-4c0.6-1.9,1.8-3.2,2.8-2.9H53v4H54.3z"/>
			</g>
			<g>
				<defs>
					<path id="SVGID_132_" d="M47.9,74.5c-0.3,0.9-0.6,1.4-0.6,1.4l-1.5-0.5l-3-1c0.9-2,1.7-3.9,2.5-5.7l0,0
						c3.4-8.6,4.5-14.9,4.9-18c0.2-1.4,0.2-2.2,0.2-2.2l2.2,0.1l0,0c0,0.6,0,1.2,0,1.8c0,0.3,0,0.6,0,0.8v0.1c0,0.8-0.1,1.5-0.1,2.3
						l0,0C51.5,64,49,71.5,47.9,74.5z"/>
				</defs>
				<clipPath id="SVGID_133_">
					<use xlink:href="#SVGID_132_"  style="overflow:visible;"/>
				</clipPath>
				<path class="st75" d="M54.2,61.7c-0.5,1.8-1.7,3.1-2.7,2.8s-1.3-2-0.8-3.8s1.7-3.1,2.7-2.8H53v3.8H54.2z"/>
			</g>
			<g>
				<defs>
					<path id="SVGID_134_" d="M47.9,74.5c-0.3,0.9-0.6,1.4-0.6,1.4l-1.5-0.5l-3-1c0.9-2,1.7-3.9,2.5-5.7l0,0
						c3.4-8.6,4.5-14.9,4.9-18c0.2-1.4,0.2-2.2,0.2-2.2l2.2,0.1l0,0c0,0.6,0,1.2,0,1.8c0,0.3,0,0.6,0,0.8v0.1c0,0.8-0.1,1.5-0.1,2.3
						l0,0C51.5,64,49,71.5,47.9,74.5z"/>
				</defs>
				<clipPath id="SVGID_135_">
					<use xlink:href="#SVGID_134_"  style="overflow:visible;"/>
				</clipPath>
				<path class="st76" d="M54.1,61.6c-0.5,1.7-1.7,2.9-2.6,2.7c-0.9-0.3-1.3-1.9-0.8-3.6c0.5-1.7,1.7-2.9,2.6-2.7H53v3.6H54.1z"/>
			</g>
			<g>
				<defs>
					<path id="SVGID_136_" d="M47.9,74.5c-0.3,0.9-0.6,1.4-0.6,1.4l-1.5-0.5l-3-1c0.9-2,1.7-3.9,2.5-5.7l0,0
						c3.4-8.6,4.5-14.9,4.9-18c0.2-1.4,0.2-2.2,0.2-2.2l2.2,0.1l0,0c0,0.6,0,1.2,0,1.8c0,0.3,0,0.6,0,0.8v0.1c0,0.8-0.1,1.5-0.1,2.3
						l0,0C51.5,64,49,71.5,47.9,74.5z"/>
				</defs>
				<clipPath id="SVGID_137_">
					<use xlink:href="#SVGID_136_"  style="overflow:visible;"/>
				</clipPath>
				<path class="st77" d="M54,61.6c-0.5,1.6-1.6,2.8-2.4,2.5c-0.9-0.3-1.2-1.8-0.7-3.4c0.5-1.6,1.6-2.8,2.4-2.5H53v3.4H54z"/>
			</g>
			<g>
				<defs>
					<path id="SVGID_138_" d="M47.9,74.5c-0.3,0.9-0.6,1.4-0.6,1.4l-1.5-0.5l-3-1c0.9-2,1.7-3.9,2.5-5.7l0,0
						c3.4-8.6,4.5-14.9,4.9-18c0.2-1.4,0.2-2.2,0.2-2.2l2.2,0.1l0,0c0,0.6,0,1.2,0,1.8c0,0.3,0,0.6,0,0.8v0.1c0,0.8-0.1,1.5-0.1,2.3
						l0,0C51.5,64,49,71.5,47.9,74.5z"/>
				</defs>
				<clipPath id="SVGID_139_">
					<use xlink:href="#SVGID_138_"  style="overflow:visible;"/>
				</clipPath>
				<path class="st78" d="M54,61.6c-0.4,1.6-1.5,2.6-2.3,2.4c-0.8-0.2-1.1-1.7-0.7-3.2c0.4-1.6,1.5-2.6,2.3-2.4h-0.2v3.2H54z"/>
			</g>
			<g>
				<defs>
					<path id="SVGID_140_" d="M47.9,74.5c-0.3,0.9-0.6,1.4-0.6,1.4l-1.5-0.5l-3-1c0.9-2,1.7-3.9,2.5-5.7l0,0
						c3.4-8.6,4.5-14.9,4.9-18c0.2-1.4,0.2-2.2,0.2-2.2l2.2,0.1l0,0c0,0.6,0,1.2,0,1.8c0,0.3,0,0.6,0,0.8v0.1c0,0.8-0.1,1.5-0.1,2.3
						l0,0C51.5,64,49,71.5,47.9,74.5z"/>
				</defs>
				<clipPath id="SVGID_141_">
					<use xlink:href="#SVGID_140_"  style="overflow:visible;"/>
				</clipPath>
				<path class="st79" d="M53.9,61.6c-0.4,1.5-1.4,2.5-2.2,2.2c-0.8-0.2-1.1-1.6-0.7-3.1c0.4-1.5,1.4-2.5,2.2-2.2H53v3.1H53.9z"/>
			</g>
			<g>
				<defs>
					<path id="SVGID_142_" d="M47.9,74.5c-0.3,0.9-0.6,1.4-0.6,1.4l-1.5-0.5l-3-1c0.9-2,1.7-3.9,2.5-5.7l0,0
						c3.4-8.6,4.5-14.9,4.9-18c0.2-1.4,0.2-2.2,0.2-2.2l2.2,0.1l0,0c0,0.6,0,1.2,0,1.8c0,0.3,0,0.6,0,0.8v0.1c0,0.8-0.1,1.5-0.1,2.3
						l0,0C51.5,64,49,71.5,47.9,74.5z"/>
				</defs>
				<clipPath id="SVGID_143_">
					<use xlink:href="#SVGID_142_"  style="overflow:visible;"/>
				</clipPath>
				<path class="st80" d="M53.8,61.5c-0.4,1.4-1.3,2.3-2,2.1s-1-1.5-0.6-2.9s1.3-2.3,2-2.1h-0.1v2.9H53.8z"/>
			</g>
			<g>
				<defs>
					<path id="SVGID_144_" d="M47.9,74.5c-0.3,0.9-0.6,1.4-0.6,1.4l-1.5-0.5l-3-1c0.9-2,1.7-3.9,2.5-5.7l0,0
						c3.4-8.6,4.5-14.9,4.9-18c0.2-1.4,0.2-2.2,0.2-2.2l2.2,0.1l0,0c0,0.6,0,1.2,0,1.8c0,0.3,0,0.6,0,0.8v0.1c0,0.8-0.1,1.5-0.1,2.3
						l0,0C51.5,64,49,71.5,47.9,74.5z"/>
				</defs>
				<clipPath id="SVGID_145_">
					<use xlink:href="#SVGID_144_"  style="overflow:visible;"/>
				</clipPath>
				<path class="st81" d="M53.7,61.5c-0.4,1.3-1.2,2.2-1.9,2s-0.9-1.4-0.6-2.7c0.4-1.3,1.2-2.2,1.9-2H53v2.7H53.7z"/>
			</g>
			<g>
				<defs>
					<path id="SVGID_146_" d="M47.9,74.5c-0.3,0.9-0.6,1.4-0.6,1.4l-1.5-0.5l-3-1c0.9-2,1.7-3.9,2.5-5.7l0,0
						c3.4-8.6,4.5-14.9,4.9-18c0.2-1.4,0.2-2.2,0.2-2.2l2.2,0.1l0,0c0,0.6,0,1.2,0,1.8c0,0.3,0,0.6,0,0.8v0.1c0,0.8-0.1,1.5-0.1,2.3
						l0,0C51.5,64,49,71.5,47.9,74.5z"/>
				</defs>
				<clipPath id="SVGID_147_">
					<use xlink:href="#SVGID_146_"  style="overflow:visible;"/>
				</clipPath>
				<path class="st82" d="M53.6,61.5c-0.3,1.2-1.1,2-1.8,1.8c-0.6-0.2-0.9-1.3-0.5-2.5c0.3-1.2,1.1-2,1.8-1.8l0,0v2.5H53.6z"/>
			</g>
			<g>
				<defs>
					<path id="SVGID_148_" d="M44.4,72.8c-0.5,0.8-1,1.2-1,1.2l-1.3-0.9l-2.6-1.8c1.4-1.7,2.7-3.3,4-4.8l0,0
						c5.6-7.3,8.4-13.1,9.7-16c0.6-1.3,0.8-2.1,0.8-2.1l2.1,0.7l0,0c-0.2,0.6-0.3,1.2-0.5,1.7c-0.1,0.3-0.2,0.6-0.2,0.8l0,0.1
						c-0.2,0.8-0.5,1.4-0.7,2.2l0,0C50.7,63.7,46.3,70.2,44.4,72.8z"/>
				</defs>
				<clipPath id="SVGID_149_">
					<use xlink:href="#SVGID_148_"  style="overflow:visible;"/>
				</clipPath>
				
					<ellipse transform="matrix(0.2754 -0.9613 0.9613 0.2754 -20.8625 94.8129)" class="st83" cx="52.5" cy="61.2" rx="2.1" ry="1.1"/>
			</g>
			<g>
				<defs>
					<path id="SVGID_150_" d="M44.4,72.8c-0.5,0.8-1,1.2-1,1.2l-1.3-0.9l-2.6-1.8c1.4-1.7,2.7-3.3,4-4.8l0,0
						c5.6-7.3,8.4-13.1,9.7-16c0.6-1.3,0.8-2.1,0.8-2.1l2.1,0.7l0,0c-0.2,0.6-0.3,1.2-0.5,1.7c-0.1,0.3-0.2,0.6-0.2,0.8l0,0.1
						c-0.2,0.8-0.5,1.4-0.7,2.2l0,0C50.7,63.7,46.3,70.2,44.4,72.8z"/>
				</defs>
				<clipPath id="SVGID_151_">
					<use xlink:href="#SVGID_150_"  style="overflow:visible;"/>
				</clipPath>
				
					<ellipse transform="matrix(0.2754 -0.9613 0.9613 0.2754 -20.8619 94.8139)" class="st84" cx="52.5" cy="61.2" rx="1.9" ry="1"/>
			</g>
			<g>
				<defs>
					<path id="SVGID_152_" d="M44.4,72.8c-0.5,0.8-1,1.2-1,1.2l-1.3-0.9l-2.6-1.8c1.4-1.7,2.7-3.3,4-4.8l0,0
						c5.6-7.3,8.4-13.1,9.7-16c0.6-1.3,0.8-2.1,0.8-2.1l2.1,0.7l0,0c-0.2,0.6-0.3,1.2-0.5,1.7c-0.1,0.3-0.2,0.6-0.2,0.8l0,0.1
						c-0.2,0.8-0.5,1.4-0.7,2.2l0,0C50.7,63.7,46.3,70.2,44.4,72.8z"/>
				</defs>
				<clipPath id="SVGID_153_">
					<use xlink:href="#SVGID_152_"  style="overflow:visible;"/>
				</clipPath>
				
					<ellipse transform="matrix(0.2754 -0.9613 0.9613 0.2754 -20.861 94.8153)" class="st85" cx="52.5" cy="61.2" rx="1.7" ry="0.9"/>
			</g>
			<g>
				<defs>
					<path id="SVGID_154_" d="M44.4,72.8c-0.5,0.8-1,1.2-1,1.2l-1.3-0.9l-2.6-1.8c1.4-1.7,2.7-3.3,4-4.8l0,0
						c5.6-7.3,8.4-13.1,9.7-16c0.6-1.3,0.8-2.1,0.8-2.1l2.1,0.7l0,0c-0.2,0.6-0.3,1.2-0.5,1.7c-0.1,0.3-0.2,0.6-0.2,0.8l0,0.1
						c-0.2,0.8-0.5,1.4-0.7,2.2l0,0C50.7,63.7,46.3,70.2,44.4,72.8z"/>
				</defs>
				<clipPath id="SVGID_155_">
					<use xlink:href="#SVGID_154_"  style="overflow:visible;"/>
				</clipPath>
				
					<ellipse transform="matrix(0.2754 -0.9613 0.9613 0.2754 -20.8613 94.8148)" class="st86" cx="52.5" cy="61.2" rx="1.6" ry="0.8"/>
			</g>
			<g>
				<defs>
					<path id="SVGID_156_" d="M44.4,72.8c-0.5,0.8-1,1.2-1,1.2l-1.3-0.9l-2.6-1.8c1.4-1.7,2.7-3.3,4-4.8l0,0
						c5.6-7.3,8.4-13.1,9.7-16c0.6-1.3,0.8-2.1,0.8-2.1l2.1,0.7l0,0c-0.2,0.6-0.3,1.2-0.5,1.7c-0.1,0.3-0.2,0.6-0.2,0.8l0,0.1
						c-0.2,0.8-0.5,1.4-0.7,2.2l0,0C50.7,63.7,46.3,70.2,44.4,72.8z"/>
				</defs>
				<clipPath id="SVGID_157_">
					<use xlink:href="#SVGID_156_"  style="overflow:visible;"/>
				</clipPath>
				
					<ellipse transform="matrix(0.2754 -0.9613 0.9613 0.2754 -20.8601 94.8167)" class="st87" cx="52.5" cy="61.2" rx="1.4" ry="0.7"/>
			</g>
			<g>
				<defs>
					<path id="SVGID_158_" d="M44.4,72.8c-0.5,0.8-1,1.2-1,1.2l-1.3-0.9l-2.6-1.8c1.4-1.7,2.7-3.3,4-4.8l0,0
						c5.6-7.3,8.4-13.1,9.7-16c0.6-1.3,0.8-2.1,0.8-2.1l2.1,0.7l0,0c-0.2,0.6-0.3,1.2-0.5,1.7c-0.1,0.3-0.2,0.6-0.2,0.8l0,0.1
						c-0.2,0.8-0.5,1.4-0.7,2.2l0,0C50.7,63.7,46.3,70.2,44.4,72.8z"/>
				</defs>
				<clipPath id="SVGID_159_">
					<use xlink:href="#SVGID_158_"  style="overflow:visible;"/>
				</clipPath>
				
					<ellipse transform="matrix(0.2754 -0.9613 0.9613 0.2754 -20.8588 94.8188)" class="st88" cx="52.5" cy="61.2" rx="1.2" ry="0.6"/>
			</g>
			<g>
				<defs>
					<path id="SVGID_160_" d="M44.4,72.8c-0.5,0.8-1,1.2-1,1.2l-1.3-0.9l-2.6-1.8c1.4-1.7,2.7-3.3,4-4.8l0,0
						c5.6-7.3,8.4-13.1,9.7-16c0.6-1.3,0.8-2.1,0.8-2.1l2.1,0.7l0,0c-0.2,0.6-0.3,1.2-0.5,1.7c-0.1,0.3-0.2,0.6-0.2,0.8l0,0.1
						c-0.2,0.8-0.5,1.4-0.7,2.2l0,0C50.7,63.7,46.3,70.2,44.4,72.8z"/>
				</defs>
				<clipPath id="SVGID_161_">
					<use xlink:href="#SVGID_160_"  style="overflow:visible;"/>
				</clipPath>
				<ellipse transform="matrix(0.2754 -0.9613 0.9613 0.2754 -20.8662 94.807)" class="st89" cx="52.5" cy="61.2" rx="1" ry="0.6"/>
			</g>
			<g>
				<defs>
					<path id="SVGID_162_" d="M44.4,72.8c-0.5,0.8-1,1.2-1,1.2l-1.3-0.9l-2.6-1.8c1.4-1.7,2.7-3.3,4-4.8l0,0
						c5.6-7.3,8.4-13.1,9.7-16c0.6-1.3,0.8-2.1,0.8-2.1l2.1,0.7l0,0c-0.2,0.6-0.3,1.2-0.5,1.7c-0.1,0.3-0.2,0.6-0.2,0.8l0,0.1
						c-0.2,0.8-0.5,1.4-0.7,2.2l0,0C50.7,63.7,46.3,70.2,44.4,72.8z"/>
				</defs>
				<clipPath id="SVGID_163_">
					<use xlink:href="#SVGID_162_"  style="overflow:visible;"/>
				</clipPath>
				
					<ellipse transform="matrix(0.2754 -0.9613 0.9613 0.2754 -20.8653 94.8084)" class="st90" cx="52.5" cy="61.2" rx="0.9" ry="0.5"/>
			</g>
			<g>
				<defs>
					<path id="SVGID_164_" d="M44.4,72.8c-0.5,0.8-1,1.2-1,1.2l-1.3-0.9l-2.6-1.8c1.4-1.7,2.7-3.3,4-4.8l0,0
						c5.6-7.3,8.4-13.1,9.7-16c0.6-1.3,0.8-2.1,0.8-2.1l2.1,0.7l0,0c-0.2,0.6-0.3,1.2-0.5,1.7c-0.1,0.3-0.2,0.6-0.2,0.8l0,0.1
						c-0.2,0.8-0.5,1.4-0.7,2.2l0,0C50.7,63.7,46.3,70.2,44.4,72.8z"/>
				</defs>
				<clipPath id="SVGID_165_">
					<use xlink:href="#SVGID_164_"  style="overflow:visible;"/>
				</clipPath>
				
					<ellipse transform="matrix(0.2754 -0.9613 0.9613 0.2754 -20.864 94.8105)" class="st91" cx="52.5" cy="61.2" rx="0.7" ry="0.4"/>
			</g>
			<g>
				<defs>
					<path id="SVGID_166_" d="M44.4,72.8c-0.5,0.8-1,1.2-1,1.2l-1.3-0.9l-2.6-1.8c1.4-1.7,2.7-3.3,4-4.8l0,0
						c5.6-7.3,8.4-13.1,9.7-16c0.6-1.3,0.8-2.1,0.8-2.1l2.1,0.7l0,0c-0.2,0.6-0.3,1.2-0.5,1.7c-0.1,0.3-0.2,0.6-0.2,0.8l0,0.1
						c-0.2,0.8-0.5,1.4-0.7,2.2l0,0C50.7,63.7,46.3,70.2,44.4,72.8z"/>
				</defs>
				<clipPath id="SVGID_167_">
					<use xlink:href="#SVGID_166_"  style="overflow:visible;"/>
				</clipPath>
				
					<ellipse transform="matrix(0.2754 -0.9613 0.9613 0.2754 -20.8662 94.807)" class="st92" cx="52.5" cy="61.2" rx="0.5" ry="0.3"/>
			</g>
			<g>
				<defs>
					<path id="SVGID_168_" d="M44.4,72.8c-0.5,0.8-1,1.2-1,1.2L42.1,73l-2.6-1.8c1.4-1.7,2.7-3.3,4-4.8l0,0c5.6-7.3,8.4-13.1,9.7-16
						c0.6-1.3,0.8-2.1,0.8-2.1l2.1,0.7l0,0c-0.2,0.6-0.3,1.2-0.5,1.7c-0.1,0.3-0.2,0.6-0.2,0.8l0,0.1c-0.2,0.8-0.5,1.4-0.7,2.2l0,0
						C50.7,63.7,46.3,70.2,44.4,72.8z"/>
				</defs>
				<clipPath id="SVGID_169_">
					<use xlink:href="#SVGID_168_"  style="overflow:visible;"/>
				</clipPath>
				
					<ellipse transform="matrix(0.2753 -0.9614 0.9614 0.2753 -20.8453 94.8269)" class="st93" cx="52.5" cy="61.2" rx="0.3" ry="0.2"/>
			</g>
			<g>
				<defs>
					<path id="SVGID_170_" d="M44.4,72.8c-0.5,0.8-1,1.2-1,1.2l-1.3-0.9l-2.6-1.8c1.4-1.7,2.7-3.3,4-4.8l0,0
						c5.6-7.3,8.4-13.1,9.7-16c0.6-1.3,0.8-2.1,0.8-2.1l2.1,0.7l0,0c-0.2,0.6-0.3,1.2-0.5,1.7c-0.1,0.3-0.2,0.6-0.2,0.8l0,0.1
						c-0.2,0.8-0.5,1.4-0.7,2.2l0,0C50.7,63.7,46.3,70.2,44.4,72.8z"/>
				</defs>
				<clipPath id="SVGID_171_">
					<use xlink:href="#SVGID_170_"  style="overflow:visible;"/>
				</clipPath>
				
					<ellipse transform="matrix(0.2754 -0.9613 0.9613 0.2754 -20.8577 94.8204)" class="st94" cx="52.5" cy="61.2" rx="0.2" ry="0.1"/>
			</g>
		</g>
	</g>
	<path class="st95" d="M60.9,56c-1.4-4.1-8.4-5.5-8.4-5.5l0,0l-2.4,0.3c0.2-1.4,0.2-2.2,0.2-2.2l2.2,0.1l0,0l8.4,0.3
		C61,51.3,61,53.6,60.9,56z"/>
	
		<radialGradient id="SVGID_172_" cx="43.4893" cy="311.3886" r="7.4648" gradientTransform="matrix(0.9929 0.1187 0.1187 -0.9929 -35.1489 380.9184)" gradientUnits="userSpaceOnUse">
		<stop  offset="0" style="stop-color:#9B597E"/>
		<stop  offset="1" style="stop-color:#785CA6"/>
	</radialGradient>
	<path class="st96" d="M57.1,80.4C53,80.7,50,80,47.8,79c-3.9-1.8-5.1-4.6-5.1-4.6h3.1h1.9l0,0C48.9,78.3,57.1,80.4,57.1,80.4z"/>
	
		<linearGradient id="SVGID_173_" gradientUnits="userSpaceOnUse" x1="0.6308" y1="340.8651" x2="11.9191" y2="340.8651" gradientTransform="matrix(0.9929 0.1187 0.1187 -0.9929 -35.1489 380.9184)">
		<stop  offset="0" style="stop-color:#BD9F65"/>
		<stop  offset="1" style="stop-color:#000000"/>
	</linearGradient>
	<path class="st97" d="M5.8,44.1l9.9-5l1.9,1.5l-8.1,6.9C9.4,47.4,6.7,46.6,5.8,44.1z"/>
	
		<linearGradient id="SVGID_174_" gradientUnits="userSpaceOnUse" x1="33.3712" y1="362.2011" x2="33.3712" y2="379.0036" gradientTransform="matrix(0.9929 0.1187 0.1187 -0.9929 -35.1489 380.9184)">
		<stop  offset="0" style="stop-color:#000000"/>
		<stop  offset="1" style="stop-color:#BD9F65"/>
	</linearGradient>
	<path class="st98" d="M25.5,6.4c0,0,3.6,10.3,3.4,15l29.6,5.9l0.4-3.7C59,23.6,34.2,13.3,25.5,6.4z"/>
	<path class="st99" d="M38.8,23.4c0,0,13.7,2,21.6,4.8C60.4,28.2,47.7,26.2,38.8,23.4z"/>
	<path class="st99" d="M33.5,22.3c0,0,2.7,0,4.3,0.9C37.8,23.3,36.7,23.5,33.5,22.3z"/>
	<path class="st95" d="M51.7,38.7c0,0-7,3.7-10.7,4.4l8.6-1.3C49.6,41.7,51.1,41,51.7,38.7z"/>
	
		<linearGradient id="SVGID_175_" gradientUnits="userSpaceOnUse" x1="45.3413" y1="347.2878" x2="65.1336" y2="347.2878" gradientTransform="matrix(0.9929 0.1187 0.1187 -0.9929 -35.1489 380.9184)">
		<stop  offset="0" style="stop-color:#000000"/>
		<stop  offset="1" style="stop-color:#BD9F65"/>
	</linearGradient>
	<path class="st100" d="M51.5,40.2l19.4,1.7L69,44.7c0,0-11.8-2.9-18.2-1.4L51.5,40.2z"/>
	
		<linearGradient id="SVGID_176_" gradientUnits="userSpaceOnUse" x1="48.9668" y1="308.8598" x2="48.9668" y2="335.2538" gradientTransform="matrix(0.9929 0.1187 0.1187 -0.9929 -35.1489 380.9184)">
		<stop  offset="1.711450e-002" style="stop-color:#866CAB"/>
		<stop  offset="0.4919" style="stop-color:#EBD7E3"/>
	</linearGradient>
	<path class="st101" d="M60.1,64.8c-1.1,8.9-3,15.6-3,15.6C53,80.7,50,80,47.8,79c-3.9-1.8-5.1-4.6-5.1-4.6c0.9-2,1.7-3.9,2.5-5.7
		c0,0.2-0.1,4.5,1.5,3.9c0.2-0.1,0.5-0.2,0.7-0.5c2.4-2.2,4.7-17.8,4.8-18.5l0,0c0.4,4-2.9,17.4-3.1,21c-0.3,3.6,6.5,5.5,7.5,4.3
		C57.6,77.7,60,65.3,60.1,64.8z"/>
	<path class="st99" d="M49.2,73.8c0,0-0.6,1.6,0.8,3.2C50,77,50.2,75.3,49.2,73.8z"/>
	<path class="st102" d="M66.9,25.5c0,0,4.7,0.5,8.4,2.7c0,0,0.3,0.5,0.5,1.9l-8.2-1.6C67.5,28.4,67.7,27,66.9,25.5z"/>
	<path class="st102" d="M67.8,30.1c0,0,0.1,1.9-0.5,3.8l7.9,0.9c0,0,0.8-1.7,0.7-3.3L67.8,30.1z"/>
	<path class="st102" d="M67.1,35.3c0,0-0.3,1.6-1.2,2.7l7.6,0.9c0,0,0.9-1.1,1.3-2.3L67.1,35.3z"/>
	<polygon class="st102" points="64.8,40.5 65.8,39.6 71.9,40.6 70.9,41.3 	"/>
	<path class="st102" d="M65,22.4c0,0,0.9,0.7,1.4,1.7c0,0,5.3,0.9,8.3,2.6l-0.3-1C74.4,25.8,70.8,23.2,65,22.4z"/>
	<path class="st95" d="M58.2,39c0,0,3.5-0.2,5.3-4.5c2.6-6.3-0.8-10.1-0.8-10.1s3.4,2.7,2.3,8.4s-2.9,6.4-2.9,6.4L58.2,39z"/>
</g>
<g>
	<g>
		
			<radialGradient id="SVGID_177_" cx="187.6315" cy="464.2136" r="42.7329" gradientTransform="matrix(0.6215 -0.7834 -0.7834 -0.6215 283.1526 564.8541)" gradientUnits="userSpaceOnUse">
			<stop  offset="1.711450e-002" style="stop-color:#E2DCEB"/>
			<stop  offset="0.1982" style="stop-color:#CFC4E7"/>
			<stop  offset="0.4797" style="stop-color:#B7A4E3"/>
			<stop  offset="0.7175" style="stop-color:#A891E0"/>
			<stop  offset="0.8811" style="stop-color:#A38ADF"/>
			<stop  offset="0.9811" style="stop-color:#93D1FF"/>
		</radialGradient>
		<path class="st103" d="M64.3,115.4c2.1,1.7,4,3.6,5.5,5.7c7.8,10.5,7.9,25.4-0.7,36.1c-1,1.2-2.1,2.4-3.2,3.4
			c-7.7,7.1-18.6,9.5-28.4,6.7l0,0c-3.6-1-7.1-2.8-10.2-5.3c-4.1-3.2-7.1-7.3-8.9-11.8c-2.7-6.3-3.1-13.5-1.1-20.1
			c1.1-3.5,2.8-6.9,5.2-10l0.1-0.1c0.1-0.1,0.1-0.1,0.2-0.2c5.8-7.1,14.1-10.8,22.6-10.9c2.3,0,4.6,0.2,6.8,0.7
			C56.5,110.6,60.6,112.5,64.3,115.4z"/>
		<g class="st104">
			
				<radialGradient id="SVGID_178_" cx="186.4893" cy="464.2527" r="37.4068" gradientTransform="matrix(0.6215 -0.7834 -0.7834 -0.6215 283.1526 564.8541)" gradientUnits="userSpaceOnUse">
				<stop  offset="0" style="stop-color:#A998FF"/>
				<stop  offset="0.9944" style="stop-color:#9845B8"/>
			</radialGradient>
			<path class="st105" d="M64.3,115.4c2.1,1.7,4,3.6,5.5,5.7c-0.6,1-1.4,1.8-2.3,2.3c-1.5,0.8-2.8,1.7-4.4,2.4
				c-3.1,1.5-5-0.5-7.9-1.3c-1.3-0.4-2.4-0.8-3.7-1s-2.8,0.1-4.1-0.3c-0.7,1.8,2.2,0.9,2.9,1.1c1.5,0.4,1.6,2,2.3,3.1
				c1.5,2.3,4.3,3.9,3.9,6.8c-0.1,1.1-0.1,2.2-0.4,3.2c-0.3,1-1.1,1.8-1.5,2.8c-0.5,1.5,0.6,6.3-1.7,6.1c-1.4-0.1-1.6-1.9-2.6-2.4
				s-2-0.1-3-0.8c-1-0.6-1.9-1.3-2.8-1.9c-0.9-0.6-1.7-1-2.7-1.6c-1-0.5-1.8-1.5-2.8-2c-0.6-0.3-1-0.2-1.5-0.7c-0.5-0.4-0.6-1-1-1.4
				c-1.2-0.9-2.1,0-1.9-1.9c0.1-0.7,0.4-2.4,0.7-3c0.4-0.8,1.3-1.7,1.8-2.5c0.5-0.9,1.2-1.8,2-2.5c0.9-0.8,2.3-1.3,3.1-2.2
				c0.6-0.7,1.3-1.7,1.9-2.5c-0.9-1.1-3.5,0.2-4.6,0.7c2.4,2.5-2.4,3-3.2,4c-1-2.2-1.6-4.7-0.3-6.6c1-1.5,2.7-4.4,4.3-5
				c1.3,3.2,6.1-1.8,7.5-2.4c1.3-0.5,2.8-0.9,4.1-1.7c0.1-0.1,0.2-0.1,0.3-0.2C56.5,110.6,60.6,112.5,64.3,115.4z"/>
			
				<radialGradient id="SVGID_179_" cx="118.3666" cy="287.2411" r="37.4051" gradientTransform="matrix(0.9006 -0.4347 -0.4347 -0.9006 68.4322 407.3613)" gradientUnits="userSpaceOnUse">
				<stop  offset="0" style="stop-color:#A998FF"/>
				<stop  offset="0.9944" style="stop-color:#9845B8"/>
			</radialGradient>
			<path class="st106" d="M67.5,140.7c-1.2-0.4-3.1,0.2-4.3,0.5c-1.8,0.5-2.1,1.4-3.4,2.6c-0.7,0.6-0.7,0.4-1.4,0.8
				s-1.3,0.5-1.8,1.2c-1,1.6,0.2,2.7,0.7,4.3c0.4,1.4,1.1,3.4,1.2,4.8c0.6-0.3,1.1-0.8,1.5-1.1c0.8-0.5,1.5-0.6,2.3-0.9
				c1.4-0.6,2.7-0.6,4.1-1c3.3-1,3.6-4.9,3.4-7.8C69.9,143.1,69.3,139.6,67.5,140.7z"/>
			
				<radialGradient id="SVGID_180_" cx="186.4888" cy="464.2516" r="37.4059" gradientTransform="matrix(0.6215 -0.7834 -0.7834 -0.6215 283.1526 564.8541)" gradientUnits="userSpaceOnUse">
				<stop  offset="0" style="stop-color:#A998FF"/>
				<stop  offset="0.9944" style="stop-color:#9845B8"/>
			</radialGradient>
			<path class="st107" d="M21.2,131.3c0.5,1.1,0.5,3.3,0.5,4.5c-0.1,1.5,0.3,3.2-0.1,4.7c-0.9,2.8-1.6,9.9-3.2,9.8
				c-2.7-6.3-3.1-13.5-1.1-20.1C18.7,129.8,20.7,130.2,21.2,131.3z"/>
		</g>
		
			<linearGradient id="SVGID_181_" gradientUnits="userSpaceOnUse" x1="186.397" y1="480.2819" x2="186.397" y2="480.5467" gradientTransform="matrix(0.6215 -0.7834 -0.7834 -0.6215 283.1526 564.8541)">
			<stop  offset="0" style="stop-color:#FDCDD3"/>
			<stop  offset="1" style="stop-color:#FFEACD"/>
		</linearGradient>
		<path class="st108" d="M22.6,120.1c0,0.1,0.1,0.2,0.1,0.2L22.6,120.1L22.6,120.1z"/>
	</g>
	<g>
		<g>
			
				<rect x="45.4" y="109.1" transform="matrix(-0.9469 0.3215 -0.3215 -0.9469 133.6655 255.4288)" class="st109" width="0.7" height="59.4"/>
		</g>
		<g>
			<path class="st109" d="M56.6,166.3l-0.6-0.4c0.1-0.1,9.6-14.2,3.5-32.1c-6.6-19.3-23.2-22.9-23.4-23l0.1-0.7
				c0.2,0,17.2,3.7,23.9,23.4C66.4,151.8,56.7,166.2,56.6,166.3z"/>
		</g>
		<g>
			<path class="st109" d="M56.5,166.5l-0.4-0.6c0.2-0.1,20.2-12.2,13.2-35.3c-6.7-22.1-32.8-19.6-33-19.6l-0.1-0.7
				c0.3,0,26.9-2.5,33.8,20.1C77.1,153.9,56.7,166.3,56.5,166.5z"/>
		</g>
		<g>
			<path class="st109" d="M54.1,167.2c-0.2-0.1-16.6-5.6-22.8-23.8c-6.7-19.7,4.5-33,4.7-33.1l0.5,0.5c-0.1,0.1-11.1,13.1-4.5,32.4
				c6.1,17.9,22.2,23.3,22.3,23.3L54.1,167.2z"/>
		</g>
		<g>
			<path class="st109" d="M54.2,167.2c-0.2,0-24,2.7-32.7-20.4c-8.4-22.1,14.3-36.4,14.5-36.5l0.4,0.6C36.2,111,14,125,22.2,146.6
				c8.6,22.6,31.8,20,32,20V167.2z"/>
		</g>
		<g>
			<path class="st109" d="M73.9,129.3c-18.5,2.1-40.5,9.6-56.2,19.1l-0.4-0.6c15.7-9.6,37.9-17.1,56.5-19.2L73.9,129.3z"/>
		</g>
		<g>
			<path class="st109" d="M70.3,156c-18.3,2.8-32.5,11.5-32.6,11.6l-0.4-0.6c0.1-0.1,14.4-8.9,32.9-11.7L70.3,156z"/>
		</g>
		<g>
			<path class="st109" d="M53.4,110.3c-21.6,3.3-32.8,13.5-33,13.6l-0.5-0.5c0.1-0.1,11.5-10.4,33.3-13.8L53.4,110.3z"/>
		</g>
	</g>
</g>
<g>
	
		<linearGradient id="SVGID_182_" gradientUnits="userSpaceOnUse" x1="406.7936" y1="355.6384" x2="402.5999" y2="387.2881" gradientTransform="matrix(1 0 0 -1 0 394.2842)">
		<stop  offset="5.586590e-003" style="stop-color:#530E68"/>
		<stop  offset="1" style="stop-color:#60309D"/>
	</linearGradient>
	<polygon class="st110" points="420.8,4.6 423.4,7.4 415.9,37.4 387.1,35.3 385.5,34.1 	"/>
	
		<radialGradient id="SVGID_183_" cx="402.8887" cy="382.3032" r="22.666" gradientTransform="matrix(1 0 0 -1 0 394.2842)" gradientUnits="userSpaceOnUse">
		<stop  offset="0" style="stop-color:#5178FE"/>
		<stop  offset="0.9944" style="stop-color:#713592"/>
	</radialGradient>
	<polygon class="st111" points="385.5,34.1 389.2,4.6 420.8,4.6 413.2,35 	"/>
	<polygon class="st112" points="415.1,13.4 416.4,14.5 399.1,32.1 391.2,21 393.5,17.8 400.1,22.8 	"/>
	
		<linearGradient id="SVGID_184_" gradientUnits="userSpaceOnUse" x1="400.4978" y1="367.1869" x2="403.6292" y2="386.5852" gradientTransform="matrix(1 0 0 -1 0 394.2842)">
		<stop  offset="1.711450e-002" style="stop-color:#D4CBE2"/>
		<stop  offset="1" style="stop-color:#F3E6EE"/>
	</linearGradient>
	<polygon class="st113" points="393,13.4 389.5,16.3 397.7,26.6 415.9,10.8 411.6,8.9 399,19 	"/>
	<polygon class="st114" points="415.9,10.8 415.1,13.4 399.6,27.2 397.7,26.6 	"/>
</g>
<g>
	<path class="st114" d="M370.3,157c0,0,6.6,3.5,12.5,3.6s8.3-3.3,8.3-3.3L370.3,157z"/>
	<path class="st114" d="M405.9,75.1c-1.4-0.5-2.8-0.9-4.3-1.1c-17.4-3.2-36.3,10.1-43.7,31.6c-8.1,23.2,0.3,47.3,18.7,53.7
		c16.3,5.7,34.9-4.3,44.6-22.6c1.3-2.5,2.4-5.1,3.4-7.8C432.7,105.6,424.3,81.5,405.9,75.1z M381.4,145.6
		c-12.4-4.3-18.1-20.6-12.7-36.2c5.5-15.7,20-24.9,32.4-20.6c1.6,0.5,3,1.3,4.3,2.2c9.3,6.2,13.1,20.4,8.3,34.1
		c-0.1,0.3-0.2,0.6-0.3,0.9C407.8,141,393.6,149.8,381.4,145.6z"/>
	<path class="st115" d="M395.3,72.2c0,0,10.1,1.4,16.4,5.7l-5.8-0.3L395.3,72.2z"/>
	
		<linearGradient id="SVGID_185_" gradientUnits="userSpaceOnUse" x1="389.1706" y1="225.9604" x2="403.363" y2="313.8805" gradientTransform="matrix(0.9862 0.1653 0.1653 -0.9862 -48.5728 316.3881)">
		<stop  offset="1.711450e-002" style="stop-color:#D4CBE2"/>
		<stop  offset="1" style="stop-color:#F3E6EE"/>
	</linearGradient>
	<path class="st116" d="M401.5,73.6c-18.4-6.4-39.9,7.2-48,30.5c-8.1,23.2,0.3,47.3,18.7,53.7c15.8,5.5,33.7-3.7,43.7-21
		c1.7-2.9,3.1-6.1,4.3-9.5C428.3,104,419.9,80,401.5,73.6z M377,144.1c-12.4-4.3-18.1-20.6-12.7-36.2c5.5-15.7,20-24.9,32.4-20.6
		s18.1,20.6,12.7,36.2c-1.2,3.4-2.8,6.6-4.8,9.3C397.7,142.6,386.7,147.4,377,144.1z"/>
	
		<linearGradient id="SVGID_186_" gradientUnits="userSpaceOnUse" x1="427.7835" y1="247.591" x2="427.7835" y2="302.4599" gradientTransform="matrix(0.9445 0.3284 0.3284 -0.9445 -82.965 225.4164)">
		<stop  offset="1.984140e-003" style="stop-color:#E03347"/>
		<stop  offset="1" style="stop-color:#FF6E27"/>
	</linearGradient>
	<path class="st117" d="M424.6,128.8c-1,2.7-2.1,5.4-3.4,7.8l-0.9,1.6l-4.4-1.5l-2.5-10.8c0.1-0.3,0.2-0.6,0.3-0.9
		c4.8-13.7,1-27.9-8.3-34.1L401.5,74c1.4,0.3,2.9,0.6,4.3,1.1C424.3,81.5,432.7,105.6,424.6,128.8z"/>
	
		<linearGradient id="SVGID_187_" gradientUnits="userSpaceOnUse" x1="425.3626" y1="247.586" x2="425.3626" y2="302.4268" gradientTransform="matrix(0.9445 0.3284 0.3284 -0.9445 -82.965 225.4164)">
		<stop  offset="0" style="stop-color:#FFA700"/>
		<stop  offset="1" style="stop-color:#FFD328"/>
	</linearGradient>
	<path class="st118" d="M420.2,127.3c-1.2,3.4-2.6,6.5-4.3,9.5l-10.3-5.4c1.3-2.1,2.6-4.4,3.8-7.8c5.5-15.7-0.2-31.9-12.7-36.2
		l4.7-13.7C419.9,80,428.3,104,420.2,127.3z"/>
	<g>
		<path class="st114" d="M380.9,106.7c0.3-0.9,0.4-1.6,0.4-2c-0.1-0.4-0.3-0.7-0.7-0.8c-0.4-0.1-0.7-0.1-1,0.2
			c-0.3,0.2-0.6,0.7-0.9,1.5l-0.8,2.3l-2.1-0.7l0.7-2c0.6-1.7,1.3-2.9,2.2-3.6c0.9-0.7,1.9-0.9,2.9-0.5c1.1,0.4,1.8,1.1,2,2.2
			s0.1,2.5-0.5,4.2c-0.4,1.1-0.8,2.1-1.4,2.9c-0.5,0.8-1.1,1.5-1.7,2.1s-1.2,1.2-1.8,1.7c-0.6,0.5-1.2,1-1.7,1.4s-1,0.9-1.4,1.4
			s-0.7,1-0.9,1.6c-0.1,0.2-0.1,0.4-0.1,0.5l4.2,1.5l-1,3l-6.4-2.2l0.9-2.6c0.4-1,0.8-1.9,1.3-2.6s1-1.3,1.6-1.9
			c0.6-0.5,1.1-1,1.7-1.5c0.6-0.4,1.1-0.9,1.7-1.4s1.1-1.1,1.5-1.8C380.2,108.6,380.6,107.7,380.9,106.7z"/>
		<path class="st114" d="M383.4,117.7l-0.7,1.9c-0.3,0.8-0.3,1.3-0.2,1.7c0.1,0.4,0.3,0.6,0.7,0.7c0.4,0.1,0.7,0.1,1-0.2
			c0.3-0.2,0.6-0.7,0.9-1.5l1.6-4.6c0.3-0.8,0.3-1.3,0.2-1.7c-0.1-0.4-0.3-0.6-0.7-0.8c-0.3-0.1-0.7-0.1-1,0.2
			c-0.3,0.2-0.6,0.7-0.9,1.5l-0.2,0.6l-2.1-0.7l4.6-12l5.8,2l-1,3l-3.9-1.3l-1.9,4.9c0.8-0.9,1.6-1.2,2.5-0.9
			c0.8,0.3,1.3,0.9,1.4,1.9s-0.1,2.2-0.6,3.8l-1.6,4.7c-0.6,1.7-1.3,2.9-2.2,3.6c-0.9,0.7-1.9,0.9-2.9,0.5c-1.1-0.4-1.8-1.1-2-2.2
			s-0.1-2.5,0.5-4.2l0.6-1.7L383.4,117.7z"/>
		<path class="st114" d="M401.9,108.2l1.3,0.5l-12.9,19.1l-1.3-0.5L401.9,108.2z M393.1,108.7c0.4-1.1,0.8-1.8,1.4-2.3
			s1.2-0.6,1.9-0.3c0.7,0.2,1.1,0.7,1.3,1.4c0.2,0.7,0.1,1.6-0.3,2.7l-2.4,6.9c-0.4,1.1-0.8,1.8-1.4,2.3s-1.2,0.6-1.9,0.3
			c-0.7-0.2-1.1-0.7-1.3-1.4c-0.2-0.7-0.1-1.6,0.3-2.7L393.1,108.7z M392,116.3c-0.3,0.9-0.2,1.4,0.3,1.6c0.2,0.1,0.4,0,0.6-0.1
			c0.2-0.2,0.4-0.5,0.5-0.9l2.5-7.2c0.2-0.5,0.2-0.8,0.2-1.1c-0.1-0.3-0.2-0.4-0.4-0.5c-0.5-0.2-0.9,0.2-1.2,1.1L392,116.3z
			 M397.4,118.9c0.4-1.1,0.8-1.8,1.4-2.3s1.2-0.6,1.9-0.3c0.7,0.2,1.1,0.7,1.3,1.4c0.2,0.7,0.1,1.6-0.3,2.7l-2.4,6.9
			c-0.4,1.1-0.8,1.8-1.4,2.3s-1.2,0.6-1.9,0.3c-0.7-0.2-1.1-0.7-1.3-1.4c-0.2-0.7-0.1-1.6,0.3-2.7L397.4,118.9z M396.4,126.4
			c-0.3,0.9-0.2,1.4,0.3,1.6c0.2,0.1,0.4,0,0.6-0.1c0.2-0.2,0.4-0.5,0.5-0.9l2.5-7.2c0.2-0.5,0.2-0.8,0.2-1.1
			c-0.1-0.3-0.2-0.4-0.4-0.5c-0.5-0.2-0.9,0.2-1.2,1.1L396.4,126.4z"/>
	</g>
</g>
</svg>
