<?xml version="1.0" encoding="utf-8"?>
<!-- Generator: Adobe Illustrator 19.0.0, SVG Export Plug-In . SVG Version: 6.00 Build 0)  -->
<svg version="1.1" id="Layer_1" xmlns="http://www.w3.org/2000/svg" xmlns:xlink="http://www.w3.org/1999/xlink" x="0px" y="0px"
	 viewBox="0 0 298.6 348" style="enable-background:new 0 0 298.6 348;" xml:space="preserve">
<style type="text/css">
	.st0{fill:#FFD13D;}
	.st1{fill:#FCAF00;}
	.st2{fill:#FFD527;}
	.st3{fill:#953D05;}
	.st4{fill:#792D06;}
	.st5{fill:#FED03A;}
	.st6{fill:#FEF68E;}
	.st7{fill:#E9A600;}
</style>
<g>
	<g>
		<g>
			<path class="st0" d="M251,22h-68.5H114H45.5c0,0-2.4,181.6,100,186.4v0.1c0.9,0,1.8,0,2.8,0c0.9,0,1.8,0,2.8,0v-0.1
				C253.4,203.5,251,22,251,22z"/>
		</g>
	</g>
	<g>
		<g>
			<path class="st1" d="M251,22h-55.1c-0.2,22.2-4.8,155.1-79.2,179.5c8.5,4,18.1,6.4,28.8,6.9v0.1c0.9,0,1.8,0,2.8,0
				c0.9,0,1.8,0,2.8,0v-0.1C253.4,203.5,251,22,251,22z"/>
		</g>
	</g>
	<g>
		<g>
			<g>
				<path class="st1" d="M207.7,170.5l-4.5-10.1c0.9-0.4,92-41.4,83.8-87.5c-1.7-9.6-5.3-15.5-10.7-17.4
					c-13.7-4.7-38.6,13.7-46.2,20.5l-7.3-8.2c3.5-3.1,34.9-30.4,57.1-22.7c9.5,3.3,15.5,12,18,25.8
					C307.5,125.6,211.8,168.7,207.7,170.5z"/>
			</g>
		</g>
	</g>
	<g>
		<g>
			<path class="st0" d="M90.9,170.5C86.8,168.7-8.9,125.6,0.7,71c2.4-13.9,8.5-22.6,18-25.8C41,37.5,72.3,64.8,75.8,67.9l-7.3,8.2
				l3.7-4.1l-3.7,4.1C60.3,68.8,36,50.8,22.3,55.6c-5.4,1.9-9,7.7-10.7,17.4c-8.1,46.2,82.9,87.1,83.8,87.5L90.9,170.5z"/>
		</g>
	</g>
	<g>
		<g>
			<path class="st2" d="M248.5,23H48c-6.4,0-11.5-5.1-11.5-11.5l0,0C36.5,5.1,41.6,0,48,0h200.5c6.4,0,11.5,5.1,11.5,11.5l0,0
				C260,17.8,254.8,23,248.5,23z"/>
		</g>
	</g>
	<g>
		<g>
			<path class="st1" d="M160.5,200.4c0,0,6,74,42.8,78.5h-55v-78L160.5,200.4z"/>
		</g>
	</g>
	<g>
		<g>
			<path class="st1" d="M160.5,200.4c0,0,6,74,42.8,78.5h-55v-78L160.5,200.4z"/>
		</g>
	</g>
	<g>
		<g>
			<path class="st1" d="M135.9,200.4c0,0-6,74-42.8,78.5h55v-78L135.9,200.4z"/>
		</g>
	</g>
	<g>
		<g>
			<rect x="25.5" y="279" class="st3" width="245.5" height="69"/>
		</g>
	</g>
	<g>
		<g>
			<path class="st4" d="M271,347.9H25.5c20.9-3,41.8-5.9,62.7-8.9c63.7-9,125.3-29.2,181.9-59.7l0.9-0.5V347.9z"/>
		</g>
	</g>
	<g>
		<g>
			<path class="st5" d="M215.7,279H80.5l0,0c0-10.8,8.7-19.5,19.5-19.5h96.2C207,259.5,215.7,268.2,215.7,279L215.7,279z"/>
		</g>
	</g>
	<g>
		<g>
			<ellipse class="st6" cx="114.5" cy="265" rx="19.4" ry="4.2"/>
		</g>
	</g>
	<g>
		<g>
			<ellipse class="st6" cx="80.5" cy="61.5" rx="23.5" ry="30"/>
		</g>
	</g>
	<g>
		<g>
			<ellipse class="st6" cx="71.5" cy="7.7" rx="23.6" ry="5.8"/>
		</g>
	</g>
	<g>
		<g>
			<ellipse class="st6" cx="113.8" cy="7.7" rx="11.8" ry="5.8"/>
		</g>
	</g>
	<g>
		<g>
			<path class="st7" d="M148.4,49.7L159,71.1l23.6,3.4c0.2,0,0.3,0.3,0.1,0.4l-17,16.7l4,23.5c0,0.2-0.2,0.4-0.4,0.3l-21.1-11.1
				l-21.1,11.1c-0.2,0.1-0.4-0.1-0.4-0.3l4-23.5l-17-16.6c-0.1-0.1-0.1-0.4,0.1-0.4l23.6-3.4L148,49.8
				C148.1,49.6,148.3,49.6,148.4,49.7z"/>
		</g>
	</g>
	<g>
		<g>
			<rect x="47.3" y="287.9" class="st0" width="201.7" height="51"/>
		</g>
	</g>
	<g>
		<g>
			<path class="st1" d="M248.9,287.9c-16.6,8.3-35.1,16.5-55.5,24c-38.8,14.3-74.6,22.4-105.3,27.1c53.6,0,107.2-0.1,160.7-0.1v-51
				H248.9z"/>
		</g>
	</g>
</g>
</svg>
