<svg xmlns="http://www.w3.org/2000/svg" width="161" height="161" viewBox="0 0 161 161">
  <g id="Group_68" data-name="Group 68" transform="translate(-1152 -179)">
    <circle id="Ellipse_10" data-name="Ellipse 10" cx="80.5" cy="80.5" r="80.5" transform="translate(1152 179)" fill="rgba(255,198,0,0.1)"/>
    <circle id="Ellipse_11" data-name="Ellipse 11" cx="56.5" cy="56.5" r="56.5" transform="translate(1176 203)" fill="rgba(255,198,0,0.1)"/>
    <circle id="Ellipse_12" data-name="Ellipse 12" cx="34.5" cy="34.5" r="34.5" transform="translate(1198 225)" fill="rgba(255,198,0,0.1)"/>
    <g id="Object" transform="translate(920.083 -55.65)">
      <g id="Group_60" data-name="Group 60" transform="translate(265.28 270.65)">
        <g id="Group_35" data-name="Group 35" transform="translate(18.893 18.27)">
          <path id="Path_4" data-name="Path 4" d="M388.549,480.974a.443.443,0,0,1-.008.083c0,.013,0,.026-.006.037a.481.481,0,0,1-.016.051c0,.01-.008.021-.011.029a.2.2,0,0,1-.029.043.2.2,0,0,1-.014.019.237.237,0,0,1-.054.045l6.462-3.756a.207.207,0,0,0,.054-.045l.014-.019a.51.51,0,0,0,.029-.043.216.216,0,0,0,.011-.029.39.39,0,0,0,.016-.051A.253.253,0,0,0,395,477.3a.163.163,0,0,0,0-.027c0-.013,0-.026,0-.038v-.016Z" transform="translate(-387.59 -462.419)" fill="#3e3e41"/>
          <path id="Path_5" data-name="Path 5" d="M389.328,386.48l-.048,16.845,6.462-3.756.043-14.8Z" transform="translate(-388.321 -384.77)" fill="#424245"/>
          <path id="Path_6" data-name="Path 6" d="M383.29,411.741a1.054,1.054,0,0,0,.479.829c.264.154.479.029.48-.275l.048-16.845-.961.255Z" transform="translate(-383.29 -393.74)" fill="#4b4b4e"/>
        </g>
        <g id="Group_57" data-name="Group 57" transform="translate(0 16.819)">
          <g id="Group_38" data-name="Group 38" transform="translate(3.589 6.302)">
            <g id="Group_37" data-name="Group 37">
              <path id="Path_7" data-name="Path 7" d="M500.474,644.05c0,.1,0,.2-.013.3v0c-.008.1-.021.2-.037.306a.009.009,0,0,1,0,.006c-.016.1-.037.207-.061.309,0,0,0,0,0,.006-.024.1-.053.208-.083.314v0c-.032.106-.067.211-.106.315v0c-.038.1-.078.2-.123.306l-.006.016c-.043.1-.09.2-.139.3a.177.177,0,0,0-.008.016c-.05.1-.1.194-.157.29-.067.117-.139.229-.213.341-.046.069-.093.138-.142.2q-.11.154-.231.3c-.067.082-.138.16-.208.235l-.016.018q-.108.115-.221.221l-.011.01c-.077.072-.155.141-.237.206l0,0c-.08.066-.163.128-.247.186l-.006,0c-.085.058-.17.112-.256.163a2.869,2.869,0,0,1-.259.135l0,0a2.6,2.6,0,0,1-.25.1l0,0a2.463,2.463,0,0,1-.24.067.006.006,0,0,0,0,0,1.752,1.752,0,0,1-.232.035h0a1.755,1.755,0,0,1-.223,0h0a1.38,1.38,0,0,1-.2-.026l-.011,0a1.2,1.2,0,0,1-.187-.054l-.011,0a1.238,1.238,0,0,1-.173-.083h0l1.193.693c.034.019.067.037.1.053s.048.021.072.031l.011,0,.008,0c.026.01.053.018.078.026l.072.019.029.006.011,0,.026,0c.022,0,.043.008.066.01s.038,0,.058.006.035,0,.054,0h0c.019,0,.038,0,.058,0h.053l.054,0,.055,0h0l.051,0,.051-.006.051-.008.051-.01.029-.006a.006.006,0,0,0,0,0l.016,0,.05-.011.05-.013.05-.014.048-.014.029-.01,0,0,.016,0,.05-.018.05-.019.05-.019c.018-.006.034-.014.05-.021s.024-.011.037-.018l0,0,.01,0,.05-.024.051-.026c.018-.008.034-.017.051-.027l.051-.029.046-.026.006,0,.054-.032.054-.034.054-.035c.018-.011.037-.024.054-.037s.022-.016.034-.022l.006,0,.019-.013c.019-.013.038-.027.058-.042l.058-.042.062-.048.053-.042,0,0,.006,0,.062-.053c.022-.019.046-.038.069-.059s.048-.043.072-.066l.026-.024.011-.01c.011-.011.024-.022.035-.032.029-.027.058-.056.086-.085s.058-.059.086-.09a.1.1,0,0,0,.013-.014l.018-.019c.026-.029.053-.056.078-.085.043-.048.086-.1.128-.149l0,0q.12-.144.231-.3a.213.213,0,0,1,.018-.022c.035-.05.07-.1.1-.149.008-.011.014-.024.022-.035.074-.112.146-.224.213-.341v0c.032-.056.064-.114.094-.171.021-.038.042-.078.061-.118,0,0,0-.01.008-.015l.006-.011c.021-.042.042-.083.061-.126s.034-.074.051-.111c.008-.016.014-.032.021-.048l.006-.016c0-.013.011-.024.016-.037l.042-.1.034-.086c.011-.027.021-.056.032-.083v0c.01-.027.021-.056.03-.083s.018-.051.026-.077.016-.051.026-.077l.024-.077v0h0l.019-.067.019-.069c.006-.022.013-.046.018-.069s.011-.045.018-.067l.01-.038s0,0,0-.006l0-.019.014-.064c0-.021.01-.043.013-.064s.008-.042.013-.064.008-.042.011-.062a.288.288,0,0,1,.006-.035.01.01,0,0,1,0-.006c0-.006,0-.014,0-.021l.01-.062c0-.021,0-.042.008-.061s0-.04.006-.061,0-.04.006-.061,0-.027,0-.042v0s0-.01,0-.014l0-.061c0-.021,0-.04,0-.061s0-.04,0-.061,0-.04,0-.061v-.048Z" transform="translate(-462.769 -607.391)" fill="#ffc31a"/>
              <path id="Path_8" data-name="Path 8" d="M441.662,678.01c0,.1,0,.2-.013.3v0c-.008.1-.021.2-.037.306a.01.01,0,0,1,0,.006c-.016.1-.037.207-.061.309,0,0,0,0,0,.006a5.128,5.128,0,0,1-.189.629v0c-.038.1-.078.2-.123.3l-.006.016c-.043.1-.09.2-.139.295,0,0,0,.011-.008.016-.05.1-.1.194-.157.29-.067.117-.139.229-.213.341-.046.069-.093.138-.142.2q-.11.154-.231.3c-.067.082-.138.16-.208.235l-.018.019q-.108.115-.221.221l-.011.01q-.115.108-.235.207s0,0,0,0c-.08.066-.163.128-.247.186l-.006,0c-.085.058-.17.112-.256.163a2.869,2.869,0,0,1-.259.135l0,0a2.6,2.6,0,0,1-.25.1l0,0a2.462,2.462,0,0,1-.24.067.006.006,0,0,0,0,0,1.728,1.728,0,0,1-.455.04h0a1.362,1.362,0,0,1-.2-.026l-.011,0a1.252,1.252,0,0,1-.187-.054l-.011,0a1.241,1.241,0,0,1-.173-.083h0l1.193.693c.034.019.067.037.1.053s.048.021.072.03l.011,0,.008,0c.026.01.053.018.078.026l.072.019.029.006.011,0,.026,0c.022,0,.043.008.066.01s.038,0,.058.006.037,0,.054,0h0c.019,0,.038,0,.058,0h.053l.054,0,.054,0h0l.05,0,.051-.006.051-.008.051-.01.029-.006a.006.006,0,0,0,0,0l.014,0,.05-.011.05-.013.05-.014.048-.014.029-.01,0,0,.016,0,.05-.018.05-.019.05-.019.05-.021a.247.247,0,0,0,.037-.018l0,0,.01,0,.05-.024.051-.026c.018-.008.034-.018.051-.027l.051-.029.046-.026.006,0,.054-.032.054-.034.054-.035.054-.037c.011-.008.022-.016.034-.022l.006,0a.172.172,0,0,0,.018-.013c.019-.013.038-.027.058-.042s.038-.029.058-.042l.061-.048.053-.042s0,0,0,0l.006,0,.062-.053c.022-.019.046-.038.069-.059s.048-.043.072-.066l.026-.024.01-.01c.011-.011.024-.022.035-.032l.086-.085c.029-.029.058-.059.086-.09a.11.11,0,0,0,.013-.014l.018-.019c.026-.029.053-.056.078-.085.043-.048.086-.1.128-.149l0,0q.12-.144.231-.3a.231.231,0,0,1,.018-.022c.035-.05.07-.1.1-.149a.376.376,0,0,0,.021-.035c.074-.112.146-.224.213-.341,0,0,0,0,0,0,.032-.056.064-.114.094-.171.021-.038.04-.077.061-.117,0,0,0-.011.008-.016a.039.039,0,0,1,.006-.011l.062-.126c.018-.037.034-.074.051-.11.006-.016.014-.032.021-.048s0-.011.008-.016.011-.026.016-.037c.014-.032.027-.066.042-.1l.034-.087c.011-.027.021-.054.03-.082a0,0,0,0,1,0,0,0,0,0,0,1,0,0l.03-.083c.01-.026.018-.051.026-.077s.018-.051.026-.077l.024-.077h0c.006-.022.014-.046.021-.069l.019-.069c.006-.022.013-.046.018-.069s.011-.045.018-.067l.01-.038s0,0,0-.006l0-.021c0-.022.01-.043.014-.064s.01-.043.013-.064.008-.042.013-.064.008-.042.011-.062l0-.034a.012.012,0,0,1,0-.006c0-.006,0-.014,0-.021l.01-.062c0-.021,0-.042.008-.061s0-.04.006-.061,0-.04.006-.061,0-.027,0-.042v0s0-.01,0-.014l0-.061c0-.021,0-.04,0-.061s0-.04,0-.061,0-.04,0-.061V678.7Z" transform="translate(-413.375 -635.914)" fill="#d6a200"/>
              <path id="Path_9" data-name="Path 9" d="M524.023,509.073l-1.193-.693.061,21.72,1.194.693Z" transform="translate(-485.186 -493.441)" fill="#efb000"/>
              <path id="Path_10" data-name="Path 10" d="M384.894,710.78c0,.1,0,.2-.013.3v0c-.008.1-.021.2-.037.306a.006.006,0,0,1,0,0c-.016.1-.037.206-.061.311,0,0,0,0,0,.006-.024.1-.053.21-.083.314h0c-.032.106-.067.211-.106.315v0c-.038.1-.078.2-.123.306l-.006.016c-.043.1-.09.2-.139.295,0,0,0,.011-.008.016-.05.1-.1.194-.157.29-.067.117-.139.229-.213.341-.046.069-.093.138-.142.2q-.11.154-.231.3c-.067.082-.138.16-.208.235l-.018.019q-.108.115-.221.221l-.011.01q-.115.108-.235.206l0,0c-.08.066-.163.128-.247.186l-.006,0c-.085.058-.17.112-.256.163a2.885,2.885,0,0,1-.259.134l0,0a2.607,2.607,0,0,1-.25.1l0,0a2.459,2.459,0,0,1-.24.067.006.006,0,0,0,0,0,1.728,1.728,0,0,1-.455.04h0a1.378,1.378,0,0,1-.2-.026l-.011,0a1.266,1.266,0,0,1-.187-.054l-.011,0a.955.955,0,0,1-.173-.083h0l1.193.693c.034.019.067.037.1.053s.048.021.072.03l.011,0,.008,0c.026.01.053.018.078.026l.072.019.029.006.011,0,.026,0c.022,0,.043.008.066.01s.038,0,.058.006.037,0,.054,0h0c.019,0,.038,0,.058,0h.053l.054,0,.054,0h0l.05,0,.051-.006.051-.008.051-.01.029-.006a.006.006,0,0,0,0,0l.014,0,.05-.011.05-.013.05-.014.048-.014.029-.01,0,0,.016,0,.05-.018.05-.019.05-.019.05-.021a.263.263,0,0,0,.037-.018l0,0,.01,0,.05-.024.051-.026.051-.027.051-.029.046-.026.006,0,.054-.032.054-.034.054-.035.054-.037c.011-.008.022-.016.034-.022l.006,0a.179.179,0,0,0,.018-.013c.019-.013.038-.027.058-.042s.038-.029.058-.042l.061-.048.053-.042s0,0,0,0l.006,0,.062-.053c.022-.019.046-.038.069-.059s.048-.043.072-.066l.026-.024.01-.01c.011-.011.024-.022.035-.032.029-.027.058-.056.086-.085s.058-.059.086-.09l.014-.014a.181.181,0,0,1,.018-.018c.026-.029.053-.056.078-.085.043-.048.086-.1.128-.149l0,0q.12-.144.231-.3a.224.224,0,0,1,.018-.022c.035-.05.07-.1.1-.149a.409.409,0,0,0,.021-.035c.074-.112.146-.224.213-.341v0c.032-.056.064-.114.094-.171.021-.038.04-.078.061-.117,0,0,0-.011.008-.016a.038.038,0,0,1,.006-.011l.062-.127c.018-.037.034-.074.051-.11.006-.016.014-.032.021-.048l.006-.016c0-.013.011-.026.016-.037.014-.032.027-.066.042-.1l.034-.086c.011-.027.021-.054.03-.082a0,0,0,0,1,0,0,0,0,0,0,1,0,0l.03-.083c.01-.026.018-.051.026-.077s.018-.051.026-.077l.024-.077c.006-.022.014-.046.021-.069l.019-.069c.006-.022.013-.046.018-.069s.011-.045.018-.067l.01-.038s0,0,0-.006l0-.021.014-.064c0-.021.01-.043.013-.064s.008-.042.013-.064.008-.042.011-.062l0-.034a.01.01,0,0,1,0-.006c0-.006,0-.014,0-.021l.01-.062c0-.021,0-.042.008-.061s0-.04.006-.061,0-.04.006-.061,0-.027,0-.042v0s0-.01,0-.014l0-.061c0-.021,0-.04,0-.061s0-.04,0-.061,0-.04,0-.061v-.048Z" transform="translate(-365.693 -663.438)" fill="#d6a200"/>
              <path id="Path_11" data-name="Path 11" d="M518.478,498.427l.03.034a1.3,1.3,0,0,1,.112.149l.014.024a1.757,1.757,0,0,1,.094.171l0,0a2.085,2.085,0,0,1,.083.211l0,.008a2.109,2.109,0,0,1,.061.235s0,0,0,.006c.016.082.029.168.038.258v.006c.008.091.013.186.013.285l1.193.693V500.5c0-.021,0-.042,0-.062s0-.042,0-.061,0-.04,0-.061,0-.04,0-.061a.172.172,0,0,0,0-.029v-.008c0-.01,0-.018,0-.027s0-.042-.008-.062,0-.04-.008-.061-.006-.043-.011-.066,0-.029-.008-.043,0,0,0-.006,0-.011,0-.016l-.014-.064c-.006-.024-.011-.046-.018-.07s-.013-.048-.021-.07l0-.014,0-.008-.014-.046c-.01-.029-.021-.056-.032-.083s-.022-.054-.035-.08c0,0,0,0,0,0l0,0c-.014-.032-.03-.062-.046-.091s-.032-.054-.048-.08a.251.251,0,0,0-.014-.022.041.041,0,0,1-.006-.011,1.56,1.56,0,0,0-.106-.138c-.01-.011-.021-.022-.032-.034a1.15,1.15,0,0,0-.1-.1l-.038-.034a1.123,1.123,0,0,0-.146-.1l-1.193-.693a1.128,1.128,0,0,1,.146.1l.038.034C518.413,498.36,518.446,498.392,518.478,498.427Z" transform="translate(-481.289 -484.883)" fill="#c99002"/>
              <path id="Path_12" data-name="Path 12" d="M465.194,543.043,464,542.35l.062,21.719,1.193.693Z" transform="translate(-435.775 -521.973)" fill="#efb000"/>
              <path id="Path_13" data-name="Path 13" d="M459.657,532.412l.032.034a1.293,1.293,0,0,1,.112.149l.014.024a1.75,1.75,0,0,1,.094.171l0,0a2.078,2.078,0,0,1,.083.211s0,.006,0,.008a2.119,2.119,0,0,1,.061.235s0,0,0,.006c.016.083.029.168.038.258v.006c.008.091.013.186.013.285l1.193.693v-.013c0-.021,0-.042,0-.062s0-.042,0-.061,0-.04,0-.059,0-.04,0-.061,0-.019,0-.029v-.008c0-.01,0-.018,0-.027s0-.042-.008-.062,0-.04-.008-.061-.006-.043-.011-.066,0-.029-.008-.043,0,0,0-.006,0-.01,0-.016l-.014-.064c-.006-.024-.011-.046-.018-.069s-.013-.048-.021-.07l0-.014,0-.008c0-.016-.01-.03-.014-.045s-.021-.056-.032-.083-.022-.055-.035-.08c0,0,0,0,0,0l0,0c-.014-.03-.03-.062-.046-.091s-.032-.054-.048-.08a.265.265,0,0,0-.014-.022l-.006-.011a1.554,1.554,0,0,0-.106-.138c-.01-.011-.021-.022-.032-.034a1.177,1.177,0,0,0-.1-.1l-.038-.034a1.119,1.119,0,0,0-.146-.1l-1.193-.693a1.132,1.132,0,0,1,.146.1l.038.034A1.193,1.193,0,0,1,459.657,532.412Z" transform="translate(-431.886 -513.431)" fill="#c99002"/>
              <g id="Group_36" data-name="Group 36" transform="translate(19.14 25.622)">
                <path id="Path_14" data-name="Path 14" d="M408.5,597.524l-1.193-.693-.061-21.72,1.193.695Z" transform="translate(-407.25 -575.11)" fill="#efb000"/>
              </g>
              <path id="Path_15" data-name="Path 15" d="M402.9,565.174c.01.011.021.022.032.034a1.508,1.508,0,0,1,.114.149c0,.008.01.016.014.022a1.745,1.745,0,0,1,.094.171l0,0a2.057,2.057,0,0,1,.083.211l0,.008a2.119,2.119,0,0,1,.061.235s0,0,0,.006c.016.082.029.168.038.258v.008c.008.091.013.186.013.285l1.193.693v-.013c0-.021,0-.042,0-.062s0-.04,0-.061,0-.04,0-.059l0-.061a.178.178,0,0,0,0-.029v-.006c0-.01,0-.019,0-.027s0-.042-.008-.062,0-.04-.008-.061-.006-.043-.011-.066,0-.029-.008-.043,0,0,0-.006,0-.011,0-.016l-.014-.064c-.006-.024-.011-.046-.018-.069s-.013-.048-.021-.07l0-.014s0-.006,0-.008l-.014-.045c-.01-.029-.021-.056-.032-.083s-.022-.055-.035-.08c0,0,0,0,0,0s0,0,0-.006c-.014-.03-.03-.062-.046-.091s-.032-.054-.048-.08l-.014-.024-.006-.011a1.3,1.3,0,0,0-.106-.138c-.01-.011-.021-.022-.032-.034a1.168,1.168,0,0,0-.1-.1l-.038-.034a1.142,1.142,0,0,0-.146-.1l-1.193-.693a1.137,1.137,0,0,1,.146.1l.038.034C402.839,565.107,402.873,565.138,402.9,565.174Z" transform="translate(-384.222 -540.946)" fill="#c99002"/>
              <path id="Path_16" data-name="Path 16" d="M295.16,449.039l1.169,35.146,49.2-28.406L346.5,419.4Zm16.671,22.084c-1.4.808-2.541.158-2.544-1.452l-.061-21.72a5.571,5.571,0,0,1,2.528-4.379c1.4-.808,2.541-.158,2.544,1.451l.061,21.72A5.572,5.572,0,0,1,311.831,471.123Zm9.087-5.245c-1.4.809-2.541.159-2.544-1.452l-.061-21.72a5.571,5.571,0,0,1,2.528-4.379c1.4-.808,2.541-.158,2.544,1.451l.061,21.72A5.574,5.574,0,0,1,320.918,465.878Zm9.419-5.438c-1.4.808-2.541.159-2.546-1.452l-.061-21.72a5.575,5.575,0,0,1,2.528-4.379c1.4-.809,2.541-.159,2.544,1.45l.061,21.72A5.565,5.565,0,0,1,330.337,460.439Z" transform="translate(-293.966 -418.707)" fill="#e2a203"/>
              <path id="Path_17" data-name="Path 17" d="M288.894,600.893,287.7,600.2l1.17,35.148,1.193.693Z" transform="translate(-287.7 -570.561)" fill="#d8a300"/>
              <path id="Path_18" data-name="Path 18" d="M339.038,415.07,287.7,444.709l1.194.693,51.337-29.639Z" transform="translate(-287.7 -415.07)" fill="#e1aa00"/>
            </g>
          </g>
          <g id="Group_42" data-name="Group 42" transform="translate(3.881 42.628)">
            <g id="Group_41" data-name="Group 41">
              <g id="Group_39" data-name="Group 39" transform="translate(0.002)">
                <path id="Path_19" data-name="Path 19" d="M377.186,661.932,326.3,690.521l-36.77-20.6L341.1,641.97Z" transform="translate(-289.53 -641.97)" fill="#a07200"/>
              </g>
              <g id="Group_40" data-name="Group 40" transform="translate(0 27.947)">
                <path id="Path_20" data-name="Path 20" d="M326.291,837.135l0,.613-36.77-20.6,0-.613Z" transform="translate(-289.52 -816.53)" fill="#7d5e00"/>
              </g>
            </g>
          </g>
          <g id="Group_47" data-name="Group 47" transform="translate(54.046 6.866)">
            <g id="Group_46" data-name="Group 46">
              <g id="Group_43" data-name="Group 43" transform="translate(0 0.772)">
                <path id="Path_21" data-name="Path 21" d="M639.321,444.093l-.293,35.042L602.86,458.558l.07-35.148Z" transform="translate(-602.86 -423.41)" fill="#c99002"/>
              </g>
              <g id="Group_44" data-name="Group 44" transform="translate(36.168 20.685)">
                <path id="Path_22" data-name="Path 22" d="M829.063,548.56l1.326-.77-.293,35.041-1.326.772Z" transform="translate(-828.77 -547.79)" fill="#ffc31a"/>
              </g>
              <g id="Group_45" data-name="Group 45" transform="translate(0.07)">
                <path id="Path_23" data-name="Path 23" d="M603.3,419.362l1.326-.772,36.39,20.685-1.326.77Z" transform="translate(-603.3 -418.59)" fill="#dea800"/>
              </g>
            </g>
          </g>
          <g id="Group_50" data-name="Group 50" transform="translate(39.755 25.73)">
            <g id="Group_49" data-name="Group 49">
              <path id="Path_24" data-name="Path 24" d="M726.374,765.4c0,.1,0,.2-.013.3v0c-.008.1-.021.2-.037.306a.01.01,0,0,1,0,.006c-.016.1-.037.207-.061.309,0,0,0,0,0,.006-.024.1-.053.208-.083.314v0c-.032.106-.067.211-.106.315v0c-.038.1-.078.2-.123.306l-.006.016c-.043.1-.09.2-.139.3a.15.15,0,0,0-.008.016c-.05.1-.1.194-.157.29-.067.117-.139.229-.213.341-.046.069-.093.138-.143.205q-.11.154-.231.3c-.067.082-.138.16-.208.235l-.016.018q-.108.115-.221.221l-.011.01c-.077.072-.155.141-.237.206l0,0c-.08.066-.163.128-.247.186l-.006,0c-.085.058-.17.112-.256.163a2.892,2.892,0,0,1-.259.134l0,0a2.6,2.6,0,0,1-.25.1l0,0a2.477,2.477,0,0,1-.24.067.006.006,0,0,0,0,0,1.729,1.729,0,0,1-.232.035h0a1.727,1.727,0,0,1-.223,0h0a1.386,1.386,0,0,1-.2-.026l-.011,0a1.2,1.2,0,0,1-.187-.054l-.011,0a1.231,1.231,0,0,1-.173-.083h0l1.193.693c.034.019.067.037.1.053s.048.021.072.03l.011,0,.008,0c.026.01.053.018.078.026l.072.019.029.006.011,0,.026,0c.022,0,.043.008.066.01s.038,0,.058.006.035,0,.054,0h0c.019,0,.038,0,.058,0h.053l.054,0,.055,0h0l.051,0,.051-.006.051-.008.051-.01.029-.006a.006.006,0,0,0,0,0l.016,0,.05-.011.05-.013.05-.014.048-.014.029-.01,0,0,.016,0,.05-.018.05-.019.05-.019c.018-.006.034-.014.05-.021a.38.38,0,0,0,.037-.018l0,0,.01,0,.05-.024.051-.026c.018-.008.034-.018.051-.027L725,770.5l.047-.026.006,0,.054-.032.055-.034.054-.035.054-.037c.011-.008.022-.016.034-.022l.006,0,.019-.013c.019-.013.038-.027.058-.042s.038-.029.058-.042l.062-.048.053-.042,0,0,.006,0,.062-.053c.022-.019.046-.038.069-.059s.048-.043.072-.066l.026-.024.011-.01c.011-.011.024-.022.035-.032.029-.027.058-.056.086-.085l.086-.09a.1.1,0,0,0,.013-.014l.018-.019c.026-.029.053-.056.078-.085.043-.048.086-.1.128-.149l0,0q.12-.144.231-.3a.217.217,0,0,1,.018-.022c.035-.05.07-.1.1-.149.008-.011.014-.024.022-.035.074-.112.146-.224.213-.341v0c.032-.056.064-.114.094-.171.021-.038.042-.078.061-.118l.008-.014a.076.076,0,0,0,0-.011c.021-.042.042-.083.061-.126s.034-.074.051-.111c.008-.016.014-.032.021-.048l.006-.016c0-.013.011-.024.016-.037l.042-.1.034-.086c.011-.027.021-.056.032-.083v0l.03-.083c.01-.026.018-.051.026-.077s.016-.051.026-.077l.024-.077v0l.019-.067.019-.069c.006-.022.013-.046.018-.069s.011-.045.018-.067l.01-.038s0,0,0-.006l0-.019.014-.064c0-.021.01-.043.013-.064s.008-.042.013-.064.008-.042.011-.062l0-.035a.01.01,0,0,1,0-.006c0-.006,0-.014,0-.021l.01-.062c0-.021,0-.042.008-.061s0-.04.006-.061,0-.04.006-.061,0-.027,0-.042v0s0-.01,0-.014l0-.061c0-.021,0-.04,0-.061s0-.04,0-.061,0-.04,0-.061v-.048Z" transform="translate(-688.669 -728.741)" fill="#ffda71"/>
              <path id="Path_25" data-name="Path 25" d="M667.552,799.36c0,.1,0,.2-.013.3v0c-.008.1-.021.2-.037.306a.009.009,0,0,1,0,.006c-.016.1-.037.207-.061.309,0,0,0,0,0,.006a5.129,5.129,0,0,1-.189.629v0c-.038.1-.078.2-.123.3l-.006.016c-.043.1-.09.2-.139.295,0,0,0,.011-.008.016-.05.1-.1.194-.157.29-.067.117-.139.229-.213.341-.046.069-.093.138-.143.2q-.111.154-.231.3c-.067.082-.138.16-.208.235l-.018.019q-.108.115-.221.221l-.011.01q-.115.108-.235.207s0,0,0,0c-.08.066-.163.128-.247.186l-.006,0c-.085.058-.17.112-.256.163a2.869,2.869,0,0,1-.259.135l0,0a2.58,2.58,0,0,1-.25.1l0,0a2.464,2.464,0,0,1-.24.067.006.006,0,0,0,0,0,1.738,1.738,0,0,1-.455.04h0a1.394,1.394,0,0,1-.2-.026l-.011,0A1.236,1.236,0,0,1,663.4,804l-.011,0a1.225,1.225,0,0,1-.173-.083h0l1.193.693c.034.019.067.037.1.053s.048.021.072.03l.011,0,.008,0c.026.01.053.018.078.026l.072.019.029.006.011,0,.026,0c.022,0,.043.008.066.01s.038,0,.058.006.037,0,.054,0h0c.019,0,.038,0,.058,0h.053l.054,0,.055,0h0l.05,0,.051-.006.051-.008.051-.01.029-.006a.006.006,0,0,0,0,0l.014,0,.05-.011.05-.013.05-.014.048-.014.029-.01,0,0,.016,0,.05-.018.05-.019.05-.019.05-.021a.249.249,0,0,0,.037-.018l0,0,.01,0,.05-.024.051-.026c.018-.008.034-.018.051-.027l.051-.029.046-.026.006,0,.054-.032.054-.034.054-.035.055-.037c.011-.008.022-.016.034-.022l.006,0a.162.162,0,0,0,.018-.013c.019-.013.038-.027.058-.042s.038-.029.058-.042l.061-.048.053-.042s0,0,0,0l.006,0,.062-.053c.022-.019.046-.038.069-.059l.072-.066.026-.024.01-.01c.011-.011.024-.022.035-.032l.086-.085c.029-.029.058-.059.086-.09a.109.109,0,0,0,.013-.014l.018-.019c.026-.029.053-.056.078-.085.043-.048.086-.1.128-.149l0,0q.12-.144.231-.3a.213.213,0,0,1,.018-.022c.035-.05.07-.1.1-.149.008-.011.014-.024.021-.035.074-.112.146-.224.213-.341a0,0,0,0,1,0,0c.032-.056.064-.114.094-.171.021-.038.04-.077.061-.117,0,0,0-.011.008-.016a.041.041,0,0,1,.006-.011l.062-.126c.018-.037.034-.074.051-.11.006-.016.014-.032.021-.048s0-.011.008-.016.011-.026.016-.037c.014-.032.027-.066.042-.1l.034-.086c.011-.027.021-.054.031-.082a0,0,0,0,1,0,0,0,0,0,0,1,0,0l.03-.083c.01-.026.018-.051.026-.077s.016-.051.026-.077l.024-.077h0c.006-.022.013-.045.021-.069l.019-.069c.006-.022.013-.046.018-.069s.011-.045.018-.067l.01-.038s0,0,0-.006,0-.013,0-.021.01-.043.014-.064.01-.043.013-.064.008-.042.013-.064.008-.042.011-.062l0-.034a.012.012,0,0,1,0-.006c0-.006,0-.014,0-.021l.01-.062c0-.021,0-.042.008-.061s0-.04.006-.061,0-.04.006-.061,0-.027,0-.042v0s0-.01,0-.014l0-.061c0-.021,0-.04,0-.061s0-.04,0-.061,0-.04,0-.061v-.048Z" transform="translate(-639.266 -757.264)" fill="#ffda71"/>
              <path id="Path_26" data-name="Path 26" d="M749.914,630.423l-1.194-.693.063,21.72,1.193.693Z" transform="translate(-711.078 -614.791)" fill="#efb000"/>
              <path id="Path_27" data-name="Path 27" d="M610.784,832.13c0,.1,0,.2-.013.3v0c-.008.1-.021.2-.037.306a.006.006,0,0,1,0,0c-.016.1-.037.207-.061.311,0,0,0,0,0,.006-.024.1-.053.21-.083.314h0c-.032.106-.067.211-.106.315v0c-.038.1-.078.2-.123.306l-.006.016c-.043.1-.09.2-.139.295,0,0,0,.011-.008.016-.05.1-.1.194-.157.29-.067.117-.139.229-.213.341-.046.069-.093.138-.143.2q-.11.154-.231.3c-.067.082-.138.16-.208.235l-.018.019q-.108.115-.221.221l-.011.01q-.115.108-.235.207l0,0c-.08.066-.163.128-.247.186l-.006,0c-.085.058-.17.112-.256.163a2.846,2.846,0,0,1-.259.134l0,0a2.615,2.615,0,0,1-.25.1l0,0a2.434,2.434,0,0,1-.24.067.006.006,0,0,0,0,0,1.739,1.739,0,0,1-.455.04h0a1.394,1.394,0,0,1-.2-.026l-.011,0a1.25,1.25,0,0,1-.187-.054l-.011,0a.956.956,0,0,1-.173-.083h0l1.193.693c.034.019.067.037.1.053s.048.021.072.03l.011,0,.008,0c.026.01.053.018.078.026l.072.019.029.006h.011l.026,0c.022,0,.043.008.066.01s.038,0,.058.006.037,0,.054,0h0c.019,0,.038,0,.058,0h.053l.054,0,.054,0h0l.05,0,.051-.006.051-.008.051-.01.029-.006a.006.006,0,0,0,0,0l.014,0,.05-.011.05-.013.05-.014.048-.014.029-.01,0,0,.016,0,.05-.018.05-.019.05-.019.05-.021a.277.277,0,0,0,.037-.018l0,0,.01,0,.05-.024.051-.026.051-.027.051-.029.046-.026.006,0,.054-.032.054-.034.055-.035.054-.037a.375.375,0,0,1,.034-.022l.006,0a.188.188,0,0,0,.018-.013l.058-.042c.019-.014.038-.029.058-.042l.061-.048.053-.042s0,0,0,0l.006,0,.062-.053c.022-.019.046-.038.069-.059s.048-.043.072-.066l.026-.024.01-.01.035-.032c.029-.027.058-.056.086-.085l.086-.09.014-.014a.185.185,0,0,1,.018-.018c.026-.029.053-.056.078-.085.043-.048.086-.1.128-.149h0q.12-.144.231-.3a.2.2,0,0,1,.018-.022c.035-.05.07-.1.1-.149a.393.393,0,0,0,.021-.035c.074-.112.146-.224.213-.341v0c.032-.056.064-.114.094-.171.021-.038.04-.078.061-.117,0,0,0-.011.008-.016a.044.044,0,0,1,.006-.011l.063-.126c.018-.037.034-.074.051-.111.006-.016.014-.032.021-.048l.006-.016c0-.013.011-.026.016-.037.014-.032.027-.066.042-.1l.034-.086c.011-.027.021-.054.03-.082a0,0,0,0,1,0,0,0,0,0,0,1,0,0c.01-.027.021-.056.03-.083s.018-.051.026-.077.016-.051.026-.077l.024-.077c.006-.022.014-.046.021-.069l.019-.069c.006-.022.013-.046.018-.069s.011-.045.018-.067l.01-.038s0,0,0-.006,0-.013,0-.021l.014-.064c0-.021.01-.043.013-.064s.008-.042.013-.064.008-.042.011-.062l0-.034a.01.01,0,0,1,0-.006c0-.006,0-.014,0-.021l.01-.062c0-.021,0-.042.008-.061s0-.04.006-.061,0-.04.006-.061,0-.027,0-.042v0s0-.01,0-.014l0-.061c0-.021,0-.04,0-.061s0-.04,0-.061,0-.04,0-.061v-.048Z" transform="translate(-591.585 -784.788)" fill="#ffda71"/>
              <path id="Path_28" data-name="Path 28" d="M744.368,619.767l.03.034a1.287,1.287,0,0,1,.112.149l.014.024a1.756,1.756,0,0,1,.094.171l0,0a2.1,2.1,0,0,1,.083.211l0,.008a2.109,2.109,0,0,1,.061.235s0,0,0,.006c.016.082.029.168.038.258v.006c.008.091.013.186.013.285l1.193.693v-.013c0-.021,0-.042,0-.062s0-.042,0-.061,0-.04,0-.061l0-.061a.178.178,0,0,0,0-.029v-.008c0-.01,0-.018,0-.027s0-.042-.008-.062,0-.04-.008-.061-.006-.043-.011-.066,0-.029-.008-.043,0,0,0-.006,0-.011,0-.016l-.014-.064c-.006-.024-.011-.046-.018-.07s-.013-.048-.021-.07l0-.014,0-.008-.014-.046c-.01-.029-.021-.056-.032-.083s-.022-.054-.035-.08c0,0,0,0,0,0l0,0c-.014-.032-.03-.062-.046-.091s-.032-.055-.048-.08a.261.261,0,0,0-.014-.022.039.039,0,0,1-.006-.011,1.568,1.568,0,0,0-.106-.138c-.01-.011-.021-.022-.032-.034a1.168,1.168,0,0,0-.1-.1l-.038-.034a1.135,1.135,0,0,0-.146-.1l-1.193-.693a1.137,1.137,0,0,1,.146.1l.038.034C744.3,619.7,744.336,619.733,744.368,619.767Z" transform="translate(-707.181 -606.224)" fill="#efb000"/>
              <path id="Path_29" data-name="Path 29" d="M691.093,664.383l-1.193-.693.061,21.72,1.193.693Z" transform="translate(-661.675 -643.315)" fill="#efb000"/>
              <path id="Path_30" data-name="Path 30" d="M685.547,653.762l.032.034a1.29,1.29,0,0,1,.112.149l.014.024a1.751,1.751,0,0,1,.094.171l0,0a2.084,2.084,0,0,1,.083.211s0,.006,0,.008a2.1,2.1,0,0,1,.061.235s0,0,0,.006c.016.083.029.168.038.258v.006c.008.091.013.186.013.285l1.193.693v-.013c0-.021,0-.042,0-.062s0-.042,0-.061,0-.04,0-.059l0-.061c0-.01,0-.019,0-.029v-.008c0-.01,0-.018,0-.027s0-.042-.008-.062,0-.04-.008-.061-.006-.043-.011-.066,0-.029-.008-.043,0,0,0-.006,0-.01,0-.016l-.014-.064c0-.024-.011-.046-.018-.069s-.013-.048-.021-.07l0-.014,0-.008-.014-.045c-.01-.029-.021-.056-.032-.083s-.023-.054-.035-.08c0,0,0,0,0,0l0,0c-.014-.03-.03-.062-.046-.091s-.032-.054-.048-.08a.252.252,0,0,0-.014-.022l-.006-.011a1.535,1.535,0,0,0-.106-.138c-.01-.011-.021-.022-.032-.034a1.161,1.161,0,0,0-.1-.1l-.038-.034a1.129,1.129,0,0,0-.146-.1l-1.193-.693a1.12,1.12,0,0,1,.146.1l.038.034A.981.981,0,0,1,685.547,653.762Z" transform="translate(-657.778 -634.781)" fill="#efb000"/>
              <g id="Group_48" data-name="Group 48" transform="translate(19.138 25.622)">
                <path id="Path_31" data-name="Path 31" d="M634.4,718.874l-1.194-.693-.061-21.72,1.193.693Z" transform="translate(-633.14 -696.46)" fill="#efb000"/>
              </g>
              <path id="Path_32" data-name="Path 32" d="M628.8,686.524c.01.011.021.022.032.034a1.508,1.508,0,0,1,.114.149c0,.008.01.016.014.022a1.778,1.778,0,0,1,.094.171l0,0a2.078,2.078,0,0,1,.083.211l0,.008a2.1,2.1,0,0,1,.061.235s0,0,0,.006c.016.082.029.168.038.258v.008c.008.091.013.186.013.285l1.193.693V688.6c0-.021,0-.042,0-.062s0-.04,0-.061,0-.04,0-.059l0-.061a.179.179,0,0,0,0-.029v-.006c0-.01,0-.019,0-.027s0-.042-.008-.062,0-.04-.008-.061-.006-.043-.011-.066,0-.029-.008-.043,0,0,0-.006,0-.011,0-.016l-.014-.064c0-.024-.011-.046-.018-.069s-.013-.048-.021-.07l0-.014s0-.006,0-.008l-.014-.045c-.01-.029-.021-.056-.032-.083s-.022-.054-.035-.08c0,0,0,0,0,0s0,0,0-.006c-.014-.03-.03-.062-.046-.091s-.032-.054-.048-.08l-.014-.024-.006-.011a1.293,1.293,0,0,0-.106-.138c-.01-.011-.021-.022-.032-.034a1.142,1.142,0,0,0-.1-.1l-.038-.034a1.131,1.131,0,0,0-.146-.1l-1.193-.693a1.121,1.121,0,0,1,.146.1l.038.034C628.739,686.456,628.771,686.489,628.8,686.524Z" transform="translate(-610.122 -662.296)" fill="#efb000"/>
              <path id="Path_33" data-name="Path 33" d="M519.488,570.389l-.3,35.731,50.668-28.99.967-36.379Zm16.671,22.084c-1.4.808-2.541.158-2.544-1.452l-.061-21.72a5.571,5.571,0,0,1,2.528-4.379c1.4-.808,2.541-.159,2.544,1.45l.061,21.72A5.572,5.572,0,0,1,536.159,592.473Zm9.087-5.246c-1.4.808-2.541.159-2.544-1.452l-.061-21.72a5.571,5.571,0,0,1,2.528-4.379c1.4-.808,2.541-.159,2.544,1.451l.061,21.72A5.572,5.572,0,0,1,545.246,587.226Zm9.418-5.437c-1.4.809-2.541.159-2.546-1.452l-.061-21.72a5.575,5.575,0,0,1,2.528-4.379c1.4-.808,2.541-.159,2.544,1.451l.061,21.72A5.566,5.566,0,0,1,554.664,581.789Z" transform="translate(-518.295 -540.057)" fill="#ffc31a"/>
              <path id="Path_34" data-name="Path 34" d="M514.793,722.243l-1.193-.693.98,35.146,1.146.532Z" transform="translate(-513.6 -691.911)" fill="#d8a300"/>
              <path id="Path_35" data-name="Path 35" d="M564.937,536.42,513.6,566.059l1.193.693,51.337-29.639Z" transform="translate(-513.6 -536.42)" fill="#e1aa00"/>
            </g>
          </g>
          <g id="Group_55" data-name="Group 55" transform="translate(3.519 35.148)">
            <g id="Group_54" data-name="Group 54">
              <g id="Group_51" data-name="Group 51" transform="translate(0 0.77)">
                <path id="Path_36" data-name="Path 36" d="M323.721,620.743l.65,35.229L287.26,635.208l.07-35.148Z" transform="translate(-287.26 -600.06)" fill="#efb000"/>
              </g>
              <g id="Group_52" data-name="Group 52" transform="translate(36.461 20.308)">
                <path id="Path_37" data-name="Path 37" d="M515,723.245l1.116-1.145,2.393,34.626-2.859,1.748Z" transform="translate(-515 -722.1)" fill="#ffc31a"/>
              </g>
              <g id="Group_53" data-name="Group 53" transform="translate(0.07)">
                <path id="Path_38" data-name="Path 38" d="M287.7,596.02l1.326-.77,36.39,20.683-1.326.77Z" transform="translate(-287.7 -595.25)" fill="#dea800"/>
              </g>
            </g>
          </g>
          <path id="Path_39" data-name="Path 39" d="M507.951,683.517c0-.006,0-.013,0-.021a.036.036,0,0,0,0-.013c0-.013,0-.026,0-.04s0-.048-.008-.072-.006-.042-.01-.064V683.3l-.01-.056c0-.019-.008-.04-.011-.059s-.008-.038-.013-.058,0-.008,0-.013,0,0,0-.006l-.01-.038-.014-.055-.014-.054c0-.013-.008-.026-.011-.037s0,0,0-.006a.114.114,0,0,1,0-.011c0-.018-.011-.035-.016-.053s-.011-.035-.018-.053-.011-.035-.018-.051,0-.013-.006-.019,0,0,0-.006l-.01-.026-.019-.051c-.006-.018-.014-.034-.021-.051s-.014-.034-.022-.051c0,0,0,0,0,0s0,0,0,0-.013-.029-.019-.042l-.024-.051a.519.519,0,0,0-.026-.051c-.006-.011-.011-.024-.018-.035l0,0,0-.01c-.01-.018-.018-.035-.027-.053l-.029-.053c-.01-.018-.019-.035-.03-.053a.034.034,0,0,0,0-.008l0,0-.024-.042-.034-.056c-.011-.019-.024-.038-.035-.056l-.01-.014-.006-.01-.024-.037c-.013-.019-.027-.04-.042-.059l-.048-.067v0h0c-.016-.022-.032-.043-.05-.066s-.043-.054-.064-.08l-.008-.01-.014-.018-.054-.064c-.013-.016-.027-.029-.042-.045s-.03-.034-.046-.05a.214.214,0,0,0-.026-.027l-.035-.034c-.035-.034-.07-.067-.106-.1l-.061-.053-.03-.024-4.01,2.285c.021.018.043.034.064.051l.061.053c.035.032.07.066.106.1s.042.04.061.061.032.034.046.05c.032.035.064.072.1.109l.014.018c.042.05.082.1.122.155l0,0c.04.053.077.109.114.163l.006.01c.035.056.07.112.1.168,0,0,0,0,0,.006q.05.086.1.178s0,0,0,.006c.03.059.059.12.085.181,0,0,0,0,0,0,.027.061.051.123.074.184,0,0,0,0,0,.006.022.061.043.123.062.186,0,0,0,0,0,.006.018.061.035.123.05.184,0,0,0,0,0,.006.014.062.026.123.037.186v0c.01.061.016.12.022.179,0,0,0,.008,0,.013,0,.029,0,.059,0,.088l-.029.018-.008,3.069c0,.056,0,.109-.008.16,0,.022,0,.043-.008.064a.9.9,0,0,1-.014.095c0,.021-.008.042-.013.062s-.013.056-.021.083l-.019.058c-.01.026-.019.05-.029.074s-.016.035-.024.051-.024.045-.037.067-.018.03-.027.045-.029.04-.045.059a.347.347,0,0,1-.03.037.625.625,0,0,1-.058.054l-.029.027a.788.788,0,0,1-.1.066l4.05-2.353a.785.785,0,0,0,.1-.066c.01-.008.019-.018.029-.027s.038-.035.058-.055a.343.343,0,0,0,.03-.037c.016-.019.03-.038.045-.059s.019-.03.027-.045a.66.66,0,0,0,.037-.067c.008-.016.016-.034.024-.051s.021-.048.029-.074l.019-.058c.008-.027.014-.054.021-.083s.01-.04.013-.062.01-.062.014-.094.006-.042.008-.064c0-.006,0-.013,0-.019,0-.038,0-.078,0-.119v-.022l.008-3.069-.043.026A.627.627,0,0,1,507.951,683.517Z" transform="translate(-464.723 -632.341)" fill="#b68a00"/>
          <path id="Path_40" data-name="Path 40" d="M498.137,695.343s-.008.008-.011.013l-.027.029-.048.053a.252.252,0,0,0-.026.032c-.014.018-.029.035-.045.053s-.019.022-.029.035a.175.175,0,0,1-.021.027c-.034.043-.064.086-.1.131-.008.011-.016.021-.022.03a.038.038,0,0,0-.006.011c-.043.066-.085.133-.123.2-.01.016-.018.032-.026.048-.034.061-.064.123-.093.187a.177.177,0,0,1-.013.024.023.023,0,0,0,0,.01c-.029.064-.054.128-.078.194l0,.013c-.011.032-.021.064-.032.1,0,.014-.01.027-.013.042s0,0,0,.006c-.011.04-.022.08-.032.122l0,.019a.2.2,0,0,0-.006.03c0,.018-.008.037-.013.054l-.014.082s0,.006,0,.01v0c0,.03-.01.061-.013.091l0,.053c0,.006,0,.013,0,.019s0,.01,0,.014l0,.082v.054l3.977,2.312c0-.05,0-.1.006-.152,0-.006,0-.013,0-.019,0-.048.01-.1.018-.147,0,0,0-.006,0-.01.008-.045.016-.091.027-.136,0-.01,0-.021.006-.03.011-.05.024-.1.038-.147l.014-.043c.011-.037.022-.072.037-.107.024-.066.05-.13.078-.194,0-.011.011-.022.016-.034.029-.062.061-.125.093-.187l.026-.048c.038-.069.08-.136.123-.2l.029-.042c.03-.045.062-.09.1-.133.016-.021.032-.042.05-.062s.029-.035.045-.053.05-.056.074-.083l.027-.029c.016-.018.034-.034.05-.05l-3.993-2.3Z" transform="translate(-460.171 -644.151)" fill="#ca9900"/>
          <g id="Group_56" data-name="Group 56">
            <path id="Path_41" data-name="Path 41" d="M346.007,391.067c0-.834-.592-1.169-1.318-.751l-52.032,30.041a2.881,2.881,0,0,0-1.308,2.267l.01,3.517c0,.834.592,1.169,1.318.751l52.033-30.041a2.883,2.883,0,0,0,1.308-2.267Z" transform="translate(-287.176 -387.826)" fill="#d8d8d8"/>
            <path id="Path_42" data-name="Path 42" d="M612.464,412.711l-35.079-20.252c-.847-.488-1.535-.1-1.537.876l-.008,3.015A3.366,3.366,0,0,0,577.367,399l35.079,20.254c.845.488,1.534.1,1.537-.877l.008-3.015A3.372,3.372,0,0,0,612.464,412.711Z" transform="translate(-526.12 -389.6)" fill="#d8d8d8"/>
            <path id="Path_43" data-name="Path 43" d="M320.766,375.793a.742.742,0,0,0-.115-.051l-.035-.01a.968.968,0,0,0-.1-.019l-.024,0h-.016c-.019,0-.038,0-.058,0a.365.365,0,0,0-.042,0l-.019,0-.035,0a.374.374,0,0,0-.04,0c-.014,0-.029.006-.043.008l-.026,0-.014,0c-.026.006-.051.013-.078.022l-.018.006-.019.006-.037.013-.07.029s0,0-.008,0l-.011,0-.051.024-.069.037-.008,0-.354.2-1.013.584-1.6.924-2.116,1.221-2.56,1.478-2.933,1.694-3.234,1.867-3.463,2-3.621,2.091-3.708,2.141-3.722,2.15-3.666,2.117L284.3,396.4l-3.338,1.928-3.067,1.771-2.723,1.572L272.864,403l-1.824,1.053a40.785,40.785,0,0,0-4.182,2.558c-.141.12-.125.227,0,.325-.01.016-.018.032-.026.048-.034.062-.064.125-.093.187a.176.176,0,0,1-.013.024.023.023,0,0,0,0,.01c-.029.064-.054.13-.078.194l0,.013c-.011.032-.021.064-.03.1l-.014.043s0,0,0,.006c-.011.04-.022.08-.032.122,0,.006,0,.013,0,.021s0,.019-.006.029-.008.037-.013.054l-.014.083a.072.072,0,0,1,0,.013c0,.03-.008.061-.013.091l0,.053c0,.006,0,.013,0,.019s0,.01,0,.014l0,.082v.054l3.977,2.312c0-.05,0-.1.006-.152,0-.006,0-.013,0-.019,0-.048.01-.1.018-.147,0,0,0-.006,0-.01.008-.045.016-.091.027-.138,0-.01,0-.019.006-.03.011-.05.024-.1.038-.147a.408.408,0,0,0,.013-.042c.011-.037.024-.074.037-.109.024-.066.05-.13.078-.194,0-.011.011-.022.016-.034.029-.062.061-.125.093-.187l.026-.048c.038-.069.08-.136.123-.2l.029-.042c.03-.045.062-.09.1-.131.016-.021.032-.042.05-.062s.029-.035.045-.053.05-.058.075-.085l.027-.029c.024-.026-1.483,2.075-1.458,2.051l32.8,18.009c.042.024.789,1.314.831,1.342.016.011-.171-3.032-.155-3.021s2.2,3.312,2.225,3.328,1.854-.975,1.854-.975c.019-.019.037-.037.056-.054l.019-.018c.037-.034.074-.067.112-.1l0,0c.04-.032.082-.064.123-.093l0,0c.043-.03.088-.059.133-.085l46.342-26.759-.006,2.209c0,.054,0,.107-.008.157,0,.021,0,.042-.008.062s-.008.063-.013.093-.008.04-.013.061-.013.054-.021.082a.575.575,0,0,1-.019.056.742.742,0,0,1-.029.072l-.022.051c-.011.022-.024.045-.035.066s-.018.03-.027.045-.029.04-.045.059l-.029.037c-.018.019-.037.037-.056.054s-.018.018-.027.026a.877.877,0,0,1-.093.066l3.977-2.312a.744.744,0,0,0,.093-.066c.01-.008.019-.018.027-.026s.038-.035.056-.054.019-.024.029-.037.03-.038.045-.059.018-.029.027-.045.024-.043.035-.066a.505.505,0,0,0,.022-.051l.029-.072.019-.056c.008-.026.014-.053.021-.082s.01-.04.013-.061.01-.061.013-.093,0-.042.008-.062,0-.013,0-.019c0-.038,0-.077,0-.117v-.022l.006-2.195,1.715-.989c.043-.024.085-.046.126-.066l.011,0c.038-.018.078-.034.115-.046l.019-.006a1.009,1.009,0,0,1,.109-.03l.026,0,.083-.013a.264.264,0,0,1,.035,0c.021,0,.04,0,.059,0s.038,0,.058,0l.038,0a.966.966,0,0,1,.1.019l.035.01a.681.681,0,0,1,.115.051Zm-13.482,48.931-.018-.011c-.016-.011-32-18.488-32-18.488l45.1-26.04L352.4,398.677Z" transform="translate(-266.296 -375.706)" fill="#fff"/>
            <path id="Path_44" data-name="Path 44" d="M359.958,520.887c0-.834-.592-1.169-1.318-.751l-52.032,30.041a2.109,2.109,0,0,0-.4.3l-5.17-2.907-34.218-19.756c-.847-.488-1.535-.1-1.537.876l0,.661-.006,0,0,1.178,0,1.178c0,.059,0,.118.006.179l0,.981v.026c0,.026,0,.051,0,.077a.24.24,0,0,0,0,.035c0,.006,0,.013,0,.019s0,.014,0,.021c0,.026.006.05.01.074s0,.018,0,.026a.081.081,0,0,1,0,.019l0,.027q.01.038.019.072a.023.023,0,0,1,0,.011c0,.006,0,.011.006.018s.01.03.016.045.013.027.018.042l.01.022,0,.011c.014.027.029.055.045.08a.746.746,0,0,0,.067.088c.014.016.03.029.045.043l.029.029a.551.551,0,0,0,.083.058l3.977,2.312a.765.765,0,0,1-.083-.058c-.01-.008-.019-.019-.029-.029l0,0,28.03,16.127a.61.61,0,0,0,.138.1l.869.475h0l5.9,3.228a3.69,3.69,0,0,0,3.589-.026l.871-.493a1.974,1.974,0,0,0,.283-.128l3.1-1.792,8.732-5.041,10.638-6.143,10.791-6.229,9.188-5.306,5.832-3.367,1.161-.671a2.883,2.883,0,0,0,1.308-2.267Z" transform="translate(-265.28 -496.862)" fill="#ededed"/>
          </g>
        </g>
        <g id="Group_59" data-name="Group 59" transform="translate(18.938)">
          <path id="Path_45" data-name="Path 45" d="M396.074,302.41l-6.462,3.756-.032,11.14,6.457-1.71Z" transform="translate(-388.618 -297.325)" fill="#424245"/>
          <path id="Path_46" data-name="Path 46" d="M396.26,296.426c.006-.059.014-.115.026-.17,0-.016.008-.032.011-.048.008-.037.018-.074.027-.107l.019-.054c.011-.03.021-.059.034-.086s.016-.035.026-.053.027-.051.042-.075a.471.471,0,0,1,.03-.046c.016-.022.032-.045.05-.066s.021-.027.032-.038a.745.745,0,0,1,.062-.061l.03-.029a.757.757,0,0,1,.1-.072l-6.462,3.756a.759.759,0,0,0-.1.072.258.258,0,0,0-.03.029.75.75,0,0,0-.062.061c-.011.013-.022.026-.032.038s-.034.043-.05.066-.021.03-.03.046-.029.05-.042.075-.018.034-.026.053a.8.8,0,0,0-.034.086l-.019.054c-.011.035-.019.07-.027.107,0,.016-.008.032-.011.048a1.37,1.37,0,0,0-.024.168v.011c0,.042-.006.085-.008.128,0,.019,0,.04,0,.059l6.462-3.756a1.788,1.788,0,0,1,.01-.189A.012.012,0,0,1,396.26,296.426Z" transform="translate(-388.794 -291.538)" fill="#3f3f42"/>
          <path id="Path_47" data-name="Path 47" d="M390.937,274.448l.013,0a1.929,1.929,0,0,1,.293-.037h0a2.247,2.247,0,0,1,.311.006l.014,0a2.934,2.934,0,0,1,.317.048l.016,0a3.354,3.354,0,0,1,.328.091l.021.006c.112.038.226.083.341.136l.026.013c.117.054.235.115.355.184l6.462-3.756-.077-.043c-.061-.034-.12-.066-.181-.094l-.1-.046-.026-.013-.029-.014c-.05-.022-.1-.042-.146-.061s-.086-.034-.13-.05a.3.3,0,0,0-.035-.011l-.021-.006-.069-.022c-.04-.013-.078-.024-.117-.034s-.074-.019-.11-.027l-.032-.006-.016,0-.059-.013-.1-.018c-.034,0-.067-.01-.1-.013l-.054,0-.014,0-.03,0-.094,0c-.032,0-.062,0-.093,0s-.061,0-.091,0h0c-.03,0-.059,0-.09.006l-.088.01-.088.014-.027,0-.013,0-.048.01c-.029.006-.058.014-.086.022s-.058.018-.086.027l-.045.016-.013,0-.027.01c-.029.011-.058.024-.086.037a.852.852,0,0,0-.085.043c-.018.01-.035.019-.053.03l-6.462,3.756a1.8,1.8,0,0,1,.251-.12l.013,0A1.915,1.915,0,0,1,390.937,274.448Z" transform="translate(-389.315 -270.65)" fill="#4d4d51"/>
          <path id="Path_48" data-name="Path 48" d="M664.748,640.424a.464.464,0,0,1-.008.083c0,.013,0,.026-.006.037a.479.479,0,0,1-.016.051c0,.01-.008.021-.011.029a.284.284,0,0,1-.027.043.177.177,0,0,1-.014.019.235.235,0,0,1-.054.045l6.462-3.756a.206.206,0,0,0,.054-.045l.014-.019a.5.5,0,0,0,.029-.043.2.2,0,0,0,.011-.029.391.391,0,0,0,.016-.051.252.252,0,0,0,.006-.037.152.152,0,0,0,0-.027c0-.013,0-.026,0-.038v-.016Z" transform="translate(-619.616 -578.071)" fill="#3e3e41"/>
          <g id="Group_58" data-name="Group 58" transform="translate(45.131 28.637)">
            <path id="Path_49" data-name="Path 49" d="M665.555,453.276l6.463-3.756-.086,29.962-6.462,3.754Z" transform="translate(-665.47 -449.52)" fill="#424245"/>
          </g>
          <path id="Path_50" data-name="Path 50" d="M412.873,273.73l-6.463,3.756,37.967,21.921,6.462-3.756Z" transform="translate(-402.753 -273.237)" fill="#515155"/>
          <path id="Path_51" data-name="Path 51" d="M644.273,414.891c.024.019.046.04.069.058.083.069.167.141.247.216.034.03.067.062.1.094.072.069.142.139.213.213.03.032.062.064.093.1.086.094.173.191.256.29.01.011.021.022.03.035q.142.171.274.351l.029.038c.091.123.179.251.264.379l0,0c.085.131.168.264.246.4l.014.024c.077.133.151.269.219.407a.128.128,0,0,0,.011.021c.07.139.138.28.2.423l0,.01c.062.144.122.29.176.435l0,.014c.053.142.1.287.144.431a.087.087,0,0,0,.006.019q.065.216.115.432a.047.047,0,0,1,0,.014c.034.144.061.288.085.431,0,.006,0,.013,0,.019.022.141.038.28.051.418,0,.013,0,.024,0,.037.011.139.018.279.016.415l6.462-3.756c0-.038,0-.075,0-.114,0-.07,0-.141-.008-.213,0-.029,0-.059-.006-.09,0-.013,0-.024,0-.037s0-.037,0-.056c0-.059-.013-.118-.019-.179s-.014-.106-.022-.158l0-.024c0-.006,0-.013,0-.019-.006-.038-.013-.077-.019-.114l-.029-.149c-.01-.048-.021-.1-.032-.146l0-.021a.046.046,0,0,1,0-.014c-.008-.035-.016-.072-.026-.107s-.024-.091-.035-.138l-.038-.138-.014-.048a.091.091,0,0,0-.006-.019c-.006-.022-.013-.045-.021-.069l-.043-.134c-.014-.045-.03-.09-.046-.134s-.022-.064-.035-.094l0-.014a.141.141,0,0,1-.008-.024c-.016-.045-.034-.088-.051-.133l-.053-.133c-.019-.045-.037-.09-.058-.134a.051.051,0,0,0-.006-.013l0-.01c-.016-.037-.032-.074-.05-.11s-.042-.091-.064-.136l-.067-.138-.019-.038-.01-.021c-.013-.026-.026-.051-.04-.077l-.077-.144c-.026-.048-.053-.1-.08-.143l-.024-.042-.014-.024c-.016-.029-.032-.056-.05-.085l-.093-.154c-.034-.054-.067-.107-.1-.16,0,0,0,0,0,0l0,0c-.035-.054-.072-.109-.109-.162s-.085-.122-.128-.181c-.01-.013-.019-.024-.027-.037l-.029-.038c-.029-.038-.056-.077-.087-.115-.059-.078-.122-.155-.182-.229l0-.006c-.01-.011-.021-.022-.03-.035-.069-.082-.138-.163-.21-.242-.016-.016-.032-.032-.046-.048-.03-.034-.062-.066-.093-.1-.07-.072-.141-.144-.213-.213l-.1-.094c-.082-.075-.163-.146-.247-.216-.022-.019-.045-.04-.069-.058-.1-.078-.2-.155-.3-.226l-.027-.018-.078-.053c-.058-.038-.114-.078-.171-.114l-.138-.083L643.56,414.4c.1.061.208.128.309.2.026.018.053.034.078.053C644.058,414.723,644.165,414.8,644.273,414.891Z" transform="translate(-601.936 -388.228)" fill="#484849"/>
          <path id="Path_52" data-name="Path 52" d="M425.194,316.517,387.227,294.6c-1.99-1.15-3.61-.226-3.617,2.06l-.04,13.925.961-.255.032-11.14c0-1.093.776-1.532,1.727-.983L426.1,321.192a3.783,3.783,0,0,1,1.716,2.971l-.08,27.983a1.054,1.054,0,0,0,.479.829c.264.154.48.03.482-.274l.086-29.962A7.917,7.917,0,0,0,425.194,316.517Z" transform="translate(-383.57 -290.348)" fill="#4b4b4e"/>
        </g>
      </g>
    </g>
  </g>
</svg>
