<?xml version="1.0" encoding="utf-8"?>
<!-- Generator: Adobe Illustrator 19.0.0, SVG Export Plug-In . SVG Version: 6.00 Build 0)  -->
<svg version="1.1" id="Layer_1" xmlns="http://www.w3.org/2000/svg" xmlns:xlink="http://www.w3.org/1999/xlink" x="0px" y="0px"
	 viewBox="0 0 454.5 560" style="enable-background:new 0 0 454.5 560;" xml:space="preserve">
<style type="text/css">
	.st0{fill:#FFFFFF;}
	.st1{fill:url(#XMLID_42_);}
	.st2{fill:#D8DEE8;}
	.st3{opacity:0.5;}
	.st4{clip-path:url(#XMLID_43_);}
	.st5{fill:url(#XMLID_44_);}
	.st6{fill:url(#XMLID_45_);}
	.st7{fill:url(#XMLID_46_);}
	.st8{fill:url(#XMLID_47_);}
	.st9{fill:url(#XMLID_48_);}
	.st10{fill:url(#XMLID_49_);}
	.st11{fill:url(#XMLID_50_);}
	.st12{opacity:0.3;}
	.st13{fill:url(#XMLID_51_);}
	.st14{fill:url(#XMLID_52_);}
	.st15{clip-path:url(#XMLID_53_);}
	.st16{fill:url(#XMLID_54_);}
	.st17{fill:url(#XMLID_55_);}
	.st18{fill:url(#XMLID_57_);}
	.st19{fill:url(#XMLID_65_);}
	.st20{fill:url(#XMLID_69_);}
	.st21{fill:url(#XMLID_70_);}
	.st22{fill:#26264F;}
	.st23{fill:url(#XMLID_95_);}
	.st24{fill:url(#XMLID_102_);}
	.st25{clip-path:url(#XMLID_131_);}
	.st26{fill:url(#XMLID_158_);}
	.st27{opacity:0.7;fill:url(#XMLID_159_);enable-background:new    ;}
	.st28{fill:url(#XMLID_160_);}
	.st29{fill:url(#XMLID_169_);}
	.st30{fill:url(#XMLID_170_);}
	.st31{fill:url(#XMLID_171_);}
	.st32{fill:url(#XMLID_180_);}
	.st33{fill:url(#XMLID_181_);}
	.st34{fill:url(#XMLID_182_);}
	.st35{fill:url(#XMLID_187_);}
	.st36{fill:url(#XMLID_188_);}
	.st37{fill:url(#XMLID_189_);}
	.st38{opacity:0.3;fill:url(#XMLID_190_);enable-background:new    ;}
	.st39{fill:url(#XMLID_191_);}
	.st40{fill:url(#XMLID_192_);}
	.st41{fill:url(#XMLID_193_);}
	.st42{fill:url(#XMLID_194_);}
	.st43{fill:url(#XMLID_195_);}
	.st44{opacity:0.3;fill:url(#XMLID_196_);enable-background:new    ;}
	.st45{fill:url(#XMLID_197_);}
	.st46{fill:url(#XMLID_198_);}
	.st47{fill:url(#XMLID_199_);}
	.st48{fill:url(#XMLID_201_);}
	.st49{fill:url(#XMLID_202_);}
	.st50{opacity:0.3;fill:url(#XMLID_203_);enable-background:new    ;}
</style>
<g id="XMLID_58_">
	<g id="XMLID_96_">
		<path id="XMLID_124_" class="st0" d="M122.5,414.6v75.1c0,3.5-2.3,6.4-5.3,6.7l-24.8,1.8h0l-75.8,5.4c-0.5,0-1,0-1.5-0.1
			c-0.1,0-0.2,0-0.3-0.1c-0.2-0.1-0.3-0.1-0.5-0.2c-0.2-0.1-0.3-0.1-0.5-0.2c-0.2-0.1-0.5-0.2-0.7-0.4c-0.2-0.1-0.3-0.2-0.4-0.3
			c-0.1-0.1-0.3-0.2-0.4-0.3c-1-1-1.7-2.3-1.9-3.9c0-0.3-0.1-0.5-0.1-0.8v-79.2c0-0.1,0-0.1,0-0.2s0-0.2,0-0.3
			c0.1-1.1,0.5-2.2,1.1-3.2c0,0,0.1-0.1,0.1-0.1c0.9-1.5,2.2-2.5,3.8-2.9c0.2-0.1,0.4-0.1,0.6-0.1c0.2,0,0.4,0,0.6,0L28,411l0,0
			l24.6-0.7l64.6-1.9c0.1,0,0.1,0,0.2,0c0.1,0,0.2,0,0.2,0c0.1,0,0.2,0,0.2,0C120.5,408.8,122.5,411.4,122.5,414.6z"/>
		
			<linearGradient id="XMLID_42_" gradientUnits="userSpaceOnUse" x1="12.5212" y1="106.0701" x2="120.8964" y2="106.0701" gradientTransform="matrix(1 0 0 -1 0 562)">
			<stop  offset="0" style="stop-color:#FFFFFF"/>
			<stop  offset="0.9964" style="stop-color:#EBEFF2"/>
		</linearGradient>
		<path id="XMLID_123_" class="st1" d="M16.6,501.4c-2.2,0.2-4.1-1.7-4.1-4.2V418c0-2.5,1.8-4.6,4.1-4.6l100.6-3
			c2-0.1,3.7,1.8,3.7,4.2v75.1c0,2.4-1.7,4.4-3.7,4.5L16.6,501.4z"/>
		<path id="XMLID_122_" class="st2" d="M117.2,408.5l-100.6,2.9c-3.3,0.1-6,3.1-6,6.8v4.7l112-3.8v-4.5
			C122.6,411.1,120.2,408.4,117.2,408.5z"/>
		<path id="XMLID_121_" class="st0" d="M21.2,417c0,1.1-0.9,2-1.9,2c-1.1,0-1.9-0.8-1.9-1.9c0-1.1,0.9-2,1.9-2
			C20.4,415,21.2,415.9,21.2,417z"/>
		<path id="XMLID_120_" class="st0" d="M28,416.7c0,1.1-0.9,2-1.9,2c-1.1,0-1.9-0.8-1.9-1.9c0-1.1,0.9-2,1.9-2
			C27.2,414.8,28,415.7,28,416.7z"/>
		<path id="XMLID_119_" class="st0" d="M34.8,416.5c0,1.1-0.9,2-1.9,2c-1.1,0-1.9-0.8-1.9-1.9s0.9-2,1.9-2
			C33.9,414.6,34.8,415.5,34.8,416.5z"/>
		<polygon id="XMLID_118_" class="st2" points="116.3,490.1 17.6,496.9 17.6,434.5 116.3,430.6 		"/>
		<g id="XMLID_115_" class="st3">
			<polygon id="XMLID_117_" class="st0" points="70.2,426.2 17.6,428.1 17.6,431.4 70.2,429.4 			"/>
			<polygon id="XMLID_116_" class="st0" points="110.6,424.7 110.6,427.9 116.3,427.7 116.3,424.5 			"/>
		</g>
		<g id="XMLID_113_" class="st3">
			<path id="XMLID_114_" class="st0" d="M92.4,498.1l-75.8,5.4c-0.5,0-1,0-1.5-0.1c-0.1,0-0.2,0-0.3-0.1c-0.2-0.1-0.3-0.1-0.5-0.2
				c-0.2-0.1-0.3-0.1-0.5-0.2c-0.2-0.1-0.5-0.2-0.7-0.4c-0.2-0.1-0.3-0.2-0.4-0.3c-0.1-0.1-0.3-0.2-0.4-0.3c-1-1-1.7-2.3-1.9-3.9
				c0-0.1-0.1-0.2-0.1-0.2v-79.8c0-0.1,0-0.1,0-0.2s0-0.2,0-0.3c0.1-1.1,0.5-2.2,1-3.2c0,0,0.1-0.1,0.1-0.1c1.1-1.8,2.9-3.1,5-3.1
				l11.3-0.3c0,0,0,0.1,0,0.1l0,0c0.4,0.7,0.5,1.4,0.7,2.1c1,2.8,2.4,5.7,4.2,8.5c0.1,0.2,0.2,0.3,0.4,0.5c1.3,2,2.8,3.7,4.2,5.2
				c1.2,1.2,2.4,2.3,3.7,3.2c1.5,1.1,3,2,4.5,2.9l0,0c2.3,1.2,4.6,2.2,7,3.1c9.1,3.5,18.4,5.7,25,15.9c6.3,9.7,3.1,15.7,7,28.7
				c0.4,1.4,0.9,2.8,1.5,4.3c0.2,0.4,0.3,0.8,0.5,1.2c0.7,1.9,1.6,3.6,2.4,5.3c0.7,1.4,1.5,2.8,2.3,4.2
				C91.6,496.8,92,497.4,92.4,498.1L92.4,498.1z"/>
		</g>
		<g id="XMLID_101_">
			<g id="XMLID_237_">
				<defs>
					<polygon id="XMLID_14_" points="110.7,490.5 23.3,496 23.3,403.7 110.7,401.5 					"/>
				</defs>
				<clipPath id="XMLID_43_">
					<use xlink:href="#XMLID_14_"  style="overflow:visible;"/>
				</clipPath>
				<g id="XMLID_103_" class="st4">
					
						<linearGradient id="XMLID_44_" gradientUnits="userSpaceOnUse" x1="60.9369" y1="157.7963" x2="70.5412" y2="4.6913" gradientTransform="matrix(1 0 0 -1 0 562)">
						<stop  offset="3.597000e-003" style="stop-color:#F36F56"/>
						<stop  offset="1" style="stop-color:#FFC444"/>
					</linearGradient>
					<path id="XMLID_112_" class="st5" d="M30.2,514.5c-3.1-7.9,1.2-21.6,3.9-27.8c7.8-18,22.1-19.3,33.7-20.4
						c11.3-1,22.1-2.1,29.9,10.7c5.1,8.3,9.8,23.7,6.6,32.3c-3.3,9-12.4,2.9-34.5,4.3C45.2,515.2,34,524.4,30.2,514.5z"/>
					
						<linearGradient id="XMLID_45_" gradientUnits="userSpaceOnUse" x1="67.1413" y1="88.0226" x2="66.8303" y2="106.9969" gradientTransform="matrix(1 0 0 -1 0 562)">
						<stop  offset="0" style="stop-color:#311944"/>
						<stop  offset="1" style="stop-color:#893976"/>
					</linearGradient>
					<path id="XMLID_111_" class="st6" d="M78.5,467.6c0,2.2-5.1,5.1-11.4,5.4c-6.3,0.3-11.5-2-11.5-4.2s5.2-1.5,11.5-1.8
						C73.4,466.7,78.5,465.4,78.5,467.6z"/>
					
						<linearGradient id="XMLID_46_" gradientUnits="userSpaceOnUse" x1="67.299" y1="86.257" x2="67.1991" y2="102.2526" gradientTransform="matrix(1 0 0 -1 0 562)">
						<stop  offset="0" style="stop-color:#AB316D"/>
						<stop  offset="1" style="stop-color:#792D3D"/>
					</linearGradient>
					<path id="XMLID_110_" class="st7" d="M62.9,453.1c-1.7,0.1,2.3,12.6-4.1,14.7c-0.6,0.2-0.7,1.1-0.2,1.4
						c1.7,0.9,4.9,1.9,10.1,1.6c3.4-0.2,5.8-1.6,7.1-2.6c0.4-0.3,0.4-1-0.1-1.2c-1.9-0.9-4.6-4.1-3.8-14L62.9,453.1z"/>
					
						<linearGradient id="XMLID_47_" gradientUnits="userSpaceOnUse" x1="65.9466" y1="109.1821" x2="68.5981" y2="141.1018" gradientTransform="matrix(1 0 0 -1 0 562)">
						<stop  offset="0" style="stop-color:#AB316D"/>
						<stop  offset="1" style="stop-color:#792D3D"/>
					</linearGradient>
					<path id="XMLID_109_" class="st8" d="M57.6,438c0,0.2,0.6,11.8,3.1,17.5c0.7,1.6,4.4,1.3,6.7,0.9c2-0.3,5.2,0.4,6.1-1.1
						c3.6-6.1,3-20.6,3-20.6s-1.8-4.8-9.4-4.4C59.5,430.8,57.6,438,57.6,438z"/>
					
						<linearGradient id="XMLID_48_" gradientUnits="userSpaceOnUse" x1="56.9896" y1="109.684" x2="59.6059" y2="141.1802" gradientTransform="matrix(1 0 0 -1 0 562)">
						<stop  offset="0" style="stop-color:#AB316D"/>
						<stop  offset="1" style="stop-color:#792D3D"/>
					</linearGradient>
					<path id="XMLID_108_" class="st9" d="M59.4,444.2c0,0-1.6-1.9-3.1-2.1c-1.5-0.2-2.5,3.9-0.4,6.5c2.1,2.5,4.4,0.3,4.4,0.3
						L59.4,444.2z"/>
					
						<linearGradient id="XMLID_49_" gradientUnits="userSpaceOnUse" x1="76.1785" y1="108.7848" x2="78.8278" y2="140.6775" gradientTransform="matrix(1 0 0 -1 0 562)">
						<stop  offset="0" style="stop-color:#AB316D"/>
						<stop  offset="1" style="stop-color:#792D3D"/>
					</linearGradient>
					<path id="XMLID_107_" class="st10" d="M74.9,443.6c0,0,1.6-2,3.1-2.3c1.5-0.3,2.4,3.7,0.4,6.4c-2,2.7-4.4,0.6-4.4,0.6
						L74.9,443.6z"/>
					
						<linearGradient id="XMLID_50_" gradientUnits="userSpaceOnUse" x1="65.2507" y1="124.4548" x2="72.3245" y2="146.3936" gradientTransform="matrix(1 0 0 -1 0 562)">
						<stop  offset="0" style="stop-color:#311944"/>
						<stop  offset="1" style="stop-color:#6B3976"/>
					</linearGradient>
					<path id="XMLID_106_" class="st11" d="M58.1,444.1c0.2,0.4,0.4,0.7,0.6,0.7c0.6-0.2-1.9-6.7,0.5-9c1.2-1.2,2.5-0.2,7.4-0.6
						c4.9-0.4,6.1-1.7,7.6-0.8c1.3,0.8,2.5,3.2,1.5,10.3c0.3-0.1,0.6-0.2,0.8-0.2c-0.4-2.3,0-3.8,0.5-4.8c0.3-0.7,0.9-1.6,0.9-2.9
						c0-0.8-0.3-0.8-0.3-1.5c-0.1-1.9,1.9-2.5,2-4.3c0.1-1.4-1.1-1.7-0.9-3.2c0.2-1.3,1.1-1.6,1-2.5c-0.2-1-1.4-1.7-2.3-1.9
						c-0.9-0.2-1.2,0.1-1.7-0.3c-0.8-0.6-0.4-1.7-1-2c-1.1-0.7-3.2,2.2-4.6,1.6c-0.8-0.4-0.5-1.7-1.3-2c-1.5-0.6-4,3.8-5,3.2
						c-0.5-0.3,0-1.3-0.7-2c-0.8-0.9-2.8-0.8-3.7,0.2c-0.8,0.9-0.1,1.9-1,3.1c-0.8,1-1.7,0.6-2.6,1.5c-1.5,1.4-1,4.5-0.8,5.6
						c0.7,3.8,2.7,4.5,2.2,7.1c-0.1,0.7-0.4,1.4-0.2,2.5C57.1,442.9,57.7,443.6,58.1,444.1z"/>
					<g id="XMLID_104_" class="st12">
						
							<linearGradient id="XMLID_51_" gradientUnits="userSpaceOnUse" x1="65.2803" y1="124.5144" x2="72.4061" y2="146.6142" gradientTransform="matrix(1 0 0 -1 0 562)">
							<stop  offset="0" style="stop-color:#311944"/>
							<stop  offset="1" style="stop-color:#6B3976"/>
						</linearGradient>
						<path id="XMLID_105_" class="st13" d="M76.6,435.2c-0.2-1.8,1.2-2.8,1-4.1c-0.2-1-1.3-2-2.4-2.1c-2.3-0.4-3.8,3.3-6.1,3
							c-1.8-0.2-1.6-2.5-3.6-3.3c-3.2-1.3-6.5,3.2-8.7,2c-0.6-0.3-1.3-1.2-1.3-3.8c-1.2,1.5-0.7,4.3-0.6,5.3
							c0.7,3.8,2.7,4.5,2.2,7.1c-0.1,0.7-0.4,1.4-0.2,2.5c0.2,1,0.7,1.8,1.1,2.3c0.2,0.4,0.4,0.7,0.6,0.7c0.6-0.2-1.9-6.7,0.5-9
							c1.2-1.2,2.5-0.2,7.4-0.6c4.9-0.4,6.1-1.7,7.6-0.8c1.3,0.8,2.5,3.2,1.5,10.3c0.3-0.1,0.6-0.2,0.8-0.2c-0.4-2.3,0-3.8,0.5-4.8
							c0.1-0.3,0.3-0.6,0.5-1c0-0.6-0.1-1.3-0.3-2C76.9,435.9,76.7,435.8,76.6,435.2z"/>
					</g>
				</g>
			</g>
		</g>
		<g id="XMLID_97_">
			<path id="XMLID_100_" class="st0" d="M54.9,486c0,1.9-1.5,3.6-3.4,3.7c-1.9,0.1-3.4-1.4-3.4-3.3c0-1.9,1.5-3.6,3.4-3.7
				C53.3,482.5,54.9,484,54.9,486z"/>
			<path id="XMLID_99_" class="st0" d="M70.7,485c0,1.9-1.5,3.6-3.4,3.7c-1.9,0.1-3.4-1.4-3.4-3.3c0-1.9,1.5-3.6,3.4-3.7
				C69.2,481.6,70.7,483.1,70.7,485z"/>
			<path id="XMLID_98_" class="st0" d="M86.3,484.1c0,1.9-1.5,3.6-3.3,3.7c-1.8,0.1-3.3-1.4-3.3-3.3s1.5-3.6,3.3-3.7
				C84.8,480.7,86.3,482.2,86.3,484.1z"/>
		</g>
	</g>
	<g id="XMLID_59_">
		<path id="XMLID_94_" class="st2" d="M251.8,448c0-3.8-2.4-6.9-5.6-7.7c-0.1,0-0.2-0.1-0.4-0.1c-0.3-0.1-0.7-0.1-1.1-0.1l-66.3-0.4
			l-65.4-0.4c-0.1,0-0.3,0-0.4,0c-1.7,0.1-3.3,0.8-4.6,1.9c0,0-0.1,0-0.1,0.1c-0.2,0.2-0.4,0.3-0.5,0.5c0,0,0,0,0,0
			c-0.1,0.1-0.2,0.2-0.3,0.3c-1.3,1.5-2,3.4-2,5.6v6l0,0v94.7c0,0.7,0.1,1.4,0.3,2.1c0.1,0.4,0.2,0.8,0.4,1.1c1,2.5,3.1,4.2,5.7,4.7
			c0.5,0.1,1.1,0.1,1.6,0.1l100.1-5.2l0,0l31.6-1.6c3.8-0.2,6.9-3.8,6.9-8.2v-87.9l0,0L251.8,448L251.8,448z"/>
		<g id="XMLID_81_">
			<path id="XMLID_93_" class="st0" d="M252,448v93.6c0,4.3-3.1,8-6.9,8.2l-32.1,1.7l-99.9,5.2c-4.1,0.2-7.7-2.9-8.2-7
				c0-0.3-0.3-101.9-0.3-101.9c0-1.7,0.7-3.3,1.5-4.6c0,0,0.2-0.1,0.2-0.1c1.4-2.2,3.9-3.7,6.7-3.7l15.2,0.1l116.8,0.7
				C248.9,440.1,252,443.6,252,448z"/>
			
				<linearGradient id="XMLID_52_" gradientUnits="userSpaceOnUse" x1="107.6491" y1="64.0415" x2="249.8095" y2="64.0415" gradientTransform="matrix(1 0 0 -1 0 562)">
				<stop  offset="0" style="stop-color:#FFFFFF"/>
				<stop  offset="0.9964" style="stop-color:#EBEFF2"/>
			</linearGradient>
			<path id="XMLID_92_" class="st14" d="M113.1,553.9c-3,0.2-5.4-2.3-5.4-5.5V447.7c0-3.2,2.4-5.7,5.4-5.7l132,0.6
				c2.6,0,4.7,2.4,4.7,5.3v93.7c0,2.9-2.1,5.4-4.7,5.6L113.1,553.9z"/>
			<path id="XMLID_91_" class="st2" d="M245.1,440.1l-132-0.8c-4.4,0-8,3.7-8,8.4v6l146.9-0.2v-5.6
				C252,443.6,248.9,440.1,245.1,440.1z"/>
			<path id="XMLID_90_" class="st0" d="M119.3,446.7c0,1.4-1.2,2.5-2.6,2.5c-1.4,0-2.6-1.1-2.6-2.5c0-1.4,1.2-2.5,2.6-2.5
				C118.1,444.2,119.3,445.3,119.3,446.7z"/>
			<path id="XMLID_89_" class="st0" d="M128.4,446.7c0,1.4-1.1,2.5-2.6,2.5c-1.4,0-2.6-1.1-2.6-2.5c0-1.4,1.1-2.5,2.6-2.5
				C127.2,444.2,128.4,445.3,128.4,446.7z"/>
			<path id="XMLID_88_" class="st0" d="M137.3,446.7c0,1.4-1.1,2.5-2.5,2.5c-1.4,0-2.5-1.1-2.5-2.5s1.1-2.5,2.5-2.5
				C136.2,444.2,137.3,445.4,137.3,446.7z"/>
			<polygon id="XMLID_87_" class="st2" points="243.9,542 114.4,548.2 114.4,468.9 243.9,467.7 			"/>
			<g id="XMLID_84_" class="st3">
				<polygon id="XMLID_86_" class="st0" points="184,460.3 114.4,460.7 114.4,464.9 184,464.5 				"/>
				<polygon id="XMLID_85_" class="st0" points="236.5,460.1 236.5,464.1 243.9,464.1 243.9,460.1 				"/>
			</g>
			<g id="XMLID_82_" class="st3">
				<path id="XMLID_83_" class="st0" d="M213,551.4l-99.9,5.2c-4.1,0.2-7.7-2.9-8.2-7c0-0.1-0.3-101.9-0.3-101.9
					c0-1.7,0.7-3.3,1.5-4.6c0,0,0.2-0.1,0.2-0.1c1.4-2.3,3.9-3.8,6.7-3.8l15.2,0.1c0,0,0,0.1,0.1,0.1c0.3,0.9,0.6,1.8,0.9,2.7
					c1.3,3.6,3.1,7.3,5.5,11c0.2,0.2,0.3,0.4,0.5,0.7c1.8,2.6,3.6,4.9,5.6,6.8c1.6,1.6,3.2,3,4.9,4.2c1.9,1.5,3.9,2.7,6,3.8
					c14.7,8,31.1,8.7,42,25.1c9.3,14,2.6,21.7,11.6,43.3c1,2.3,2,4.6,3.1,6.7c0.9,1.8,1.9,3.6,3,5.3
					C212,549.8,212.5,550.6,213,551.4z"/>
			</g>
		</g>
		<g id="XMLID_77_">
			<path id="XMLID_80_" class="st0" d="M165.2,534c0,3-2.3,5.5-5.2,5.6c-2.9,0.1-5.2-2.2-5.2-5.1c0-3,2.3-5.5,5.2-5.6
				C162.9,528.8,165.2,531.1,165.2,534z"/>
			<path id="XMLID_79_" class="st0" d="M185.9,533.2c0,2.9-2.3,5.4-5,5.5c-2.8,0.1-5.1-2.2-5.1-5.1s2.3-5.4,5.1-5.5
				C183.7,528,185.9,530.3,185.9,533.2z"/>
			<path id="XMLID_78_" class="st0" d="M206.2,532.4c0,2.9-2.2,5.3-4.9,5.4c-2.7,0.1-5-2.1-5-5s2.2-5.3,5-5.4
				C204,527.2,206.2,529.5,206.2,532.4z"/>
		</g>
		<g id="XMLID_64_">
			<g id="XMLID_200_">
				<defs>
					<polygon id="XMLID_13_" points="236.5,542.1 122.1,546.9 122.1,439.1 236.5,439.8 					"/>
				</defs>
				<clipPath id="XMLID_53_">
					<use xlink:href="#XMLID_13_"  style="overflow:visible;"/>
				</clipPath>
				<g id="XMLID_66_" class="st15">
					
						<linearGradient id="XMLID_54_" gradientUnits="userSpaceOnUse" x1="221.9417" y1="111.173" x2="161.5441" y2="-7.7153" gradientTransform="matrix(1 0 0 -1 0 562)">
						<stop  offset="0" style="stop-color:#FF9085"/>
						<stop  offset="1" style="stop-color:#FB6FBB"/>
					</linearGradient>
					<path id="XMLID_76_" class="st16" d="M182.3,551.6c-35.1,1.8-47.6,7.1-53.3-0.4c-5.3-6.9-0.9-32.4,5.4-39.7
						c9.9-11.4,25.6-12.3,46.7-13.3c19.5-0.9,31.4-1.5,40.6,6.6c8.6,7.6,14.1,34.2,8.7,41.8C225.5,553.7,214.8,549.8,182.3,551.6z"
						/>
					
						<linearGradient id="XMLID_55_" gradientUnits="userSpaceOnUse" x1="179.297" y1="23.2912" x2="180.2989" y2="77.9894" gradientTransform="matrix(1 0 0 -1 0 562)">
						<stop  offset="0" style="stop-color:#311944"/>
						<stop  offset="0.5554" style="stop-color:#6F2B60"/>
						<stop  offset="1" style="stop-color:#A03976"/>
					</linearGradient>
					<path id="XMLID_75_" class="st17" d="M169.5,498.3l-4.1,1.1c-1,0.3-1.5,1.5-0.9,2.3c2.8,4.3,10.2,14.9,14.7,16.1
						c4.7,1.2,13.5-12.7,16.4-17.6c0.5-0.8,0.1-1.9-0.8-2.2l-2.9-0.9c-2.4-0.7-4.9-1-7.5-0.7l-11.1,1.1
						C172,497.7,170.7,498,169.5,498.3z"/>
					
						<linearGradient id="XMLID_57_" gradientUnits="userSpaceOnUse" x1="180.95" y1="59.7648" x2="184.7382" y2="35.1415" gradientTransform="matrix(1 0 0 -1 0 562)">
						<stop  offset="0" style="stop-color:#FFC444"/>
						<stop  offset="0.9964" style="stop-color:#F36F56"/>
					</linearGradient>
					<path id="XMLID_74_" class="st18" d="M172.5,482.5c0,0,2.2,16-0.9,17.7l8.8,9.4l8.8-11.5c0,0-3.3-2.4-2.4-15.7L172.5,482.5z"/>
					
						<linearGradient id="XMLID_65_" gradientUnits="userSpaceOnUse" x1="179.1567" y1="97.5683" x2="178.2055" y2="34.7973" gradientTransform="matrix(1 0 0 -1 0 562)">
						<stop  offset="0" style="stop-color:#FFC444"/>
						<stop  offset="0.9964" style="stop-color:#F36F56"/>
					</linearGradient>
					<path id="XMLID_73_" class="st19" d="M167.3,459.4c-0.3,0.4-4.5,20.8,9.9,22.7c14.2,1.9,14.8-13,14.6-19.3
						c-0.2-6.3-6.6-8.6-10.4-9C177.7,453.5,168.4,457.9,167.3,459.4z"/>
					
						<linearGradient id="XMLID_69_" gradientUnits="userSpaceOnUse" x1="811.3997" y1="566.5226" x2="810.4465" y2="503.6209" gradientTransform="matrix(0.9936 -0.1133 -0.1133 -0.9936 -578.1592 1115.8801)">
						<stop  offset="0" style="stop-color:#FFC444"/>
						<stop  offset="0.9964" style="stop-color:#F36F56"/>
					</linearGradient>
					<path id="XMLID_72_" class="st20" d="M166.4,471.3c0,0-0.7-3.3-3.2-1.2c-2.5,2.1,1.5,7.6,4.7,7.3L166.4,471.3z"/>
					
						<linearGradient id="XMLID_70_" gradientUnits="userSpaceOnUse" x1="192.2278" y1="97.4611" x2="191.2786" y2="34.8174" gradientTransform="matrix(1 0 0 -1 0 562)">
						<stop  offset="0" style="stop-color:#FFC444"/>
						<stop  offset="0.9964" style="stop-color:#F36F56"/>
					</linearGradient>
					<path id="XMLID_71_" class="st21" d="M191.3,468.8c-0.4,0.3-1.6,8-1.6,8s2,0.2,3.5-2.6C194.7,471.5,195.4,466,191.3,468.8z"/>
					<path id="XMLID_68_" class="st22" d="M196.9,454.1c-1.5-2.5-5.2-1.3-6.3-3.7c-0.9-2,1.2-3.9,0.1-5.6c-1-1.5-3.3-1.4-3.8-1.4
						c-3.2,0-4,2.6-6.3,2.5c-2.8-0.1-2.9-3.9-6.7-5.6c-3.6-1.6-9-0.3-11.1,2.6c-1.7,2.3-0.3,4-2.5,7c-1.5,2-2.9,2.1-3.6,4.2
						c-0.7,1.9-0.2,3.7,0.2,5c0.9,3.2,2.6,4.6,5.1,8c1.1,1.5,2.7,3.7,4.3,6.7c0.7,1.8,1.6,4.5,2.5,8c0.8,3.2,0.8,3.8,1.5,4.8
						c2.6,3.5,8.5,3.1,11,2.9c2.8-0.2,6.3-0.5,8.1-3c0.9-1.3,0.8-2.5,1-5.7c0.2-2.3,0.5-5.5,1.2-9.4c0,0,0.3-1.8,1.1-4
						c1-2.8,2.1-3.2,3.2-6C196.9,459,198.1,456.1,196.9,454.1z M185.2,475.5c-1.7,0.5-2.9,0.1-5.3,0c-4.8-0.2-6.3,2-8.5,1.1
						c-0.9-0.4-3.1-1.5-3.6-3.7c-0.3-1.4-0.5-3.4-0.2-5.6c0.4-2.8,0.8-5.9,3-7.4c3.2-2,7.3,1.4,10.2-0.8c1.1-0.9,1.6-2.2,1.8-3.2
						c0.6,0.2,5.8,2.1,7.6,7.6c1.2,3.4,0.5,6.4-0.1,8C189.2,473.1,187.5,474.9,185.2,475.5z"/>
					
						<linearGradient id="XMLID_95_" gradientUnits="userSpaceOnUse" x1="182.2977" y1="109.6334" x2="179.582" y2="86.1878" gradientTransform="matrix(1 0 0 -1 0 562)">
						<stop  offset="0" style="stop-color:#FFC444"/>
						<stop  offset="0.9964" style="stop-color:#F36F56"/>
					</linearGradient>
					<path id="XMLID_67_" class="st23" d="M175.4,479c1.8,0.5,4.6,0.9,7.7-0.3c0.3-0.1,0.6,0.2,0.3,0.4c-1.1,0.8-2.7,1.7-4.5,1.6
						c-1.5-0.1-2.8-0.6-3.8-1.2C174.8,479.3,175,478.9,175.4,479z"/>
				</g>
			</g>
		</g>
		<g id="XMLID_60_">
			<path id="XMLID_63_" class="st0" d="M164.5,534c0,2.4-2,4.5-4.5,4.6c-2.5,0.1-4.5-1.8-4.5-4.3c0-2.5,2-4.5,4.5-4.6
				C162.5,529.6,164.5,531.6,164.5,534z"/>
			<path id="XMLID_62_" class="st0" d="M185.2,533.2c0,2.4-2,4.5-4.4,4.6c-2.4,0.1-4.4-1.8-4.4-4.3s2-4.5,4.4-4.6
				C183.3,528.9,185.2,530.8,185.2,533.2z"/>
			<path id="XMLID_61_" class="st0" d="M205.6,532.5c0,2.4-1.9,4.4-4.3,4.5c-2.4,0.1-4.3-1.8-4.3-4.2c0-2.4,1.9-4.4,4.3-4.5
				C203.7,528.2,205.6,530.1,205.6,532.5z"/>
		</g>
	</g>
	<g id="XMLID_125_">
		<g id="XMLID_141_">
			<path id="XMLID_153_" class="st0" d="M412.7,345.8v119.7c0,5.5-3.8,10.1-8.5,10.2l-39.3,1l-121.4,3c-4.9,0.1-9.5-3.9-10.1-9.2
				c-0.1-0.4-0.6-0.8-0.6-1.2V341.7c0-2.2,1.1-4.1,2.1-5.8c0-0.1,0.3-0.1,0.3-0.1c1.7-2.8,4.8-4.6,8.1-4.5l18.4,0.5l142.4,3.8
				C408.9,335.7,412.7,340.2,412.7,345.8z"/>
			
				<linearGradient id="XMLID_102_" gradientUnits="userSpaceOnUse" x1="237.0177" y1="156.5657" x2="410.1278" y2="156.5657" gradientTransform="matrix(1 0 0 -1 0 562)">
				<stop  offset="0" style="stop-color:#FFFFFF"/>
				<stop  offset="0.9964" style="stop-color:#EBEFF2"/>
			</linearGradient>
			<path id="XMLID_152_" class="st24" d="M243.6,476.2c-3.6,0.1-6.5-3.1-6.5-7.1V341.7c0-4,2.9-7.2,6.5-7.1l160.7,4.1
				c3.2,0.1,5.8,3.2,5.8,7v119.8c0,3.8-2.6,6.9-5.8,7L243.6,476.2z"/>
			<path id="XMLID_151_" class="st2" d="M404.3,335.5l-160.7-4.3c-5.3-0.1-9.6,4.5-9.6,10.4v7.6l178.9,3.6v-7.2
				C412.8,340.2,409,335.7,404.3,335.5z"/>
			<path id="XMLID_150_" class="st0" d="M251.1,340.7c0,1.8-1.4,3.1-3.1,3.1c-1.7,0-3.1-1.5-3.1-3.2s1.4-3.1,3.1-3.1
				C249.7,337.5,251.1,339,251.1,340.7z"/>
			<path id="XMLID_149_" class="st0" d="M262,341c0,1.7-1.4,3.1-3.1,3.1c-1.7,0-3.1-1.5-3.1-3.2c0-1.8,1.4-3.1,3.1-3.1
				C260.6,337.8,262,339.3,262,341z"/>
			<path id="XMLID_148_" class="st0" d="M272.8,341.2c0,1.7-1.4,3.1-3.1,3.1c-1.7,0-3.1-1.5-3.1-3.2s1.4-3.1,3.1-3.1
				C271.5,338.1,272.8,339.5,272.8,341.2z"/>
			<polygon id="XMLID_147_" class="st2" points="402.9,465.7 245.2,469 245.2,368.7 402.9,370.8 			"/>
			<g id="XMLID_144_" class="st3">
				<polygon id="XMLID_146_" class="st0" points="329.5,359.7 245.2,358.3 245.2,363.7 329.5,365 				"/>
				<polygon id="XMLID_145_" class="st0" points="393.8,360.9 393.8,366 402.9,366.1 402.9,361 				"/>
			</g>
			<g id="XMLID_142_" class="st3">
				<path id="XMLID_143_" class="st0" d="M365.9,476.6l-121.4,3c-4.9,0.1-9.6-3.9-10.1-9.2c0-0.1-0.6-0.2-0.6-0.4V341.6
					c0-2.1,1.1-4.1,2.1-5.7c0-0.1,0.3-0.1,0.4-0.1c1.7-2.9,4.8-4.7,8.2-4.6l18.3,0.5c0,0.1,0.1,0.1,0.1,0.1c0.3,1.1,0.7,2.2,1.1,3.4
					c1.6,4.6,3.8,9.3,6.7,14c0.2,0.3,0.4,0.6,0.5,0.9c2.1,3.4,4.4,6.3,6.8,8.8c1.9,2,3.9,3.8,5.9,5.5c2.4,1.9,4.8,3.5,7.3,5
					c17.8,10.6,37.8,11.9,51.1,33.1c11.4,18.2,3.2,27.7,14.2,55.5c1.2,3,2.5,5.9,3.8,8.7c1.2,2.4,2.4,4.6,3.6,6.8
					C364.6,474.5,365.3,475.6,365.9,476.6z"/>
			</g>
		</g>
		<g id="XMLID_130_">
			<g id="XMLID_56_">
				<defs>
					<polygon id="XMLID_10_" points="394.3,466.2 254.3,468.2 254.3,323.3 394.3,327.3 					"/>
				</defs>
				<clipPath id="XMLID_131_">
					<use xlink:href="#XMLID_10_"  style="overflow:visible;"/>
				</clipPath>
				<g id="XMLID_132_" class="st25">
					<g id="XMLID_138_">
						
							<linearGradient id="XMLID_158_" gradientUnits="userSpaceOnUse" x1="366.1805" y1="220.2037" x2="332.936" y2="155.0998" gradientTransform="matrix(1 0 0 -1 0 562)">
							<stop  offset="0" style="stop-color:#AB316D"/>
							<stop  offset="1" style="stop-color:#792D3D"/>
						</linearGradient>
						<path id="XMLID_140_" class="st26" d="M301.7,464.7c-27.4-4.2-33.5-7.3-36.3-13.1c-4.1-8.5-1.1-22.2,5.9-30.7
							c6.1-7.4,13.8-8.8,13.6-14c-0.2-4.2-5.4-4.8-9.3-12.7c-1.1-2.3-3.3-6.8-2.4-12.3c1.4-7.9,8.5-12,9.1-12.3
							c7.4-4.1,11.6,0.8,17.1-2.9c6.9-4.6,3.8-14.5,10.2-17.2c4.7-2,10.7,1.4,12.2,2.3c5.2,3,4.6,5.8,9,7.7
							c5.1,2.2,7.6-1.1,13.5,0.3c4.9,1.2,8.4,4.8,11.3,8.4c6.4,8.1,3.2,12.8,8,22.7c6.7,13.9,16.7,12.4,18.5,23.5
							c0.9,5.8-1.5,8.4,0.4,17.3c1.2,6,2.8,7.1,3.1,10.6c0.8,10.1-10.6,19.2-12.8,20.7C359.1,473.3,340,470.6,301.7,464.7z"/>
						
							<linearGradient id="XMLID_159_" gradientUnits="userSpaceOnUse" x1="366.9779" y1="221.4537" x2="333.3976" y2="155.6922" gradientTransform="matrix(1 0 0 -1 0 562)">
							<stop  offset="0" style="stop-color:#AB316D"/>
							<stop  offset="1" style="stop-color:#792D3D"/>
						</linearGradient>
						<path id="XMLID_139_" class="st27" d="M345.3,437.3c-17.9-1.2-30.1,15.8-35,11.7c-4.6-4,8.4-17.6,4-33.5
							c-4.4-15.6-21.6-18.9-20.2-27.7c1.5-10,24.5-12.3,24-19.6c-0.3-4.3-8.4-5.4-10-12.3c-0.4-1.9-0.3-3.7,0.2-5.4
							c-4.5,3.6-2.4,12.1-8.7,16.3c-5.5,3.7-9.7-1.2-17.1,2.9c-0.6,0.3-7.7,4.4-9.1,12.3c-0.9,5.4,1.2,9.9,2.4,12.3
							c3.8,7.9,9.1,8.5,9.3,12.7c0.2,5.1-7.4,6.6-13.6,14c-7,8.5-10,22.2-5.9,30.7c2.8,5.8,8.9,8.9,36.3,13.1
							c38.3,5.9,57.4,8.6,71.1-1.6c5.3-3.9,11.5-10.6,12.8-16.5c-2.6,2.5-5.3,3.8-7.7,4.2C366.5,453.2,361.3,438.4,345.3,437.3z"/>
					</g>
					
						<linearGradient id="XMLID_160_" gradientUnits="userSpaceOnUse" x1="333.5808" y1="11.1312" x2="317.6433" y2="126.6786" gradientTransform="matrix(1 0 0 -1 0 562)">
						<stop  offset="3.597120e-003" style="stop-color:#E38DDD"/>
						<stop  offset="1" style="stop-color:#9571F6"/>
					</linearGradient>
					<path id="XMLID_137_" class="st28" d="M271.2,501.7c-4.2-10.4-1.6-26.8-1.1-30.3c2.1-13.5,7-21.9,8.8-24.9
						c12.2-20.3,30.6-20.2,44.4-20.1c6.8,0.1,13.9-0.1,22.4,3.1c0,0,6.8,2.5,12.5,6.7c17,12.4,30.4,53.1,16.7,68.8
						c-8.8,10-17.8-2.4-57.1,4.2c-15.9,2.7-32.7,7.1-42.8-1.6C273.5,506.1,272.2,504.2,271.2,501.7z"/>
					
						<linearGradient id="XMLID_169_" gradientUnits="userSpaceOnUse" x1="323.402" y1="109.0047" x2="321.0691" y2="159.626" gradientTransform="matrix(1 0 0 -1 0 562)">
						<stop  offset="0" style="stop-color:#FFC444"/>
						<stop  offset="0.9964" style="stop-color:#F36F56"/>
					</linearGradient>
					<path id="XMLID_136_" class="st29" d="M316,402.1c0,0,2.9,21.8-11.9,26.2c-1.7,0.5-2.2,2.8-0.9,4l18.2,17.7
						c1.1,1.1,2.8,1,3.8-0.2l16.4-19c1.1-1.2,0.6-3.2-0.9-3.8c-5.2-2-14.6-7.9-12.7-23.8L316,402.1z"/>
					
						<linearGradient id="XMLID_170_" gradientUnits="userSpaceOnUse" x1="320.9089" y1="153.5153" x2="321.8025" y2="187.729" gradientTransform="matrix(1 0 0 -1 0 562)">
						<stop  offset="0" style="stop-color:#FFC444"/>
						<stop  offset="0.9964" style="stop-color:#F36F56"/>
					</linearGradient>
					<path id="XMLID_135_" class="st30" d="M307,389.9c0,0.2,4,21.6,14.2,21.6c9.6,0,13.3-15.5,14.4-22.8c0.1-1.2,0.3-2.5,0.4-3.7
						c-0.7,0.2-2.3,0.7-4.2,0.1c-0.4-0.1-3.2-0.9-4.3-3.4c-1.1-2.7,1-4.8-0.2-7.2c-0.7-1.4-2.1-2-3.2-2.4c0.7,1.1,2.1,3.6,1.3,5.8
						c-0.5,1.5-2,2.9-5.3,3.7C310.6,384.1,306.9,385,307,389.9z"/>
					
						<linearGradient id="XMLID_171_" gradientUnits="userSpaceOnUse" x1="306.8844" y1="157.1096" x2="307.7075" y2="188.6213" gradientTransform="matrix(1 0 0 -1 0 562)">
						<stop  offset="0" style="stop-color:#FFC444"/>
						<stop  offset="0.9964" style="stop-color:#F36F56"/>
					</linearGradient>
					<path id="XMLID_134_" class="st31" d="M309.5,392.4c0,0-5.3-4.7-5.8-1.9c-1,5.9,3.6,9.2,6,7.5
						C312.2,396.3,309.5,392.4,309.5,392.4z"/>
					
						<linearGradient id="XMLID_180_" gradientUnits="userSpaceOnUse" x1="334.558" y1="156.3027" x2="335.3682" y2="187.3199" gradientTransform="matrix(1 0 0 -1 0 562)">
						<stop  offset="0" style="stop-color:#FFC444"/>
						<stop  offset="0.9964" style="stop-color:#F36F56"/>
					</linearGradient>
					<path id="XMLID_133_" class="st32" d="M332.6,392.6c0,0,5.2-4.6,5.7-1.7c0.9,5.9-3.5,9.1-5.9,7.3
						C329.9,396.4,332.6,392.6,332.6,392.6z"/>
				</g>
			</g>
		</g>
		<g id="XMLID_126_">
			<path id="XMLID_129_" class="st0" d="M305.8,456.8c0,3.1-2.4,5.7-5.4,5.7c-3,0-5.5-2.5-5.5-5.6c0-3.1,2.4-5.7,5.5-5.7
				C303.4,451.2,305.8,453.7,305.8,456.8z"/>
			<path id="XMLID_128_" class="st0" d="M331.1,456.5c0,3.1-2.4,5.6-5.3,5.7c-3,0-5.4-2.4-5.4-5.6s2.4-5.6,5.4-5.7
				C328.7,450.9,331.1,453.4,331.1,456.5z"/>
			<path id="XMLID_127_" class="st0" d="M355.9,456.2c0,3.1-2.4,5.6-5.3,5.6c-2.9,0-5.3-2.4-5.3-5.5c0-3.1,2.4-5.6,5.3-5.6
				C353.6,450.7,355.9,453.2,355.9,456.2z"/>
		</g>
	</g>
</g>
<g id="XMLID_176_">
	
		<linearGradient id="XMLID_181_" gradientUnits="userSpaceOnUse" x1="330.7346" y1="244.8515" x2="289.3889" y2="231.5824" gradientTransform="matrix(1 0 0 -1 0 562)">
		<stop  offset="0" style="stop-color:#FCB148"/>
		<stop  offset="5.207239e-002" style="stop-color:#FDBA46"/>
		<stop  offset="0.1424" style="stop-color:#FFC244"/>
		<stop  offset="0.3183" style="stop-color:#FFC444"/>
		<stop  offset="0.4849" style="stop-color:#FDB946"/>
		<stop  offset="0.7754" style="stop-color:#F99C4D"/>
		<stop  offset="0.8658" style="stop-color:#F8924F"/>
		<stop  offset="1" style="stop-color:#F8924F"/>
	</linearGradient>
	<path id="XMLID_186_" class="st33" d="M378.3,315.6c0,19.2-15,34.3-34.2,33.7c-19.9-0.6-36.7-17.8-36.7-38.5s16.8-35.6,36.7-33.5
		C363.3,279.3,378.3,296.5,378.3,315.6z"/>
	
		<linearGradient id="XMLID_182_" gradientUnits="userSpaceOnUse" x1="364.184" y1="286.0062" x2="327.2731" y2="204.5738" gradientTransform="matrix(1 0 0 -1 0 562)">
		<stop  offset="0" style="stop-color:#FFDB44"/>
		<stop  offset="1" style="stop-color:#FEEF06"/>
	</linearGradient>
	<path id="XMLID_185_" class="st34" d="M383.5,314c0,19.2-15,34.3-34.2,33.7c-19.9-0.6-36.7-17.8-36.7-38.5s16.8-35.6,36.7-33.5
		C368.5,277.7,383.5,294.8,383.5,314z"/>
	
		<linearGradient id="XMLID_187_" gradientUnits="userSpaceOnUse" x1="357.3896" y1="200.0238" x2="350.2676" y2="238.9313" gradientTransform="matrix(1 0 0 -1 0 562)">
		<stop  offset="0" style="stop-color:#FCB148"/>
		<stop  offset="5.207239e-002" style="stop-color:#FDBA46"/>
		<stop  offset="0.1424" style="stop-color:#FFC244"/>
		<stop  offset="0.3183" style="stop-color:#FFC444"/>
		<stop  offset="0.4849" style="stop-color:#FDB946"/>
		<stop  offset="0.7754" style="stop-color:#F99C4D"/>
		<stop  offset="0.8658" style="stop-color:#F8924F"/>
		<stop  offset="1" style="stop-color:#F8924F"/>
	</linearGradient>
	<path id="XMLID_184_" class="st35" d="M382,313.9c0,18.3-14.3,32.7-32.7,32.1c-19-0.6-35-17.1-35-36.7c0-19.6,16-33.9,35-32
		C367.7,279.2,382,295.5,382,313.9z"/>
	
		<linearGradient id="XMLID_188_" gradientUnits="userSpaceOnUse" x1="342.287" y1="262.9982" x2="371.6378" y2="200.6919" gradientTransform="matrix(1 0 0 -1 0 562)">
		<stop  offset="0" style="stop-color:#FCB148"/>
		<stop  offset="5.207239e-002" style="stop-color:#FDBA46"/>
		<stop  offset="0.1424" style="stop-color:#FFC244"/>
		<stop  offset="0.3183" style="stop-color:#FFC444"/>
		<stop  offset="0.4849" style="stop-color:#FDB946"/>
		<stop  offset="0.7754" style="stop-color:#F99C4D"/>
		<stop  offset="0.8658" style="stop-color:#F8924F"/>
		<stop  offset="1" style="stop-color:#F8924F"/>
	</linearGradient>
	<path id="XMLID_183_" class="st36" d="M380.9,313.8c0,17.7-13.9,31.6-31.6,31.1c-18.4-0.6-33.8-16.5-33.8-35.5
		c0-19,15.4-32.8,33.8-30.9C367,280.3,380.9,296.1,380.9,313.8z"/>
	<g id="XMLID_178_">
		
			<linearGradient id="XMLID_189_" gradientUnits="userSpaceOnUse" x1="341.1056" y1="276.4033" x2="355.8643" y2="221.0906" gradientTransform="matrix(1 0 0 -1 0 562)">
			<stop  offset="0" style="stop-color:#FFDB44"/>
			<stop  offset="1" style="stop-color:#FEEF06"/>
		</linearGradient>
		<path id="XMLID_179_" class="st37" d="M349.2,284.5L349.2,284.5c0.9,0.1,1.7,0.9,1.7,1.9v3.3c1.9,0.2,3.8,0.5,5.7,1
			c1.4,0.3,2.8,0.7,4.2,1.2c0.8,0.3,1.4,1.1,1.3,2l-0.4,4.1c-0.1,1.1-1.2,1.7-2.2,1.3c-0.9-0.4-1.8-0.7-2.8-1
			c-1.7-0.5-3.4-0.8-5.2-1l-0.5,0v9.3c4.9,1.4,8.5,3.2,10.9,5.6c2.3,2.3,3.5,5.2,3.5,8.7c0,3.7-1.3,6.8-3.8,9
			c-2.6,2.3-6.2,3.6-10.9,3.8v3.6c0,1-0.8,1.7-1.7,1.7h0c-0.9,0-1.7-0.8-1.7-1.8v-3.6l-0.8,0c-2.2-0.1-4.3-0.3-6.3-0.7
			c-1.5-0.3-2.9-0.6-4.4-1c-0.9-0.3-1.5-1.1-1.4-1.9l0.5-5.3c0.1-1.1,1.2-1.8,2.3-1.4c1.3,0.5,2.5,0.9,3.8,1.2c2,0.5,4.1,0.9,6.1,1
			l0-10.4c-4.7-1.2-8.3-2.9-10.6-5.2c-2.3-2.3-3.5-5.2-3.5-8.8c0-3.7,1.3-6.6,3.8-8.6c2.5-2,6.1-3,10.7-3v-3.3
			C347.5,285.2,348.2,284.5,349.2,284.5z M347.5,297c-1.5,0.1-2.6,0.5-3.4,1.2c-0.8,0.7-1.2,1.6-1.2,2.8c0,1.1,0.4,2,1.1,2.8
			s1.9,1.3,3.5,1.8V297z M350.5,315.9v9.5c1.6,0,2.8-0.4,3.6-1.1s1.3-1.8,1.3-3.2c0-1.3-0.4-2.3-1.2-3.1
			C353.4,317.1,352.2,316.4,350.5,315.9z"/>
	</g>
	
		<linearGradient id="XMLID_190_" gradientUnits="userSpaceOnUse" x1="333.6401" y1="258.9605" x2="362.9318" y2="196.7799" gradientTransform="matrix(1 0 0 -1 0 562)">
		<stop  offset="0" style="stop-color:#FCB148"/>
		<stop  offset="5.207239e-002" style="stop-color:#FDBA46"/>
		<stop  offset="0.1424" style="stop-color:#FFC244"/>
		<stop  offset="0.3183" style="stop-color:#FFC444"/>
		<stop  offset="0.4849" style="stop-color:#FDB946"/>
		<stop  offset="0.7754" style="stop-color:#F99C4D"/>
		<stop  offset="0.8658" style="stop-color:#F8924F"/>
		<stop  offset="1" style="stop-color:#F8924F"/>
	</linearGradient>
	<path id="XMLID_177_" class="st38" d="M343.6,318.2c1.1-10.5,10.7-15,9.5-24.7c-0.8-6-5.3-11-10.4-14.9
		c-15.3,1.6-27.2,14.3-27.2,30.9c0,19,15.4,34.8,33.8,35.5c1.8,0.1,3.5,0,5.2-0.3C347.3,337.3,342.7,327.2,343.6,318.2z"/>
</g>
<g id="XMLID_165_">
	
		<linearGradient id="XMLID_191_" gradientUnits="userSpaceOnUse" x1="380.5993" y1="350.4208" x2="328.592" y2="333.7301" gradientTransform="matrix(1 0 0 -1 0 562)">
		<stop  offset="0" style="stop-color:#FCB148"/>
		<stop  offset="5.207239e-002" style="stop-color:#FDBA46"/>
		<stop  offset="0.1424" style="stop-color:#FFC244"/>
		<stop  offset="0.3183" style="stop-color:#FFC444"/>
		<stop  offset="0.4849" style="stop-color:#FDB946"/>
		<stop  offset="0.7754" style="stop-color:#F99C4D"/>
		<stop  offset="0.8658" style="stop-color:#F8924F"/>
		<stop  offset="1" style="stop-color:#F8924F"/>
	</linearGradient>
	<path id="XMLID_175_" class="st39" d="M440.5,209.7c0,24.1-18.9,43.1-43,42.4c-25.1-0.8-46.2-22.4-46.2-48.4s21.1-44.8,46.2-42.2
		C421.6,164.1,440.5,185.6,440.5,209.7z"/>
	
		<linearGradient id="XMLID_192_" gradientUnits="userSpaceOnUse" x1="422.6594" y1="402.1883" x2="376.2304" y2="299.7573" gradientTransform="matrix(1 0 0 -1 0 562)">
		<stop  offset="0" style="stop-color:#FFDB44"/>
		<stop  offset="1" style="stop-color:#FEEF06"/>
	</linearGradient>
	<path id="XMLID_174_" class="st40" d="M447,207.6c0,24.1-18.9,43.1-43,42.4c-25.1-0.8-46.2-22.4-46.2-48.4s21.1-44.8,46.2-42.2
		C428.1,162,447,183.5,447,207.6z"/>
	
		<linearGradient id="XMLID_193_" gradientUnits="userSpaceOnUse" x1="414.1301" y1="294.0263" x2="405.1716" y2="342.9666" gradientTransform="matrix(1 0 0 -1 0 562)">
		<stop  offset="0" style="stop-color:#FCB148"/>
		<stop  offset="5.207239e-002" style="stop-color:#FDBA46"/>
		<stop  offset="0.1424" style="stop-color:#FFC244"/>
		<stop  offset="0.3183" style="stop-color:#FFC444"/>
		<stop  offset="0.4849" style="stop-color:#FDB946"/>
		<stop  offset="0.7754" style="stop-color:#F99C4D"/>
		<stop  offset="0.8658" style="stop-color:#F8924F"/>
		<stop  offset="1" style="stop-color:#F8924F"/>
	</linearGradient>
	<path id="XMLID_173_" class="st41" d="M445.1,207.5c0,23.1-18.1,41.2-41.1,40.4c-23.9-0.8-44-21.5-44-46.2s20.1-42.7,44-40.2
		C427,163.9,445.1,184.4,445.1,207.5z"/>
	
		<linearGradient id="XMLID_194_" gradientUnits="userSpaceOnUse" x1="395.1425" y1="373.244" x2="432.0619" y2="294.8712" gradientTransform="matrix(1 0 0 -1 0 562)">
		<stop  offset="0" style="stop-color:#FCB148"/>
		<stop  offset="5.207239e-002" style="stop-color:#FDBA46"/>
		<stop  offset="0.1424" style="stop-color:#FFC244"/>
		<stop  offset="0.3183" style="stop-color:#FFC444"/>
		<stop  offset="0.4849" style="stop-color:#FDB946"/>
		<stop  offset="0.7754" style="stop-color:#F99C4D"/>
		<stop  offset="0.8658" style="stop-color:#F8924F"/>
		<stop  offset="1" style="stop-color:#F8924F"/>
	</linearGradient>
	<path id="XMLID_172_" class="st42" d="M443.7,207.4c0,22.3-17.5,39.8-39.7,39.1c-23.1-0.8-42.5-20.8-42.5-44.6s19.4-41.2,42.5-38.9
		C426.3,165.3,443.7,185.1,443.7,207.4z"/>
	<g id="XMLID_167_">
		
			<linearGradient id="XMLID_195_" gradientUnits="userSpaceOnUse" x1="393.6513" y1="390.1025" x2="412.2156" y2="320.5266" gradientTransform="matrix(1 0 0 -1 0 562)">
			<stop  offset="0" style="stop-color:#FFDB44"/>
			<stop  offset="1" style="stop-color:#FEEF06"/>
		</linearGradient>
		<path id="XMLID_168_" class="st43" d="M403.8,170.6L403.8,170.6c1.2,0.1,2.1,1.2,2.1,2.4v4.1c2.4,0.3,4.7,0.7,7.1,1.2
			c1.8,0.4,3.5,0.9,5.2,1.5c1,0.3,1.7,1.4,1.6,2.5l-0.5,5.1c-0.1,1.4-1.5,2.2-2.8,1.6c-1.1-0.5-2.3-0.9-3.5-1.3
			c-2.1-0.6-4.3-1-6.6-1.2l-0.6-0.1v11.8c6.2,1.7,10.7,4.1,13.7,7c2.9,2.9,4.4,6.5,4.4,10.9c0,4.7-1.6,8.5-4.8,11.3
			c-3.2,2.9-7.8,4.5-13.7,4.8v4.5c0,1.2-1,2.1-2.1,2.1h0c-1.2-0.1-2.2-1.1-2.2-2.3v-4.5l-1-0.1c-2.8-0.1-5.4-0.4-7.9-0.8
			c-1.9-0.3-3.7-0.7-5.5-1.3c-1.1-0.3-1.8-1.3-1.7-2.4l0.6-6.6c0.1-1.4,1.6-2.3,2.9-1.7c1.6,0.6,3.2,1.1,4.8,1.6
			c2.5,0.7,5.1,1.1,7.7,1.3l0-13.1c-5.9-1.5-10.4-3.6-13.3-6.5c-2.9-2.9-4.4-6.6-4.4-11.1c0-4.7,1.6-8.3,4.8-10.8
			c3.2-2.5,7.7-3.8,13.4-3.8v-4.2C401.6,171.4,402.6,170.5,403.8,170.6z M401.6,186.3c-1.8,0.1-3.3,0.6-4.3,1.5
			c-1,0.9-1.5,2.1-1.5,3.5c0,1.4,0.5,2.6,1.4,3.5c0.9,0.9,2.4,1.7,4.4,2.2V186.3z M405.4,210v12c2,0,3.5-0.5,4.6-1.4
			c1.1-0.9,1.6-2.3,1.6-4c0-1.6-0.5-2.9-1.5-3.9C409.1,211.5,407.6,210.6,405.4,210z"/>
	</g>
	
		<linearGradient id="XMLID_196_" gradientUnits="userSpaceOnUse" x1="384.2646" y1="368.1645" x2="421.1096" y2="289.9497" gradientTransform="matrix(1 0 0 -1 0 562)">
		<stop  offset="0" style="stop-color:#FCB148"/>
		<stop  offset="5.207239e-002" style="stop-color:#FDBA46"/>
		<stop  offset="0.1424" style="stop-color:#FFC244"/>
		<stop  offset="0.3183" style="stop-color:#FFC444"/>
		<stop  offset="0.4849" style="stop-color:#FDB946"/>
		<stop  offset="0.7754" style="stop-color:#F99C4D"/>
		<stop  offset="0.8658" style="stop-color:#F8924F"/>
		<stop  offset="1" style="stop-color:#F8924F"/>
	</linearGradient>
	<path id="XMLID_166_" class="st44" d="M396.8,212.9c1.4-13.3,13.5-18.9,11.9-31.1c-1-7.5-6.7-13.9-13-18.8
		c-19.3,2-34.2,18-34.2,38.9c0,23.8,19.4,43.8,42.5,44.6c2.2,0.1,4.4,0,6.6-0.3C401.4,237,395.7,224.2,396.8,212.9z"/>
</g>
<g id="XMLID_154_">
	
		<linearGradient id="XMLID_197_" gradientUnits="userSpaceOnUse" x1="300.2115" y1="482.5669" x2="227.3169" y2="459.1729" gradientTransform="matrix(1 0 0 -1 0 562)">
		<stop  offset="0" style="stop-color:#FCB148"/>
		<stop  offset="5.207239e-002" style="stop-color:#FDBA46"/>
		<stop  offset="0.1424" style="stop-color:#FFC244"/>
		<stop  offset="0.3183" style="stop-color:#FFC444"/>
		<stop  offset="0.4849" style="stop-color:#FDB946"/>
		<stop  offset="0.7754" style="stop-color:#F99C4D"/>
		<stop  offset="0.8658" style="stop-color:#F8924F"/>
		<stop  offset="1" style="stop-color:#F8924F"/>
	</linearGradient>
	<path id="XMLID_164_" class="st45" d="M384.1,76.8c0,33.8-26.4,60.4-60.2,59.4c-35.2-1.1-64.8-31.5-64.8-67.8s29.6-62.7,64.8-59.1
		C357.7,12.8,384.1,43,384.1,76.8z"/>
	
		<linearGradient id="XMLID_198_" gradientUnits="userSpaceOnUse" x1="359.1833" y1="555.1227" x2="294.1075" y2="411.5534" gradientTransform="matrix(1 0 0 -1 0 562)">
		<stop  offset="0" style="stop-color:#FFDB44"/>
		<stop  offset="1" style="stop-color:#FEEF06"/>
	</linearGradient>
	<path id="XMLID_163_" class="st46" d="M393.3,73.9c0,33.8-26.4,60.4-60.2,59.4c-35.2-1.1-64.8-31.5-64.8-67.8S297.9,2.7,333,6.4
		C366.8,9.9,393.3,40.1,393.3,73.9z"/>
	
		<linearGradient id="XMLID_199_" gradientUnits="userSpaceOnUse" x1="347.2061" y1="403.5305" x2="334.6496" y2="472.1262" gradientTransform="matrix(1 0 0 -1 0 562)">
		<stop  offset="0" style="stop-color:#FCB148"/>
		<stop  offset="5.207239e-002" style="stop-color:#FDBA46"/>
		<stop  offset="0.1424" style="stop-color:#FFC244"/>
		<stop  offset="0.3183" style="stop-color:#FFC444"/>
		<stop  offset="0.4849" style="stop-color:#FDB946"/>
		<stop  offset="0.7754" style="stop-color:#F99C4D"/>
		<stop  offset="0.8658" style="stop-color:#F8924F"/>
		<stop  offset="1" style="stop-color:#F8924F"/>
	</linearGradient>
	<path id="XMLID_162_" class="st47" d="M390.6,73.7c0,32.3-25.3,57.7-57.6,56.7c-33.5-1.1-61.7-30.1-61.7-64.7S299.5,5.8,333,9.3
		C365.3,12.6,390.6,41.4,390.6,73.7z"/>
	
		<linearGradient id="XMLID_201_" gradientUnits="userSpaceOnUse" x1="320.5905" y1="514.5626" x2="372.3376" y2="404.7136" gradientTransform="matrix(1 0 0 -1 0 562)">
		<stop  offset="0" style="stop-color:#FCB148"/>
		<stop  offset="5.207239e-002" style="stop-color:#FDBA46"/>
		<stop  offset="0.1424" style="stop-color:#FFC244"/>
		<stop  offset="0.3183" style="stop-color:#FFC444"/>
		<stop  offset="0.4849" style="stop-color:#FDB946"/>
		<stop  offset="0.7754" style="stop-color:#F99C4D"/>
		<stop  offset="0.8658" style="stop-color:#F8924F"/>
		<stop  offset="1" style="stop-color:#F8924F"/>
	</linearGradient>
	<path id="XMLID_161_" class="st48" d="M388.7,73.6c0,31.3-24.5,55.8-55.7,54.7c-32.4-1.1-59.5-29.1-59.5-62.5S300.7,8,333,11.3
		C364.2,14.5,388.7,42.3,388.7,73.6z"/>
	<g id="XMLID_156_">
		
			<linearGradient id="XMLID_202_" gradientUnits="userSpaceOnUse" x1="318.5306" y1="538.2004" x2="344.5508" y2="440.6813" gradientTransform="matrix(1 0 0 -1 0 562)">
			<stop  offset="0" style="stop-color:#FFDB44"/>
			<stop  offset="1" style="stop-color:#FEEF06"/>
		</linearGradient>
		<path id="XMLID_157_" class="st49" d="M332.7,22L332.7,22c1.7,0.2,3,1.7,3,3.3v5.8c3.3,0.4,6.6,0.9,10,1.7
			c2.4,0.6,4.9,1.3,7.3,2.1c1.5,0.5,2.4,1.9,2.3,3.5l-0.7,7.2c-0.2,1.9-2.1,3-3.9,2.2c-1.6-0.7-3.2-1.3-4.9-1.8
			c-2.9-0.9-6-1.5-9.3-1.7l-0.8-0.1v16.5c8.7,2.4,15,5.7,19.1,9.8c4.1,4.1,6.1,9.2,6.1,15.3c0,6.6-2.3,11.9-6.8,15.9
			c-4.6,4-10.9,6.3-19.2,6.8v6.3c0,1.7-1.4,3-3,2.9H332c-1.7-0.1-3-1.5-3-3.2v-6.3l-1.3-0.1c-3.9-0.2-7.6-0.6-11.1-1.2
			c-2.6-0.5-5.2-1-7.7-1.8c-1.5-0.4-2.5-1.9-2.4-3.4l0.8-9.3c0.2-2,2.2-3.2,4.1-2.4c2.2,0.9,4.5,1.6,6.8,2.2
			c3.5,0.9,7.2,1.5,10.8,1.8l0.1-18.3c-8.3-2.1-14.5-5.1-18.6-9.1c-4.1-4.1-6.2-9.2-6.2-15.6c0-6.5,2.2-11.6,6.7-15.1
			c4.4-3.5,10.7-5.3,18.9-5.3v-5.9C329.7,23,331,21.8,332.7,22z M329.7,44c-2.6,0.2-4.6,0.9-6,2.1c-1.4,1.2-2.2,2.9-2.2,4.9
			c0,2,0.7,3.6,2,4.9c1.3,1.3,3.4,2.4,6.2,3.2V44z M335,77.2V94c2.8,0,4.9-0.7,6.4-2c1.5-1.3,2.2-3.2,2.2-5.7c0-2.2-0.7-4.1-2.1-5.5
			C340.2,79.3,338,78.1,335,77.2z"/>
	</g>
	
		<linearGradient id="XMLID_203_" gradientUnits="userSpaceOnUse" x1="305.3603" y1="507.4507" x2="357.003" y2="397.8233" gradientTransform="matrix(1 0 0 -1 0 562)">
		<stop  offset="0" style="stop-color:#FCB148"/>
		<stop  offset="5.207239e-002" style="stop-color:#FDBA46"/>
		<stop  offset="0.1424" style="stop-color:#FFC244"/>
		<stop  offset="0.3183" style="stop-color:#FFC444"/>
		<stop  offset="0.4849" style="stop-color:#FDB946"/>
		<stop  offset="0.7754" style="stop-color:#F99C4D"/>
		<stop  offset="0.8658" style="stop-color:#F8924F"/>
		<stop  offset="1" style="stop-color:#F8924F"/>
	</linearGradient>
	<path id="XMLID_155_" class="st50" d="M322.9,81.2c1.9-18.6,19-26.4,16.7-43.5c-1.4-10.5-9.4-19.4-18.3-26.3
		c-27,2.8-47.9,25.2-47.9,54.5c0,33.4,27.2,61.4,59.5,62.5c3.1,0.1,6.2-0.1,9.2-0.5C329.4,115.1,321.3,97.2,322.9,81.2z"/>
</g>
</svg>
