<?xml version="1.0" encoding="utf-8"?>
<!-- Generator: Adobe Illustrator 19.0.0, SVG Export Plug-In . SVG Version: 6.00 Build 0)  -->
<svg version="1.1" id="Layer_1" xmlns="http://www.w3.org/2000/svg" xmlns:xlink="http://www.w3.org/1999/xlink" x="0px" y="0px"
	 viewBox="0 0 544.7 560" style="enable-background:new 0 0 544.7 560;" xml:space="preserve">
<style type="text/css">
	.st0{fill:url(#XMLID_73_);}
	.st1{fill:#F3FBF3;}
	.st2{fill:url(#XMLID_74_);}
	.st3{fill:url(#XMLID_75_);}
	.st4{fill:#91B3FA;}
	.st5{fill:url(#XMLID_76_);}
	.st6{fill:#5C5C57;}
	.st7{fill:url(#XMLID_77_);}
	.st8{fill:url(#XMLID_78_);}
	.st9{fill:url(#XMLID_79_);}
	.st10{fill:url(#XMLID_80_);}
	.st11{fill:url(#XMLID_81_);}
	.st12{fill:url(#XMLID_82_);}
	.st13{fill:#3D3937;}
	.st14{fill:url(#XMLID_83_);}
	.st15{fill:url(#XMLID_84_);}
	.st16{display:none;}
	.st17{display:inline;fill:url(#XMLID_85_);}
	.st18{display:inline;fill:url(#XMLID_86_);}
	.st19{display:inline;fill:#7D97F4;}
	.st20{display:inline;fill:url(#XMLID_87_);}
	.st21{display:inline;}
	.st22{clip-path:url(#XMLID_88_);fill:url(#XMLID_89_);}
	.st23{display:inline;fill:url(#XMLID_90_);}
	.st24{display:inline;fill:#BDD0FB;}
	.st25{fill:url(#XMLID_91_);}
	.st26{opacity:0.3;fill:url(#XMLID_92_);enable-background:new    ;}
	.st27{fill:url(#XMLID_93_);}
	.st28{fill:url(#XMLID_94_);}
	.st29{fill:url(#XMLID_95_);}
	.st30{fill:url(#XMLID_96_);}
	.st31{clip-path:url(#XMLID_97_);fill:url(#XMLID_98_);}
	.st32{opacity:0.3;clip-path:url(#XMLID_99_);fill:url(#XMLID_100_);enable-background:new    ;}
	.st33{fill:url(#XMLID_101_);}
</style>
<g id="XMLID_256_">
	
		<linearGradient id="XMLID_73_" gradientUnits="userSpaceOnUse" x1="353.4618" y1="222.8998" x2="446.5802" y2="478.7406" gradientTransform="matrix(1 0 0 -1 0 562)">
		<stop  offset="0.4877" style="stop-color:#78AD5A"/>
		<stop  offset="1" style="stop-color:#F0E88B"/>
	</linearGradient>
	<path id="XMLID_258_" class="st0" d="M436.1,80.4c9,27.1,55.3,186.8-86.9,257.1c0,0-57.5-97.3,82.7-258
		C433.3,78.2,435.5,78.7,436.1,80.4z"/>
	<path id="XMLID_257_" class="st1" d="M427.3,107.7c-0.7,9.1-1.6,18.2-2.6,27.2c-1,9.1-2.1,18.1-3.3,27.2
		c-2.4,18.1-5.2,36.1-8.5,54.1s-7.2,35.8-12.1,53.4c-2.4,8.8-5.1,17.6-8.2,26.2c-3.1,8.6-6.5,17.1-10.6,25.4c-0.3,0.6-1,0.8-1.7,0.6
		c-0.6-0.3-0.8-1-0.6-1.7l0,0l0,0c4.1-8.1,7.5-16.5,10.6-25c3.1-8.6,5.9-17.2,8.3-26c4.9-17.5,8.9-35.3,12.4-53.2
		c3.4-17.9,6.3-35.9,8.8-53.9c1.2-9,2.4-18.1,3.4-27.1c1-9.1,2-18.1,2.8-27.2l0,0c0-0.3,0.3-0.5,0.6-0.5
		C427.1,107.2,427.3,107.4,427.3,107.7z"/>
</g>
<g id="XMLID_253_">
	
		<linearGradient id="XMLID_74_" gradientUnits="userSpaceOnUse" x1="328.7397" y1="299.9794" x2="519.8721" y2="299.9794" gradientTransform="matrix(1 0 0 -1 0 562)">
		<stop  offset="0.4187" style="stop-color:#3B9B50"/>
		<stop  offset="1" style="stop-color:#C7D182"/>
	</linearGradient>
	<path id="XMLID_255_" class="st2" d="M519.8,110.9c0-2.8-3.9-3.7-5.1-1.2C502.3,134,468,196.9,428.5,226
		c-64.3,47.4-118,134.4-93.8,189.8C334.6,415.8,524.9,418.4,519.8,110.9z"/>
	<path id="XMLID_254_" class="st1" d="M507.2,146.6c-0.2,0.8-0.5,1.5-0.7,2.2l-0.8,2.1l-1.6,4.2c-1.1,2.8-2.2,5.6-3.3,8.4
		c-2.3,5.6-4.6,11.2-7,16.7c-4.8,11.1-9.9,22-15.2,32.9s-10.8,21.6-16.5,32.2l-2.1,4l-2.2,4c-1.5,2.6-2.9,5.3-4.4,7.9l-4.5,7.8
		l-4.6,7.8c-12.5,20.7-26,40.7-41,59.7c-0.9,1.2-1.9,2.4-2.8,3.5l-2.9,3.5l-2.9,3.5c-1,1.2-2,2.3-3,3.4c-2,2.3-3.9,4.6-6,6.8
		l-6.1,6.6c-8.4,8.7-17.1,17.1-26.4,24.8c-0.1,0.1-0.3,0.1-0.4,0c-0.1-0.1-0.1-0.3,0-0.4l0,0c9.1-7.9,17.7-16.3,25.9-25.2l6.1-6.7
		c2-2.2,3.9-4.6,5.9-6.8c1-1.1,2-2.3,2.9-3.4l2.8-3.5l2.8-3.5c0.9-1.2,1.9-2.3,2.8-3.5l5.5-7.2c1.8-2.4,3.6-4.8,5.4-7.3
		c0.9-1.2,1.8-2.4,2.7-3.6l2.6-3.7l2.6-3.7c0.9-1.2,1.7-2.5,2.6-3.7c6.8-9.9,13.2-20.2,19.5-30.4c12.5-20.6,24-41.8,34.7-63.3
		c5.4-10.8,10.5-21.7,15.5-32.7c2.5-5.5,4.9-11,7.3-16.5c1.2-2.8,2.3-5.6,3.5-8.3l1.7-4.2l0.8-2.1c0.3-0.7,0.5-1.4,0.7-2.1l0-0.1
		c0.1-0.2,0.2-0.3,0.4-0.2C507.2,146.3,507.3,146.5,507.2,146.6z"/>
</g>
<g id="XMLID_250_">
	
		<linearGradient id="XMLID_75_" gradientUnits="userSpaceOnUse" x1="346.9595" y1="226.4303" x2="544.6727" y2="226.4303" gradientTransform="matrix(1 0 0 -1 0 562)">
		<stop  offset="0.4877" style="stop-color:#78AD5A"/>
		<stop  offset="1" style="stop-color:#F0E88B"/>
	</linearGradient>
	<path id="XMLID_252_" class="st3" d="M347,457.4c0,0,1.9-39.1,42.3-77.6C426.7,344,518.7,261.5,540.7,215c1-2.1,4-1.4,4,0.9
		c-0.4,24.4-6.2,85.5-50,145.2C438.2,438.2,347,457.4,347,457.4z"/>
	<path id="XMLID_251_" class="st4" d="M525.3,258.3c-0.8,5.3-2.3,10.6-4.1,15.7c-0.2,0.6-0.4,1.3-0.7,1.9l-0.7,1.9l-1.5,3.8
		l-1.6,3.7c-0.6,1.2-1,2.5-1.7,3.7c-4.6,9.8-10.1,19.2-16.4,28c-1.5,2.3-3.2,4.4-4.8,6.6c-1.7,2.1-3.2,4.4-5,6.4l-5.2,6.2
		c-0.8,1.1-1.8,2-2.7,3l-2.8,3l-2.8,3l-1.4,1.5l-1.5,1.4l-5.8,5.7c-1,0.9-1.9,1.9-2.9,2.8l-3,2.7l-6,5.5l-6,5.4
		c-2,1.8-4,3.6-6.1,5.4c-4.1,3.5-8.2,7.1-12.3,10.5c-4.1,3.5-8.3,6.9-12.4,10.4l-12.6,10.2c-8.4,6.8-16.7,13.6-24.9,20.6
		c-2.1,1.7-4,3.6-6,5.4c-1,0.9-2,1.8-2.9,2.8c-1,0.9-2,1.9-2.9,2.8c-1.8,2-3.7,3.9-5.4,5.9l-1.3,1.5c-0.2,0.3-0.5,0.5-0.7,0.8
		l-0.6,0.8l-2.4,3.2v0c-0.1,0.1-0.3,0.2-0.4,0.1c-0.1-0.1-0.2-0.3-0.1-0.4c3-4.5,6.4-8.7,10.1-12.7c0.9-1,1.9-1.9,2.8-2.9
		s1.9-2,2.9-2.9c2-1.9,3.9-3.7,5.9-5.5c8-7.3,16.4-14.1,24.6-21c8.3-6.9,16.5-13.8,24.7-20.8c8.2-7,16.3-14.1,24.3-21.3l6-5.4l3-2.7
		c1-0.9,2-1.9,2.9-2.8l5.8-5.6l1.5-1.4l1.4-1.5l2.8-2.9c7.5-7.7,14.2-16.1,20.6-24.7c6.4-8.6,12-17.9,16.8-27.4
		c0.7-1.2,1.2-2.4,1.8-3.6l1.7-3.6l1.6-3.7l0.8-1.9c0.3-0.6,0.5-1.3,0.7-1.9c0.5-1.3,1-2.5,1.4-3.8l1.3-3.8
		C523.9,263.6,524.7,261,525.3,258.3C525.2,258.3,525.2,258.3,525.3,258.3C525.2,258.3,525.3,258.3,525.3,258.3z"/>
</g>
<g id="XMLID_1_">
	<g id="XMLID_2_">
		
			<linearGradient id="XMLID_76_" gradientUnits="userSpaceOnUse" x1="10403.5498" y1="881.0816" x2="10351.7422" y2="755.7401" gradientTransform="matrix(-1 0 0 -1 10414.6914 562)">
			<stop  offset="0" style="stop-color:#FF928E"/>
			<stop  offset="1" style="stop-color:#FE7062"/>
		</linearGradient>
		<path id="XMLID_33_" class="st5" d="M289.8,213.1c0,0-66.1,80.6-90.5,61.2S240.7,149,240.7,149L289.8,213.1z"/>
		<path id="XMLID_32_" class="st6" d="M317.8,571.8c-2.4-61.8-6.5-118.3-6.5-118.3c-8.7,14.3-20.8,66.9-31.2,118.3h-44.6
			c9.3-122.3,32.1-208.7,32.1-208.7h80.2c0,0,16.3,26.8,16.3,33c0.5,55-4.6,120.7-10.3,175.7L317.8,571.8L317.8,571.8z"/>
		
			<linearGradient id="XMLID_77_" gradientUnits="userSpaceOnUse" x1="10334.4521" y1="909.6428" x2="10282.6445" y2="784.301" gradientTransform="matrix(-1 0 0 -1 10414.6914 562)">
			<stop  offset="0" style="stop-color:#FF928E"/>
			<stop  offset="1" style="stop-color:#FE7062"/>
		</linearGradient>
		<path id="XMLID_31_" class="st7" d="M242.2,149.7c50.4-7.3,105.8-0.6,132.7,2.8c8.7,1.1,16.7,5.4,22.4,12
			c22.8,26.3,72.7,98.4,13.9,171c-7.5-4.2-18.2-10.9-25.5-18.6c6.5-18.3,7-41.7-6.6-70.5c-0.5,2.3-1,4.5-1.7,6.7
			c-18.8,59.5-19.8,109-19.7,120.4c0,1.6-0.9,2.9-2.4,3.5c-24.7,9.9-72.3,4-88.2,1.6c-2.9-0.4-4.9-3.2-4.5-6.1
			c5.6-40.7-13.5-100.2-28.6-139.3C228,217.9,239.1,154,242.2,149.7z"/>
		
			<linearGradient id="XMLID_78_" gradientUnits="userSpaceOnUse" x1="9456.4082" y1="598.6138" x2="9495.8975" y2="506.8" gradientTransform="matrix(-0.9957 9.240000e-002 -9.240000e-002 -0.9957 9802.2783 -212.4825)">
			<stop  offset="0" style="stop-color:#FEBBBA"/>
			<stop  offset="1" style="stop-color:#FF928E"/>
		</linearGradient>
		<path id="XMLID_30_" class="st8" d="M322.6,90.5l7,57.6c0.3,2.6-1.3,5.1-3.8,5.8c-7.6,2.2-23.7,5.6-38.5-0.5
			c-2.8-1.2-4.4-4.2-3.7-7.2l8.8-40.5L322.6,90.5z"/>
		<g id="XMLID_26_">
			
				<linearGradient id="XMLID_79_" gradientUnits="userSpaceOnUse" x1="9102.1123" y1="-1410.9258" x2="9033.4844" y2="-1501.7148" gradientTransform="matrix(-0.8771 -0.4803 0.4803 -0.8771 8950.2441 3190.6609)">
				<stop  offset="0" style="stop-color:#FEBBBA"/>
				<stop  offset="1" style="stop-color:#FF928E"/>
			</linearGradient>
			<path id="XMLID_29_" class="st9" d="M277.5,49.6c-0.4,0.8-9.8,59.9-9.8,59.9l33.8,4.6l17.2-54.7
				C318.7,59.4,284.8,36.3,277.5,49.6z"/>
			
				<linearGradient id="XMLID_80_" gradientUnits="userSpaceOnUse" x1="9049.71" y1="-1432.7366" x2="9131.6943" y2="-1432.7366" gradientTransform="matrix(-0.8771 -0.4803 0.4803 -0.8771 8950.2441 3190.6609)">
				<stop  offset="0" style="stop-color:#09005D"/>
				<stop  offset="1" style="stop-color:#1A0F91"/>
			</linearGradient>
			<path id="XMLID_28_" class="st10" d="M306.2,64.9c1,1.2,1.3,2.7,1,4.2l-6.7,29.1c-0.1,0.4-0.3,0.9-0.5,1.3
				c-1.2,2.2-5.6,8.8-12.3,3.9c-5.7-4.2-11-7.9-15.6-8.7c-2.7-0.5-5.2,1.4-5.6,4.1c-0.8,5.6-2.3,16.8-2.3,26.9c0,2.5,2,4.6,4.6,4.8
				c6.7,0.5,19.8,1,30.7-0.9c1.8-0.3,3.2-1.6,3.8-3.3c2.5-7.6,9.5-28.8,12.4-34.5c2.7-5.3,10.6-6.2,14.2-6.3c1.4,0,2.7-0.7,3.6-1.7
				c2.7-3.1,7-10.1-1.2-16.9c-2-1.7-2.3-4.7-0.6-6.8c3-3.7,5.5-9.7-0.8-15.9c-6.4-6.3-13.7-4.7-18.3-2.6c-2,0.9-4.6,0.5-6-1.2
				c-0.7-0.8-1.6-1.3-3-1.1c-2.7,0.3-5.1-1.5-5.4-4.1c-0.6-4.6-3-10-11.1-11.5c-14.9-2.8-22.3,12.1-22,22.5s16.6,12.6,25.8,10.9
				C297.6,55.7,303.5,61.6,306.2,64.9z"/>
			
				<linearGradient id="XMLID_81_" gradientUnits="userSpaceOnUse" x1="9775.4795" y1="-3100.8477" x2="9814.9668" y2="-3192.655" gradientTransform="matrix(-0.8771 -0.4803 0.4803 -0.8771 8950.2441 3190.6609)">
				<stop  offset="0" style="stop-color:#FEBBBA"/>
				<stop  offset="1" style="stop-color:#FF928E"/>
			</linearGradient>
			<path id="XMLID_27_" class="st11" d="M313.1,102.5c0,0,0.3-18.2,7.6-20c7.4-1.7,15.4,3.6,9.1,14.5
				C322,110.6,313.1,102.5,313.1,102.5z"/>
		</g>
		
			<linearGradient id="XMLID_82_" gradientUnits="userSpaceOnUse" x1="10272.6924" y1="935.1684" x2="10220.8848" y2="809.8263" gradientTransform="matrix(-1 0 0 -1 10414.6914 562)">
			<stop  offset="0" style="stop-color:#FF928E"/>
			<stop  offset="1" style="stop-color:#FE7062"/>
		</linearGradient>
		<path id="XMLID_25_" class="st12" d="M381.7,242c10-27.2,6.3-60.2,6.3-60.5l-2.7,0.3c0,0.3,3.6,32.6-6.2,59.2L381.7,242z"/>
		<path id="XMLID_24_" class="st13" d="M312.6,449.9c0.6,0,1.2-0.4,1.3-1c3-11.7,25.8-24.6,26-24.7c0.7-0.4,0.9-1.2,0.5-1.9
			c-0.4-0.7-1.2-0.9-1.9-0.5c-1,0.6-24,13.6-27.3,26.4c-0.2,0.7,0.3,1.5,1,1.7C312.4,449.9,312.5,449.9,312.6,449.9z"/>
		
			<linearGradient id="XMLID_83_" gradientUnits="userSpaceOnUse" x1="10003.4238" y1="208.2699" x2="10089.9443" y2="208.2699" gradientTransform="matrix(-1 0 0 -1 10414.6914 562)">
			<stop  offset="0" style="stop-color:#FEBBBA"/>
			<stop  offset="1" style="stop-color:#FF928E"/>
		</linearGradient>
		<path id="XMLID_23_" class="st14" d="M385.8,316.9c7.3,7.7,17.9,14.4,25.5,18.6c-11.2,13.9-26.4,27.8-46.5,41.4l-2.4,5.5
			c-2.1,4.7-6.6,7.8-11.8,8c-28.1,1.3-35.9-4.6-10-22.7C340.5,367.7,373.6,351.2,385.8,316.9z"/>
		
			<linearGradient id="XMLID_84_" gradientUnits="userSpaceOnUse" x1="3648.5564" y1="-1003.1191" x2="3703.4729" y2="-1003.1191" gradientTransform="matrix(-0.5644 0.8255 -0.8255 -0.5644 1439.9025 -3362.9004)">
			<stop  offset="0" style="stop-color:#FEBBBA"/>
			<stop  offset="1" style="stop-color:#FF928E"/>
		</linearGradient>
		<path id="XMLID_22_" class="st15" d="M179.1,194.9c0,0,35.5,36.9,43.7,50.2c8.2,13.4-0.9,37.7-19.5,32.1
			c-18.6-5.7-40.3-69.6-40.3-69.6L179.1,194.9z"/>
		<g id="XMLID_4_" class="st16">
			
				<linearGradient id="XMLID_85_" gradientUnits="userSpaceOnUse" x1="10195.9883" y1="400.0068" x2="10198.624" y2="303.8194" gradientTransform="matrix(-1 0 0 -1 10414.6914 562)">
				<stop  offset="0" style="stop-color:#09005D"/>
				<stop  offset="1" style="stop-color:#1A0F91"/>
			</linearGradient>
			<path id="XMLID_21_" class="st17" d="M250.6,173.2c0,0-24.6,64.8-32.3,78.3c-9,15.6-35.3,5.7-34-7.4
				c1.3-13.1,32.1-67.2,32.1-67.2L250.6,173.2z"/>
			
				<linearGradient id="XMLID_86_" gradientUnits="userSpaceOnUse" x1="10249.4336" y1="474.0141" x2="10347.1816" y2="299.9228" gradientTransform="matrix(-1 0 0 -1 10414.6914 562)">
				<stop  offset="0" style="stop-color:#4F52FF"/>
				<stop  offset="1" style="stop-color:#4042E2"/>
			</linearGradient>
			<polygon id="XMLID_20_" class="st18" points="217.4,126 64.7,73.1 66.3,216.4 221.6,181.7 			"/>
			<ellipse id="XMLID_19_" class="st19" cx="64.5" cy="145.1" rx="15" ry="73.6"/>
			
				<linearGradient id="XMLID_87_" gradientUnits="userSpaceOnUse" x1="10333.5762" y1="415.6621" x2="10373.0771" y2="419.2531" gradientTransform="matrix(-1 0 0 -1 10414.6914 562)">
				<stop  offset="0" style="stop-color:#4F52FF"/>
				<stop  offset="1" style="stop-color:#4042E2"/>
			</linearGradient>
			<path id="XMLID_18_" class="st20" d="M63.4,213.8c1.4-1.4,4.3-6.7,6.8-20.5c2.4-13.3,3.8-30.5,3.8-48.6s-1.3-35.3-3.8-48.6
				c-2.5-13.8-5.5-19.1-6.8-20.5c-1.4,1.4-4.3,6.7-6.8,20.5c-2.4,13.3-3.8,30.5-3.8,48.6s1.3,35.3,3.8,48.6
				C59.1,207.1,62,212.4,63.4,213.8z"/>
			<g id="XMLID_15_" class="st21">
				<g>
					<defs>
						<path id="XMLID_43_" d="M63.4,213.8c1.4-1.4,4.3-6.7,6.8-20.5c2.4-13.3,3.8-30.5,3.8-48.6s-1.3-35.3-3.8-48.6
							c-2.5-13.8-5.5-19.1-6.8-20.5c-1.4,1.4-4.3,6.7-6.8,20.5c-2.4,13.3-21.8,30.5-21.8,48.6s19.3,35.3,21.8,48.6
							C59.1,207.1,62,212.4,63.4,213.8z"/>
					</defs>
					<clipPath id="XMLID_88_">
						<use xlink:href="#XMLID_43_"  style="overflow:visible;"/>
					</clipPath>
					
						<linearGradient id="XMLID_89_" gradientUnits="userSpaceOnUse" x1="10383.4131" y1="419.7169" x2="10276.8789" y2="413.6042" gradientTransform="matrix(-1 0 0 -1 10414.6914 562)">
						<stop  offset="0" style="stop-color:#09005D"/>
						<stop  offset="1" style="stop-color:#1A0F91"/>
					</linearGradient>
					<path id="XMLID_17_" class="st22" d="M44.2,144.2c0,12.5,6.7,22.7,20.1,22.7s24.2-10.1,24.2-22.7c0-12.5-10.8-22.7-24.2-22.7
						S44.2,131.7,44.2,144.2z"/>
				</g>
			</g>
			
				<linearGradient id="XMLID_90_" gradientUnits="userSpaceOnUse" x1="10221.2441" y1="510.4936" x2="10184.3506" y2="411.6712" gradientTransform="matrix(-1 0 0 -1 10414.6914 562)">
				<stop  offset="0" style="stop-color:#09005D"/>
				<stop  offset="1" style="stop-color:#1A0F91"/>
			</linearGradient>
			<path id="XMLID_14_" class="st23" d="M242,123c-7.2-0.8-17.5-1.1-28.6,1.4c3.7,19.2,3.1,39.1-1.1,59.9h31.4c5,0,9.3-3.6,10.1-8.6
				c1.6-9.9,3.5-26.6,1.4-40C254.2,128.9,248.8,123.7,242,123z"/>
			<path id="XMLID_13_" class="st24" d="M223.2,138h24.5c0.9,0,1.8-0.5,2.3-1.4c0.5-0.8,0.4-1.9-0.1-2.7c-0.3-0.5-0.9-0.6-1.4-0.3
				c-0.5,0.3-0.6,0.9-0.3,1.4c0.2,0.3,0.1,0.5,0,0.6s-0.2,0.3-0.5,0.3h-24.5c-0.3,0-0.6-0.3-0.6-0.6v-1.7c0-0.3,0.3-0.6,0.6-0.6
				h24.7c0.6,0,1-0.5,1-1c0-0.6-0.5-1-1-1h-24.7c-1.4,0-2.6,1.2-2.6,2.6v1.7C220.6,136.8,221.8,138,223.2,138z"/>
			<path id="XMLID_12_" class="st24" d="M225.4,148.8h24.5c0.9,0,1.8-0.5,2.3-1.4c0.5-0.8,0.4-1.9-0.1-2.7c-0.3-0.5-0.9-0.6-1.4-0.3
				c-0.5,0.3-0.6,0.9-0.3,1.4c0.2,0.3,0.1,0.5,0,0.6s-0.2,0.3-0.5,0.3h-24.5c-0.3,0-0.6-0.3-0.6-0.6v-1.7c0-0.3,0.3-0.6,0.6-0.6H250
				c0.6,0,1-0.5,1-1c0-0.6-0.5-1-1-1h-24.7c-1.4,0-2.6,1.2-2.6,2.6v1.7C222.8,147.7,223.9,148.8,225.4,148.8z"/>
			<path id="XMLID_11_" class="st24" d="M195.2,122.5c0.4,0,0.8-0.3,0.9-0.7c0.2-0.5-0.1-1.1-0.7-1.2L79.8,83.8
				c-0.5-0.2-1.1,0.1-1.2,0.7c-0.2,0.5,0.1,1.1,0.7,1.2l115.7,36.8C195,122.5,195.1,122.5,195.2,122.5z"/>
			<path id="XMLID_10_" class="st24" d="M210.9,128.9c0.4,0,0.8-0.2,0.9-0.6c0.2-0.5,0-1.1-0.6-1.3l-6-2.4c-0.5-0.2-1.1,0-1.3,0.6
				c-0.2,0.5,0,1.1,0.6,1.3l6,2.4C210.6,128.9,210.7,128.9,210.9,128.9z"/>
			<path id="XMLID_9_" class="st24" d="M223.2,161.5h24.5c0.9,0,1.8-0.5,2.3-1.4c0.5-0.8,0.4-1.9-0.1-2.7c-0.3-0.5-0.9-0.6-1.4-0.3
				c-0.5,0.3-0.6,0.9-0.3,1.4c0.2,0.3,0.1,0.5,0,0.6s-0.2,0.3-0.5,0.3h-24.5c-0.3,0-0.6-0.3-0.6-0.6v-1.7c0-0.3,0.3-0.6,0.6-0.6
				h24.7c0.6,0,1-0.5,1-1c0-0.6-0.5-1-1-1h-24.7c-1.4,0-2.6,1.2-2.6,2.6v1.7C220.6,160.4,221.8,161.5,223.2,161.5z"/>
			<path id="XMLID_8_" class="st24" d="M220.9,175.6h24.5c0.9,0,1.8-0.5,2.3-1.4c0.5-0.8,0.4-1.9-0.1-2.7c-0.3-0.5-0.9-0.6-1.4-0.3
				c-0.5,0.3-0.6,0.9-0.3,1.4c0.2,0.3,0.1,0.5,0,0.6s-0.2,0.3-0.5,0.3h-24.5c-0.3,0-0.6-0.3-0.6-0.6v-1.7c0-0.3,0.3-0.6,0.6-0.6
				h24.7c0.6,0,1-0.5,1-1c0-0.6-0.5-1-1-1h-24.7c-1.4,0-2.6,1.2-2.6,2.6v1.7C218.3,174.5,219.5,175.6,220.9,175.6z"/>
			<path id="XMLID_7_" class="st24" d="M199,252.3c1.2,0,2.3-0.1,3.5-0.4c5.1-1.1,9.2-4.5,11.4-9.2l19.6-43.5c0.2-0.5,0-1.1-0.5-1.3
				c-0.5-0.2-1.1,0-1.3,0.5l-19.6,43.5c-1.9,4.2-5.5,7.1-10,8.1c-4.4,0.9-8.8-0.2-12.2-3.1c-0.2-0.2-0.4-0.3-0.6-0.5
				c-0.4-0.4-1-0.3-1.4,0.1c-0.4,0.4-0.3,1,0.1,1.4c0.2,0.2,0.4,0.4,0.6,0.5C191.5,250.9,195.2,252.3,199,252.3z"/>
			<path id="XMLID_6_" class="st24" d="M235.4,193.4c0.4,0,0.7-0.2,0.9-0.6l2.2-4.8c0.2-0.5,0-1.1-0.5-1.3c-0.5-0.2-1.1,0-1.3,0.5
				l-2.2,4.8c-0.2,0.5,0,1.1,0.5,1.3C235.2,193.4,235.3,193.4,235.4,193.4z"/>
			<path id="XMLID_5_" class="st24" d="M47.7,143.9c0.5,0,0.9-0.4,1-0.9c0.4-6,2.5-10.5,6.2-13.3c6.3-4.9,15.5-3.2,15.6-3.2
				c0.5,0.1,1.1-0.3,1.2-0.8c0.1-0.5-0.3-1.1-0.8-1.2c-0.4-0.1-10.1-1.9-17.2,3.6c-4.1,3.2-6.5,8.1-7,14.8
				C46.7,143.4,47.1,143.9,47.7,143.9C47.7,143.9,47.7,143.9,47.7,143.9z"/>
		</g>
	</g>
	<g id="XMLID_44_">
		
			<linearGradient id="XMLID_91_" gradientUnits="userSpaceOnUse" x1="9031.0459" y1="-170.2238" x2="8972.2715" y2="-239.5396" gradientTransform="matrix(-0.9928 -0.1203 0.1203 -0.9928 9150.6768 1056.486)">
			<stop  offset="0" style="stop-color:#311944"/>
			<stop  offset="1" style="stop-color:#893976"/>
		</linearGradient>
		<path id="XMLID_42_" class="st25" d="M164.9,243.6c6.5,0.4,13.1-3.4,16.5-10.3l47.8-96.4c4.4-8.8,1.7-19.7-6-24.5
			c-7.7-4.8-20.8-2.2-25.3,6.7L149,216.5c-4.6,9.2-1.7,20.3,6.4,24.8C157.4,242.4,162.8,243.5,164.9,243.6z"/>
		
			<linearGradient id="XMLID_92_" gradientUnits="userSpaceOnUse" x1="9024.1152" y1="-164.3255" x2="8964.2344" y2="-234.9456" gradientTransform="matrix(-0.9928 -0.1203 0.1203 -0.9928 9150.6768 1056.486)">
			<stop  offset="0" style="stop-color:#311944"/>
			<stop  offset="1" style="stop-color:#893976"/>
		</linearGradient>
		<path id="XMLID_41_" class="st26" d="M223.2,112.5c-7.7-4.8-20.8-2.2-25.3,6.7l-44.7,89c6-0.9,12.8,0.2,20.1-5.5
			c12.1-9.5,8.3-24.3,18.3-35.7c4.6-5.2,12.6-10.2,27.7-10l9.9-19.9C233.5,128.2,230.9,117.3,223.2,112.5z"/>
		
			<linearGradient id="XMLID_93_" gradientUnits="userSpaceOnUse" x1="10067.8018" y1="637.532" x2="10111.416" y2="637.532" gradientTransform="matrix(-0.9991 4.349882e-002 -4.349882e-002 -0.9991 10345.1572 325.2988)">
			<stop  offset="0" style="stop-color:#AA80F9"/>
			<stop  offset="0.9964" style="stop-color:#6165D7"/>
		</linearGradient>
		<path id="XMLID_40_" class="st27" d="M247.6,95.4c-0.3,0-0.6-0.1-0.9-0.1l-22.7-3.4l-7.3,67.8l22,2.6c0.6,0.2,1.1,0.4,1.7,0.5
			c7.8,1.1,15.8-13.2,17.8-31.8C260.1,112.4,255.4,96.4,247.6,95.4z"/>
		
			<linearGradient id="XMLID_94_" gradientUnits="userSpaceOnUse" x1="9049.1904" y1="-42.7834" x2="9102.0361" y2="-335.0815" gradientTransform="matrix(-0.9928 -0.1203 0.1203 -0.9928 9150.6768 1056.486)">
			<stop  offset="0" style="stop-color:#AA80F9"/>
			<stop  offset="0.9964" style="stop-color:#6165D7"/>
		</linearGradient>
		<path id="XMLID_39_" class="st28" d="M223.9,91.9c6.2,23.8,3.7,46.3-7.3,67.8L40.4,199.1L59.3,8.5L223.9,91.9z"/>
		
			<linearGradient id="XMLID_95_" gradientUnits="userSpaceOnUse" x1="-1799.4855" y1="-87.437" x2="-1901.9902" y2="-208.3257" gradientTransform="matrix(0.9928 0.1203 0.1203 -0.9928 1897.7714 177.8675)">
			<stop  offset="3.597120e-003" style="stop-color:#E38DDD"/>
			<stop  offset="1" style="stop-color:#9571F6"/>
		</linearGradient>
		<path id="XMLID_37_" class="st29" d="M83.8,107.6c-5.9,54.4-29.1,96-51.9,92.8c-22.8-3.1-36.4-49.7-30.6-104s29.1-96,51.9-92.8
			C76,6.7,89.7,53.3,83.8,107.6z"/>
		
			<linearGradient id="XMLID_96_" gradientUnits="userSpaceOnUse" x1="-1798.5325" y1="-146.5509" x2="-1887.0554" y2="-148.8062" gradientTransform="matrix(0.9928 0.1203 0.1203 -0.9928 1897.7714 177.8675)">
			<stop  offset="0" style="stop-color:#311944"/>
			<stop  offset="1" style="stop-color:#893976"/>
		</linearGradient>
		<path id="XMLID_36_" class="st30" d="M32.3,197.2c-4.8-0.7-9.3-3.6-13.4-8.8c-4.1-5.3-7.5-12.6-10.2-21.7
			c-5.6-19.2-7.2-44-4.4-69.8C7.1,71,13.9,47.4,23.4,30.3C28,22.1,32.9,15.9,38,11.9c5-4,10-5.6,14.9-5c4.8,0.7,9.3,3.6,13.4,8.8
			c4.1,5.3,7.5,12.6,10.2,21.7c2.4,8,4,17,4.9,26.7c1.3,13.4-8,26-9.6,41c-1.7,16,4.1,33.2-0.4,46.5c-2.8,8.2-6,15.7-9.7,22.2
			c-4.6,8.1-9.5,14.3-14.6,18.3C42.1,196.1,37.1,197.8,32.3,197.2z"/>
		<g id="XMLID_45_">
			<g>
				<defs>
					<path id="XMLID_34_" d="M32.3,197.2c-4.8-0.7-9.3-3.6-13.4-8.8c-4.1-5.3-7.5-12.6-10.2-21.7c-5.6-19.2-7.2-44-4.4-69.8
						C7.1,71,13.9,47.4,23.4,30.3C28,22.1,32.9,15.9,38,11.9c5-4,10-5.6,14.9-5c4.8,0.7,9.3,3.6,13.4,8.8
						c4.1,5.3,7.5,12.6,10.2,21.7c5.6,19.2,7.2,44,4.4,69.8c-2.8,25.8-9.6,49.5-19.2,66.6c-4.6,8.1-9.5,14.3-14.6,18.3
						C42.1,196.1,37.1,197.8,32.3,197.2z"/>
				</defs>
				<clipPath id="XMLID_97_">
					<use xlink:href="#XMLID_34_"  style="overflow:visible;"/>
				</clipPath>
				
					<linearGradient id="XMLID_98_" gradientUnits="userSpaceOnUse" x1="9110.7285" y1="-54.9338" x2="9145.0859" y2="-244.9704" gradientTransform="matrix(-0.9928 -0.1203 0.1203 -0.9928 9150.6768 1056.486)">
					<stop  offset="0" style="stop-color:#FFC444"/>
					<stop  offset="0.9964" style="stop-color:#F36F56"/>
				</linearGradient>
				<path id="XMLID_35_" class="st31" d="M39.1,102.9c-2.7,24.9,9.6,46.7,27.1,48.6c17.3,1.9,33.3-16.3,35.9-40.6
					c2.6-24.3-9-45.9-26.3-48.5C58.3,59.8,41.8,77.9,39.1,102.9z"/>
			</g>
			<g>
				<defs>
					<path id="XMLID_16_" d="M32.3,197.2c-4.8-0.7-9.3-3.6-13.4-8.8c-4.1-5.3-7.5-12.6-10.2-21.7c-5.6-19.2-7.2-44-4.4-69.8
						C7.1,71,13.9,47.4,23.4,30.3C28,22.1,32.9,15.9,38,11.9c5-4,10-5.6,14.9-5c4.8,0.7,9.3,3.6,13.4,8.8
						c4.1,5.3,7.5,12.6,10.2,21.7c5.6,19.2,7.2,44,4.4,69.8c-2.8,25.8-9.6,49.5-19.2,66.6c-4.6,8.1-9.5,14.3-14.6,18.3
						C42.1,196.1,37.1,197.8,32.3,197.2z"/>
				</defs>
				<clipPath id="XMLID_99_">
					<use xlink:href="#XMLID_16_"  style="overflow:visible;"/>
				</clipPath>
				
					<linearGradient id="XMLID_100_" gradientUnits="userSpaceOnUse" x1="9128.6992" y1="-79.0652" x2="9154.1035" y2="-219.5846" gradientTransform="matrix(-0.9928 -0.1203 0.1203 -0.9928 9150.6768 1056.486)">
					<stop  offset="0" style="stop-color:#FFC444"/>
					<stop  offset="0.9964" style="stop-color:#F36F56"/>
				</linearGradient>
				<path id="XMLID_38_" class="st32" d="M41.8,102.8c-2,18.5,3.4,34.2,12,35c8.5,0.8,16.8-13.2,18.7-31.2S69.4,73,61,71.7
					C52.5,70.4,43.9,84.3,41.8,102.8z"/>
			</g>
		</g>
	</g>
	
		<linearGradient id="XMLID_101_" gradientUnits="userSpaceOnUse" x1="10222.7197" y1="376.5271" x2="10256.0576" y2="376.5271" gradientTransform="matrix(-1 0 0 -1 10414.6914 562)">
		<stop  offset="0" style="stop-color:#FEBBBA"/>
		<stop  offset="1" style="stop-color:#FF928E"/>
	</linearGradient>
	<path id="XMLID_3_" class="st33" d="M185.1,175.2c0,0-10.1-8.6-18,0c-7.9,8.6-9.5,23.5-7.9,24.3
		C160.8,200.2,209.7,188.1,185.1,175.2z"/>
</g>
</svg>
