<?xml version="1.0" encoding="utf-8"?>
<!-- Generator: Adobe Illustrator 25.0.0, SVG Export Plug-In . SVG Version: 6.00 Build 0)  -->
<svg version="1.1" id="Layer_1" xmlns="http://www.w3.org/2000/svg" xmlns:xlink="http://www.w3.org/1999/xlink" x="0px" y="0px"
	 viewBox="0 0 2966.4 2000" style="enable-background:new 0 0 2966.4 2000;" xml:space="preserve">
<style type="text/css">
	.st0{clip-path:url(#SVGID_2_);fill:#ECF7FE;}
	.st1{clip-path:url(#SVGID_2_);fill:#D6EBF5;}
	.st2{clip-path:url(#SVGID_2_);fill:#C5E0E8;}
	.st3{clip-path:url(#SVGID_2_);fill:#5B90C0;}
	.st4{clip-path:url(#SVGID_2_);fill:#FFFFFF;}
	.st5{clip-path:url(#SVGID_2_);fill:#94C2E7;}
	.st6{clip-path:url(#SVGID_2_);fill:#5995CA;}
	.st7{clip-path:url(#SVGID_2_);}
	.st8{clip-path:url(#XMLID_4_);fill:url(#SVGID_3_);}
	.st9{fill:url(#SVGID_4_);}
	.st10{fill:url(#SVGID_5_);}
	.st11{fill:#33304A;}
	.st12{clip-path:url(#XMLID_5_);fill:#33304A;}
	.st13{fill:none;stroke:#ACAFC7;stroke-miterlimit:10;}
	.st14{clip-path:url(#XMLID_12_);fill:#454062;}
	.st15{clip-path:url(#XMLID_12_);fill:#020203;}
	.st16{clip-path:url(#XMLID_13_);fill:#020203;}
	.st17{clip-path:url(#XMLID_14_);fill:#33304A;}
	.st18{fill:#202121;}
	.st19{fill:url(#SVGID_6_);}
	.st20{fill:#F8BCAA;}
	.st21{fill:#020203;}
	.st22{clip-path:url(#XMLID_15_);fill:#202121;}
	.st23{clip-path:url(#XMLID_15_);fill:#020203;}
	.st24{fill:url(#SVGID_7_);}
	.st25{clip-path:url(#XMLID_16_);fill:#020203;}
	.st26{clip-path:url(#XMLID_16_);fill:#202121;}
	.st27{fill:url(#SVGID_8_);}
	.st28{fill:url(#SVGID_9_);}
	.st29{fill:url(#SVGID_10_);}
	.st30{fill:url(#SVGID_11_);}
	.st31{fill:url(#SVGID_12_);}
	.st32{fill:url(#SVGID_13_);}
	.st33{fill:url(#SVGID_14_);}
</style>
<g>
	<defs>
		<rect id="SVGID_1_" x="-183" width="3500" height="2000"/>
	</defs>
	<clipPath id="SVGID_2_">
		<use xlink:href="#SVGID_1_"  style="overflow:visible;"/>
	</clipPath>
	<path class="st0" d="M2737.31,2035.07c-8.15,8.06-16.34,15.91-24.5,23.54H899.69c-3.65-7.79-7.16-15.61-10.51-23.54
		c-156.99-368.12-24.73-882.56,215.54-983.73c269.63-113.5,597.71,326.25,1053.54,178.81c100.34-32.45,150.07-74.98,262.51-72.89
		c218.52,4.04,470.88,172.81,519.38,393.28C2981.58,1738.98,2862.31,1911.59,2737.31,2035.07z"/>
	<path class="st1" d="M2658.95,830.73V729.69h-112.82c-8.38-56.41-30.59-108.29-62.98-152.24l79.75-79.75l-71.59-71.36l-79.74,79.74
		c-43.73-32.4-95.6-54.6-152.02-62.98V330.28h-101.27V443.1c-56.41,8.61-108.29,30.81-152.01,62.98l-79.75-79.74l-71.36,71.36
		l79.74,79.75c-32.4,43.95-54.6,95.83-62.98,152.24h-112.82v101.04h112.82c8.38,56.41,30.58,108.07,62.98,152.02l-79.74,79.74
		l71.36,71.59l79.75-79.75c43.72,32.17,95.6,54.37,152.01,62.98v112.82h101.27v-112.82c56.41-8.38,108.29-30.59,152.02-62.98
		l79.74,79.75l71.59-71.59l-79.75-79.74c32.4-43.95,54.6-95.6,62.98-152.02H2658.95z M2400.45,900.05
		c-18.12,29-42.59,53.47-71.59,71.59c-21.07,13.14-44.4,23.11-69.32,28.77c-16.31,3.63-33.08,5.66-50.52,5.66
		c-17.44,0-34.44-2.04-50.75-5.66c-24.92-5.66-48.25-15.63-69.1-29c-29-17.9-53.47-42.36-71.59-71.36
		c-13.37-21.07-23.11-44.4-28.77-69.32c-3.62-16.31-5.66-33.08-5.66-50.52c0-17.44,2.04-34.21,5.66-50.52
		c5.66-25.15,15.63-48.48,28.77-69.55c18.12-28.77,42.59-53.24,71.59-71.36c20.84-13.14,44.18-23.11,69.1-28.77
		c16.31-3.62,33.3-5.66,50.75-5.66c17.44,0,34.21,2.04,50.52,5.66c24.92,5.66,48.26,15.63,69.32,28.77
		c29,18.12,53.47,42.59,71.36,71.59c13.37,21.07,23.33,44.4,29,69.32c3.63,16.31,5.66,33.08,5.66,50.52
		c0,17.44-2.04,34.21-5.66,50.52C2423.56,855.65,2413.59,878.98,2400.45,900.05z"/>
	<path class="st2" d="M1696.36,459.06v-42.99h-48c-3.57-24-13.01-46.07-26.8-64.78l33.93-33.93L1625.03,287l-33.93,33.93
		c-18.6-13.78-40.68-23.23-64.68-26.8v-48h-43.09v48c-24,3.66-46.07,13.11-64.68,26.8L1384.72,287l-30.36,30.36l33.93,33.93
		c-13.78,18.7-23.23,40.77-26.8,64.78h-48v42.99h48c3.57,24,13.01,45.98,26.8,64.68l-33.93,33.93l30.36,30.46l33.93-33.93
		c18.6,13.69,40.68,23.13,64.68,26.8v48h43.09v-48c24-3.57,46.07-13.01,64.68-26.8l33.93,33.93l30.46-30.46l-33.93-33.93
		c13.78-18.7,23.23-40.68,26.8-64.68H1696.36z M1586.38,488.56c-7.71,12.34-18.12,22.75-30.46,30.46
		c-8.96,5.59-18.89,9.83-29.5,12.24c-6.94,1.54-14.07,2.41-21.5,2.41c-7.42,0-14.65-0.87-21.59-2.41
		c-10.6-2.41-20.53-6.65-29.4-12.34c-12.34-7.62-22.75-18.03-30.46-30.36c-5.69-8.96-9.83-18.89-12.24-29.5
		c-1.54-6.94-2.41-14.07-2.41-21.5c0-7.42,0.87-14.56,2.41-21.5c2.41-10.7,6.65-20.63,12.24-29.59
		c7.71-12.24,18.12-22.65,30.46-30.36c8.87-5.59,18.8-9.83,29.4-12.24c6.94-1.54,14.17-2.41,21.59-2.41c7.42,0,14.55,0.87,21.5,2.41
		c10.6,2.41,20.53,6.65,29.5,12.24c12.34,7.71,22.75,18.12,30.36,30.46c5.69,8.96,9.93,18.89,12.34,29.5
		c1.54,6.94,2.41,14.07,2.41,21.5c0,7.42-0.87,14.55-2.41,21.5C1596.21,469.67,1591.97,479.59,1586.38,488.56z"/>
	<path class="st3" d="M2261.11,2034.8c0.05,0.03,0.11,0.07,0.16,0.1c32.49-35.07,76.54-59.26,123.57-67.85
		c33.06-6.04,72.05-7.07,91.87-34.21c16.57-22.68,11.94-53.69,10.72-81.75c-3.71-84.77,85.29-87.77,146.5-113.5
		c67.97-28.57,123.43-72.57,137.04-148.88c18.84-105.77-80.51-91.57-149.96-70.08c-67.67,20.95-159.56-13.76-193.86,65.28
		c-16.75,38.59-27.09,80.63-70.22,97.97c-23.38,9.4-49.38,8.71-74.42,11.69c-41.18,4.9-74.29,24.76-76.02,69.84
		c-0.86,22.57,4.97,44.86,5.91,67.42c2.12,50.69-22.28,101.76-63.05,131.97C2186.6,1986.8,2223.85,2010.8,2261.11,2034.8z"/>
	<path class="st4" d="M2190.84,1989.17c32.02-43.12,66.09-84.66,102.1-124.4c35.93-39.81,74.14-77.48,114.03-113.17
		c40.09-35.47,81.93-68.94,125.9-99.32c21.96-15.22,44.41-29.71,67.42-43.24c11.48-6.8,23.13-13.31,34.92-19.55
		c11.8-6.21,23.72-12.22,35.96-17.49c-12.01,5.77-23.65,12.24-35.17,18.91c-11.5,6.69-22.84,13.66-34,20.9
		c-22.37,14.4-44.11,29.73-65.31,45.74c-42.46,31.97-82.61,66.86-120.87,103.6c-38.06,36.95-74.3,75.72-108.15,116.45
		c-33.93,40.66-65.82,82.95-95.59,126.65L2190.84,1989.17z"/>
	<path class="st5" d="M2322.25,1759.66c0.06,0.03,0.12,0.05,0.19,0.08c27.72-43.11,69.67-76.89,117.69-94.78
		c33.76-12.58,74.71-20.97,90.55-53.33c13.23-27.04,2.54-58.9-4.02-88.29c-19.8-88.77,73.55-108.62,133.33-147.25
		c66.38-42.89,116.66-99.73,116.71-182.82c0.05-115.16-102.14-81.55-171.41-45.84c-67.49,34.79-170.98,15.4-192.36,105.24
		c-10.44,43.86-13.47,90.17-55.74,116.56c-22.92,14.3-50.49,18.45-76.34,26.29c-42.54,12.9-73.76,40.06-67.13,87.96
		c3.32,23.98,13.65,46.41,18.88,70.05c11.74,53.1-4.44,111.58-41.8,151.1C2234.62,1722.97,2278.44,1741.31,2322.25,1759.66z"/>
	<path class="st4" d="M2239.54,1724.67c25.71-51.51,53.88-101.74,84.43-150.43c30.45-48.75,63.72-95.68,99.13-140.82
		c35.66-44.95,73.54-88.11,114.25-128.42c20.32-20.18,41.29-39.69,63.05-58.27c10.84-9.33,21.91-18.39,33.19-27.18
		c11.29-8.77,22.74-17.34,34.67-25.2c-11.59,8.34-22.67,17.36-33.57,26.56c-10.88,9.22-21.55,18.69-31.97,28.43
		c-20.9,19.39-40.97,39.65-60.35,60.52c-38.82,41.7-74.65,86.06-108.14,131.99c-33.24,46.14-64.21,93.84-92.3,143.18
		c-28.19,49.27-53.91,99.89-77.14,151.59L2239.54,1724.67z"/>
	<path class="st5" d="M1305.83,2034.8c-0.05,0.03-0.11,0.07-0.16,0.1c-32.49-35.07-76.54-59.26-123.57-67.85
		c-33.06-6.04-72.05-7.07-91.87-34.21c-16.57-22.68-11.94-53.69-10.72-81.75c3.71-84.77-85.29-87.77-146.5-113.5
		c-67.97-28.57-123.43-72.57-137.04-148.88c-18.84-105.77,80.51-91.57,149.96-70.08c67.67,20.95,159.56-13.76,193.86,65.28
		c16.75,38.59,27.09,80.63,70.22,97.97c23.38,9.4,49.38,8.71,74.41,11.69c41.18,4.9,74.29,24.76,76.02,69.84
		c0.86,22.57-4.97,44.86-5.91,67.42c-2.12,50.69,22.28,101.76,63.05,131.97C1380.33,1986.8,1343.08,2010.8,1305.83,2034.8z"/>
	<path class="st4" d="M1376.09,1989.17c-32.02-43.12-66.09-84.66-102.1-124.4c-35.93-39.81-74.14-77.48-114.03-113.17
		c-40.09-35.47-81.93-68.94-125.9-99.32c-21.96-15.22-44.41-29.71-67.42-43.24c-11.48-6.8-23.13-13.31-34.92-19.55
		c-11.8-6.21-23.72-12.22-35.96-17.49c12.01,5.77,23.65,12.24,35.17,18.91c11.5,6.69,22.84,13.66,34,20.9
		c22.37,14.4,44.11,29.73,65.31,45.74c42.46,31.97,82.61,66.86,120.87,103.6c38.06,36.95,74.3,75.72,108.15,116.45
		c33.93,40.66,65.82,82.95,95.59,126.65L1376.09,1989.17z"/>
	<path class="st3" d="M1244.68,1759.66c-0.06,0.03-0.12,0.05-0.19,0.08c-27.72-43.11-69.67-76.89-117.69-94.78
		c-33.76-12.58-74.71-20.97-90.55-53.33c-13.23-27.04-2.54-58.9,4.02-88.29c19.8-88.77-73.55-108.62-133.33-147.25
		c-66.38-42.89-116.66-99.73-116.71-182.82c-0.05-115.16,102.14-81.55,171.41-45.84c67.49,34.79,170.98,15.4,192.36,105.24
		c10.44,43.86,13.47,90.17,55.74,116.56c22.92,14.3,50.49,18.45,76.34,26.29c42.54,12.9,73.76,40.06,67.13,87.96
		c-3.32,23.98-13.65,46.41-18.88,70.05c-11.74,53.1,4.44,111.58,41.8,151.1C1332.31,1722.97,1288.5,1741.31,1244.68,1759.66z"/>
	<path class="st4" d="M1327.39,1724.67c-25.71-51.51-53.88-101.74-84.43-150.43c-30.45-48.75-63.72-95.68-99.13-140.82
		c-35.66-44.95-73.54-88.11-114.25-128.42c-20.32-20.18-41.29-39.69-63.05-58.27c-10.84-9.33-21.91-18.39-33.19-27.18
		c-11.29-8.77-22.74-17.34-34.67-25.2c11.59,8.34,22.67,17.36,33.57,26.56c10.88,9.22,21.55,18.69,31.97,28.43
		c20.9,19.39,40.97,39.65,60.35,60.52c38.82,41.7,74.65,86.06,108.14,131.99c33.23,46.14,64.21,93.84,92.3,143.18
		c28.19,49.27,53.91,99.89,77.14,151.59L1327.39,1724.67z"/>
	<path class="st6" d="M1806.51,525.89c-36,0-65.2,29.17-65.2,65.2c0,36,29.2,65.17,65.2,65.17c36,0,65.2-29.17,65.2-65.17
		C1871.72,555.06,1842.51,525.89,1806.51,525.89z M1806.51,622.65c-17.44,0-31.59-14.12-31.59-31.56
		c0-17.44,14.15-31.59,31.59-31.59s31.59,14.15,31.59,31.59C1838.1,608.53,1823.95,622.65,1806.51,622.65z"/>
	<g class="st7">
		<g>
			<g>
				<defs>
					<path id="XMLID_11_" d="M1737.47,1508.5c221.79-424.29,84.67-887.16,84.67-887.16h-299.23
						C1320.41,1134.83,1737.47,1508.5,1737.47,1508.5z"/>
				</defs>
				<linearGradient id="XMLID_2_" gradientUnits="userSpaceOnUse" x1="1665.7435" y1="1508.5015" x2="1665.7435" y2="621.3425">
					<stop  offset="7.027100e-04" style="stop-color:#E9E9E9"/>
					<stop  offset="0.0959" style="stop-color:#EBEBEC"/>
					<stop  offset="1" style="stop-color:#FFFFFF"/>
				</linearGradient>
				<use xlink:href="#XMLID_11_"  style="overflow:visible;fill:url(#XMLID_2_);"/>
				<clipPath id="XMLID_4_">
					<use xlink:href="#XMLID_11_"  style="overflow:visible;"/>
				</clipPath>
				<linearGradient id="SVGID_3_" gradientUnits="userSpaceOnUse" x1="1689.741" y1="773.2197" x2="1689.741" y2="1508.5015">
					<stop  offset="0" style="stop-color:#FDD224"/>
					<stop  offset="0.7635" style="stop-color:#F6A145"/>
				</linearGradient>
				<path class="st8" d="M1602.47,773.22c0,0-16.61,371.67,38.7,667.78l96.31,67.5c0,0,29.38-51,40.52-89.08
					c15.14-51.74-100.79-646.2-100.79-646.2H1602.47z"/>
			</g>
			<linearGradient id="SVGID_4_" gradientUnits="userSpaceOnUse" x1="1481.9271" y1="684.0225" x2="1624.1622" y2="684.0225">
				<stop  offset="7.027100e-04" style="stop-color:#E9E9E9"/>
				<stop  offset="0.0959" style="stop-color:#EBEBEC"/>
				<stop  offset="1" style="stop-color:#FFFFFF"/>
			</linearGradient>
			<polygon class="st9" points="1522.91,621.34 1481.93,746.7 1624.16,684.02 			"/>
			<linearGradient id="SVGID_5_" gradientUnits="userSpaceOnUse" x1="1624.1622" y1="649.066" x2="1822.1401" y2="649.066">
				<stop  offset="7.027100e-04" style="stop-color:#E9E9E9"/>
				<stop  offset="0.0959" style="stop-color:#EBEBEC"/>
				<stop  offset="1" style="stop-color:#FFFFFF"/>
			</linearGradient>
			<polygon class="st10" points="1624.16,684.02 1792.92,746.7 1822.14,621.34 1785.68,551.43 			"/>
			<path class="st11" d="M1899.36,4364.4c0,0,39.34-25.86,39.34-69.1v-38.39c0,43.24-66.44,53.75-66.44,53.75v53.74H1899.36z"/>
			<path class="st11" d="M1858.29,4406.18c-20.14,60.42-230.39,109.39-261.04,52.15c-2.37,7.37-4.06,15.25-3.79,24.08
				c2.44,78.75,243.21,27.03,264.83-37.83V4406.18z"/>
			<g>
				<defs>
					<path id="XMLID_7_" d="M1709.72,4224.22l-58.83,116.64c0,0-59.06,56.31-57.61,103.15c2.44,78.75,243.21,27.02,264.83-37.83
						c21.62-64.86,41.07-80.17,41.07-80.17s39.34-25.86,39.34-69.1l0.29-144.39C1938.83,4112.52,1872.26,4192.96,1709.72,4224.22z"
						/>
				</defs>
				<use xlink:href="#XMLID_7_"  style="overflow:visible;fill:#454062;"/>
				<clipPath id="XMLID_5_">
					<use xlink:href="#XMLID_7_"  style="overflow:visible;"/>
				</clipPath>
				<path class="st12" d="M1985.05,4074.69c0,0,5.41,186.35-309.87,182.22l70.26-108.36L1985.05,4074.69z"/>
			</g>
			<g>
				<path class="st13" d="M1899.36,4364.4"/>
			</g>
			<g>
				<defs>
					<path id="XMLID_3_" d="M1394.55,2199.23c0,0-71.86,508.05,115.5,1106.18L1683,4061.17l-21.62,123.41l48.34,39.64
						c0,0,232.7-3.6,229.1-111.7l-39.63-100.89l39.68-39.64l-169.39-745.86l45.94-697.21l-149.67-583.72L1394.55,2199.23z"/>
				</defs>
				<use xlink:href="#XMLID_3_"  style="overflow:visible;fill:#54547D;"/>
				<clipPath id="XMLID_12_">
					<use xlink:href="#XMLID_3_"  style="overflow:visible;"/>
				</clipPath>
				<path class="st14" d="M1859.1,3158.91c-9.06,16.21-442.82,610.74-442.82,610.74L1683,4061.17l255.87-454.94L1859.1,3158.91z"/>
				<polygon class="st15" points="1277.03,2404.62 1709.72,2435.13 1837.37,2782.95 1726.4,1807.51 1174.34,2295.23 				"/>
			</g>
			<g>
				<defs>
					<path id="XMLID_8_" d="M2174.22,2010.07l70.88,1083.66c0,0,5.41,94.58-129.71,270.24s-494.54,697.21-494.54,697.21
						s-168.45-213.49-108.6-379.6c17.03-47.26,78.87-14.95,78.87-14.95l351.31-667.49l-127.01-470.21l-107.15-232.77V1752.1
						L2174.22,2010.07z"/>
				</defs>
				<use xlink:href="#XMLID_8_"  style="overflow:visible;fill:#54547D;"/>
				<clipPath id="XMLID_13_">
					<use xlink:href="#XMLID_8_"  style="overflow:visible;"/>
				</clipPath>
				<path class="st16" d="M1837.37,2639.62l-47.96-497.13l114.57,272.94c0,0,267.54,70.26,381.66-210.14l-346.76-452.63
					l-351.4,338.61L1837.37,2639.62z"/>
			</g>
			<g>
				<path class="st11" d="M1386.46,4281.87c51.97,135.63,124.31,140.52,124.31,140.52h38.39c0,0-66.66-7.21-124.31-140.52
					c-28.82-66.66-14.41-125.21,0.68-182.19C1425.53,4099.69,1349.18,4184.58,1386.46,4281.87z"/>
				<path class="st11" d="M1430.26,3926.96c-36.96-85.39-30.64-165.8-23.78-205.54c2.6-15.07,15.84-25.91,31.13-25.91h-38.39
					c-15.3,0-28.53,10.84-31.13,25.91c-6.86,39.74-13.18,120.15,23.78,205.54H1430.26z"/>
			</g>
			<g>
				<defs>
					<path id="XMLID_6_" d="M1507.83,3695.5h-76.9c-15.3,0-28.53,10.84-31.13,25.91c-6.86,39.74-13.18,120.15,23.78,205.54
						c52.25,120.71-63.05,221.59-5.4,354.91c57.65,133.32,124.31,140.52,124.31,140.52l0,0c28.63,0,52.43-22.05,54.61-50.59
						l23.76-310.63C1620.85,4061.17,1471.37,3865.81,1507.83,3695.5z"/>
				</defs>
				<use xlink:href="#XMLID_6_"  style="overflow:visible;fill:#454062;"/>
				<clipPath id="XMLID_14_">
					<use xlink:href="#XMLID_6_"  style="overflow:visible;"/>
				</clipPath>
				<path class="st17" d="M1475.2,3658.52c0,0-46.84,336.9,169.35,426.98l-127.91-475.62L1475.2,3658.52z"/>
			</g>
			<path class="st18" d="M1522.91,621.34l-170.4,144.99l-181.57,50.28l231.43,701.53c0,0-74.73,441.17-55.45,725.64h385.72
				l26.52-323.04l142.24,323.04c0,0,255.54,40.98,320.63-214.56l-120.54-337.51l120.54-607.51c0,0,53.04-260.36,0-445.99
				l-151.88,10.85l-248.01-27.72c0,0,137.12,462.87-84.67,887.16C1737.47,1508.5,1320.41,1134.83,1522.91,621.34z"/>
			<linearGradient id="SVGID_6_" gradientUnits="userSpaceOnUse" x1="1638.4843" y1="773.2197" x2="1638.4843" y2="684.0225">
				<stop  offset="0" style="stop-color:#FDD224"/>
				<stop  offset="1" style="stop-color:#F6A145"/>
			</linearGradient>
			<polygon class="st19" points="1568.7,708.46 1602.47,773.22 1677.2,773.22 1708.27,715.26 1624.16,684.02 			"/>
			<path class="st20" d="M1487.97,105.66c0,0-65.51,276.83,0,386.72h42.08v128.96l94.11,62.68l157.54-132.59v-147.8
				c0,0,42.27-59.17,29.58-105.66c-12.68-46.49-46.49,0-46.49,0v-192.3H1487.97z"/>
			<path class="st21" d="M1486.47,118.34h193.8l-4.75,23.76c-7.28,36.41,9.22,73.44,41.16,92.37l3.74,2.22v35.53
				c0,22.77,24.6,37.05,44.38,25.75l0,0c0,0,31.7-40.15,46.49,0c0,0,10.57,44.38-29.58,105.66l0,0
				c39.84-54.94,61.28-121.07,61.28-188.94v-79.44c0,0-8.45-112-120.46-112h-236.06c-26.26,0-47.55,21.29-47.55,47.55v0
				C1438.93,97.06,1460.21,118.34,1486.47,118.34z"/>
			<g>
				<defs>
					<path id="XMLID_10_" d="M2222.03,638.22l461.19,554.46c23.75,28.55,27.37,68.81,9.1,101.14l-258.94,458.29l-173.58-132.7
						l192.86-337.51l-73.93-19.29l-27.26-67.45l-129.44-110.95C2222.03,1084.21,2245.21,835.03,2222.03,638.22z"/>
				</defs>
				<use xlink:href="#XMLID_10_"  style="overflow:visible;fill:#202121;"/>
				<clipPath id="XMLID_15_">
					<use xlink:href="#XMLID_10_"  style="overflow:visible;"/>
				</clipPath>
				<path class="st22" d="M2245.72,1140.86c0,0,85.85-110.49,21.56-367.64l-45.25,310.99"/>
				<polygon class="st23" points="2351.47,1195.16 2413.28,1227.25 2524.43,1156.53 2452.66,1281.89 2324.74,1314.03 				"/>
			</g>
			<linearGradient id="SVGID_7_" gradientUnits="userSpaceOnUse" x1="2320.0676" y1="1786.9154" x2="2320.0676" y2="1619.3975">
				<stop  offset="7.027100e-04" style="stop-color:#E9E9E9"/>
				<stop  offset="0.0959" style="stop-color:#EBEBEC"/>
				<stop  offset="1" style="stop-color:#FFFFFF"/>
			</linearGradient>
			<polygon class="st24" points="2259.8,1619.4 2226.85,1668.82 2377.98,1786.92 2413.28,1737.52 			"/>
			<path class="st20" d="M2226.85,1668.82l-119.75,8.44l-5.61,14.46l62.79,175.8l96.66-51.44c7.73-4.11,14.55-9.75,20.05-16.56
				l43.75-54.21L2226.85,1668.82z"/>
			<g>
				<defs>
					<path id="XMLID_9_" d="M1170.94,816.61l-60.27,450.81l-72.32,190.08l-249.1-11.68c0,0,20.07,166.34-57.07,216.97l0,0
						c5.79,15.92,20.92,26.52,37.86,26.52h384.02c0,0,154.83-11.39,194.34-334.76L1170.94,816.61z"/>
				</defs>
				<use xlink:href="#XMLID_9_"  style="overflow:visible;fill:#202121;"/>
				<clipPath id="XMLID_16_">
					<use xlink:href="#XMLID_9_"  style="overflow:visible;"/>
				</clipPath>
				<polygon class="st25" points="1348.4,1354.55 1222.96,974.3 1330.68,1453.62 				"/>
				<polyline class="st26" points="1038.35,1457.5 1170.94,1511.26 1018.18,1367.63 1010.14,1456.18 				"/>
			</g>
			<linearGradient id="SVGID_8_" gradientUnits="userSpaceOnUse" x1="746.3504" y1="1662.7896" x2="746.3504" y2="1441.0013">
				<stop  offset="7.027100e-04" style="stop-color:#E9E9E9"/>
				<stop  offset="0.0959" style="stop-color:#EBEBEC"/>
				<stop  offset="1" style="stop-color:#FFFFFF"/>
			</linearGradient>
			<path class="st27" d="M732.18,1662.79L732.18,1662.79c-18.2,0-32.95-14.75-32.95-32.95v-7.23c0,0,69.11-70.72,32.95-181.61
				l57.07,4.82C789.25,1445.82,816.56,1582.43,732.18,1662.79z"/>
			<path class="st20" d="M713.76,1603.44L589.95,1486l-258.76-61.07l327.87-5.85c17.65-0.31,32.14,13.91,32.14,31.57l0,0
				l48.82,22.41C740.02,1473.05,757.09,1540.64,713.76,1603.44z"/>
		</g>
	</g>
	<g class="st7">
		<g>
			
				<linearGradient id="SVGID_9_" gradientUnits="userSpaceOnUse" x1="392.5822" y1="157.7032" x2="392.5822" y2="923.6395" gradientTransform="matrix(1 0 0 1 119.9533 66.2063)">
				<stop  offset="0" style="stop-color:#FDD224"/>
				<stop  offset="1" style="stop-color:#F6A145"/>
			</linearGradient>
			<circle class="st28" cx="512.54" cy="728.62" r="479.9"/>
			
				<linearGradient id="SVGID_10_" gradientUnits="userSpaceOnUse" x1="392.584" y1="195.0401" x2="392.584" y2="783.4044" gradientTransform="matrix(1 0 0 1 119.9533 66.2063)">
				<stop  offset="0" style="stop-color:#F6A145"/>
				<stop  offset="1" style="stop-color:#FDD224"/>
			</linearGradient>
			<path class="st29" d="M872.46,728.62c0,198.78-161.14,359.92-359.92,359.92c-198.78,0-359.92-161.14-359.92-359.92
				c0-198.78,161.14-359.92,359.93-359.92C711.32,368.7,872.46,529.84,872.46,728.62z"/>
			<g>
				
					<linearGradient id="SVGID_11_" gradientUnits="userSpaceOnUse" x1="409.6078" y1="354.3347" x2="409.6078" y2="1033.6276" gradientTransform="matrix(1 0 0 1 119.9533 66.2063)">
					<stop  offset="0" style="stop-color:#FDD224"/>
					<stop  offset="1" style="stop-color:#F6A145"/>
				</linearGradient>
				<path class="st30" d="M499.74,642.06c6.17-4.04,16.91-6.13,32.2-6.27c32.12-0.3,68.25,8.96,108.39,27.77L673.65,576
					c-38.79-17.39-77.22-27.04-115.28-28.92l-0.39-41.33l-59.36,0.56l0.39,41.94c-40.5,4.87-70.78,16.89-90.87,36.06
					c-20.09,19.17-29.98,45.58-29.66,79.26c0.21,22.04,3.77,40.43,10.69,55.16c6.92,14.73,17.9,28,32.93,39.79
					c15.03,11.8,34.72,22.39,59.09,31.75c21.68,8.16,38.91,15.14,51.68,20.94c12.77,5.8,21.9,11.03,27.39,15.67
					c5.5,4.65,8.27,10.34,8.33,17.06c0.09,9.8-3.62,16.83-11.13,21.08c-7.52,4.25-19.39,6.46-35.65,6.61
					c-19.69,0.18-42.58-3.63-68.66-11.45c-26.08-7.82-50.26-17.64-72.55-29.48l0.95,101.62c38.98,17.6,79.42,27.22,121.31,28.87
					l0.54,57.25l59.36-0.55l-0.55-59.08c38.96-5.47,68.52-19.01,88.68-40.62c20.16-21.63,30.08-49.57,29.76-83.86
					c-0.29-30.41-9.22-55.17-26.79-74.29c-17.58-19.13-46.42-36.05-86.52-50.78c-19.77-6.96-35.21-13.09-46.35-18.4
					c-11.14-5.3-18.98-10.13-23.51-14.47c-4.53-4.34-6.83-9.89-6.89-16.62C490.51,651.99,493.56,646.1,499.74,642.06z"/>
				
					<linearGradient id="SVGID_12_" gradientUnits="userSpaceOnUse" x1="409.6061" y1="321.1832" x2="409.6061" y2="1000.4786" gradientTransform="matrix(1 0 0 1 119.9533 66.2063)">
					<stop  offset="0.3081" style="stop-color:#F6A145"/>
					<stop  offset="1" style="stop-color:#FDD224"/>
				</linearGradient>
				<path class="st31" d="M499.74,608.91c6.18-4.04,16.91-6.13,32.21-6.27c32.12-0.3,68.25,8.95,108.39,27.77l33.31-87.56
					c-38.79-17.39-77.22-27.03-115.28-28.92l-0.39-41.32l-59.37,0.55l0.39,41.94c-40.49,4.87-70.78,16.89-90.87,36.06
					c-20.09,19.17-29.98,45.58-29.66,79.26c0.21,22.04,3.77,40.43,10.69,55.16c6.92,14.73,17.9,28,32.93,39.79
					c15.03,11.8,34.72,22.38,59.09,31.75c21.69,8.17,38.91,15.15,51.68,20.95c12.77,5.8,21.9,11.02,27.39,15.66
					c5.49,4.65,8.27,10.34,8.33,17.06c0.1,9.8-3.62,16.83-11.13,21.08c-7.52,4.26-19.4,6.46-35.65,6.61
					c-19.69,0.18-42.58-3.63-68.65-11.45c-26.08-7.81-50.27-17.64-72.56-29.48l0.95,101.63c38.98,17.6,79.42,27.22,121.31,28.86
					l0.54,57.25l59.36-0.56l-0.55-59.08c38.96-5.47,68.52-19.01,88.68-40.62c20.16-21.62,30.08-49.57,29.76-83.85
					c-0.28-30.4-9.21-55.16-26.79-74.29c-17.58-19.13-46.42-36.04-86.52-50.77c-19.76-6.96-35.21-13.09-46.35-18.4
					c-11.14-5.3-18.98-10.12-23.51-14.47c-4.54-4.35-6.84-9.89-6.9-16.62C490.51,618.85,493.56,612.94,499.74,608.91z"/>
				
					<linearGradient id="SVGID_13_" gradientUnits="userSpaceOnUse" x1="537.0381" y1="456.5746" x2="537.0381" y2="616.5215" gradientTransform="matrix(1 0 0 1 119.9533 66.2063)">
					<stop  offset="0" style="stop-color:#FDD224"/>
					<stop  offset="1" style="stop-color:#F6A145"/>
				</linearGradient>
				<polygon class="st32" points="673.65,542.84 673.65,576 640.34,663.56 640.34,630.4 				"/>
			</g>
			
				<linearGradient id="SVGID_14_" gradientUnits="userSpaceOnUse" x1="392.5859" y1="246.2905" x2="392.5859" y2="554.0245" gradientTransform="matrix(1 0 0 1 119.9533 66.2063)">
				<stop  offset="0" style="stop-color:#F6A145"/>
				<stop  offset="1" style="stop-color:#FDD224;stop-opacity:0"/>
			</linearGradient>
			<path class="st33" d="M512.54,401.85c193.19,0,350.37,152.31,359.09,343.35c0.26-5.54,0.84-10.98,0.84-16.58
				c0-198.78-161.14-359.92-359.92-359.92c-198.78,0-359.93,161.14-359.93,359.92c0,5.6,0.58,11.04,0.84,16.58
				C162.18,554.17,319.36,401.85,512.54,401.85z"/>
		</g>
	</g>
</g>
</svg>
