<?xml version="1.0" encoding="utf-8"?>
<!-- Generator: Adobe Illustrator 19.0.0, SVG Export Plug-In . SVG Version: 6.00 Build 0)  -->
<svg version="1.1" id="Layer_1" xmlns="http://www.w3.org/2000/svg" xmlns:xlink="http://www.w3.org/1999/xlink" x="0px" y="0px"
	 viewBox="0 0 590.9 543.5" style="enable-background:new 0 0 590.9 543.5;" xml:space="preserve">
<style type="text/css">
	.st0{fill:#D33C27;}
	.st1{fill:#EF5323;}
	.st2{fill:#FBE937;}
	.st3{fill:#FAA819;}
</style>
<g>
	
		<rect id="XMLID_17_" x="283.3" y="-76.8" transform="matrix(-0.7071 -0.7071 0.7071 -0.7071 352.6461 689.543)" class="st0" width="71.7" height="697"/>
	<g>
		<polygon id="XMLID_16_" class="st1" points="452.3,260 393.4,260 406.4,289.3 		"/>
		<g>
			<polygon id="XMLID_15_" class="st1" points="396.2,518.7 452.3,518.7 481.8,486.2 413.4,495.1 			"/>
			<path class="st1" d="M543.7,297.9c-50.5-50.5-132.4-50.5-182.8,0s-50.5,132.4,0,182.8s132.4,50.5,182.8,0
				C594.2,430.3,594.2,348.4,543.7,297.9z M411.5,430c-22.5-22.5-22.5-58.9,0-81.5c22.5-22.5,58.9-22.5,81.5,0
				c22.5,22.5,22.5,58.9,0,81.5C470.5,452.6,434.1,452.6,411.5,430z"/>
			<path id="XMLID_12_" class="st2" d="M393.4,331.8v-71.7c-32.2,0.6-64.2,13.3-88.7,37.8c-50.5,50.5-50.5,132.4,0,182.8
				c24.5,24.5,56.6,37.2,88.7,37.8v-71.7C321.9,443.5,320.4,335.1,393.4,331.8z"/>
			<path id="XMLID_11_" class="st3" d="M487.5,480.8c-25.9,25.9-60.2,38.5-94.1,37.8v-71.7c49.1,2.3,79.7-55.1,46.5-94.8
				c-10.6-12.8-26.9-21.1-46.5-20.2v-71.7c0.9-0.1,1.8-0.1,2.7-0.1c33.1,0,66.2,12.6,91.5,37.9C538.1,348.4,538.1,430.3,487.5,480.8
				z"/>
		</g>
	</g>
	<g>
		<polygon id="XMLID_10_" class="st1" points="189.8,29.4 131,29.4 143.8,58.6 		"/>
		<g>
			<polygon id="XMLID_9_" class="st1" points="133.6,288 189.8,288 219.3,255.6 150.9,264.5 			"/>
			<path class="st1" d="M281.3,67.3c-50.5-50.5-132.4-50.5-182.8,0s-50.5,132.4,0,182.8s132.4,50.5,182.8,0S331.7,117.7,281.3,67.3z
				 M149.1,199.4c-22.5-22.5-22.5-58.9,0-81.5c22.5-22.5,58.9-22.5,81.5,0c22.5,22.5,22.5,58.9,0,81.5
				C208,221.9,171.5,221.9,149.1,199.4z"/>
			<path id="XMLID_6_" class="st2" d="M131,101.2V29.5c-32.2,0.6-64.2,13.3-88.7,37.8c-50.5,50.5-50.5,132.4,0,182.8
				c24.5,24.5,56.6,37.2,88.7,37.8v-71.7C57.8,212.7,59.4,104.5,131,101.2z"/>
			<path id="XMLID_5_" class="st3" d="M225.1,250.1c-25.9,25.9-60.2,38.5-94.1,37.8v-71.7c77.5,3.6,80.6-118.9,0-115V29.5
				c0.9-0.1,1.8-0.1,2.7-0.1c33.1,0,66.2,12.6,91.5,37.9C275.6,117.7,275.6,199.7,225.1,250.1z"/>
		</g>
	</g>
	<path id="XMLID_4_" class="st3" d="M363.9,260h2.7C365.7,260,364.8,260,363.9,260L363.9,260z"/>
	
		<rect id="XMLID_3_" x="235.9" y="-76.8" transform="matrix(-0.7071 -0.7071 0.7071 -0.7071 271.863 656.0556)" class="st2" width="71.7" height="697"/>
	<polygon id="XMLID_2_" class="st1" points="590.9,50.7 543.6,50.7 492.8,0 540.2,0 	"/>
	<polygon id="XMLID_1_" class="st0" points="50.7,543.6 98.1,543.6 74.3,519.9 	"/>
</g>
</svg>
