<?xml version="1.0" encoding="utf-8"?>
<!-- Generator: Adobe Illustrator 19.0.0, SVG Export Plug-In . SVG Version: 6.00 Build 0)  -->
<svg version="1.1" id="Layer_1" xmlns="http://www.w3.org/2000/svg" xmlns:xlink="http://www.w3.org/1999/xlink" x="0px" y="0px"
	 viewBox="0 0 545.4 421.1" style="enable-background:new 0 0 545.4 421.1;" xml:space="preserve">
<style type="text/css">
	.st0{fill:#592D0D;}
	.st1{fill:#4A250A;}
	.st2{fill:#B2D8DE;}
	.st3{fill:#E0AC7E;}
	.st4{fill:#F2C196;}
	.st5{fill:#EBB688;}
	.st6{fill:#FF3705;}
	.st7{fill:#FF5527;}
	.st8{fill:#F0FAFC;}
	.st9{fill:#096385;}
	.st10{fill:#08426A;}
	.st11{fill:#0174A3;}
	.st12{fill:#0B5975;}
	.st13{fill:#0A6D94;}
</style>
<g>
	<g>
		<path id="XMLID_51_" class="st0" d="M179,138.5c1.5-22.9,9.1-45.7,3.8-67c-12.9-29.7-73.1-44.2-102.1-38.8
			c-18.3,30.5-10.7,67.8-7.6,102.8L179,138.5z"/>
		<path id="XMLID_50_" class="st1" d="M126.4,137V35.7c24.4,6.1,49.5,18.3,57.1,35.8c5.3,20.6-2.3,44.2-3.8,67L126.4,137z"/>
		<path id="XMLID_49_" class="st2" d="M124.9,348.8c16,0,32-0.8,47.2-2.3V204l-5.3-2.3c-11.4-5.3-25.9-10.7-41.9-12.9V348.8z"/>
		<path id="XMLID_48_" class="st2" d="M124.9,348.8c-16,0-32-0.8-47.2-2.3V204l5.3-2.3c11.4-5.3,25.9-10.7,41.9-12.9V348.8z"/>
		<path id="XMLID_47_" class="st3" d="M91.4,160.6h67.8v41.1c-22.9,17.5-44.9,18.3-67.8,0V160.6z"/>
		<path id="XMLID_46_" class="st4" d="M97.5,76.8c-9.9-1.5-19,7.6-20.6,17.5c-1.5,9.1-3,17.5-3,26.7c0,0,1.5,0-0.8,0
			c-2.3,0-8.4,1.5-7.6,9.9c0,6.1,5.3,24.4,12.9,21.3c10.7,28.2,24.4,43.4,47.2,48.8c0-0.8,0.8,0,0.8-0.8V79.9
			C117.3,79.9,107.4,79.1,97.5,76.8z"/>
		<path id="XMLID_45_" class="st5" d="M153.9,76.8c9.9-1.5,19,7.6,20.6,17.5c1.5,9.1,3,17.5,3,26.7c0,0-1.5,0,0.8,0
			c2.3,0,8.4,1.5,7.6,9.9c0,6.1-5.3,24.4-12.9,21.3c-10.7,28.2-24.4,43.4-48,48.8V79.1C134.8,79.9,144,79.1,153.9,76.8z"/>
		<polygon id="XMLID_44_" class="st6" points="124.9,215.5 137.1,215.5 131.8,233.7 124.9,233.7 124.9,233.7 118.8,233.7 
			113.5,215.5 		"/>
		<polygon id="XMLID_43_" class="st7" points="131.8,233 136.3,302.3 124.9,322.9 113.5,302.3 118.8,233 		"/>
		<path id="XMLID_42_" class="st8" d="M124.9,215.5l-19.8,19L83,201.8l8.4-4.6C99.8,206.3,111.2,211.7,124.9,215.5z"/>
		<path id="XMLID_41_" class="st9" d="M124.9,321.3l-48-116.5c-44.2,19-72.4,33.5-76.9,89.1c19.8,35.8,67.8,64.7,125.7,64.7v-37.3
			H124.9z"/>
		<path id="XMLID_40_" class="st10" d="M38.8,334.3c1.5,1.5,3.8,2.3,5.3,3v-22.9L38.8,334.3z"/>
		<polygon id="XMLID_39_" class="st11" points="124.9,321.3 124.9,350.3 79.2,268.8 92.9,252 72.4,245.2 63.2,210.9 85.3,201 		"/>
		<path id="XMLID_38_" class="st8" d="M124.9,215.5l19.8,19l22.1-32.8l-8.4-4.6C150.8,206.3,139.4,211.7,124.9,215.5z"/>
		<path id="XMLID_37_" class="st12" d="M124.9,321.3l48.8-116.5c44.2,19,72.4,33.5,76.9,89.1c-19.8,35.8-67.8,64.7-125.7,64.7V321.3
			z"/>
		<path id="XMLID_36_" class="st10" d="M211,334.3c-1.5,1.5-3.8,2.3-5.3,3v-22.9L211,334.3z"/>
		<polygon id="XMLID_35_" class="st13" points="124.9,321.3 124.9,350.3 171.4,268.8 157.7,252 178.2,245.2 187.4,210.9 165.3,201 
					"/>
	</g>
	<g>
		<path id="XMLID_34_" class="st0" d="M473.8,138.5c1.5-22.9,9.1-45.7,3.8-67c-12.9-29.7-73.1-44.2-102.1-38.8
			c-18.3,30.5-10.7,67.8-7.6,102.8L473.8,138.5z"/>
		<path id="XMLID_33_" class="st1" d="M420.5,137V35.7c24.4,6.1,49.5,18.3,57.1,35.8c5.3,20.6-2.3,44.2-3.8,67L420.5,137z"/>
		<path id="XMLID_32_" class="st2" d="M419.7,348.8c16,0,32-0.8,47.2-2.3V204l-5.3-2.3c-11.4-5.3-25.9-10.7-41.9-12.9V348.8z"/>
		<path id="XMLID_31_" class="st2" d="M419.7,348.8c-16,0-32-0.8-47.2-2.3V204l5.3-2.3c11.4-5.3,25.9-10.7,41.9-12.9V348.8z"/>
		<path id="XMLID_30_" class="st3" d="M385.4,160.6h67.8v41.1c-22.9,17.5-44.9,18.3-67.8,0V160.6z"/>
		<path id="XMLID_29_" class="st4" d="M391.5,76.8c-9.9-1.5-19,7.6-20.6,17.5c-1.5,9.1-3,17.5-3,26.7c0,0,1.5,0-0.8,0
			c-2.3,0-8.4,1.5-7.6,9.9c0,6.1,5.3,24.4,12.9,21.3c10.7,28.2,24.4,43.4,47.2,48.8c0-0.8,0.8,0,0.8-0.8V79.9
			C411.3,79.9,402.2,79.1,391.5,76.8z"/>
		<path id="XMLID_28_" class="st5" d="M447.9,76.8c9.9-1.5,19,7.6,20.6,17.5c1.5,9.1,3,17.5,3,26.7c0,0-1.5,0,0.8,0
			c2.3,0,8.4,1.5,7.6,9.9c0,6.1-5.3,24.4-12.9,21.3c-10.7,28.2-24.4,43.4-48,48.8V79.1C428.9,79.9,438,79.1,447.9,76.8z"/>
		<polygon id="XMLID_27_" class="st6" points="419.7,215.5 431.1,215.5 425.8,233.7 419.7,233.7 419.7,233.7 412.9,233.7 
			408.3,215.5 		"/>
		<polygon id="XMLID_26_" class="st7" points="425.8,233 431.1,302.3 419.7,322.9 408.3,302.3 412.9,233 		"/>
		<path id="XMLID_25_" class="st8" d="M419.7,215.5l-19.8,19l-22.1-32.8l8.4-4.6C393.8,206.3,405.2,211.7,419.7,215.5z"/>
		<path id="XMLID_24_" class="st9" d="M419.7,321.3L371,204.8c-44.2,19-72.4,33.5-76.9,89.1c19.8,35.8,67.8,64.7,125.7,64.7V321.3z"
			/>
		<path id="XMLID_23_" class="st10" d="M333.6,334.3c1.5,1.5,3.8,2.3,5.3,3v-22.9L333.6,334.3z"/>
		<polygon id="XMLID_22_" class="st11" points="419.7,321.3 419.7,350.3 374,268.8 387.7,252 366.4,245.2 357.3,210.9 380.1,201 		
			"/>
		<path id="XMLID_21_" class="st8" d="M419.7,215.5l19.8,19l22.1-32.8l-8.4-4.6C444.9,206.3,433.4,211.7,419.7,215.5z"/>
		<path id="XMLID_20_" class="st12" d="M419.7,321.3l48.8-116.5c44.2,19,72.4,33.5,76.9,89.1c-19.8,35.8-67.8,64.7-125.7,64.7V321.3
			z"/>
		<path id="XMLID_19_" class="st10" d="M505.8,334.3c-1.5,1.5-3.8,2.3-5.3,3v-22.9L505.8,334.3z"/>
		<polygon id="XMLID_18_" class="st13" points="419.7,321.3 419.7,350.3 465.4,268.8 451.7,252 472.3,245.2 482.2,210.9 460.1,201 
					"/>
	</g>
	<g>
		<path id="XMLID_17_" class="st0" d="M342.8,137c2.3-28.9,12.2-59.4,5.3-86.1C331.4,12.8,253.7-5.4,216.3,1.4
			C192.7,41,202.6,89,207.2,134L342.8,137z"/>
		<path id="XMLID_16_" class="st1" d="M274.2,135.5V4.5c32,7.6,63.2,22.9,73.1,46.5c6.9,26.7-3,57.1-5.3,86.1L274.2,135.5z"/>
		<path id="XMLID_15_" class="st2" d="M273.5,408.9c20.6,0,41.1-0.8,60.9-3V222.3l-6.9-3c-15.2-6.9-33.5-14.5-54.1-16.8V408.9z"/>
		<path id="XMLID_14_" class="st2" d="M273.5,408.9c-20.6,0-41.1-0.8-60.9-3V222.3l6.9-3c15.2-6.9,33.5-14.5,54.1-16.8V408.9z"/>
		<path id="XMLID_13_" class="st3" d="M230,166h86.8v52.6c-28.9,22.9-57.9,23.6-86.8,0V166z"/>
		<path id="XMLID_12_" class="st4" d="M237.7,57.8c-12.2-2.3-24.4,9.9-26.7,22.9c-2.3,11.4-3.8,22.9-3.8,34.3c0,0,1.5,0-0.8,0
			c-2.3,0-10.7,1.5-9.9,12.9c0,8.4,7.6,31.2,16.8,27.4c13.7,35.8,31.2,56.4,60.9,63.2c0.8-0.8,0.8,0,1.5-0.8V61.6
			C262.8,61.6,250.6,60.8,237.7,57.8z"/>
		<path id="XMLID_11_" class="st5" d="M310,57.8c12.2-2.3,24.4,9.9,26.7,22.9c2.3,11.4,3.8,22.9,3.8,34.3c0,0-1.5,0,0.8,0
			c2.3,0,10.7,1.5,9.9,12.9c0,8.4-7.6,31.2-16.8,27.4c-13.7,36.6-32,56.4-61.7,63.2V61.6C284.9,61.6,297.1,60.8,310,57.8z"/>
		<polygon id="XMLID_10_" class="st6" points="273.5,236 287.9,236 281.8,259.6 273.5,259.6 273.5,259.6 264.3,259.6 258.2,236 		
			"/>
		<polygon id="XMLID_9_" class="st7" points="281.8,258.9 287.9,348 273.5,375.4 258.2,348 264.3,258.9 		"/>
		<path id="XMLID_8_" class="st8" d="M273.5,236l-25.9,25.1l-28.9-41.9l10.7-6.1C240.7,224.6,255.2,231.5,273.5,236z"/>
		<path id="XMLID_7_" class="st9" d="M273.5,372.4L211,222.3c-56.4,24.4-92.9,43.4-99.8,115c25.9,45.7,86.8,83.8,162.2,83.8
			L273.5,372.4L273.5,372.4z"/>
		<path id="XMLID_6_" class="st10" d="M162.2,389.9c2.3,1.5,4.6,3,6.9,4.6v-29.7L162.2,389.9z"/>
		<polygon id="XMLID_5_" class="st11" points="273.5,372.4 273.5,410.5 214,304.6 231.6,284 204.9,274.9 192.7,230.7 222.4,217.7 		
			"/>
		<path id="XMLID_4_" class="st8" d="M273.5,236l25.9,25.1l28.9-41.9l-10.7-6.1C306.2,224.6,291.7,231.5,273.5,236z"/>
		<path id="XMLID_3_" class="st12" d="M273.5,372.4l62.5-150.1c56.4,24.4,92.9,43.4,99.8,115c-25.9,45.7-86.8,83.8-162.2,83.8
			L273.5,372.4L273.5,372.4z"/>
		<path id="XMLID_2_" class="st10" d="M383.9,389.9c-2.3,1.5-4.6,3-6.9,4.6v-29.7L383.9,389.9z"/>
		<polygon id="XMLID_1_" class="st13" points="273.5,372.4 273.5,410.5 332.1,304.6 314.6,284 341.3,274.9 353.4,230.7 325.3,217.7 
					"/>
	</g>
</g>
</svg>
