<?xml version="1.0" encoding="utf-8"?>
<!-- Generator: Adobe Illustrator 19.0.0, SVG Export Plug-In . SVG Version: 6.00 Build 0)  -->
<svg version="1.1" id="Layer_1" xmlns="http://www.w3.org/2000/svg" xmlns:xlink="http://www.w3.org/1999/xlink" x="0px" y="0px"
	 viewBox="0 0 360.2 284.7" style="enable-background:new 0 0 360.2 284.7;" xml:space="preserve">
<style type="text/css">
	.st0{fill:url(#XMLID_77_);}
	.st1{fill:url(#XMLID_78_);}
	.st2{fill:url(#XMLID_79_);}
	.st3{fill:url(#XMLID_80_);}
	.st4{fill:url(#XMLID_81_);}
	.st5{fill:url(#XMLID_82_);}
	.st6{fill:url(#XMLID_83_);}
	.st7{fill:url(#XMLID_84_);}
	.st8{fill:url(#XMLID_85_);}
	.st9{fill:url(#XMLID_86_);}
	.st10{fill:url(#XMLID_87_);}
	.st11{fill:url(#XMLID_88_);}
	.st12{fill:url(#XMLID_89_);}
	.st13{fill:url(#XMLID_90_);}
	.st14{fill:url(#XMLID_91_);}
	.st15{fill:url(#XMLID_92_);}
	.st16{fill:url(#XMLID_93_);}
	.st17{fill:url(#XMLID_94_);}
	.st18{fill:url(#XMLID_95_);}
	.st19{fill:url(#XMLID_96_);}
	.st20{fill:url(#XMLID_97_);}
	.st21{fill:url(#XMLID_98_);}
	.st22{fill:url(#XMLID_99_);}
</style>
<g>
	<g>
		
			<linearGradient id="XMLID_77_" gradientUnits="userSpaceOnUse" x1="2526.7996" y1="-6.7253" x2="2541.395" y2="85.0843" gradientTransform="matrix(-1 0 0 -1 2663.217 267.4072)">
			<stop  offset="0" style="stop-color:#18459F"/>
			<stop  offset="1" style="stop-color:#2874B5"/>
		</linearGradient>
		<rect id="XMLID_23_" x="127.8" y="204.5" class="st0" width="6.8" height="73"/>
		
			<linearGradient id="XMLID_78_" gradientUnits="userSpaceOnUse" x1="2532.6548" y1="-7.6561" x2="2547.2502" y2="84.1543" gradientTransform="matrix(-1 0 0 -1 2663.217 267.4072)">
			<stop  offset="0" style="stop-color:#18459F"/>
			<stop  offset="1" style="stop-color:#2874B5"/>
		</linearGradient>
		<path id="XMLID_22_" class="st1" d="M101.6,278.9h59.1l0,0c0-2.4-2-4.4-4.4-4.4H106C103.5,274.5,101.6,276.5,101.6,278.9
			L101.6,278.9z"/>
		
			<linearGradient id="XMLID_79_" gradientUnits="userSpaceOnUse" x1="2521.3782" y1="-5.8635" x2="2535.9736" y2="85.9461" gradientTransform="matrix(-1 0 0 -1 2663.217 267.4072)">
			<stop  offset="0" style="stop-color:#18459F"/>
			<stop  offset="1" style="stop-color:#2874B5"/>
		</linearGradient>
		<path id="XMLID_21_" class="st2" d="M92.8,201.9c0,4,3.3,7.3,7.3,7.3h59.8c4,0,7.3-3.3,7.3-7.3v-6.6c0-4-3.3-7.3-7.3-7.3h-59.8
			c-4,0-7.3,3.3-7.3,7.3L92.8,201.9L92.8,201.9z"/>
	</g>
	<g>
		
			<linearGradient id="XMLID_80_" gradientUnits="userSpaceOnUse" x1="2407.9919" y1="-227.3595" x2="2493.6423" y2="115.2428" gradientTransform="matrix(-1 0 0 -1 2663.217 267.4072)">
			<stop  offset="0" style="stop-color:#F9B776"/>
			<stop  offset="1" style="stop-color:#F47960"/>
		</linearGradient>
		<path id="XMLID_20_" class="st3" d="M181,155.8c0,0,10,1.5,21.3,9.1c1.8,1.2,2.7,3.3,2.5,5.4c-1.3,10.7-6.9,45.3-25.2,79.2
			c-1,1.8-1.2,3.9-0.8,5.8l3.2,14.8l5.9,5.5h-15.2l-10.1-27.4l4.3-1.4c3.4-1.1,5.7-4.1,5.7-7.7l0.5-29.4c-0.4-13.1,8-22.1,8-22.1
			l-24.3-1.2L181,155.8z"/>
		
			<linearGradient id="XMLID_81_" gradientUnits="userSpaceOnUse" x1="2487.7529" y1="20.4428" x2="2480.6904" y2="-87.8454" gradientTransform="matrix(-1 0 0 -1 2663.217 267.4072)">
			<stop  offset="0" style="stop-color:#CB236D"/>
			<stop  offset="1" style="stop-color:#4C246D"/>
		</linearGradient>
		<path id="XMLID_19_" class="st4" d="M193.8,278.3c1.4,1.8-14.9,4.2-23.1,0.2c0,0-11.4-19.8-11.4-30.1c0,0,0.9-2.1,7.6-1.6
			c0,0,3.8,23.5,7.9,26.1c4,2.6,11.3,0.3,11.3,0.3S191.7,275.6,193.8,278.3z"/>
		
			<linearGradient id="XMLID_82_" gradientUnits="userSpaceOnUse" x1="2449.5989" y1="-10.6696" x2="2466.7288" y2="244.8544" gradientTransform="matrix(-1 0 0 -1 2663.217 267.4072)">
			<stop  offset="0" style="stop-color:#F9B776"/>
			<stop  offset="1" style="stop-color:#F47960"/>
		</linearGradient>
		<path id="XMLID_18_" class="st5" d="M159.9,188.1c0.1-0.2,26.1-3.1,26.1-3.1s-0.9,7.9,1.8,18.8c2.7,10.9,40.8,58,40.8,58l-4,12.7
			c12.4,4.3,24.6,5,36.5,2.2l-24.8-14.9c0,0-23.2-79.1-37.4-93.3l-26.1-9L159.9,188.1z"/>
		
			<linearGradient id="XMLID_83_" gradientUnits="userSpaceOnUse" x1="2464.4966" y1="101.3075" x2="2578.0154" y2="101.3075" gradientTransform="matrix(-1 0 0 -1 2663.217 267.4072)">
			<stop  offset="0" style="stop-color:#2B3582"/>
			<stop  offset="1" style="stop-color:#150E42"/>
		</linearGradient>
		<path id="XMLID_17_" class="st6" d="M101.6,142c0,0-15,22.3-16.2,32.5c-1.2,10.2,4.1,14.3,19.8,15c15.7,0.7,57.7,0.7,57.7,0.7
			l35.8-30.6c0,0-26.1-9.3-32.9-12C159,145,101.6,142,101.6,142z"/>
		
			<linearGradient id="XMLID_84_" gradientUnits="userSpaceOnUse" x1="2419.6084" y1="24.8869" x2="2412.5461" y2="-83.4013" gradientTransform="matrix(-1 0 0 -1 2663.217 267.4072)">
			<stop  offset="0" style="stop-color:#CB236D"/>
			<stop  offset="1" style="stop-color:#4C246D"/>
		</linearGradient>
		<path id="XMLID_16_" class="st7" d="M226.2,270.2c0,0-4.3,4.2-1.4,8.8c0,0,34.1,6.1,43.4,3.3c0,0-1.9-4.4-12.4-9.4l0.8,0.6
			c1,0.8,0.4,2.3-0.8,2.2C248.9,275.4,234.7,274.1,226.2,270.2z"/>
	</g>
	<g>
		
			<linearGradient id="XMLID_85_" gradientUnits="userSpaceOnUse" x1="2544.4695" y1="290.894" x2="2527.7554" y2="203.0858" gradientTransform="matrix(-1 0 0 -1 2663.217 267.4072)">
			<stop  offset="0" style="stop-color:#2B3582"/>
			<stop  offset="1" style="stop-color:#150E42"/>
		</linearGradient>
		<path id="XMLID_15_" class="st8" d="M166.5,0.7c-30.6-5.2-45,19.8-44,25c0.1,0.7-0.5,1.3-1.2,1.1c-3.5-1-11.3-2.1-16.1,3.9
			c-4.3,5.3-1.1,10.4,1.5,13.1c0.6,0.7,0.1,1.7-0.8,1.6c-6.5-0.8-20.5-1-22.8,12.1c-2.1,12.3,6.4,15.7,11.5,16.7
			c0.9,0.2,1.1,1.3,0.3,1.8c-2.5,1.6-5.4,4.9-4.3,11.4c1.9,10.2,21.9,9.4,24.3,9.3c0.1,0,0.3-0.1,0.4-0.1l32.2-18.4
			c0.2-0.1,0.4-0.4,0.5-0.7l6.5-37.5c0.1-0.3,0-0.6-0.3-0.8l21-29.6C182.8,8.6,166.8,0.8,166.5,0.7z"/>
		
			<linearGradient id="XMLID_86_" gradientUnits="userSpaceOnUse" x1="2514.5291" y1="195.3003" x2="2568.3674" y2="78.1224" gradientTransform="matrix(-1 0 0 -1 2663.217 267.4072)">
			<stop  offset="0" style="stop-color:#CB236D"/>
			<stop  offset="1" style="stop-color:#4C246D"/>
		</linearGradient>
		<path id="XMLID_14_" class="st9" d="M142.1,139.1c0,0,17.4-16.6,26-27.6c4.6-6,6.1-13.8,3.9-21c-3.9-13.2-10.9-26.9-11.5-29
			c-1-3.3-20.5-3.1-20.5-3.1s-38.5,25-53.6,67.3l17,5.3c0,0,10-16.9,20-27.6c0,0-17.2,22.7-17.8,32L142.1,139.1z"/>
		
			<linearGradient id="XMLID_87_" gradientUnits="userSpaceOnUse" x1="2516.8147" y1="181.0331" x2="2509.9751" y2="224.9197" gradientTransform="matrix(-1 0 0 -1 2663.217 267.4072)">
			<stop  offset="0" style="stop-color:#F9B776"/>
			<stop  offset="1" style="stop-color:#F47960"/>
		</linearGradient>
		<path id="XMLID_13_" class="st10" d="M162.9,43.2c-0.2,0.7-5.3,17.6-5.7,18c-0.4,0.3-11.2,0.9-16.3-2.5L153.5,34L162.9,43.2z"/>
		<g>
			
				<linearGradient id="XMLID_88_" gradientUnits="userSpaceOnUse" x1="1314.8977" y1="-4959.3184" x2="1359.6654" y2="-4989.7266" gradientTransform="matrix(-0.6042 -0.7968 0.7968 -0.6042 4929.6309 -1908.8607)">
				<stop  offset="0" style="stop-color:#F9B776"/>
				<stop  offset="1" style="stop-color:#F47960"/>
			</linearGradient>
			<path id="XMLID_12_" class="st11" d="M183.4,21.5c0,0,2.5,9.7-4.4,22.7c-6.8,13-14.6,13-18.8,8.8c-4.2-4.2-9.4-11.3-8.2-23.9
				C153.3,16.6,179.8,9.1,183.4,21.5z"/>
			
				<linearGradient id="XMLID_89_" gradientUnits="userSpaceOnUse" x1="1344.7571" y1="-4922.9492" x2="1328.0428" y2="-5010.7583" gradientTransform="matrix(-0.6042 -0.7968 0.7968 -0.6042 4929.6309 -1908.8607)">
				<stop  offset="0" style="stop-color:#2B3582"/>
				<stop  offset="1" style="stop-color:#150E42"/>
			</linearGradient>
			<path id="XMLID_11_" class="st12" d="M161.5,29.9c0,0,11.3-17.3,21.9-3.7l0.2,5c0,0,12.4-1.5,10.3-12.9
				C191.7,6.9,181-0.3,167.1,4.7c-13.8,4.9-21.8,10-22.7,19.9s7,7.7,7,7.7s2.6-7,6.2-7.7c3.7-0.7,2.7,4.7,2.7,4.7L161.5,29.9z"/>
			
				<linearGradient id="XMLID_90_" gradientUnits="userSpaceOnUse" x1="1317.5814" y1="-4955.3677" x2="1362.3488" y2="-4985.7759" gradientTransform="matrix(-0.6042 -0.7968 0.7968 -0.6042 4929.6309 -1908.8607)">
				<stop  offset="0" style="stop-color:#F9B776"/>
				<stop  offset="1" style="stop-color:#F47960"/>
			</linearGradient>
			<path id="XMLID_10_" class="st13" d="M158.6,29.6c0,0,5.9-8.9-0.1-10.2s-5.1,8.6-4.4,12.3L158.6,29.6z"/>
		</g>
		
			<linearGradient id="XMLID_91_" gradientUnits="userSpaceOnUse" x1="2544.9045" y1="131.2157" x2="2640.0813" y2="131.2157" gradientTransform="matrix(-1 0 0 -1 2663.217 267.4072)">
			<stop  offset="0" style="stop-color:#F9B776"/>
			<stop  offset="1" style="stop-color:#F47960"/>
		</linearGradient>
		<path id="XMLID_9_" class="st14" d="M177.6,140.3L164.8,128l-17.7,7.5c0,0-17.7,2.7-27.8,0c-10.1-2.7-10.1-2.7-10.1-2.7l-22.8-7.1
			l-3.6,10.1c-0.9,2.6,0,5.4,2.2,7c2,1.4,4.3,2.9,5.8,3.6c3,1.3,74.1-0.9,74.1-0.9L177.6,140.3z"/>
	</g>
	<g>
		
			<linearGradient id="XMLID_92_" gradientUnits="userSpaceOnUse" x1="2568.4019" y1="-56.2638" x2="2508.4856" y2="-72.6853" gradientTransform="matrix(-0.9988 -4.940000e-002 4.940000e-002 -0.9988 2684.6089 197.0697)">
			<stop  offset="0" style="stop-color:#2B3582"/>
			<stop  offset="1" style="stop-color:#150E42"/>
		</linearGradient>
		<path id="XMLID_8_" class="st15" d="M129.1,146.2c0.1,0,0.1,0,0.2,0l74.4-0.1c1.8,0,3.3-1.5,3.3-3.3c0-1.8-1.5-3.4-3.3-3.3
			l-74.4,0.1c-1.8,0-3.3,1.5-3.3,3.3C126,144.6,127.4,146.1,129.1,146.2z"/>
		
			<linearGradient id="XMLID_93_" gradientUnits="userSpaceOnUse" x1="2465.613" y1="179.7169" x2="2423.0999" y2="134.7829" gradientTransform="matrix(-1 0 0 -1 2663.217 267.4072)">
			<stop  offset="0" style="stop-color:#2B3582"/>
			<stop  offset="1" style="stop-color:#150E42"/>
		</linearGradient>
		<path id="XMLID_7_" class="st16" d="M270.5,78.6h-61.9c-4.6,0-8.7,2.6-10.7,6.8l-28.6,60.7h77c2.9,0,5.6-1.8,6.7-4.5l22.2-56.2
			C276.4,82.2,274,78.6,270.5,78.6z"/>
		
			<linearGradient id="XMLID_94_" gradientUnits="userSpaceOnUse" x1="2439.9099" y1="168.5284" x2="2420.6201" y2="139.4801" gradientTransform="matrix(-1 0 0 -1 2663.217 267.4072)">
			<stop  offset="0" style="stop-color:#53D8FF"/>
			<stop  offset="1" style="stop-color:#3840F7"/>
		</linearGradient>
		<path id="XMLID_6_" class="st17" d="M226.9,109.8c-1.3,4.2-0.3,8.2,2.2,9c2.6,0.8,5.7-1.9,7.1-6.1c1.3-4.2,0.3-8.2-2.2-9
			C231.4,102.9,228.2,105.6,226.9,109.8z"/>
	</g>
</g>
<g>
	
		<linearGradient id="XMLID_95_" gradientUnits="userSpaceOnUse" x1="2257.6265" y1="-303.5961" x2="2371.1245" y2="101.1437" gradientTransform="matrix(-1 0 0 -1 2663.217 267.4072)">
		<stop  offset="0" style="stop-color:#18459F"/>
		<stop  offset="1" style="stop-color:#2874B5"/>
	</linearGradient>
	<path id="XMLID_5_" class="st18" d="M331.9,284.7c0.3,0,0.6-0.1,1-0.2c1.2-0.6,1.8-2.1,1.3-3.5l-50.5-128.2c-0.5-1.3-1.9-2-3.2-1.4
		c-1.2,0.6-1.8,2.1-1.3,3.5l50.5,128.2C330,284.1,330.9,284.7,331.9,284.7z"/>
	
		<linearGradient id="XMLID_96_" gradientUnits="userSpaceOnUse" x1="2263.5515" y1="-305.2578" x2="2377.0498" y2="99.4824" gradientTransform="matrix(-1 0 0 -1 2663.217 267.4072)">
		<stop  offset="0" style="stop-color:#18459F"/>
		<stop  offset="1" style="stop-color:#2874B5"/>
	</linearGradient>
	<path id="XMLID_4_" class="st19" d="M274.9,284.7c0.9,0,1.8-0.6,2.2-1.6l50.5-128.2c0.5-1.3,0-2.9-1.3-3.5c-1.2-0.6-2.6,0-3.2,1.4
		l-50.5,128.2c-0.5,1.3,0,2.9,1.3,3.5C274.3,284.7,274.6,284.7,274.9,284.7z"/>
	
		<linearGradient id="XMLID_97_" gradientUnits="userSpaceOnUse" x1="2488.938" y1="-392.7552" x2="2602.4363" y2="11.9846" gradientTransform="matrix(-1 0 0 -1 2663.217 267.4072)">
		<stop  offset="0" style="stop-color:#18459F"/>
		<stop  offset="1" style="stop-color:#2874B5"/>
	</linearGradient>
	<path id="XMLID_3_" class="st20" d="M75.5,284.7c0.3,0,0.6-0.1,1-0.2c1.2-0.6,1.8-2.1,1.3-3.5L27.2,152.8c-0.5-1.3-1.9-2-3.2-1.4
		c-1.2,0.6-1.8,2.1-1.3,3.5l50.5,128.2C73.7,284.1,74.6,284.7,75.5,284.7z"/>
	
		<linearGradient id="XMLID_98_" gradientUnits="userSpaceOnUse" x1="2494.8606" y1="-394.4152" x2="2608.3589" y2="10.3249" gradientTransform="matrix(-1 0 0 -1 2663.217 267.4072)">
		<stop  offset="0" style="stop-color:#18459F"/>
		<stop  offset="1" style="stop-color:#2874B5"/>
	</linearGradient>
	<path id="XMLID_2_" class="st21" d="M18.6,284.7c0.9,0,1.8-0.6,2.2-1.6l50.5-128.2c0.5-1.3,0-2.9-1.3-3.5c-1.2-0.6-2.6,0-3.2,1.4
		L16.4,281.1c-0.5,1.3,0,2.9,1.3,3.5C18,284.7,18.3,284.7,18.6,284.7z"/>
</g>
<linearGradient id="XMLID_99_" gradientUnits="userSpaceOnUse" x1="2377.1252" y1="-260.7996" x2="2470.3391" y2="71.6055" gradientTransform="matrix(-1 0 0 -1 2663.217 267.4072)">
	<stop  offset="0" style="stop-color:#18459F"/>
	<stop  offset="1" style="stop-color:#2874B5"/>
</linearGradient>
<path id="XMLID_1_" class="st22" d="M-0.9,148.9c-0.2-0.8,0.1-1.7,0.9-2.4c0.8-0.7,2.1-1,3.4-1h351.9c1.7,0,3.3,0.6,4.2,1.5
	s1,2.2,0.3,3.2L355,157c-1.1,1.6-3.4,2.6-6,2.6H6.3c-2.4,0-4.5-1.1-4.9-2.7L-0.9,148.9z"/>
</svg>
