<?xml version="1.0" encoding="utf-8"?>
<!-- Generator: Adobe Illustrator 19.0.0, SVG Export Plug-In . SVG Version: 6.00 Build 0)  -->
<svg version="1.1" id="Layer_1" xmlns="http://www.w3.org/2000/svg" xmlns:xlink="http://www.w3.org/1999/xlink" x="0px" y="0px"
	 viewBox="0 0 386.1 388.1" style="enable-background:new 0 0 386.1 388.1;" xml:space="preserve">
<style type="text/css">
	.st0{fill:#677B8B;}
	.st1{fill:url(#XMLID_101_);}
	.st2{fill:url(#XMLID_102_);}
	.st3{fill:url(#XMLID_103_);}
	.st4{fill:url(#XMLID_104_);}
	.st5{fill:url(#XMLID_105_);}
	.st6{fill:#FFFFFF;}
	.st7{font-family:'Arial-BoldMT';}
	.st8{font-size:227.3977px;}
</style>
<g id="XMLID_13_">
	<g id="XMLID_20_">
		<g id="XMLID_25_">
			<path id="XMLID_10_" class="st0" d="M366,194.1c0,95.6-77.3,173-173,173s-173-77.3-173-173s77.3-173,173-173
				C288.3,21.1,366,98.9,366,194.1z"/>
			
				<radialGradient id="XMLID_101_" cx="397.249" cy="-1153.0948" r="255.5592" gradientTransform="matrix(0.821 0 0 0.821 -135.0827 1158.1083)" gradientUnits="userSpaceOnUse">
				<stop  offset="0.5054" style="stop-color:#FFFFFF"/>
				<stop  offset="0.548" style="stop-color:#FBFCFC"/>
				<stop  offset="0.5885" style="stop-color:#F0F3F4"/>
				<stop  offset="0.6281" style="stop-color:#DDE3E6"/>
				<stop  offset="0.667" style="stop-color:#C2CDD3"/>
				<stop  offset="0.6935" style="stop-color:#ABBBC2"/>
				<stop  offset="0.8387" style="stop-color:#3E4B54"/>
			</radialGradient>
			<path id="XMLID_9_" class="st1" d="M366,194.1c0,95.6-77.3,173-173,173s-173-77.3-173-173s77.3-173,173-173
				C288.3,21.1,366,98.9,366,194.1z"/>
			<g id="XMLID_26_">
				<g id="XMLID_27_">
					
						<radialGradient id="XMLID_102_" cx="239.3859" cy="-1225.7996" r="273.0959" gradientTransform="matrix(0.9542 0 0 0.9542 -34.6474 1325.4686)" gradientUnits="userSpaceOnUse">
						<stop  offset="0.7581" style="stop-color:#FFFFFF"/>
						<stop  offset="0.8444" style="stop-color:#D0D9DD"/>
						<stop  offset="0.9194" style="stop-color:#ABBBC2"/>
					</radialGradient>
					<path id="XMLID_28_" class="st2" d="M193.1,6.9c-104.3,0-189,84.7-189,189s84.7,189,189,189s189-84.7,189-189
						S297.4,6.9,193.1,6.9z M193.1,330.9c-74.6,0-135-60.4-135-135s60.4-135,135-135s135,60.4,135,135S267.2,330.9,193.1,330.9z"/>
				</g>
			</g>
		</g>
		<g id="XMLID_21_">
			
				<radialGradient id="XMLID_103_" cx="236.1075" cy="-1201.9132" r="223.9179" gradientTransform="matrix(0.9542 0 0 0.9542 -34.6474 1325.4686)" gradientUnits="userSpaceOnUse">
				<stop  offset="0.543" style="stop-color:#677B8B"/>
				<stop  offset="0.601" style="stop-color:#889AA6"/>
				<stop  offset="0.6559" style="stop-color:#ABBBC2"/>
				<stop  offset="0.6889" style="stop-color:#BECAD0"/>
				<stop  offset="0.778" style="stop-color:#EDF0F2"/>
				<stop  offset="0.8226" style="stop-color:#FFFFFF"/>
			</radialGradient>
			<path id="XMLID_22_" class="st3" d="M193.1,6.9c-104.3,0-189,84.7-189,189s84.7,189,189,189s189-84.7,189-189
				S297.4,6.9,193.1,6.9z M193.1,330.9c-74.6,0-135-60.4-135-135s60.4-135,135-135s135,60.4,135,135S267.2,330.9,193.1,330.9z"/>
		</g>
	</g>
	<g id="XMLID_16_">
		
			<radialGradient id="XMLID_104_" cx="236.1075" cy="-1201.9132" r="223.9179" gradientTransform="matrix(0.9542 0 0 0.9542 -34.6474 1325.4686)" gradientUnits="userSpaceOnUse">
			<stop  offset="0.3817" style="stop-color:#FFFFFF"/>
			<stop  offset="0.7143" style="stop-color:#FDFDFE"/>
			<stop  offset="0.8341" style="stop-color:#F6F8F9"/>
			<stop  offset="0.9192" style="stop-color:#EBEFF0"/>
			<stop  offset="0.9878" style="stop-color:#DAE1E4"/>
			<stop  offset="1" style="stop-color:#D6DEE1"/>
		</radialGradient>
		<path id="XMLID_17_" class="st4" d="M193.1,6.9c-104.3,0-189,84.7-189,189s84.7,189,189,189s189-84.7,189-189S297.4,6.9,193.1,6.9
			z M193.1,330.9c-74.6,0-135-60.4-135-135s60.4-135,135-135s135,60.4,135,135S267.2,330.9,193.1,330.9z"/>
	</g>
	<g id="XMLID_14_">
		
			<radialGradient id="XMLID_105_" cx="193.0667" cy="-1144.5254" r="121.209" gradientTransform="matrix(1 0 0 1 0 1383)" gradientUnits="userSpaceOnUse">
			<stop  offset="0" style="stop-color:#314354"/>
			<stop  offset="0.4858" style="stop-color:#2F4151"/>
			<stop  offset="0.7855" style="stop-color:#2A3A49"/>
			<stop  offset="1" style="stop-color:#23313D"/>
		</radialGradient>
		<path id="XMLID_2_" class="st5" d="M314.3,195.9c0,66.8-54.5,121.3-121.3,121.3S71.8,262.7,71.8,195.9S126.3,74.7,193.1,74.7
			S314.3,129.1,314.3,195.9z"/>
	</g>
</g>
<text id="XMLID_1_" transform="matrix(1 0 0 1 60.8458 278.1924)" class="st6 st7 st8"> +</text>
</svg>
