<?xml version="1.0" encoding="utf-8"?>
<!-- Generator: Adobe Illustrator 19.0.0, SVG Export Plug-In . SVG Version: 6.00 Build 0)  -->
<svg version="1.1" id="Layer_1" xmlns="http://www.w3.org/2000/svg" xmlns:xlink="http://www.w3.org/1999/xlink" x="0px" y="0px"
	 viewBox="0 0 369.3 382" style="enable-background:new 0 0 369.3 382;" xml:space="preserve">
<style type="text/css">
	.st0{fill:#677B8B;}
	.st1{fill:url(#XMLID_101_);}
	.st2{fill:url(#XMLID_102_);}
	.st3{fill:url(#XMLID_103_);}
	.st4{fill:url(#XMLID_104_);}
	.st5{fill:url(#XMLID_105_);}
	.st6{fill:#EE9200;}
	.st7{font-family:'Arial-BoldMT';}
	.st8{font-size:214.2833px;}
</style>
<g id="XMLID_39_">
	<g id="XMLID_46_">
		<g id="XMLID_51_">
			<path id="XMLID_10_" class="st0" d="M347.9,189.2c0,90.1-72.9,163-163,163s-163-72.9-163-163s72.9-163,163-163
				C274.6,26.2,347.9,99.5,347.9,189.2z"/>
			
				<radialGradient id="XMLID_101_" cx="423.4285" cy="-1157.5233" r="240.8206" gradientTransform="matrix(0.821 0 0 0.821 -164.652 1155.8254)" gradientUnits="userSpaceOnUse">
				<stop  offset="0.5054" style="stop-color:#FFFFFF"/>
				<stop  offset="0.548" style="stop-color:#FBFCFC"/>
				<stop  offset="0.5885" style="stop-color:#F0F3F4"/>
				<stop  offset="0.6281" style="stop-color:#DDE3E6"/>
				<stop  offset="0.667" style="stop-color:#C2CDD3"/>
				<stop  offset="0.6935" style="stop-color:#ABBBC2"/>
				<stop  offset="0.8387" style="stop-color:#3E4B54"/>
			</radialGradient>
			<path id="XMLID_9_" class="st1" d="M347.9,189.2c0,90.1-72.9,163-163,163s-163-72.9-163-163s72.9-163,163-163
				C274.6,26.2,347.9,99.5,347.9,189.2z"/>
			<g id="XMLID_52_">
				<g id="XMLID_53_">
					
						<radialGradient id="XMLID_102_" cx="238.6871" cy="-1228.0293" r="257.346" gradientTransform="matrix(0.9542 0 0 0.9542 -42.2132 1324.8845)" gradientUnits="userSpaceOnUse">
						<stop  offset="0.7581" style="stop-color:#FFFFFF"/>
						<stop  offset="0.8444" style="stop-color:#D0D9DD"/>
						<stop  offset="0.9194" style="stop-color:#ABBBC2"/>
					</radialGradient>
					<path id="XMLID_54_" class="st2" d="M184.9,12.8C86.6,12.8,6.8,92.6,6.8,190.9S86.6,369,184.9,369S363,289.2,363,190.9
						S283.2,12.8,184.9,12.8z M184.9,318.1c-70.3,0-127.2-56.9-127.2-127.2S114.6,63.7,184.9,63.7s127.2,56.9,127.2,127.2
						S254.7,318.1,184.9,318.1z"/>
				</g>
			</g>
		</g>
		<g id="XMLID_47_">
			
				<radialGradient id="XMLID_103_" cx="235.5977" cy="-1205.5205" r="211.0042" gradientTransform="matrix(0.9542 0 0 0.9542 -42.2132 1324.8845)" gradientUnits="userSpaceOnUse">
				<stop  offset="0.543" style="stop-color:#677B8B"/>
				<stop  offset="0.601" style="stop-color:#889AA6"/>
				<stop  offset="0.6559" style="stop-color:#ABBBC2"/>
				<stop  offset="0.6889" style="stop-color:#BECAD0"/>
				<stop  offset="0.778" style="stop-color:#EDF0F2"/>
				<stop  offset="0.8226" style="stop-color:#FFFFFF"/>
			</radialGradient>
			<path id="XMLID_48_" class="st3" d="M184.9,12.8C86.6,12.8,6.8,92.6,6.8,190.9S86.6,369,184.9,369S363,289.2,363,190.9
				S283.2,12.8,184.9,12.8z M184.9,318.1c-70.3,0-127.2-56.9-127.2-127.2S114.6,63.7,184.9,63.7s127.2,56.9,127.2,127.2
				S254.7,318.1,184.9,318.1z"/>
		</g>
	</g>
	<g id="XMLID_42_">
		
			<radialGradient id="XMLID_104_" cx="235.5977" cy="-1205.5205" r="211.0042" gradientTransform="matrix(0.9542 0 0 0.9542 -42.2132 1324.8845)" gradientUnits="userSpaceOnUse">
			<stop  offset="0.3817" style="stop-color:#FFFFFF"/>
			<stop  offset="0.7143" style="stop-color:#FDFDFE"/>
			<stop  offset="0.8341" style="stop-color:#F6F8F9"/>
			<stop  offset="0.9192" style="stop-color:#EBEFF0"/>
			<stop  offset="0.9878" style="stop-color:#DAE1E4"/>
			<stop  offset="1" style="stop-color:#D6DEE1"/>
		</radialGradient>
		<path id="XMLID_43_" class="st4" d="M184.9,12.8C86.6,12.8,6.8,92.6,6.8,190.9S86.6,369,184.9,369S363,289.2,363,190.9
			S283.2,12.8,184.9,12.8z M184.9,318.1c-70.3,0-127.2-56.9-127.2-127.2S114.6,63.7,184.9,63.7s127.2,56.9,127.2,127.2
			S254.7,318.1,184.9,318.1z"/>
	</g>
	<g id="XMLID_40_">
		
			<linearGradient id="XMLID_105_" gradientUnits="userSpaceOnUse" x1="70.5976" y1="-1192.0997" x2="299.1522" y2="-1192.0997" gradientTransform="matrix(1 0 0 1 0 1383)">
			<stop  offset="0" style="stop-color:#FFFF00"/>
			<stop  offset="0.2713" style="stop-color:#FFED00"/>
			<stop  offset="0.811" style="stop-color:#FFC000"/>
			<stop  offset="1" style="stop-color:#FFAE00"/>
		</linearGradient>
		<path id="XMLID_2_" class="st5" d="M299.2,190.9c0,63-51.3,114.3-114.3,114.3S70.6,253.9,70.6,190.9S121.9,76.6,184.9,76.6
			S299.2,127.9,299.2,190.9z"/>
	</g>
</g>
<text id="XMLID_1_" transform="matrix(1 0 0 1 60.2765 268.4237)" class="st6 st7 st8"> +</text>
</svg>
