<svg xmlns="http://www.w3.org/2000/svg" xmlns:xlink="http://www.w3.org/1999/xlink" width="161" height="161" viewBox="0 0 161 161">
  <defs>
    <linearGradient id="linear-gradient" x1="0.555" y1="0.134" x2="0.393" y2="1.207" gradientUnits="objectBoundingBox">
      <stop offset="0" stop-color="#f88c57"/>
      <stop offset="0.826" stop-color="#d65b2b"/>
      <stop offset="1" stop-color="#ce5021"/>
    </linearGradient>
    <linearGradient id="linear-gradient-2" x1="0.498" y1="1.352" x2="0.501" y2="0.237" gradientUnits="objectBoundingBox">
      <stop offset="0" stop-color="#f6de55"/>
      <stop offset="0.315" stop-color="#f6d355"/>
      <stop offset="0.867" stop-color="#f5b654"/>
      <stop offset="1" stop-color="#f5ae54"/>
    </linearGradient>
    <linearGradient id="linear-gradient-3" x1="0.357" y1="2.756" x2="0.538" y2="0.473" xlink:href="#linear-gradient-2"/>
    <linearGradient id="linear-gradient-4" x1="0.503" y1="-0.192" x2="0.478" y2="1.56" xlink:href="#linear-gradient-2"/>
  </defs>
  <g id="Group_69" data-name="Group 69" transform="translate(-1544 -179)">
    <circle id="Ellipse_18" data-name="Ellipse 18" cx="80.5" cy="80.5" r="80.5" transform="translate(1544 179)" fill="rgba(255,198,0,0.1)"/>
    <circle id="Ellipse_19" data-name="Ellipse 19" cx="56.5" cy="56.5" r="56.5" transform="translate(1568 203)" fill="rgba(255,198,0,0.1)"/>
    <circle id="Ellipse_20" data-name="Ellipse 20" cx="34.5" cy="34.5" r="34.5" transform="translate(1590 225)" fill="rgba(255,198,0,0.1)"/>
    <g id="OBJECTS" transform="translate(1561.861 219.545)">
      <g id="Group_67" data-name="Group 67" transform="translate(24.44 5.28)">
        <g id="Group_65" data-name="Group 65" transform="translate(0 20.605)">
          <g id="Group_64" data-name="Group 64" transform="translate(0 0)">
            <path id="Path_72" data-name="Path 72" d="M92.261,85.316h-61.3a6.523,6.523,0,0,1-6.522-6.522V42.982a6.523,6.523,0,0,1,6.522-6.522h61.3a6.523,6.523,0,0,1,6.522,6.522V78.793A6.523,6.523,0,0,1,92.261,85.316Z" transform="translate(-24.44 -36.46)" fill="url(#linear-gradient)"/>
            <path id="Path_73" data-name="Path 73" d="M98.361,85.316h-61.3a6.523,6.523,0,0,1-6.522-6.522V42.982a6.523,6.523,0,0,1,6.522-6.522h61.3a6.523,6.523,0,0,1,6.522,6.522V78.793A6.523,6.523,0,0,1,98.361,85.316Z" transform="translate(-26.509 -36.46)" fill="url(#linear-gradient-2)"/>
            <path id="Path_74" data-name="Path 74" d="M68.675,66.53,33.38,94.047a5.657,5.657,0,0,0,3.8,1.467h62.991a5.65,5.65,0,0,0,3.8-1.467Z" transform="translate(-27.472 -46.659)" fill="url(#linear-gradient-3)"/>
            <path id="Path_75" data-name="Path 75" d="M68.675,65.444l35.3-27.517a5.657,5.657,0,0,0-3.8-1.467H37.18a5.65,5.65,0,0,0-3.8,1.467Z" transform="translate(-27.472 -36.46)" fill="url(#linear-gradient-4)"/>
          </g>
          <path id="Path_76" data-name="Path 76" d="M33.38,38.68,68.675,66.2,103.964,38.68" transform="translate(-27.472 -37.213)" fill="none" stroke="#cc5833" stroke-miterlimit="10" stroke-width="1.442"/>
        </g>
        <g id="Group_66" data-name="Group 66" transform="translate(51.568 0)">
          <circle id="Ellipse_27" data-name="Ellipse 27" cx="14.571" cy="14.571" r="14.571" transform="translate(0 20.607) rotate(-45)" fill="#d4003c"/>
          <circle id="Ellipse_28" data-name="Ellipse 28" cx="14.571" cy="14.571" r="14.571" transform="translate(1.917 20.608) rotate(-45)" fill="#ff335b"/>
        </g>
      </g>
    </g>
    <text id="_0" data-name="0" transform="translate(1653 254)" fill="#fff" font-size="24" font-family="Arial-BoldMT, Arial" font-weight="700"><tspan x="0" y="0">0</tspan></text>
  </g>
</svg>
