<?xml version="1.0" encoding="utf-8"?>
<!-- Generator: Adobe Illustrator 19.0.0, SVG Export Plug-In . SVG Version: 6.00 Build 0)  -->
<svg version="1.1" id="Layer_1" xmlns="http://www.w3.org/2000/svg" xmlns:xlink="http://www.w3.org/1999/xlink" x="0px" y="0px"
	 viewBox="0 0 145.3 72.1" style="enable-background:new 0 0 145.3 72.1;" xml:space="preserve">
<style type="text/css">
	.st0{fill:url(#SVGID_1_);}
	.st1{fill:url(#SVGID_2_);}
	.st2{fill:url(#SVGID_3_);}
	.st3{fill:url(#SVGID_4_);}
	.st4{fill:url(#SVGID_5_);}
	.st5{fill:url(#SVGID_6_);}
	.st6{fill:url(#SVGID_7_);}
	.st7{fill:url(#SVGID_8_);}
	.st8{fill:#1C2426;}
	.st9{fill:url(#SVGID_9_);}
	.st10{fill:url(#SVGID_10_);}
	.st11{fill:url(#SVGID_11_);}
	.st12{fill:url(#SVGID_12_);}
	.st13{fill:#454545;}
	.st14{fill:url(#SVGID_13_);}
	.st15{fill:url(#SVGID_14_);}
	.st16{fill:url(#SVGID_15_);}
	.st17{fill:url(#SVGID_16_);}
	.st18{fill:url(#SVGID_17_);}
	.st19{fill:url(#SVGID_18_);}
	.st20{fill:url(#SVGID_19_);}
	.st21{fill:url(#SVGID_20_);}
	.st22{fill:#969696;}
	.st23{fill:#A8A8A8;}
	.st24{fill:#A15600;}
	.st25{fill:url(#SVGID_21_);}
	.st26{fill:#E0E0E0;}
	.st27{fill:url(#SVGID_22_);}
	.st28{fill:url(#SVGID_23_);}
	.st29{fill:url(#SVGID_24_);}
	.st30{fill:url(#SVGID_25_);}
	.st31{fill:url(#SVGID_26_);}
	.st32{fill:url(#SVGID_27_);}
	.st33{fill:url(#SVGID_28_);}
	.st34{fill:url(#SVGID_29_);}
	.st35{fill:url(#SVGID_30_);}
	.st36{fill:url(#SVGID_31_);}
	.st37{fill:url(#SVGID_32_);}
	.st38{fill:url(#SVGID_33_);}
	.st39{fill:url(#SVGID_34_);}
	.st40{fill:url(#SVGID_35_);}
	.st41{fill:url(#SVGID_36_);}
	.st42{fill:url(#SVGID_37_);}
	.st43{fill:url(#SVGID_38_);}
	.st44{fill:url(#SVGID_39_);}
	.st45{fill:url(#SVGID_40_);}
	.st46{fill:url(#SVGID_41_);}
	.st47{fill:url(#SVGID_42_);}
</style>
<g>
	<g>
		<g>
			<g>
				
					<linearGradient id="SVGID_1_" gradientUnits="userSpaceOnUse" x1="103.0648" y1="-4.0158" x2="103.0648" y2="55.9842" gradientTransform="matrix(1 0 0 1 0 3)">
					<stop  offset="0" style="stop-color:#FFFFFF"/>
					<stop  offset="2.553270e-002" style="stop-color:#FAFAFA"/>
					<stop  offset="9.322030e-002" style="stop-color:#F2F2F2"/>
					<stop  offset="0.2649" style="stop-color:#FBFBFB"/>
					<stop  offset="0.4831" style="stop-color:#FFFFFF"/>
					<stop  offset="0.7128" style="stop-color:#FDFDFD"/>
					<stop  offset="0.7954" style="stop-color:#F6F6F6"/>
					<stop  offset="0.822" style="stop-color:#F2F2F2"/>
					<stop  offset="0.9278" style="stop-color:#F0F0F0"/>
					<stop  offset="0.9658" style="stop-color:#E9E9E9"/>
					<stop  offset="0.9929" style="stop-color:#DEDEDE"/>
					<stop  offset="1" style="stop-color:#D9D9D9"/>
				</linearGradient>
				<path class="st0" d="M144.1,5c0-2.8-2.3-5-5-5H62v60h82.2V5H144.1z"/>
				
					<linearGradient id="SVGID_2_" gradientUnits="userSpaceOnUse" x1="12.4744" y1="0.1855" x2="62.3317" y2="56.0256" gradientTransform="matrix(1 0 0 1 0 3)">
					<stop  offset="0" style="stop-color:#E6E6E6"/>
					<stop  offset="0.2754" style="stop-color:#FAFAFA"/>
					<stop  offset="0.4237" style="stop-color:#F7F7F7"/>
				</linearGradient>
				<path class="st1" d="M50.2,0C47.4,0,38-0.2,33.1,5.7L15.3,25.2l-9.9,5.9L0.1,44v3.9h13.8l3.4,3.9L14.8,60c1.9,0,3.2,0,3.2,0h44
					V0L50.2,0L50.2,0z"/>
				
					<linearGradient id="SVGID_3_" gradientUnits="userSpaceOnUse" x1="31.0148" y1="-3.3358" x2="31.0148" y2="57.1633" gradientTransform="matrix(1 0 0 1 0 3)">
					<stop  offset="0" style="stop-color:#FFFFFF"/>
					<stop  offset="2.553270e-002" style="stop-color:#FAFAFA"/>
					<stop  offset="9.322030e-002" style="stop-color:#F2F2F2"/>
					<stop  offset="0.2649" style="stop-color:#FBFBFB"/>
					<stop  offset="0.4831" style="stop-color:#FFFFFF"/>
					<stop  offset="0.7128" style="stop-color:#FDFDFD"/>
					<stop  offset="0.7954" style="stop-color:#F6F6F6"/>
					<stop  offset="0.822" style="stop-color:#F2F2F2"/>
					<stop  offset="0.9278" style="stop-color:#F0F0F0"/>
					<stop  offset="0.9658" style="stop-color:#E9E9E9"/>
					<stop  offset="0.9929" style="stop-color:#DEDEDE"/>
					<stop  offset="1" style="stop-color:#D9D9D9"/>
				</linearGradient>
				<path class="st2" d="M50.2,0C47.4,0,38-0.2,33.1,5.7L15.3,25.2l-9.9,5.9L0.1,44v3.9h13.8l3.4,3.9L14.8,60c1.9,0,3.2,0,3.2,0h44
					V0L50.2,0L50.2,0z"/>
				
					<linearGradient id="SVGID_4_" gradientUnits="userSpaceOnUse" x1="77.5148" y1="44.8723" x2="77.5148" y2="46.2352" gradientTransform="matrix(1 0 0 1 0 3)">
					<stop  offset="0" style="stop-color:#B5B5B5"/>
					<stop  offset="6.168253e-002" style="stop-color:#C2C2C2"/>
					<stop  offset="0.1766" style="stop-color:#E6E6E6"/>
					<stop  offset="0.2119" style="stop-color:#F2F2F2"/>
					<stop  offset="0.5274" style="stop-color:#E8E8E8"/>
					<stop  offset="0.7585" style="stop-color:#DEDEDE"/>
					<stop  offset="0.8255" style="stop-color:#E9E9E9"/>
					<stop  offset="0.9195" style="stop-color:#FFFFFF"/>
					<stop  offset="1" style="stop-color:#FFFFFF"/>
				</linearGradient>
				<rect x="41.7" y="47.9" class="st3" width="71.7" height="1.4"/>
				
					<linearGradient id="SVGID_5_" gradientUnits="userSpaceOnUse" x1="8.9824" y1="44.7966" x2="8.9824" y2="58.1617" gradientTransform="matrix(1 0 0 1 0 3)">
					<stop  offset="0" style="stop-color:#5F5A5E"/>
					<stop  offset="0.2754" style="stop-color:#262529"/>
					<stop  offset="0.4762" style="stop-color:#29282C"/>
					<stop  offset="0.6286" style="stop-color:#333135"/>
					<stop  offset="0.7647" style="stop-color:#434144"/>
					<stop  offset="0.8093" style="stop-color:#4A484B"/>
				</linearGradient>
				<path class="st4" d="M13.9,47.9H0.1v9.6c0,0-0.7,2.5,2.5,2.5c2.1,0,9.2,0,13,0l2.4-7.8L13.9,47.9z"/>
				<path d="M29.4,45.9c-5.6,0-10.5,3.3-12.8,8.1l-1.2,3.9c-0.1,0.7-0.2,1.4-0.2,2.1c1.6,0,2.7,0,2.7,0h25.6
					C43.5,52.2,37.1,45.9,29.4,45.9z"/>
				
					<radialGradient id="SVGID_6_" cx="29.3238" cy="56.9675" r="12.1039" gradientTransform="matrix(1 0 0 1 0 3)" gradientUnits="userSpaceOnUse">
					<stop  offset="0.6992" style="stop-color:#504E51"/>
					<stop  offset="0.7695" style="stop-color:#494749"/>
					<stop  offset="0.8763" style="stop-color:#343334"/>
					<stop  offset="1" style="stop-color:#141414"/>
				</radialGradient>
				<circle class="st5" cx="29.4" cy="60" r="12.1"/>
				
					<radialGradient id="SVGID_7_" cx="29.3223" cy="56.968" r="7.0561" gradientTransform="matrix(1 0 0 1 0 3)" gradientUnits="userSpaceOnUse">
					<stop  offset="0" style="stop-color:#FFFFFF"/>
					<stop  offset="0.1027" style="stop-color:#DCDCDC"/>
					<stop  offset="0.1904" style="stop-color:#C5C5C5"/>
					<stop  offset="0.2458" style="stop-color:#BDBDBD"/>
					<stop  offset="0.2838" style="stop-color:#C9C9C9"/>
					<stop  offset="0.3662" style="stop-color:#DFDFDF"/>
					<stop  offset="0.4463" style="stop-color:#ECECEC"/>
					<stop  offset="0.5212" style="stop-color:#F0F0F0"/>
					<stop  offset="0.6776" style="stop-color:#F0F0F0"/>
					<stop  offset="0.7034" style="stop-color:#F0F0F0"/>
					<stop  offset="0.8459" style="stop-color:#EEEEEE"/>
					<stop  offset="0.8972" style="stop-color:#E7E7E7"/>
					<stop  offset="0.9338" style="stop-color:#DCDCDC"/>
					<stop  offset="0.9634" style="stop-color:#CBCBCB"/>
					<stop  offset="0.9884" style="stop-color:#B5B5B5"/>
					<stop  offset="1" style="stop-color:#A8A8A8"/>
				</radialGradient>
				<path class="st6" d="M29.4,67c-3.9,0-7.1-3.2-7.1-7.1c0-3.9,3.2-7.1,7.1-7.1s7.1,3.2,7.1,7.1C36.4,63.9,33.2,67,29.4,67z"/>
				
					<linearGradient id="SVGID_8_" gradientUnits="userSpaceOnUse" x1="25.1013" y1="51.5714" x2="33.8331" y2="62.486" gradientTransform="matrix(1 0 0 1 0 3)">
					<stop  offset="0" style="stop-color:#FFFFFF"/>
					<stop  offset="0.1136" style="stop-color:#FDFDFD"/>
					<stop  offset="0.1586" style="stop-color:#F6F6F6"/>
					<stop  offset="0.1914" style="stop-color:#EAEAEA"/>
					<stop  offset="0.2183" style="stop-color:#D9D9D9"/>
					<stop  offset="0.2413" style="stop-color:#C2C2C2"/>
					<stop  offset="0.2458" style="stop-color:#BDBDBD"/>
					<stop  offset="0.2492" style="stop-color:#C1C1C1"/>
					<stop  offset="0.2741" style="stop-color:#D8D8D8"/>
					<stop  offset="0.3027" style="stop-color:#E9E9E9"/>
					<stop  offset="0.3373" style="stop-color:#F6F6F6"/>
					<stop  offset="0.3837" style="stop-color:#FDFDFD"/>
					<stop  offset="0.4915" style="stop-color:#FFFFFF"/>
					<stop  offset="0.9281" style="stop-color:#FFFFFF"/>
					<stop  offset="1" style="stop-color:#FFFFFF"/>
				</linearGradient>
				<path class="st7" d="M29.4,67c-3.9,0-7.1-3.2-7.1-7.1c0-3.9,3.2-7.1,7.1-7.1s7.1,3.2,7.1,7.1C36.4,63.9,33.2,67,29.4,67z"/>
				<circle class="st8" cx="29.4" cy="60" r="2"/>
				<g>
					
						<image style="overflow:visible;enable-background:new    ;" width="263" height="8" xlink:href="Dashboard/Dashboard-V2/Home SVG/7DF8DF26.png"  transform="matrix(0.2363 0 0 0.12 43.0494 56.994)">
					</image>
				</g>
				<g>
					
						<image style="overflow:visible;enable-background:new    ;" width="342" height="217" xlink:href="Dashboard/Dashboard-V2/Home SVG/7DF8DF2A.png"  transform="matrix(0.2365 0 0 0.2378 57.8004 5.0843)">
					</image>
				</g>
				<g>
					
						<image style="overflow:visible;enable-background:new    ;" width="142" height="221" xlink:href="Dashboard/Dashboard-V2/Home SVG/7DF8DF2D.png"  transform="matrix(0.2383 0 0 0.2378 23.9655 5.0115)">
					</image>
				</g>
				
					<linearGradient id="SVGID_9_" gradientUnits="userSpaceOnUse" x1="15.7648" y1="31.3524" x2="1.8648" y2="31.3524" gradientTransform="matrix(1 0 0 1 0 3)">
					<stop  offset="0" style="stop-color:#D4D4D4"/>
					<stop  offset="0.163" style="stop-color:#D0D0D0"/>
					<stop  offset="0.3138" style="stop-color:#C5C5C5"/>
					<stop  offset="0.4599" style="stop-color:#B2B2B2"/>
					<stop  offset="0.6021" style="stop-color:#989898"/>
					<stop  offset="0.6483" style="stop-color:#8E8E8E"/>
					<stop  offset="0.7672" style="stop-color:#7F7F7F"/>
					<stop  offset="0.8093" style="stop-color:#787878"/>
					<stop  offset="0.9873" style="stop-color:#292929"/>
				</linearGradient>
				<path class="st9" d="M15.8,29L12,37.4c0,0-5.1,3.3-10.1,2l2.8-7L15.8,29z"/>
				
					<linearGradient id="SVGID_10_" gradientUnits="userSpaceOnUse" x1="7.4971" y1="30.635" x2="4.6406" y2="29.5049" gradientTransform="matrix(1 0 0 1 0 3)">
					<stop  offset="1.271190e-002" style="stop-color:#292929"/>
					<stop  offset="0.1175" style="stop-color:#2F2F2F"/>
					<stop  offset="0.2545" style="stop-color:#3F3F3F"/>
					<stop  offset="0.4092" style="stop-color:#5A5A5A"/>
					<stop  offset="0.5771" style="stop-color:#808080"/>
					<stop  offset="0.7555" style="stop-color:#B0B0B0"/>
					<stop  offset="0.9402" style="stop-color:#EAEAEA"/>
					<stop  offset="1" style="stop-color:#FFFFFF"/>
				</linearGradient>
				<path class="st10" d="M15.2,29.6l-3.6,7.5c-0.6,0.4-3.8,2.2-7.3,2.2c-0.6,0-1.2-0.1-1.7-0.2l2.5-6.2L15.2,29.6L15.2,29.6z
					 M15.7,28.9l-11,3.6l-2.8,7c0.8,0.2,1.6,0.3,2.4,0.3c4.1,0,7.7-2.3,7.7-2.3l4-8.3C16.1,28.9,16,28.8,15.7,28.9z"/>
				
					<linearGradient id="SVGID_11_" gradientUnits="userSpaceOnUse" x1="137.3148" y1="44.0403" x2="137.3148" y2="56.8481" gradientTransform="matrix(1 0 0 1 0 3)">
					<stop  offset="0" style="stop-color:#5F5A5E"/>
					<stop  offset="0.2754" style="stop-color:#28282B"/>
					<stop  offset="0.4808" style="stop-color:#2B2B2E"/>
					<stop  offset="0.6367" style="stop-color:#353437"/>
					<stop  offset="0.7759" style="stop-color:#454346"/>
					<stop  offset="0.8093" style="stop-color:#4A484B"/>
				</linearGradient>
				<polygon class="st11" points="145.3,50.4 145.3,47.9 144.1,46.7 135.5,46.7 129.4,50.4 132.3,60 144.1,60 145,57 144.1,52.9 
					144.1,50.6 				"/>
				<g>
					
						<linearGradient id="SVGID_12_" gradientUnits="userSpaceOnUse" x1="40.2648" y1="3.619" x2="40.2648" y2="21.8192" gradientTransform="matrix(1 0 0 1 0 3)">
						<stop  offset="0" style="stop-color:#A3DFFA"/>
						<stop  offset="1" style="stop-color:#53B8E6"/>
					</linearGradient>
					<path class="st12" d="M55.1,6.7c0,0-11.3-1.1-18.8,6.4c-8.6,8.6-10.8,11.8-10.8,11.8h29.6V6.7z"/>
					<path class="st13" d="M54.8,6.9c-1.4-0.1-2.8,0-4.3,0.1c-1.5,0.2-3,0.4-4.4,0.8c-2.9,0.8-5.7,2.1-8,3.9c-0.6,0.5-1.1,1-1.7,1.5
						l-1.6,1.6l-3.2,3.3c-0.5,0.5-1,1.1-1.5,1.7l-1.5,1.7l-0.8,0.8l-0.7,0.9c-0.5,0.6-1,1.2-1.4,1.8l0,0l-0.2-0.4l29.6-0.3l0,0
						l-0.5,0.5L54.8,6.9z M55.3,6.7l0.3,18.1c0,0.3-0.2,0.5-0.5,0.5l0,0l0,0L25.5,25l0,0c-0.1,0-0.2-0.1-0.2-0.2c0-0.1,0-0.1,0-0.1
						l0,0c0.5-0.6,1-1.2,1.4-1.8l0.7-0.9l0.8-0.8l1.5-1.7c0.5-0.6,1-1.1,1.5-1.7l3.2-3.3l1.6-1.6c0.6-0.5,1.1-1.1,1.7-1.5
						c2.4-1.9,5.3-3.2,8.2-4c1.5-0.4,3-0.7,4.5-0.8c1.5-0.2,3-0.2,4.6-0.1C55.2,6.4,55.3,6.5,55.3,6.7L55.3,6.7z"/>
				</g>
				<g>
					
						<linearGradient id="SVGID_13_" gradientUnits="userSpaceOnUse" x1="27.0148" y1="3.6176" x2="27.0148" y2="21.8192" gradientTransform="matrix(1 0 0 1 0 3)">
						<stop  offset="0" style="stop-color:#5F5A5E"/>
						<stop  offset="0.2754" style="stop-color:#313035"/>
						<stop  offset="0.5074" style="stop-color:#343338"/>
						<stop  offset="0.6832" style="stop-color:#3E3C40"/>
						<stop  offset="0.8093" style="stop-color:#4A484B"/>
					</linearGradient>
					<path class="st14" d="M25.5,24.8h3.1v-3.7C26.2,23.7,25.5,24.8,25.5,24.8z"/>
				</g>
				<g>
					
						<linearGradient id="SVGID_14_" gradientUnits="userSpaceOnUse" x1="103.9648" y1="34.4847" x2="103.9648" y2="36.9976" gradientTransform="matrix(1 0 0 1 0 3)">
						<stop  offset="0" style="stop-color:#B5B5B5"/>
						<stop  offset="6.168253e-002" style="stop-color:#C2C2C2"/>
						<stop  offset="0.1766" style="stop-color:#E6E6E6"/>
						<stop  offset="0.2119" style="stop-color:#F2F2F2"/>
						<stop  offset="0.5274" style="stop-color:#E8E8E8"/>
						<stop  offset="0.7585" style="stop-color:#DEDEDE"/>
						<stop  offset="0.8255" style="stop-color:#E9E9E9"/>
						<stop  offset="0.9195" style="stop-color:#FFFFFF"/>
						<stop  offset="1" style="stop-color:#FFFFFF"/>
					</linearGradient>
					<path class="st15" d="M135.8,38.8c0,0.7-0.6,1.3-1.3,1.3h-61c-0.7,0-1.3-0.6-1.3-1.3l0,0c0-0.7,0.6-1.3,1.3-1.3h61
						C135.2,37.5,135.8,38.1,135.8,38.8L135.8,38.8z"/>
					<g>
						
							<image style="overflow:visible;enable-background:new    ;" width="271" height="17" xlink:href="Dashboard/Dashboard-V2/Home SVG/7DF8DF2E.png"  transform="matrix(0.2373 0 0 0.1835 71.9136 37.2537)">
						</image>
					</g>
				</g>
				
					<linearGradient id="SVGID_15_" gradientUnits="userSpaceOnUse" x1="22.4798" y1="10.4015" x2="26.4523" y2="14.8508" gradientTransform="matrix(1 0 0 1 0 3)">
					<stop  offset="0" style="stop-color:#A3DFFA"/>
					<stop  offset="1" style="stop-color:#53B8E6"/>
				</linearGradient>
				<path class="st16" d="M33.3,5.5c0,0,0.4,2.9-1.1,4.7C30.6,12,18.8,24.9,18.8,24.9s-1.4,1.3-3.5,0.4L33.3,5.5z"/>
				
					<linearGradient id="SVGID_16_" gradientUnits="userSpaceOnUse" x1="27.9148" y1="18.7341" x2="27.9148" y2="21.8192" gradientTransform="matrix(1 0 0 1 0 3)">
					<stop  offset="0" style="stop-color:#000000"/>
					<stop  offset="1" style="stop-color:#333333"/>
				</linearGradient>
				<path class="st17" d="M28,21.7c0,0-0.4,0.9-0.4,1.2c0,0.4,0,1.3,0,1.3l0.7,0.6L28,21.7z"/>
				<g>
					<g>
						
							<linearGradient id="SVGID_17_" gradientUnits="userSpaceOnUse" x1="30.9051" y1="-17.1098" x2="30.9051" y2="22.6494" gradientTransform="matrix(1 0 0 1 0 3)">
							<stop  offset="0" style="stop-color:#5F5A5E"/>
							<stop  offset="0.2754" style="stop-color:#313035"/>
							<stop  offset="0.4561" style="stop-color:#343338"/>
							<stop  offset="0.5933" style="stop-color:#3E3C41"/>
							<stop  offset="0.7157" style="stop-color:#4E4C50"/>
							<stop  offset="0.8093" style="stop-color:#605D61"/>
						</linearGradient>
						<path class="st18" d="M31.2,24.6c0.1-0.2,0.1-0.4,0.1-0.6l-0.4-4.8c0-0.4-0.1-0.7-0.3-1C30.5,19.2,30.8,20.8,31.2,24.6z"/>
						
							<linearGradient id="SVGID_18_" gradientUnits="userSpaceOnUse" x1="29.6648" y1="14.4301" x2="29.6648" y2="23.1864" gradientTransform="matrix(1 0 0 1 0 3)">
							<stop  offset="0" style="stop-color:#5F5A5E"/>
							<stop  offset="0.2754" style="stop-color:#313035"/>
							<stop  offset="0.5074" style="stop-color:#343338"/>
							<stop  offset="0.6832" style="stop-color:#3E3C40"/>
							<stop  offset="0.8093" style="stop-color:#4A484B"/>
						</linearGradient>
						<path class="st19" d="M29.5,17.5c-0.8,0-1.4,0.8-1.4,1.7v5.1c0,0.9,0.6,1.7,1.4,1.7c0.6,0,1.5-0.9,1.8-1.5
							c-0.4-3.8-0.8-5.3-0.6-6.3C30.4,17.8,30,17.5,29.5,17.5z"/>
					</g>
					
						<linearGradient id="SVGID_19_" gradientUnits="userSpaceOnUse" x1="29.0148" y1="14.8513" x2="29.0148" y2="16.2527" gradientTransform="matrix(1 0 0 1 0 3)">
						<stop  offset="0" style="stop-color:#000000"/>
						<stop  offset="0.2754" style="stop-color:#1F1E21"/>
						<stop  offset="0.4832" style="stop-color:#1C1B1E"/>
						<stop  offset="0.641" style="stop-color:#131214"/>
						<stop  offset="0.7819" style="stop-color:#040404"/>
						<stop  offset="0.8093" style="stop-color:#000000"/>
					</linearGradient>
					<path class="st20" d="M29.8,17.9c0,0-1.2-0.5-1.5,1.4C28.3,19.3,28.6,18.2,29.8,17.9z"/>
				</g>
				<g>
					
						<linearGradient id="SVGID_20_" gradientUnits="userSpaceOnUse" x1="143.931" y1="27.0008" x2="138.1911" y2="27.0008" gradientTransform="matrix(1 0 0 1 0 3)">
						<stop  offset="0" style="stop-color:#D9D9D9"/>
						<stop  offset="7.106286e-003" style="stop-color:#DEDEDE"/>
						<stop  offset="3.417684e-002" style="stop-color:#E9E9E9"/>
						<stop  offset="7.222185e-002" style="stop-color:#F0F0F0"/>
						<stop  offset="0.178" style="stop-color:#F2F2F2"/>
						<stop  offset="0.2097" style="stop-color:#F2F2F2"/>
						<stop  offset="0.4025" style="stop-color:#F2F2F2"/>
						<stop  offset="1" style="stop-color:#FFFFFF"/>
					</linearGradient>
					<path class="st21" d="M144.1,5c0-2.8-2.3-5-5-5h-0.9v60h6V5H144.1z"/>
				</g>
				<ellipse transform="matrix(-0.8913 -0.4534 0.4534 -0.8913 1.8208 70.4148)" class="st22" cx="9.4" cy="35" rx="1.1" ry="1.9"/>
				<path class="st23" d="M6.1,36.5c-0.3,0.6-0.8,0.9-1.1,0.7s-0.4-0.8-0.1-1.3C5.2,35.3,5.7,35,6,35.2C6.4,35.4,6.4,36,6.1,36.5z"
					/>
				<g>
					<path class="st24" d="M8.9,50.6c0,0.4-0.3,0.7-0.7,0.7H4.7C4.3,51.3,4,51,4,50.6l0,0c0-0.4,0.3-0.7,0.7-0.7h3.5
						C8.5,49.9,8.9,50.2,8.9,50.6L8.9,50.6z"/>
					
						<linearGradient id="SVGID_21_" gradientUnits="userSpaceOnUse" x1="5.5925" y1="47.1837" x2="4.1464" y2="46.6116" gradientTransform="matrix(1 0 0 1 0 3)">
						<stop  offset="1.271190e-002" style="stop-color:#FF8000"/>
						<stop  offset="9.902839e-002" style="stop-color:#FF8600"/>
						<stop  offset="0.2117" style="stop-color:#FF9600"/>
						<stop  offset="0.3383" style="stop-color:#FFB100"/>
						<stop  offset="0.4407" style="stop-color:#FFCC00"/>
						<stop  offset="0.7879" style="stop-color:#FFA400"/>
						<stop  offset="1" style="stop-color:#FF8900"/>
					</linearGradient>
					<path class="st25" d="M8.9,50.5c0,0.4-0.3,0.7-0.7,0.7H4.7c-0.4,0-0.7-0.3-0.7-0.7l0,0c0-0.4,0.3-0.7,0.7-0.7h3.5
						C8.5,49.8,8.9,50.1,8.9,50.5L8.9,50.5z"/>
				</g>
				<g>
					
						<image style="overflow:visible;enable-background:new    ;" width="179" height="221" xlink:href="Dashboard/Dashboard-V2/Home SVG/7DF8DF2C.png"  transform="matrix(0.2333 0 0 0.2389 61.6646 4.9036)">
					</image>
				</g>
				<path class="st26" d="M67.9,27.6c1.4,0,2.1,1.1,2.1,2.6v3.5c0,1.4-0.6,2.6-2.1,2.6c-1.4,0-2.1-1.1-2.1-2.6v-3.5
					C65.9,28.7,66.5,27.6,67.9,27.6L67.9,27.6z M67.9,27.3c-1.4,0-2.3,1.1-2.3,2.8v3.5c0,1.7,0.9,2.8,2.3,2.8c1.4,0,2.3-1.1,2.3-2.8
					v-3.5C70.3,28.4,69.4,27.3,67.9,27.3L67.9,27.3z"/>
				
					<linearGradient id="SVGID_22_" gradientUnits="userSpaceOnUse" x1="69.9778" y1="28.9508" x2="65.9068" y2="28.9508" gradientTransform="matrix(1 0 0 1 0 3)">
					<stop  offset="0" style="stop-color:#7D7D7D"/>
					<stop  offset="0.6144" style="stop-color:#3B3B3B"/>
					<stop  offset="1" style="stop-color:#A8A8A8"/>
				</linearGradient>
				<path class="st27" d="M70,33.7c0,1.4-0.6,2.6-2.1,2.6l0,0c-1.4,0-2.1-1.1-2.1-2.6v-3.5c0-1.4,0.6-2.6,2.1-2.6l0,0
					c1.4,0,2.1,1.1,2.1,2.6V33.7z"/>
				<g>
					
						<linearGradient id="SVGID_23_" gradientUnits="userSpaceOnUse" x1="-507.2882" y1="-763.0024" x2="-507.2882" y2="-761.7472" gradientTransform="matrix(3.500000e-003 1 -1 3.500000e-003 -692.6755 541.9575)">
						<stop  offset="0.3093" style="stop-color:#2B2B2B"/>
						<stop  offset="0.7415" style="stop-color:#EBEBEB"/>
						<stop  offset="1" style="stop-color:#999999"/>
					</linearGradient>
					<path class="st28" d="M68,35.8c-0.3,0-0.6-0.2-0.6-0.5v-6.6c0-0.3,0.3-0.5,0.6-0.5l0,0c0.3,0,0.6,0.2,0.6,0.5v6.6
						C68.6,35.5,68.3,35.8,68,35.8L68,35.8z"/>
					
						<radialGradient id="SVGID_24_" cx="-506.7746" cy="-663.4753" r="0.3374" gradientTransform="matrix(0 1 -1.1705 0 -708.696 541.5184)" gradientUnits="userSpaceOnUse">
						<stop  offset="0" style="stop-color:#9E9E9E"/>
						<stop  offset="0.2754" style="stop-color:#FAFAFA"/>
						<stop  offset="0.5042" style="stop-color:#F7F7F7"/>
						<stop  offset="0.663" style="stop-color:#F4F4F4"/>
						<stop  offset="0.7694" style="stop-color:#EBEBEB"/>
						<stop  offset="0.8604" style="stop-color:#DCDCDC"/>
						<stop  offset="0.9424" style="stop-color:#C7C7C7"/>
						<stop  offset="1" style="stop-color:#B3B3B3"/>
					</radialGradient>
					<ellipse class="st29" cx="67.9" cy="34.7" rx="0.4" ry="0.3"/>
				</g>
				<g>
					
						<linearGradient id="SVGID_25_" gradientUnits="userSpaceOnUse" x1="51.365" y1="29.0871" x2="51.365" y2="31.882" gradientTransform="matrix(1 0 0 1 0 3)">
						<stop  offset="0.4025" style="stop-color:#7D7D7D"/>
						<stop  offset="0.7924" style="stop-color:#F2F2F2"/>
						<stop  offset="1" style="stop-color:#A8A8A8"/>
					</linearGradient>
					<path class="st30" d="M47.8,33.5c-0.3,0.8,0.1,1.4,0.9,1.4h4.9c0.8,0,1.5-0.6,1.5-1.4v-1.4h-6.7L47.8,33.5z"/>
					<g>
						<path class="st26" d="M53.6,35h-4.9c-0.4,0-0.8-0.2-1-0.5s-0.2-0.7,0-1.1l0.6-1.5h6.9v1.5C55.2,34.3,54.5,35,53.6,35z
							 M48.4,32.2l-0.6,1.3c-0.1,0.3-0.1,0.6,0,0.9c0.1,0.2,0.4,0.4,0.8,0.4h4.9c0.8,0,1.4-0.6,1.4-1.3v-1.3L48.4,32.2L48.4,32.2z"
							/>
					</g>
					<g>
						
							<linearGradient id="SVGID_26_" gradientUnits="userSpaceOnUse" x1="74.029" y1="59.6123" x2="74.029" y2="60.6224" gradientTransform="matrix(1 -3.500000e-003 3.500000e-003 1 -22.8747 -26.3905)">
							<stop  offset="0" style="stop-color:#999999"/>
							<stop  offset="0.2585" style="stop-color:#EBEBEB"/>
							<stop  offset="0.6907" style="stop-color:#2B2B2B"/>
						</linearGradient>
						<path class="st31" d="M54.5,33.5c0,0.3-0.2,0.5-0.4,0.5h-5.4c-0.2,0-0.4-0.2-0.4-0.5l0,0c0-0.3,0.2-0.5,0.4-0.5h5.4
							C54.3,33,54.5,33.2,54.5,33.5L54.5,33.5z"/>
						
							<radialGradient id="SVGID_27_" cx="76.9154" cy="37.467" r="0.2716" gradientTransform="matrix(1 0 0 1.1705 -23.3138 -10.37)" gradientUnits="userSpaceOnUse">
							<stop  offset="0" style="stop-color:#9E9E9E"/>
							<stop  offset="0.2754" style="stop-color:#FAFAFA"/>
							<stop  offset="0.5042" style="stop-color:#F7F7F7"/>
							<stop  offset="0.663" style="stop-color:#F4F4F4"/>
							<stop  offset="0.7694" style="stop-color:#EBEBEB"/>
							<stop  offset="0.8604" style="stop-color:#DCDCDC"/>
							<stop  offset="0.9424" style="stop-color:#C7C7C7"/>
							<stop  offset="1" style="stop-color:#B3B3B3"/>
						</radialGradient>
						<ellipse class="st32" cx="53.6" cy="33.5" rx="0.3" ry="0.3"/>
					</g>
				</g>
				<g>
					<path class="st24" d="M139.8,49.9c0,0.4-0.3,0.7-0.7,0.7h-3.5c-0.4,0-0.7-0.3-0.7-0.7l0,0c0-0.4,0.3-0.7,0.7-0.7h3.5
						C139.5,49.2,139.8,49.6,139.8,49.9L139.8,49.9z"/>
					
						<linearGradient id="SVGID_28_" gradientUnits="userSpaceOnUse" x1="136.5856" y1="46.5123" x2="135.1398" y2="45.9403" gradientTransform="matrix(1 0 0 1 0 3)">
						<stop  offset="1.271190e-002" style="stop-color:#FF8000"/>
						<stop  offset="9.902839e-002" style="stop-color:#FF8600"/>
						<stop  offset="0.2117" style="stop-color:#FF9600"/>
						<stop  offset="0.3383" style="stop-color:#FFB100"/>
						<stop  offset="0.4407" style="stop-color:#FFCC00"/>
						<stop  offset="0.7879" style="stop-color:#FFA400"/>
						<stop  offset="1" style="stop-color:#FF8900"/>
					</linearGradient>
					<path class="st33" d="M139.8,49.8c0,0.4-0.3,0.7-0.7,0.7h-3.5c-0.4,0-0.7-0.3-0.7-0.7l0,0c0-0.4,0.3-0.7,0.7-0.7h3.5
						C139.5,49.1,139.8,49.4,139.8,49.8L139.8,49.8z"/>
				</g>
				
					<linearGradient id="SVGID_29_" gradientUnits="userSpaceOnUse" x1="74.3148" y1="55.9476" x2="74.3148" y2="58.1753" gradientTransform="matrix(1 0 0 1 0 3)">
					<stop  offset="0" style="stop-color:#5F5A5E"/>
					<stop  offset="0.2754" style="stop-color:#262529"/>
					<stop  offset="0.4762" style="stop-color:#29282C"/>
					<stop  offset="0.6286" style="stop-color:#333135"/>
					<stop  offset="0.7647" style="stop-color:#434144"/>
					<stop  offset="0.8093" style="stop-color:#4A484B"/>
				</linearGradient>
				<rect x="43.5" y="59" class="st34" width="61.7" height="2"/>
				<g>
					
						<linearGradient id="SVGID_30_" gradientUnits="userSpaceOnUse" x1="42.6148" y1="34.4847" x2="42.6148" y2="36.9976" gradientTransform="matrix(1 0 0 1 0 3)">
						<stop  offset="0" style="stop-color:#B5B5B5"/>
						<stop  offset="6.168253e-002" style="stop-color:#C2C2C2"/>
						<stop  offset="0.1766" style="stop-color:#E6E6E6"/>
						<stop  offset="0.2119" style="stop-color:#F2F2F2"/>
						<stop  offset="0.5274" style="stop-color:#E8E8E8"/>
						<stop  offset="0.7585" style="stop-color:#DEDEDE"/>
						<stop  offset="0.8255" style="stop-color:#E9E9E9"/>
						<stop  offset="0.9195" style="stop-color:#FFFFFF"/>
						<stop  offset="1" style="stop-color:#FFFFFF"/>
					</linearGradient>
					<path class="st35" d="M55,38.8c0,0.7-0.6,1.3-1.3,1.3H31.6c-0.7,0-1.3-0.6-1.3-1.3l0,0c0-0.7,0.6-1.3,1.3-1.3h22.1
						C54.4,37.5,55,38.1,55,38.8L55,38.8z"/>
					<g>
						
							<image style="overflow:visible;enable-background:new    ;" width="108" height="17" xlink:href="Dashboard/Dashboard-V2/Home SVG/7DF8DF2B.png"  transform="matrix(0.2333 0 0 0.1835 30.0816 37.2537)">
						</image>
					</g>
				</g>
				<path d="M119.1,45.9c-7.8,0-14.1,6.3-14.1,14.1h28.2C133.2,52.2,126.9,45.9,119.1,45.9z"/>
				
					<radialGradient id="SVGID_31_" cx="119.0371" cy="56.9675" r="12.0972" gradientTransform="matrix(1 0 0 1 0 3)" gradientUnits="userSpaceOnUse">
					<stop  offset="0.6992" style="stop-color:#504E51"/>
					<stop  offset="0.7695" style="stop-color:#494749"/>
					<stop  offset="0.8763" style="stop-color:#343334"/>
					<stop  offset="1" style="stop-color:#141414"/>
				</radialGradient>
				<circle class="st36" cx="119.1" cy="60" r="12.1"/>
				
					<radialGradient id="SVGID_32_" cx="119.0357" cy="56.968" r="7.0559" gradientTransform="matrix(1 0 0 1 0 3)" gradientUnits="userSpaceOnUse">
					<stop  offset="0" style="stop-color:#FFFFFF"/>
					<stop  offset="0.1027" style="stop-color:#DCDCDC"/>
					<stop  offset="0.1904" style="stop-color:#C5C5C5"/>
					<stop  offset="0.2458" style="stop-color:#BDBDBD"/>
					<stop  offset="0.2838" style="stop-color:#C9C9C9"/>
					<stop  offset="0.3662" style="stop-color:#DFDFDF"/>
					<stop  offset="0.4463" style="stop-color:#ECECEC"/>
					<stop  offset="0.5212" style="stop-color:#F0F0F0"/>
					<stop  offset="0.6776" style="stop-color:#F0F0F0"/>
					<stop  offset="0.7034" style="stop-color:#F0F0F0"/>
					<stop  offset="0.8459" style="stop-color:#EEEEEE"/>
					<stop  offset="0.8972" style="stop-color:#E7E7E7"/>
					<stop  offset="0.9338" style="stop-color:#DCDCDC"/>
					<stop  offset="0.9634" style="stop-color:#CBCBCB"/>
					<stop  offset="0.9884" style="stop-color:#B5B5B5"/>
					<stop  offset="1" style="stop-color:#A8A8A8"/>
				</radialGradient>
				<path class="st37" d="M119.1,67c-3.9,0-7.1-3.2-7.1-7.1c0-3.9,3.2-7.1,7.1-7.1s7.1,3.2,7.1,7.1C126.1,63.9,123,67,119.1,67z"/>
				
					<linearGradient id="SVGID_33_" gradientUnits="userSpaceOnUse" x1="113.5505" y1="52.3891" x2="124.6377" y2="61.4604" gradientTransform="matrix(1 0 0 1 0 3)">
					<stop  offset="0" style="stop-color:#FFFFFF"/>
					<stop  offset="7.186784e-002" style="stop-color:#FFFFFF"/>
					<stop  offset="0.5085" style="stop-color:#FFFFFF"/>
					<stop  offset="0.6163" style="stop-color:#FDFDFD"/>
					<stop  offset="0.6627" style="stop-color:#F6F6F6"/>
					<stop  offset="0.6973" style="stop-color:#E9E9E9"/>
					<stop  offset="0.7259" style="stop-color:#D8D8D8"/>
					<stop  offset="0.7508" style="stop-color:#C1C1C1"/>
					<stop  offset="0.7542" style="stop-color:#BDBDBD"/>
					<stop  offset="0.7587" style="stop-color:#C2C2C2"/>
					<stop  offset="0.7817" style="stop-color:#D9D9D9"/>
					<stop  offset="0.8086" style="stop-color:#EAEAEA"/>
					<stop  offset="0.8414" style="stop-color:#F6F6F6"/>
					<stop  offset="0.8864" style="stop-color:#FDFDFD"/>
					<stop  offset="1" style="stop-color:#FFFFFF"/>
				</linearGradient>
				<path class="st38" d="M119.1,67c-3.9,0-7.1-3.2-7.1-7.1c0-3.9,3.2-7.1,7.1-7.1s7.1,3.2,7.1,7.1C126.1,63.9,123,67,119.1,67z"/>
				<circle class="st8" cx="119.1" cy="60" r="2"/>
			</g>
			
				<linearGradient id="SVGID_34_" gradientUnits="userSpaceOnUse" x1="140.5648" y1="33.8008" x2="144.0726" y2="33.8008" gradientTransform="matrix(1 0 0 1 0 3)">
				<stop  offset="0" style="stop-color:#DB2A24"/>
				<stop  offset="1" style="stop-color:#FF6963"/>
			</linearGradient>
			<path class="st39" d="M140.6,32.4v8.8c0,1.9,1.6,3.5,3.5,3.5V28.9C142.2,28.9,140.6,30.4,140.6,32.4z"/>
			
				<linearGradient id="SVGID_35_" gradientUnits="userSpaceOnUse" x1="141.478" y1="33.7508" x2="144.0699" y2="33.7508" gradientTransform="matrix(1 0 0 1 0 3)">
				<stop  offset="0" style="stop-color:#AB0700"/>
				<stop  offset="0.1706" style="stop-color:#7D0500"/>
				<stop  offset="0.3606" style="stop-color:#500300"/>
				<stop  offset="0.5439" style="stop-color:#2D0200"/>
				<stop  offset="0.7161" style="stop-color:#140100"/>
				<stop  offset="0.8728" style="stop-color:#050000"/>
				<stop  offset="1" style="stop-color:#000000"/>
			</linearGradient>
			<path class="st40" d="M141.5,33.5V40c0,1.4,1.2,3.6,2.6,3.6V29.9C142.7,29.9,141.5,32.1,141.5,33.5z"/>
			
				<linearGradient id="SVGID_36_" gradientUnits="userSpaceOnUse" x1="142.19" y1="30.6008" x2="143.8326" y2="30.6008" gradientTransform="matrix(1 0 0 1 0 3)">
				<stop  offset="0" style="stop-color:#000000"/>
				<stop  offset="0.1004" style="stop-color:#050202"/>
				<stop  offset="0.2242" style="stop-color:#140808"/>
				<stop  offset="0.3603" style="stop-color:#2D1312"/>
				<stop  offset="0.5052" style="stop-color:#50211F"/>
				<stop  offset="0.6571" style="stop-color:#7D3431"/>
				<stop  offset="0.8149" style="stop-color:#B44A46"/>
				<stop  offset="0.9747" style="stop-color:#F4655F"/>
				<stop  offset="1" style="stop-color:#FF6963"/>
			</linearGradient>
			<path class="st41" d="M143.9,33.6c0,0.1-0.1,0.2-0.2,0.2h-1.3c-0.1,0-0.2-0.1-0.2-0.2l0,0c0-0.1,0.1-0.2,0.2-0.2h1.3
				C143.8,33.4,143.9,33.5,143.9,33.6L143.9,33.6z"/>
			
				<linearGradient id="SVGID_37_" gradientUnits="userSpaceOnUse" x1="142.19" y1="31.6008" x2="143.8326" y2="31.6008" gradientTransform="matrix(1 0 0 1 0 3)">
				<stop  offset="0" style="stop-color:#000000"/>
				<stop  offset="0.1004" style="stop-color:#050202"/>
				<stop  offset="0.2242" style="stop-color:#140808"/>
				<stop  offset="0.3603" style="stop-color:#2D1312"/>
				<stop  offset="0.5052" style="stop-color:#50211F"/>
				<stop  offset="0.6571" style="stop-color:#7D3431"/>
				<stop  offset="0.8149" style="stop-color:#B44A46"/>
				<stop  offset="0.9747" style="stop-color:#F4655F"/>
				<stop  offset="1" style="stop-color:#FF6963"/>
			</linearGradient>
			<path class="st42" d="M143.9,34.6c0,0.1-0.1,0.2-0.2,0.2h-1.3c-0.1,0-0.2-0.1-0.2-0.2l0,0c0-0.1,0.1-0.2,0.2-0.2h1.3
				C143.8,34.5,143.9,34.5,143.9,34.6L143.9,34.6z"/>
			
				<linearGradient id="SVGID_38_" gradientUnits="userSpaceOnUse" x1="142.19" y1="32.7008" x2="143.8326" y2="32.7008" gradientTransform="matrix(1 0 0 1 0 3)">
				<stop  offset="0" style="stop-color:#000000"/>
				<stop  offset="0.1004" style="stop-color:#050202"/>
				<stop  offset="0.2242" style="stop-color:#140808"/>
				<stop  offset="0.3603" style="stop-color:#2D1312"/>
				<stop  offset="0.5052" style="stop-color:#50211F"/>
				<stop  offset="0.6571" style="stop-color:#7D3431"/>
				<stop  offset="0.8149" style="stop-color:#B44A46"/>
				<stop  offset="0.9747" style="stop-color:#F4655F"/>
				<stop  offset="1" style="stop-color:#FF6963"/>
			</linearGradient>
			<path class="st43" d="M143.9,35.7c0,0.1-0.1,0.2-0.2,0.2h-1.3c-0.1,0-0.2-0.1-0.2-0.2l0,0c0-0.1,0.1-0.2,0.2-0.2h1.3
				C143.8,35.5,143.9,35.6,143.9,35.7L143.9,35.7z"/>
			
				<linearGradient id="SVGID_39_" gradientUnits="userSpaceOnUse" x1="142.19" y1="33.8008" x2="143.8326" y2="33.8008" gradientTransform="matrix(1 0 0 1 0 3)">
				<stop  offset="0" style="stop-color:#000000"/>
				<stop  offset="0.1004" style="stop-color:#050202"/>
				<stop  offset="0.2242" style="stop-color:#140808"/>
				<stop  offset="0.3603" style="stop-color:#2D1312"/>
				<stop  offset="0.5052" style="stop-color:#50211F"/>
				<stop  offset="0.6571" style="stop-color:#7D3431"/>
				<stop  offset="0.8149" style="stop-color:#B44A46"/>
				<stop  offset="0.9747" style="stop-color:#F4655F"/>
				<stop  offset="1" style="stop-color:#FF6963"/>
			</linearGradient>
			<path class="st44" d="M143.9,36.8c0,0.1-0.1,0.2-0.2,0.2h-1.3c-0.1,0-0.2-0.1-0.2-0.2l0,0c0-0.1,0.1-0.2,0.2-0.2h1.3
				C143.8,36.6,143.9,36.7,143.9,36.8L143.9,36.8z"/>
			
				<linearGradient id="SVGID_40_" gradientUnits="userSpaceOnUse" x1="142.19" y1="34.9008" x2="143.8326" y2="34.9008" gradientTransform="matrix(1 0 0 1 0 3)">
				<stop  offset="0" style="stop-color:#000000"/>
				<stop  offset="0.1004" style="stop-color:#050202"/>
				<stop  offset="0.2242" style="stop-color:#140808"/>
				<stop  offset="0.3603" style="stop-color:#2D1312"/>
				<stop  offset="0.5052" style="stop-color:#50211F"/>
				<stop  offset="0.6571" style="stop-color:#7D3431"/>
				<stop  offset="0.8149" style="stop-color:#B44A46"/>
				<stop  offset="0.9747" style="stop-color:#F4655F"/>
				<stop  offset="1" style="stop-color:#FF6963"/>
			</linearGradient>
			<path class="st45" d="M143.9,37.9c0,0.1-0.1,0.2-0.2,0.2h-1.3c-0.1,0-0.2-0.1-0.2-0.2l0,0c0-0.1,0.1-0.2,0.2-0.2h1.3
				C143.8,37.7,143.9,37.8,143.9,37.9L143.9,37.9z"/>
			
				<linearGradient id="SVGID_41_" gradientUnits="userSpaceOnUse" x1="142.19" y1="35.9008" x2="143.8326" y2="35.9008" gradientTransform="matrix(1 0 0 1 0 3)">
				<stop  offset="0" style="stop-color:#000000"/>
				<stop  offset="0.1004" style="stop-color:#050202"/>
				<stop  offset="0.2242" style="stop-color:#140808"/>
				<stop  offset="0.3603" style="stop-color:#2D1312"/>
				<stop  offset="0.5052" style="stop-color:#50211F"/>
				<stop  offset="0.6571" style="stop-color:#7D3431"/>
				<stop  offset="0.8149" style="stop-color:#B44A46"/>
				<stop  offset="0.9747" style="stop-color:#F4655F"/>
				<stop  offset="1" style="stop-color:#FF6963"/>
			</linearGradient>
			<path class="st46" d="M143.9,38.9c0,0.1-0.1,0.2-0.2,0.2h-1.3c-0.1,0-0.2-0.1-0.2-0.2l0,0c0-0.1,0.1-0.2,0.2-0.2h1.3
				C143.8,38.7,143.9,38.8,143.9,38.9L143.9,38.9z"/>
			
				<linearGradient id="SVGID_42_" gradientUnits="userSpaceOnUse" x1="142.1705" y1="33.3008" x2="144.0705" y2="33.3008" gradientTransform="matrix(1 0 0 1 0 3)">
				<stop  offset="0" style="stop-color:#000000"/>
				<stop  offset="0.1004" style="stop-color:#050202"/>
				<stop  offset="0.2242" style="stop-color:#140808"/>
				<stop  offset="0.3603" style="stop-color:#2D1312"/>
				<stop  offset="0.5052" style="stop-color:#50211F"/>
				<stop  offset="0.6571" style="stop-color:#7D3431"/>
				<stop  offset="0.8149" style="stop-color:#B44A46"/>
				<stop  offset="0.9747" style="stop-color:#F4655F"/>
				<stop  offset="1" style="stop-color:#FF6963"/>
			</linearGradient>
			<path class="st47" d="M142.2,34.4v3.8c0,1,0.9,1.9,1.9,1.9v-7.6C143.1,32.5,142.2,33.3,142.2,34.4z"/>
		</g>
	</g>
</g>
</svg>
