<?xml version="1.0" encoding="utf-8"?>
<!-- Generator: Adobe Illustrator 19.0.0, SVG Export Plug-In . SVG Version: 6.00 Build 0)  -->
<svg version="1.1" id="Layer_1" xmlns="http://www.w3.org/2000/svg" xmlns:xlink="http://www.w3.org/1999/xlink" x="0px" y="0px"
	 viewBox="0 0 332.3 372.3" style="enable-background:new 0 0 332.3 372.3;" xml:space="preserve">
<style type="text/css">
	.st0{fill:#592D0D;}
	.st1{fill:#4A250A;}
	.st2{fill:#B2D8DE;}
	.st3{fill:#E0AC7E;}
	.st4{fill:#F2C196;}
	.st5{fill:#EBB688;}
	.st6{fill:#FF3705;}
	.st7{fill:#FF5527;}
	.st8{fill:#F0FAFC;}
	.st9{fill:#096385;}
	.st10{fill:#08426A;}
	.st11{fill:#0174A3;}
	.st12{fill:#0B5975;}
	.st13{fill:#0A6D94;}
</style>
<g>
	<g>
		<path id="XMLID_53_" class="st0" d="M191.6,50.4c1-10.9,4.7-21.8,2.1-31.7c-6.2-14-34.8-20.8-48.3-18.2
			c-8.8,14.5-5.2,32.2-3.6,48.8L191.6,50.4z"/>
		<path id="XMLID_52_" class="st1" d="M166.1,49.9V1.6c11.9,2.6,23.4,8.3,27,17.1c2.6,9.9-1,21.3-2.1,31.7L166.1,49.9z"/>
		<path id="XMLID_51_" class="st2" d="M166.1,150.6c7.8,0,15.1,0,22.3-1v-68l-2.6-1c-5.7-2.6-12.5-5.2-19.7-6.2V150.6z"/>
		<path id="XMLID_50_" class="st2" d="M166.1,150.6c-7.8,0-15.1,0-22.3-1v-68l2.6-1c5.7-2.6,12.5-5.2,19.7-6.2V150.6z"/>
		<path id="XMLID_49_" class="st3" d="M150.1,61.3h32.2v19.2c-10.9,8.3-21.3,8.8-32.2,0V61.3z"/>
		<path id="XMLID_48_" class="st4" d="M152.6,21.3c-4.7-1-8.8,3.6-9.9,8.3c-0.5,4.2-1,8.3-1.6,13c0,0,0.5,0-0.5,0
			c-1,0-4.2,0.5-3.6,4.7c0,3.1,2.6,11.4,6.2,10.4c4.7,13,11.4,20.8,22.3,23.4c0-0.5,0.5,0,0.5,0V23.4
			C162,22.9,157.8,22.4,152.6,21.3z"/>
		<path id="XMLID_47_" class="st5" d="M179.6,21.3c4.7-1,8.8,3.6,9.9,8.3c0.5,4.2,1,8.3,1.6,13c0,0-0.5,0,0.5,0c1,0,4.2,0.5,3.6,4.7
			c0,3.1-2.6,11.4-6.2,10.4c-5.2,13.5-11.9,20.8-22.8,23.4V23.4C170.3,22.9,175,22.4,179.6,21.3z"/>
		<polygon id="XMLID_46_" class="st6" points="166.1,86.7 171.3,86.7 169.3,95.6 166.1,95.6 166.1,95.6 163,95.6 160.4,86.7 		"/>
		<polygon id="XMLID_45_" class="st7" points="169.3,95.6 171.3,128.3 166.1,138.1 160.4,128.3 163,95.6 		"/>
		<path id="XMLID_44_" class="st8" d="M166.1,86.7l-9.3,9.3l-10.4-15.6l4.2-2.1C153.7,82.6,159.4,85.2,166.1,86.7z"/>
		<path id="XMLID_43_" class="st9" d="M166.1,137.1l-23.4-55c-20.8,8.8-34.3,16.1-36.9,42.6c9.3,17.1,32.2,30.6,59.7,30.6v-18.2
			H166.1z"/>
		<path id="XMLID_42_" class="st10" d="M125.1,143.9c1,0.5,1.6,1,2.6,1.6v-10.9L125.1,143.9z"/>
		<polygon id="XMLID_41_" class="st11" points="166.1,137.1 166.1,151.1 144.3,112.2 150.6,104.4 140.7,101.3 136.6,84.7 146.9,80 
					"/>
		<path id="XMLID_40_" class="st8" d="M166.1,86.7l9.3,9.3l10.4-15.6l-4.2-2.1C178.1,82.6,172.9,85.2,166.1,86.7z"/>
		<path id="XMLID_39_" class="st12" d="M166.1,137.1l23.4-55c20.8,8.8,34.3,16.1,36.9,42.6c-9.3,17.1-32.2,30.6-59.7,30.6v-18.2
			H166.1z"/>
		<path id="XMLID_38_" class="st10" d="M206.6,143.9c-1,0.5-1.6,1-2.6,1.6v-10.9L206.6,143.9z"/>
		<polygon id="XMLID_37_" class="st13" points="166.1,137.1 166.1,151.1 188,112.2 181.2,104.4 191.1,101.3 195.7,84.7 185.4,80.5 
					"/>
	</g>
	<g>
		<g>
			<path id="XMLID_36_" class="st0" d="M85.7,266.9c1-10.9,4.7-21.8,2.1-31.7c-6.2-14-34.8-20.8-48.3-18.2
				c-8.8,14.5-5.2,32.2-3.6,48.8L85.7,266.9z"/>
			<path id="XMLID_35_" class="st1" d="M60.7,266.4v-48.3c11.9,2.6,23.4,8.3,27,17.1c2.6,9.9-1,21.3-2.1,31.7L60.7,266.4z"/>
			<path id="XMLID_34_" class="st2" d="M60.2,367.1c7.8,0,15.1,0,22.3-1v-68l-2.6-1c-5.7-2.6-12.5-5.2-19.7-6.2V367.1z"/>
			<path id="XMLID_33_" class="st2" d="M60.2,367.1c-7.8,0-15.1,0-22.3-1v-68l2.6-1c5.7-2.6,12.5-5.2,19.7-6.2V367.1z"/>
			<path id="XMLID_32_" class="st3" d="M44.1,277.8h32.2V297c-10.9,8.3-21.3,8.8-32.2,0V277.8z"/>
			<path id="XMLID_31_" class="st4" d="M46.7,237.8c-4.7-1-8.8,3.6-9.9,8.3c-0.5,4.2-1,8.3-1.6,13c0,0,0.5,0-0.5,0
				c-1,0-4.2,0.5-3.6,4.7c0,3.1,2.6,11.4,6.2,10.4c5.2,13,11.4,20.8,22.3,23.4c0-0.5,0.5,0,0.5,0v-57.6
				C56.1,239.4,51.9,238.9,46.7,237.8z"/>
			<path id="XMLID_30_" class="st5" d="M73.7,237.8c4.7-1,8.8,3.6,9.9,8.3c0.5,4.2,1,8.3,1.6,13c0,0-0.5,0,0.5,0
				c1,0,4.2,0.5,3.6,4.7c0,3.1-2.6,11.4-6.2,10.4c-5.2,13.5-11.9,20.8-22.8,23.4v-57.6C64.4,239.4,69.1,238.9,73.7,237.8z"/>
			<polygon id="XMLID_29_" class="st6" points="60.2,303.8 65.4,303.8 63.3,312.1 60.2,312.1 60.2,312.1 57.1,312.1 54.5,303.8 			
				"/>
			<polygon id="XMLID_28_" class="st7" points="63.3,312.1 65.4,344.8 60.2,354.7 54.5,344.8 57.1,312.1 			"/>
			<path id="XMLID_27_" class="st8" d="M60.2,303.8l-9.3,9.3l-10.4-15.6l4.2-2.1C47.8,299.1,53.5,302.2,60.2,303.8z"/>
			<path id="XMLID_26_" class="st9" d="M60.2,354.1l-23.4-55C16.1,307.9,2.6,315.2,0,341.7c9.3,17.1,32.2,30.6,59.7,30.6v-18.2H60.2
				z"/>
			<path id="XMLID_25_" class="st10" d="M19.2,360.4c1,0.5,1.6,1,2.6,1.6V351L19.2,360.4z"/>
			<polygon id="XMLID_24_" class="st11" points="60.2,354.1 60.2,368.2 38.4,329.2 44.7,320.9 34.8,317.8 30.6,301.7 41,297 			"/>
			<path id="XMLID_23_" class="st8" d="M60.2,303.8l9.3,9.3L80,297.5l-4.2-2.1C72.2,299.1,67,302.2,60.2,303.8z"/>
			<path id="XMLID_22_" class="st12" d="M60.2,354.1l23.4-55c20.8,8.8,34.3,16.1,36.9,42.6c-9.3,17.1-32.2,30.6-59.7,30.6v-18.2
				H60.2z"/>
			<path id="XMLID_21_" class="st10" d="M100.7,360.4c-1,0.5-1.6,1-2.6,1.6V351L100.7,360.4z"/>
			<polygon id="XMLID_20_" class="st13" points="60.2,354.1 60.2,368.2 82,329.2 75.3,320.9 85.2,317.8 89.8,301.7 79.4,297 			"/>
		</g>
		<g>
			<path id="XMLID_19_" class="st0" d="M297.5,266.9c1-10.9,4.7-21.8,2.1-31.7c-6.2-14-34.8-20.8-48.3-18.2
				c-8.8,14.5-5.2,32.2-3.6,48.8L297.5,266.9z"/>
			<path id="XMLID_18_" class="st1" d="M272.1,266.4v-48.3c11.9,2.6,23.4,8.3,27,17.1c2.6,9.9-1,21.3-2.1,31.7L272.1,266.4z"/>
			<path id="XMLID_17_" class="st2" d="M272.1,367.1c7.8,0,15.1,0,22.3-1v-68l-2.6-1c-5.7-2.6-12.5-5.2-19.7-6.2V367.1z"/>
			<path id="XMLID_16_" class="st2" d="M272.1,367.1c-7.8,0-15.1,0-22.3-1v-68l2.6-1c5.7-2.6,12.5-5.2,19.7-6.2V367.1z"/>
			<path id="XMLID_15_" class="st3" d="M256,277.8h32.2V297c-10.9,8.3-21.3,8.8-32.2,0V277.8z"/>
			<path id="XMLID_14_" class="st4" d="M258.6,237.8c-4.7-1-8.8,3.6-9.9,8.3c-0.5,4.2-1,8.3-1.6,13c0,0,0.5,0-0.5,0
				c-1,0-4.2,0.5-3.6,4.7c0,3.1,2.6,11.4,6.2,10.4c5.2,13,11.4,20.8,22.3,23.4c0-0.5,0.5,0,0.5,0v-57.6
				C267.9,239.4,263.8,238.9,258.6,237.8z"/>
			<path id="XMLID_13_" class="st5" d="M285.6,237.8c4.7-1,8.8,3.6,9.9,8.3c0.5,4.2,1,8.3,1.6,13c0,0-0.5,0,0.5,0
				c1,0,4.2,0.5,3.6,4.7c0,3.1-2.6,11.4-6.2,10.4c-5.2,13.5-11.9,20.8-22.8,23.4v-57.6C276.2,239.4,280.4,238.9,285.6,237.8z"/>
			<polygon id="XMLID_12_" class="st6" points="272.1,303.8 277.3,303.8 275.2,312.1 272.1,312.1 272.1,312.1 268.4,312.1 
				266.4,303.8 			"/>
			<polygon id="XMLID_11_" class="st7" points="275.2,312.1 277.3,344.8 272.1,354.7 266.4,344.8 268.4,312.1 			"/>
			<path id="XMLID_10_" class="st8" d="M272.1,303.8l-9.3,9.3l-10.4-15.6l4.2-2.1C259.6,299.1,265.3,302.2,272.1,303.8z"/>
			<path id="XMLID_9_" class="st9" d="M272.1,354.1l-23.4-55c-20.8,8.8-34.3,16.1-36.9,42.6c9.3,17.1,32.2,30.6,59.7,30.6v-18.2
				H272.1z"/>
			<path id="XMLID_8_" class="st10" d="M231.1,360.4c1,0.5,1.6,1,2.6,1.6V351L231.1,360.4z"/>
			<polygon id="XMLID_7_" class="st11" points="272.1,354.1 272.1,368.2 250.3,329.2 256.5,320.9 246.6,317.8 242.5,301.7 
				252.9,297 			"/>
			<path id="XMLID_6_" class="st8" d="M272.1,303.8l9.3,9.3l10.4-15.6l-4.2-2.1C284,299.1,278.3,302.2,272.1,303.8z"/>
			<path id="XMLID_5_" class="st12" d="M272.1,354.1l23.4-55c20.8,8.8,34.3,16.1,36.9,42.6c-9.3,17.1-32.2,30.6-59.7,30.6v-18.2
				H272.1z"/>
			<path id="XMLID_4_" class="st10" d="M312.6,360.4c-1,0.5-1.6,1-2.6,1.6V351L312.6,360.4z"/>
			<polygon id="XMLID_3_" class="st13" points="272.1,354.1 272.1,368.2 293.4,329.2 287.1,320.9 297,317.8 301.7,301.7 291.3,297 
							"/>
		</g>
	</g>
	<path id="XMLID_2_" class="st7" d="M72.7,184.9c8.3-14.5,19.2-27,32.7-36.3c2.1,3.1,4.2,6.2,6.7,9.3c-11.9,8.3-22.3,19.2-29.6,32.2
		l3.6,2.1l-19.7,17.7l2.1-27L72.7,184.9z"/>
	<path id="XMLID_1_" class="st7" d="M261.2,184.9c-8.3-14.5-19.2-27-32.7-36.3c-2.1,3.1-4.2,6.2-6.7,9.3
		c11.9,8.3,22.3,19.2,29.6,32.2l-3.6,2.1l19.7,17.7l-2.1-27L261.2,184.9z"/>
</g>
</svg>
